{
	"patcher" : 	{
		"fileversion" : 1,
		"appversion" : 		{
			"major" : 7,
			"minor" : 3,
			"revision" : 4,
			"architecture" : "x64",
			"modernui" : 1
		}
,
		"rect" : [ 32.0, 124.0, 971.0, 156.0 ],
		"bgcolor" : [ 0.9, 0.9, 0.9, 1.0 ],
		"bglocked" : 0,
		"openinpresentation" : 0,
		"default_fontsize" : 11.0,
		"default_fontface" : 0,
		"default_fontname" : "Arial",
		"gridonopen" : 2,
		"gridsize" : [ 10.0, 10.0 ],
		"gridsnaponopen" : 2,
		"objectsnaponopen" : 1,
		"statusbarvisible" : 2,
		"toolbarvisible" : 0,
		"lefttoolbarpinned" : 0,
		"toptoolbarpinned" : 0,
		"righttoolbarpinned" : 0,
		"bottomtoolbarpinned" : 0,
		"toolbars_unpinned_last_save" : 15,
		"tallnewobj" : 0,
		"boxanimatetime" : 200,
		"enablehscroll" : 1,
		"enablevscroll" : 1,
		"devicewidth" : 0.0,
		"description" : "",
		"digest" : "",
		"tags" : "",
		"style" : "",
		"subpatcher_template" : "",
		"boxes" : [ 			{
				"box" : 				{
					"id" : "obj-1673",
					"maxclass" : "newobj",
					"numinlets" : 64,
					"numoutlets" : 64,
					"outlettype" : [ "", "", "", "", "", "", "", "", "", "", "", "", "", "", "", "", "", "", "", "", "", "", "", "", "", "", "", "", "", "", "", "", "", "", "", "", "", "", "", "", "", "", "", "", "", "", "", "", "", "", "", "", "", "", "", "", "", "", "", "", "", "", "", "" ],
					"patching_rect" : [ 12.522676, 100.0, 900.977295, 21.0 ],
					"style" : "",
					"text" : "spat5.thru64~"
				}

			}
, 			{
				"box" : 				{
					"id" : "obj-1672",
					"linecount" : 2,
					"maxclass" : "comment",
					"numinlets" : 1,
					"numoutlets" : 0,
					"patching_rect" : [ 12.976191, 10.0, 432.0, 31.0 ],
					"style" : "",
					"text" : "This patcher just contains 64 tiny inlets, properly labelled with a comment \"inlet #\". \nThe idea is that you can copy/paster this section and use it in your patchers..."
				}

			}
, 			{
				"box" : 				{
					"comment" : "input #1",
					"id" : "obj-1416",
					"index" : 0,
					"maxclass" : "inlet",
					"numinlets" : 0,
					"numoutlets" : 1,
					"outlettype" : [ "" ],
					"patching_rect" : [ 14.0, 70.0, 14.0, 14.0 ],
					"style" : ""
				}

			}
, 			{
				"box" : 				{
					"comment" : "input #2",
					"id" : "obj-1418",
					"index" : 0,
					"maxclass" : "inlet",
					"numinlets" : 0,
					"numoutlets" : 1,
					"outlettype" : [ "" ],
					"patching_rect" : [ 28.0, 70.0, 14.0, 14.0 ],
					"style" : ""
				}

			}
, 			{
				"box" : 				{
					"comment" : "input #3",
					"id" : "obj-1420",
					"index" : 0,
					"maxclass" : "inlet",
					"numinlets" : 0,
					"numoutlets" : 1,
					"outlettype" : [ "" ],
					"patching_rect" : [ 42.0, 70.0, 14.0, 14.0 ],
					"style" : ""
				}

			}
, 			{
				"box" : 				{
					"comment" : "input #4",
					"id" : "obj-1422",
					"index" : 0,
					"maxclass" : "inlet",
					"numinlets" : 0,
					"numoutlets" : 1,
					"outlettype" : [ "" ],
					"patching_rect" : [ 56.0, 70.0, 14.0, 14.0 ],
					"style" : ""
				}

			}
, 			{
				"box" : 				{
					"comment" : "input #5",
					"id" : "obj-1424",
					"index" : 0,
					"maxclass" : "inlet",
					"numinlets" : 0,
					"numoutlets" : 1,
					"outlettype" : [ "" ],
					"patching_rect" : [ 70.0, 70.0, 14.0, 14.0 ],
					"style" : ""
				}

			}
, 			{
				"box" : 				{
					"comment" : "input #6",
					"id" : "obj-1426",
					"index" : 0,
					"maxclass" : "inlet",
					"numinlets" : 0,
					"numoutlets" : 1,
					"outlettype" : [ "" ],
					"patching_rect" : [ 84.0, 70.0, 14.0, 14.0 ],
					"style" : ""
				}

			}
, 			{
				"box" : 				{
					"comment" : "input #7",
					"id" : "obj-1428",
					"index" : 0,
					"maxclass" : "inlet",
					"numinlets" : 0,
					"numoutlets" : 1,
					"outlettype" : [ "" ],
					"patching_rect" : [ 98.0, 70.0, 14.0, 14.0 ],
					"style" : ""
				}

			}
, 			{
				"box" : 				{
					"comment" : "input #8",
					"id" : "obj-1430",
					"index" : 0,
					"maxclass" : "inlet",
					"numinlets" : 0,
					"numoutlets" : 1,
					"outlettype" : [ "" ],
					"patching_rect" : [ 112.0, 70.0, 14.0, 14.0 ],
					"style" : ""
				}

			}
, 			{
				"box" : 				{
					"comment" : "input #9",
					"id" : "obj-1432",
					"index" : 0,
					"maxclass" : "inlet",
					"numinlets" : 0,
					"numoutlets" : 1,
					"outlettype" : [ "" ],
					"patching_rect" : [ 126.0, 70.0, 14.0, 14.0 ],
					"style" : ""
				}

			}
, 			{
				"box" : 				{
					"comment" : "input #10",
					"id" : "obj-1434",
					"index" : 0,
					"maxclass" : "inlet",
					"numinlets" : 0,
					"numoutlets" : 1,
					"outlettype" : [ "" ],
					"patching_rect" : [ 140.0, 70.0, 14.0, 14.0 ],
					"style" : ""
				}

			}
, 			{
				"box" : 				{
					"comment" : "input #11",
					"id" : "obj-1436",
					"index" : 0,
					"maxclass" : "inlet",
					"numinlets" : 0,
					"numoutlets" : 1,
					"outlettype" : [ "" ],
					"patching_rect" : [ 154.0, 70.0, 14.0, 14.0 ],
					"style" : ""
				}

			}
, 			{
				"box" : 				{
					"comment" : "input #12",
					"id" : "obj-1438",
					"index" : 0,
					"maxclass" : "inlet",
					"numinlets" : 0,
					"numoutlets" : 1,
					"outlettype" : [ "" ],
					"patching_rect" : [ 168.0, 70.0, 14.0, 14.0 ],
					"style" : ""
				}

			}
, 			{
				"box" : 				{
					"comment" : "input #13",
					"id" : "obj-1440",
					"index" : 0,
					"maxclass" : "inlet",
					"numinlets" : 0,
					"numoutlets" : 1,
					"outlettype" : [ "" ],
					"patching_rect" : [ 182.0, 70.0, 14.0, 14.0 ],
					"style" : ""
				}

			}
, 			{
				"box" : 				{
					"comment" : "input #14",
					"id" : "obj-1442",
					"index" : 0,
					"maxclass" : "inlet",
					"numinlets" : 0,
					"numoutlets" : 1,
					"outlettype" : [ "" ],
					"patching_rect" : [ 196.0, 70.0, 14.0, 14.0 ],
					"style" : ""
				}

			}
, 			{
				"box" : 				{
					"comment" : "input #15",
					"id" : "obj-1444",
					"index" : 0,
					"maxclass" : "inlet",
					"numinlets" : 0,
					"numoutlets" : 1,
					"outlettype" : [ "" ],
					"patching_rect" : [ 210.0, 70.0, 14.0, 14.0 ],
					"style" : ""
				}

			}
, 			{
				"box" : 				{
					"comment" : "input #16",
					"id" : "obj-1446",
					"index" : 0,
					"maxclass" : "inlet",
					"numinlets" : 0,
					"numoutlets" : 1,
					"outlettype" : [ "" ],
					"patching_rect" : [ 224.0, 70.0, 14.0, 14.0 ],
					"style" : ""
				}

			}
, 			{
				"box" : 				{
					"comment" : "input #17",
					"id" : "obj-1448",
					"index" : 0,
					"maxclass" : "inlet",
					"numinlets" : 0,
					"numoutlets" : 1,
					"outlettype" : [ "" ],
					"patching_rect" : [ 238.0, 70.0, 14.0, 14.0 ],
					"style" : ""
				}

			}
, 			{
				"box" : 				{
					"comment" : "input #18",
					"id" : "obj-1450",
					"index" : 0,
					"maxclass" : "inlet",
					"numinlets" : 0,
					"numoutlets" : 1,
					"outlettype" : [ "" ],
					"patching_rect" : [ 252.0, 70.0, 14.0, 14.0 ],
					"style" : ""
				}

			}
, 			{
				"box" : 				{
					"comment" : "input #19",
					"id" : "obj-1452",
					"index" : 0,
					"maxclass" : "inlet",
					"numinlets" : 0,
					"numoutlets" : 1,
					"outlettype" : [ "" ],
					"patching_rect" : [ 266.0, 70.0, 14.0, 14.0 ],
					"style" : ""
				}

			}
, 			{
				"box" : 				{
					"comment" : "input #20",
					"id" : "obj-1454",
					"index" : 0,
					"maxclass" : "inlet",
					"numinlets" : 0,
					"numoutlets" : 1,
					"outlettype" : [ "" ],
					"patching_rect" : [ 280.0, 70.0, 14.0, 14.0 ],
					"style" : ""
				}

			}
, 			{
				"box" : 				{
					"comment" : "input #21",
					"id" : "obj-1456",
					"index" : 0,
					"maxclass" : "inlet",
					"numinlets" : 0,
					"numoutlets" : 1,
					"outlettype" : [ "" ],
					"patching_rect" : [ 294.0, 70.0, 14.0, 14.0 ],
					"style" : ""
				}

			}
, 			{
				"box" : 				{
					"comment" : "input #22",
					"id" : "obj-1458",
					"index" : 0,
					"maxclass" : "inlet",
					"numinlets" : 0,
					"numoutlets" : 1,
					"outlettype" : [ "" ],
					"patching_rect" : [ 308.0, 70.0, 14.0, 14.0 ],
					"style" : ""
				}

			}
, 			{
				"box" : 				{
					"comment" : "input #23",
					"id" : "obj-1460",
					"index" : 0,
					"maxclass" : "inlet",
					"numinlets" : 0,
					"numoutlets" : 1,
					"outlettype" : [ "" ],
					"patching_rect" : [ 322.0, 70.0, 14.0, 14.0 ],
					"style" : ""
				}

			}
, 			{
				"box" : 				{
					"comment" : "input #24",
					"id" : "obj-1462",
					"index" : 0,
					"maxclass" : "inlet",
					"numinlets" : 0,
					"numoutlets" : 1,
					"outlettype" : [ "" ],
					"patching_rect" : [ 336.0, 70.0, 14.0, 14.0 ],
					"style" : ""
				}

			}
, 			{
				"box" : 				{
					"comment" : "input #25",
					"id" : "obj-1464",
					"index" : 0,
					"maxclass" : "inlet",
					"numinlets" : 0,
					"numoutlets" : 1,
					"outlettype" : [ "" ],
					"patching_rect" : [ 350.0, 70.0, 14.0, 14.0 ],
					"style" : ""
				}

			}
, 			{
				"box" : 				{
					"comment" : "input #26",
					"id" : "obj-1466",
					"index" : 0,
					"maxclass" : "inlet",
					"numinlets" : 0,
					"numoutlets" : 1,
					"outlettype" : [ "" ],
					"patching_rect" : [ 364.0, 70.0, 14.0, 14.0 ],
					"style" : ""
				}

			}
, 			{
				"box" : 				{
					"comment" : "input #27",
					"id" : "obj-1468",
					"index" : 0,
					"maxclass" : "inlet",
					"numinlets" : 0,
					"numoutlets" : 1,
					"outlettype" : [ "" ],
					"patching_rect" : [ 378.0, 70.0, 14.0, 14.0 ],
					"style" : ""
				}

			}
, 			{
				"box" : 				{
					"comment" : "input #28",
					"id" : "obj-1470",
					"index" : 0,
					"maxclass" : "inlet",
					"numinlets" : 0,
					"numoutlets" : 1,
					"outlettype" : [ "" ],
					"patching_rect" : [ 392.0, 70.0, 14.0, 14.0 ],
					"style" : ""
				}

			}
, 			{
				"box" : 				{
					"comment" : "input #29",
					"id" : "obj-1472",
					"index" : 0,
					"maxclass" : "inlet",
					"numinlets" : 0,
					"numoutlets" : 1,
					"outlettype" : [ "" ],
					"patching_rect" : [ 406.0, 70.0, 14.0, 14.0 ],
					"style" : ""
				}

			}
, 			{
				"box" : 				{
					"comment" : "input #30",
					"id" : "obj-1474",
					"index" : 0,
					"maxclass" : "inlet",
					"numinlets" : 0,
					"numoutlets" : 1,
					"outlettype" : [ "" ],
					"patching_rect" : [ 420.0, 70.0, 14.0, 14.0 ],
					"style" : ""
				}

			}
, 			{
				"box" : 				{
					"comment" : "input #31",
					"id" : "obj-1476",
					"index" : 0,
					"maxclass" : "inlet",
					"numinlets" : 0,
					"numoutlets" : 1,
					"outlettype" : [ "" ],
					"patching_rect" : [ 434.0, 70.0, 14.0, 14.0 ],
					"style" : ""
				}

			}
, 			{
				"box" : 				{
					"comment" : "input #32",
					"id" : "obj-1478",
					"index" : 0,
					"maxclass" : "inlet",
					"numinlets" : 0,
					"numoutlets" : 1,
					"outlettype" : [ "" ],
					"patching_rect" : [ 448.0, 70.0, 14.0, 14.0 ],
					"style" : ""
				}

			}
, 			{
				"box" : 				{
					"comment" : "input #33",
					"id" : "obj-1480",
					"index" : 0,
					"maxclass" : "inlet",
					"numinlets" : 0,
					"numoutlets" : 1,
					"outlettype" : [ "" ],
					"patching_rect" : [ 462.0, 70.0, 14.0, 14.0 ],
					"style" : ""
				}

			}
, 			{
				"box" : 				{
					"comment" : "input #34",
					"id" : "obj-1482",
					"index" : 0,
					"maxclass" : "inlet",
					"numinlets" : 0,
					"numoutlets" : 1,
					"outlettype" : [ "" ],
					"patching_rect" : [ 476.0, 70.0, 14.0, 14.0 ],
					"style" : ""
				}

			}
, 			{
				"box" : 				{
					"comment" : "input #35",
					"id" : "obj-1484",
					"index" : 0,
					"maxclass" : "inlet",
					"numinlets" : 0,
					"numoutlets" : 1,
					"outlettype" : [ "" ],
					"patching_rect" : [ 490.0, 70.0, 14.0, 14.0 ],
					"style" : ""
				}

			}
, 			{
				"box" : 				{
					"comment" : "input #36",
					"id" : "obj-1486",
					"index" : 0,
					"maxclass" : "inlet",
					"numinlets" : 0,
					"numoutlets" : 1,
					"outlettype" : [ "" ],
					"patching_rect" : [ 504.0, 70.0, 14.0, 14.0 ],
					"style" : ""
				}

			}
, 			{
				"box" : 				{
					"comment" : "input #37",
					"id" : "obj-1488",
					"index" : 0,
					"maxclass" : "inlet",
					"numinlets" : 0,
					"numoutlets" : 1,
					"outlettype" : [ "" ],
					"patching_rect" : [ 518.0, 70.0, 14.0, 14.0 ],
					"style" : ""
				}

			}
, 			{
				"box" : 				{
					"comment" : "input #38",
					"id" : "obj-1490",
					"index" : 0,
					"maxclass" : "inlet",
					"numinlets" : 0,
					"numoutlets" : 1,
					"outlettype" : [ "" ],
					"patching_rect" : [ 532.0, 70.0, 14.0, 14.0 ],
					"style" : ""
				}

			}
, 			{
				"box" : 				{
					"comment" : "input #39",
					"id" : "obj-1492",
					"index" : 0,
					"maxclass" : "inlet",
					"numinlets" : 0,
					"numoutlets" : 1,
					"outlettype" : [ "" ],
					"patching_rect" : [ 546.0, 70.0, 14.0, 14.0 ],
					"style" : ""
				}

			}
, 			{
				"box" : 				{
					"comment" : "input #40",
					"id" : "obj-1494",
					"index" : 0,
					"maxclass" : "inlet",
					"numinlets" : 0,
					"numoutlets" : 1,
					"outlettype" : [ "" ],
					"patching_rect" : [ 560.0, 70.0, 14.0, 14.0 ],
					"style" : ""
				}

			}
, 			{
				"box" : 				{
					"comment" : "input #41",
					"id" : "obj-1496",
					"index" : 0,
					"maxclass" : "inlet",
					"numinlets" : 0,
					"numoutlets" : 1,
					"outlettype" : [ "" ],
					"patching_rect" : [ 574.0, 70.0, 14.0, 14.0 ],
					"style" : ""
				}

			}
, 			{
				"box" : 				{
					"comment" : "input #42",
					"id" : "obj-1498",
					"index" : 0,
					"maxclass" : "inlet",
					"numinlets" : 0,
					"numoutlets" : 1,
					"outlettype" : [ "" ],
					"patching_rect" : [ 588.0, 70.0, 14.0, 14.0 ],
					"style" : ""
				}

			}
, 			{
				"box" : 				{
					"comment" : "input #43",
					"id" : "obj-1500",
					"index" : 0,
					"maxclass" : "inlet",
					"numinlets" : 0,
					"numoutlets" : 1,
					"outlettype" : [ "" ],
					"patching_rect" : [ 602.0, 70.0, 14.0, 14.0 ],
					"style" : ""
				}

			}
, 			{
				"box" : 				{
					"comment" : "input #44",
					"id" : "obj-1502",
					"index" : 0,
					"maxclass" : "inlet",
					"numinlets" : 0,
					"numoutlets" : 1,
					"outlettype" : [ "" ],
					"patching_rect" : [ 616.0, 70.0, 14.0, 14.0 ],
					"style" : ""
				}

			}
, 			{
				"box" : 				{
					"comment" : "input #45",
					"id" : "obj-1504",
					"index" : 0,
					"maxclass" : "inlet",
					"numinlets" : 0,
					"numoutlets" : 1,
					"outlettype" : [ "" ],
					"patching_rect" : [ 630.0, 70.0, 14.0, 14.0 ],
					"style" : ""
				}

			}
, 			{
				"box" : 				{
					"comment" : "input #46",
					"id" : "obj-1506",
					"index" : 0,
					"maxclass" : "inlet",
					"numinlets" : 0,
					"numoutlets" : 1,
					"outlettype" : [ "" ],
					"patching_rect" : [ 644.0, 70.0, 14.0, 14.0 ],
					"style" : ""
				}

			}
, 			{
				"box" : 				{
					"comment" : "input #47",
					"id" : "obj-1508",
					"index" : 0,
					"maxclass" : "inlet",
					"numinlets" : 0,
					"numoutlets" : 1,
					"outlettype" : [ "" ],
					"patching_rect" : [ 658.0, 70.0, 14.0, 14.0 ],
					"style" : ""
				}

			}
, 			{
				"box" : 				{
					"comment" : "input #48",
					"id" : "obj-1510",
					"index" : 0,
					"maxclass" : "inlet",
					"numinlets" : 0,
					"numoutlets" : 1,
					"outlettype" : [ "" ],
					"patching_rect" : [ 672.0, 70.0, 14.0, 14.0 ],
					"style" : ""
				}

			}
, 			{
				"box" : 				{
					"comment" : "input #49",
					"id" : "obj-1512",
					"index" : 0,
					"maxclass" : "inlet",
					"numinlets" : 0,
					"numoutlets" : 1,
					"outlettype" : [ "" ],
					"patching_rect" : [ 686.0, 70.0, 14.0, 14.0 ],
					"style" : ""
				}

			}
, 			{
				"box" : 				{
					"comment" : "input #50",
					"id" : "obj-1514",
					"index" : 0,
					"maxclass" : "inlet",
					"numinlets" : 0,
					"numoutlets" : 1,
					"outlettype" : [ "" ],
					"patching_rect" : [ 700.0, 70.0, 14.0, 14.0 ],
					"style" : ""
				}

			}
, 			{
				"box" : 				{
					"comment" : "input #51",
					"id" : "obj-1516",
					"index" : 0,
					"maxclass" : "inlet",
					"numinlets" : 0,
					"numoutlets" : 1,
					"outlettype" : [ "" ],
					"patching_rect" : [ 714.0, 70.0, 14.0, 14.0 ],
					"style" : ""
				}

			}
, 			{
				"box" : 				{
					"comment" : "input #52",
					"id" : "obj-1518",
					"index" : 0,
					"maxclass" : "inlet",
					"numinlets" : 0,
					"numoutlets" : 1,
					"outlettype" : [ "" ],
					"patching_rect" : [ 728.0, 70.0, 14.0, 14.0 ],
					"style" : ""
				}

			}
, 			{
				"box" : 				{
					"comment" : "input #53",
					"id" : "obj-1520",
					"index" : 0,
					"maxclass" : "inlet",
					"numinlets" : 0,
					"numoutlets" : 1,
					"outlettype" : [ "" ],
					"patching_rect" : [ 742.0, 70.0, 14.0, 14.0 ],
					"style" : ""
				}

			}
, 			{
				"box" : 				{
					"comment" : "input #54",
					"id" : "obj-1522",
					"index" : 0,
					"maxclass" : "inlet",
					"numinlets" : 0,
					"numoutlets" : 1,
					"outlettype" : [ "" ],
					"patching_rect" : [ 756.0, 70.0, 14.0, 14.0 ],
					"style" : ""
				}

			}
, 			{
				"box" : 				{
					"comment" : "input #55",
					"id" : "obj-1524",
					"index" : 0,
					"maxclass" : "inlet",
					"numinlets" : 0,
					"numoutlets" : 1,
					"outlettype" : [ "" ],
					"patching_rect" : [ 770.0, 70.0, 14.0, 14.0 ],
					"style" : ""
				}

			}
, 			{
				"box" : 				{
					"comment" : "input #56",
					"id" : "obj-1526",
					"index" : 0,
					"maxclass" : "inlet",
					"numinlets" : 0,
					"numoutlets" : 1,
					"outlettype" : [ "" ],
					"patching_rect" : [ 784.0, 70.0, 14.0, 14.0 ],
					"style" : ""
				}

			}
, 			{
				"box" : 				{
					"comment" : "input #57",
					"id" : "obj-1528",
					"index" : 0,
					"maxclass" : "inlet",
					"numinlets" : 0,
					"numoutlets" : 1,
					"outlettype" : [ "" ],
					"patching_rect" : [ 798.0, 70.0, 14.0, 14.0 ],
					"style" : ""
				}

			}
, 			{
				"box" : 				{
					"comment" : "input #58",
					"id" : "obj-1530",
					"index" : 0,
					"maxclass" : "inlet",
					"numinlets" : 0,
					"numoutlets" : 1,
					"outlettype" : [ "" ],
					"patching_rect" : [ 812.0, 70.0, 14.0, 14.0 ],
					"style" : ""
				}

			}
, 			{
				"box" : 				{
					"comment" : "input #59",
					"id" : "obj-1532",
					"index" : 0,
					"maxclass" : "inlet",
					"numinlets" : 0,
					"numoutlets" : 1,
					"outlettype" : [ "" ],
					"patching_rect" : [ 826.0, 70.0, 14.0, 14.0 ],
					"style" : ""
				}

			}
, 			{
				"box" : 				{
					"comment" : "input #60",
					"id" : "obj-1534",
					"index" : 0,
					"maxclass" : "inlet",
					"numinlets" : 0,
					"numoutlets" : 1,
					"outlettype" : [ "" ],
					"patching_rect" : [ 840.0, 70.0, 14.0, 14.0 ],
					"style" : ""
				}

			}
, 			{
				"box" : 				{
					"comment" : "input #61",
					"id" : "obj-1536",
					"index" : 0,
					"maxclass" : "inlet",
					"numinlets" : 0,
					"numoutlets" : 1,
					"outlettype" : [ "" ],
					"patching_rect" : [ 854.0, 70.0, 14.0, 14.0 ],
					"style" : ""
				}

			}
, 			{
				"box" : 				{
					"comment" : "input #62",
					"id" : "obj-1538",
					"index" : 0,
					"maxclass" : "inlet",
					"numinlets" : 0,
					"numoutlets" : 1,
					"outlettype" : [ "" ],
					"patching_rect" : [ 868.0, 70.0, 14.0, 14.0 ],
					"style" : ""
				}

			}
, 			{
				"box" : 				{
					"comment" : "input #63",
					"id" : "obj-1540",
					"index" : 0,
					"maxclass" : "inlet",
					"numinlets" : 0,
					"numoutlets" : 1,
					"outlettype" : [ "" ],
					"patching_rect" : [ 882.0, 70.0, 14.0, 14.0 ],
					"style" : ""
				}

			}
, 			{
				"box" : 				{
					"comment" : "input #64",
					"id" : "obj-1542",
					"index" : 0,
					"maxclass" : "inlet",
					"numinlets" : 0,
					"numoutlets" : 1,
					"outlettype" : [ "" ],
					"patching_rect" : [ 896.0, 70.0, 14.0, 14.0 ],
					"style" : ""
				}

			}
 ],
		"lines" : [ 			{
				"patchline" : 				{
					"destination" : [ "obj-1673", 0 ],
					"source" : [ "obj-1416", 0 ]
				}

			}
, 			{
				"patchline" : 				{
					"destination" : [ "obj-1673", 1 ],
					"source" : [ "obj-1418", 0 ]
				}

			}
, 			{
				"patchline" : 				{
					"destination" : [ "obj-1673", 2 ],
					"source" : [ "obj-1420", 0 ]
				}

			}
, 			{
				"patchline" : 				{
					"destination" : [ "obj-1673", 3 ],
					"source" : [ "obj-1422", 0 ]
				}

			}
, 			{
				"patchline" : 				{
					"destination" : [ "obj-1673", 4 ],
					"source" : [ "obj-1424", 0 ]
				}

			}
, 			{
				"patchline" : 				{
					"destination" : [ "obj-1673", 5 ],
					"source" : [ "obj-1426", 0 ]
				}

			}
, 			{
				"patchline" : 				{
					"destination" : [ "obj-1673", 6 ],
					"source" : [ "obj-1428", 0 ]
				}

			}
, 			{
				"patchline" : 				{
					"destination" : [ "obj-1673", 7 ],
					"source" : [ "obj-1430", 0 ]
				}

			}
, 			{
				"patchline" : 				{
					"destination" : [ "obj-1673", 8 ],
					"source" : [ "obj-1432", 0 ]
				}

			}
, 			{
				"patchline" : 				{
					"destination" : [ "obj-1673", 9 ],
					"source" : [ "obj-1434", 0 ]
				}

			}
, 			{
				"patchline" : 				{
					"destination" : [ "obj-1673", 10 ],
					"source" : [ "obj-1436", 0 ]
				}

			}
, 			{
				"patchline" : 				{
					"destination" : [ "obj-1673", 11 ],
					"source" : [ "obj-1438", 0 ]
				}

			}
, 			{
				"patchline" : 				{
					"destination" : [ "obj-1673", 12 ],
					"source" : [ "obj-1440", 0 ]
				}

			}
, 			{
				"patchline" : 				{
					"destination" : [ "obj-1673", 13 ],
					"source" : [ "obj-1442", 0 ]
				}

			}
, 			{
				"patchline" : 				{
					"destination" : [ "obj-1673", 14 ],
					"source" : [ "obj-1444", 0 ]
				}

			}
, 			{
				"patchline" : 				{
					"destination" : [ "obj-1673", 15 ],
					"source" : [ "obj-1446", 0 ]
				}

			}
, 			{
				"patchline" : 				{
					"destination" : [ "obj-1673", 16 ],
					"source" : [ "obj-1448", 0 ]
				}

			}
, 			{
				"patchline" : 				{
					"destination" : [ "obj-1673", 17 ],
					"source" : [ "obj-1450", 0 ]
				}

			}
, 			{
				"patchline" : 				{
					"destination" : [ "obj-1673", 18 ],
					"source" : [ "obj-1452", 0 ]
				}

			}
, 			{
				"patchline" : 				{
					"destination" : [ "obj-1673", 19 ],
					"source" : [ "obj-1454", 0 ]
				}

			}
, 			{
				"patchline" : 				{
					"destination" : [ "obj-1673", 20 ],
					"source" : [ "obj-1456", 0 ]
				}

			}
, 			{
				"patchline" : 				{
					"destination" : [ "obj-1673", 21 ],
					"source" : [ "obj-1458", 0 ]
				}

			}
, 			{
				"patchline" : 				{
					"destination" : [ "obj-1673", 22 ],
					"source" : [ "obj-1460", 0 ]
				}

			}
, 			{
				"patchline" : 				{
					"destination" : [ "obj-1673", 23 ],
					"source" : [ "obj-1462", 0 ]
				}

			}
, 			{
				"patchline" : 				{
					"destination" : [ "obj-1673", 24 ],
					"source" : [ "obj-1464", 0 ]
				}

			}
, 			{
				"patchline" : 				{
					"destination" : [ "obj-1673", 25 ],
					"source" : [ "obj-1466", 0 ]
				}

			}
, 			{
				"patchline" : 				{
					"destination" : [ "obj-1673", 26 ],
					"source" : [ "obj-1468", 0 ]
				}

			}
, 			{
				"patchline" : 				{
					"destination" : [ "obj-1673", 27 ],
					"source" : [ "obj-1470", 0 ]
				}

			}
, 			{
				"patchline" : 				{
					"destination" : [ "obj-1673", 28 ],
					"source" : [ "obj-1472", 0 ]
				}

			}
, 			{
				"patchline" : 				{
					"destination" : [ "obj-1673", 29 ],
					"source" : [ "obj-1474", 0 ]
				}

			}
, 			{
				"patchline" : 				{
					"destination" : [ "obj-1673", 30 ],
					"source" : [ "obj-1476", 0 ]
				}

			}
, 			{
				"patchline" : 				{
					"destination" : [ "obj-1673", 31 ],
					"source" : [ "obj-1478", 0 ]
				}

			}
, 			{
				"patchline" : 				{
					"destination" : [ "obj-1673", 32 ],
					"source" : [ "obj-1480", 0 ]
				}

			}
, 			{
				"patchline" : 				{
					"destination" : [ "obj-1673", 33 ],
					"source" : [ "obj-1482", 0 ]
				}

			}
, 			{
				"patchline" : 				{
					"destination" : [ "obj-1673", 34 ],
					"source" : [ "obj-1484", 0 ]
				}

			}
, 			{
				"patchline" : 				{
					"destination" : [ "obj-1673", 35 ],
					"source" : [ "obj-1486", 0 ]
				}

			}
, 			{
				"patchline" : 				{
					"destination" : [ "obj-1673", 36 ],
					"source" : [ "obj-1488", 0 ]
				}

			}
, 			{
				"patchline" : 				{
					"destination" : [ "obj-1673", 37 ],
					"source" : [ "obj-1490", 0 ]
				}

			}
, 			{
				"patchline" : 				{
					"destination" : [ "obj-1673", 38 ],
					"source" : [ "obj-1492", 0 ]
				}

			}
, 			{
				"patchline" : 				{
					"destination" : [ "obj-1673", 39 ],
					"source" : [ "obj-1494", 0 ]
				}

			}
, 			{
				"patchline" : 				{
					"destination" : [ "obj-1673", 40 ],
					"source" : [ "obj-1496", 0 ]
				}

			}
, 			{
				"patchline" : 				{
					"destination" : [ "obj-1673", 41 ],
					"source" : [ "obj-1498", 0 ]
				}

			}
, 			{
				"patchline" : 				{
					"destination" : [ "obj-1673", 42 ],
					"source" : [ "obj-1500", 0 ]
				}

			}
, 			{
				"patchline" : 				{
					"destination" : [ "obj-1673", 43 ],
					"source" : [ "obj-1502", 0 ]
				}

			}
, 			{
				"patchline" : 				{
					"destination" : [ "obj-1673", 44 ],
					"source" : [ "obj-1504", 0 ]
				}

			}
, 			{
				"patchline" : 				{
					"destination" : [ "obj-1673", 45 ],
					"source" : [ "obj-1506", 0 ]
				}

			}
, 			{
				"patchline" : 				{
					"destination" : [ "obj-1673", 46 ],
					"source" : [ "obj-1508", 0 ]
				}

			}
, 			{
				"patchline" : 				{
					"destination" : [ "obj-1673", 47 ],
					"source" : [ "obj-1510", 0 ]
				}

			}
, 			{
				"patchline" : 				{
					"destination" : [ "obj-1673", 48 ],
					"source" : [ "obj-1512", 0 ]
				}

			}
, 			{
				"patchline" : 				{
					"destination" : [ "obj-1673", 49 ],
					"source" : [ "obj-1514", 0 ]
				}

			}
, 			{
				"patchline" : 				{
					"destination" : [ "obj-1673", 50 ],
					"source" : [ "obj-1516", 0 ]
				}

			}
, 			{
				"patchline" : 				{
					"destination" : [ "obj-1673", 51 ],
					"source" : [ "obj-1518", 0 ]
				}

			}
, 			{
				"patchline" : 				{
					"destination" : [ "obj-1673", 52 ],
					"source" : [ "obj-1520", 0 ]
				}

			}
, 			{
				"patchline" : 				{
					"destination" : [ "obj-1673", 53 ],
					"source" : [ "obj-1522", 0 ]
				}

			}
, 			{
				"patchline" : 				{
					"destination" : [ "obj-1673", 54 ],
					"source" : [ "obj-1524", 0 ]
				}

			}
, 			{
				"patchline" : 				{
					"destination" : [ "obj-1673", 55 ],
					"source" : [ "obj-1526", 0 ]
				}

			}
, 			{
				"patchline" : 				{
					"destination" : [ "obj-1673", 56 ],
					"source" : [ "obj-1528", 0 ]
				}

			}
, 			{
				"patchline" : 				{
					"destination" : [ "obj-1673", 57 ],
					"source" : [ "obj-1530", 0 ]
				}

			}
, 			{
				"patchline" : 				{
					"destination" : [ "obj-1673", 58 ],
					"source" : [ "obj-1532", 0 ]
				}

			}
, 			{
				"patchline" : 				{
					"destination" : [ "obj-1673", 59 ],
					"source" : [ "obj-1534", 0 ]
				}

			}
, 			{
				"patchline" : 				{
					"destination" : [ "obj-1673", 60 ],
					"source" : [ "obj-1536", 0 ]
				}

			}
, 			{
				"patchline" : 				{
					"destination" : [ "obj-1673", 61 ],
					"source" : [ "obj-1538", 0 ]
				}

			}
, 			{
				"patchline" : 				{
					"destination" : [ "obj-1673", 62 ],
					"source" : [ "obj-1540", 0 ]
				}

			}
, 			{
				"patchline" : 				{
					"destination" : [ "obj-1673", 63 ],
					"source" : [ "obj-1542", 0 ]
				}

			}
 ],
		"dependency_cache" : [ 			{
				"name" : "spat5.thru64~.maxpat",
				"bootpath" : "~/forge/spat/Spat5MaxMsp/patchers",
				"patcherrelativepath" : ".",
				"type" : "TEXT",
				"implicit" : 1
			}
 ],
		"autosave" : 0
	}

}
