{
	"patcher" : 	{
		"fileversion" : 1,
		"appversion" : 		{
			"major" : 8,
			"minor" : 1,
			"revision" : 3,
			"architecture" : "x64",
			"modernui" : 1
		}
,
		"classnamespace" : "box",
		"rect" : [ 101.0, 123.0, 1149.0, 541.0 ],
		"bglocked" : 0,
		"openinpresentation" : 1,
		"default_fontsize" : 11.0,
		"default_fontface" : 0,
		"default_fontname" : "Arial",
		"gridonopen" : 2,
		"gridsize" : [ 10.0, 10.0 ],
		"gridsnaponopen" : 2,
		"objectsnaponopen" : 1,
		"statusbarvisible" : 2,
		"toolbarvisible" : 0,
		"lefttoolbarpinned" : 0,
		"toptoolbarpinned" : 0,
		"righttoolbarpinned" : 0,
		"bottomtoolbarpinned" : 0,
		"toolbars_unpinned_last_save" : 0,
		"tallnewobj" : 0,
		"boxanimatetime" : 200,
		"enablehscroll" : 1,
		"enablevscroll" : 1,
		"devicewidth" : 0.0,
		"description" : "",
		"digest" : "",
		"tags" : "",
		"style" : "",
		"subpatcher_template" : "",
		"boxes" : [ 			{
				"box" : 				{
					"id" : "obj-63",
					"maxclass" : "newobj",
					"numinlets" : 32,
					"numoutlets" : 32,
					"outlettype" : [ "signal", "signal", "signal", "signal", "signal", "signal", "signal", "signal", "signal", "signal", "signal", "signal", "signal", "signal", "signal", "signal", "signal", "signal", "signal", "signal", "signal", "signal", "signal", "signal", "signal", "signal", "signal", "signal", "signal", "signal", "signal", "signal" ],
					"patching_rect" : [ 640.0, 270.0, 452.329009999999982, 21.0 ],
					"text" : "spat5.thru32~"
				}

			}
, 			{
				"box" : 				{
					"comment" : "output #1",
					"id" : "obj-1544",
					"index" : 0,
					"maxclass" : "outlet",
					"numinlets" : 1,
					"numoutlets" : 0,
					"patching_rect" : [ 641.023804000000041, 310.0, 14.0, 14.0 ]
				}

			}
, 			{
				"box" : 				{
					"comment" : "output #2",
					"id" : "obj-1546",
					"index" : 0,
					"maxclass" : "outlet",
					"numinlets" : 1,
					"numoutlets" : 0,
					"patching_rect" : [ 655.023804000000041, 310.0, 14.0, 14.0 ]
				}

			}
, 			{
				"box" : 				{
					"comment" : "output #3",
					"id" : "obj-1548",
					"index" : 0,
					"maxclass" : "outlet",
					"numinlets" : 1,
					"numoutlets" : 0,
					"patching_rect" : [ 669.023804000000041, 310.0, 14.0, 14.0 ]
				}

			}
, 			{
				"box" : 				{
					"comment" : "output #4",
					"id" : "obj-1550",
					"index" : 0,
					"maxclass" : "outlet",
					"numinlets" : 1,
					"numoutlets" : 0,
					"patching_rect" : [ 683.023804000000041, 310.0, 14.0, 14.0 ]
				}

			}
, 			{
				"box" : 				{
					"comment" : "output #5",
					"id" : "obj-1552",
					"index" : 0,
					"maxclass" : "outlet",
					"numinlets" : 1,
					"numoutlets" : 0,
					"patching_rect" : [ 697.023804000000041, 310.0, 14.0, 14.0 ]
				}

			}
, 			{
				"box" : 				{
					"comment" : "output #6",
					"id" : "obj-1554",
					"index" : 0,
					"maxclass" : "outlet",
					"numinlets" : 1,
					"numoutlets" : 0,
					"patching_rect" : [ 711.023804000000041, 310.0, 14.0, 14.0 ]
				}

			}
, 			{
				"box" : 				{
					"comment" : "output #7",
					"id" : "obj-1556",
					"index" : 0,
					"maxclass" : "outlet",
					"numinlets" : 1,
					"numoutlets" : 0,
					"patching_rect" : [ 725.023804000000041, 310.0, 14.0, 14.0 ]
				}

			}
, 			{
				"box" : 				{
					"comment" : "output #8",
					"id" : "obj-1558",
					"index" : 0,
					"maxclass" : "outlet",
					"numinlets" : 1,
					"numoutlets" : 0,
					"patching_rect" : [ 739.023804000000041, 310.0, 14.0, 14.0 ]
				}

			}
, 			{
				"box" : 				{
					"comment" : "output #9",
					"id" : "obj-1560",
					"index" : 0,
					"maxclass" : "outlet",
					"numinlets" : 1,
					"numoutlets" : 0,
					"patching_rect" : [ 753.023804000000041, 310.0, 14.0, 14.0 ]
				}

			}
, 			{
				"box" : 				{
					"comment" : "output #10",
					"id" : "obj-1562",
					"index" : 0,
					"maxclass" : "outlet",
					"numinlets" : 1,
					"numoutlets" : 0,
					"patching_rect" : [ 767.023804000000041, 310.0, 14.0, 14.0 ]
				}

			}
, 			{
				"box" : 				{
					"comment" : "output #11",
					"id" : "obj-1564",
					"index" : 0,
					"maxclass" : "outlet",
					"numinlets" : 1,
					"numoutlets" : 0,
					"patching_rect" : [ 781.023804000000041, 310.0, 14.0, 14.0 ]
				}

			}
, 			{
				"box" : 				{
					"comment" : "output #12",
					"id" : "obj-1566",
					"index" : 0,
					"maxclass" : "outlet",
					"numinlets" : 1,
					"numoutlets" : 0,
					"patching_rect" : [ 795.023804000000041, 310.0, 14.0, 14.0 ]
				}

			}
, 			{
				"box" : 				{
					"comment" : "output #13",
					"id" : "obj-1568",
					"index" : 0,
					"maxclass" : "outlet",
					"numinlets" : 1,
					"numoutlets" : 0,
					"patching_rect" : [ 809.023804000000041, 310.0, 14.0, 14.0 ]
				}

			}
, 			{
				"box" : 				{
					"comment" : "output #14",
					"id" : "obj-1570",
					"index" : 0,
					"maxclass" : "outlet",
					"numinlets" : 1,
					"numoutlets" : 0,
					"patching_rect" : [ 823.023804000000041, 310.0, 14.0, 14.0 ]
				}

			}
, 			{
				"box" : 				{
					"comment" : "output #15",
					"id" : "obj-1572",
					"index" : 0,
					"maxclass" : "outlet",
					"numinlets" : 1,
					"numoutlets" : 0,
					"patching_rect" : [ 837.023804000000041, 310.0, 14.0, 14.0 ]
				}

			}
, 			{
				"box" : 				{
					"comment" : "output #16",
					"id" : "obj-1574",
					"index" : 0,
					"maxclass" : "outlet",
					"numinlets" : 1,
					"numoutlets" : 0,
					"patching_rect" : [ 851.023804000000041, 310.0, 14.0, 14.0 ]
				}

			}
, 			{
				"box" : 				{
					"comment" : "output #17",
					"id" : "obj-1576",
					"index" : 0,
					"maxclass" : "outlet",
					"numinlets" : 1,
					"numoutlets" : 0,
					"patching_rect" : [ 865.023804000000041, 310.0, 14.0, 14.0 ]
				}

			}
, 			{
				"box" : 				{
					"comment" : "output #18",
					"id" : "obj-1578",
					"index" : 0,
					"maxclass" : "outlet",
					"numinlets" : 1,
					"numoutlets" : 0,
					"patching_rect" : [ 879.023804000000041, 310.0, 14.0, 14.0 ]
				}

			}
, 			{
				"box" : 				{
					"comment" : "output #19",
					"id" : "obj-1580",
					"index" : 0,
					"maxclass" : "outlet",
					"numinlets" : 1,
					"numoutlets" : 0,
					"patching_rect" : [ 893.023804000000041, 310.0, 14.0, 14.0 ]
				}

			}
, 			{
				"box" : 				{
					"comment" : "output #20",
					"id" : "obj-1582",
					"index" : 0,
					"maxclass" : "outlet",
					"numinlets" : 1,
					"numoutlets" : 0,
					"patching_rect" : [ 907.023804000000041, 310.0, 14.0, 14.0 ]
				}

			}
, 			{
				"box" : 				{
					"comment" : "output #21",
					"id" : "obj-1584",
					"index" : 0,
					"maxclass" : "outlet",
					"numinlets" : 1,
					"numoutlets" : 0,
					"patching_rect" : [ 921.023804000000041, 310.0, 14.0, 14.0 ]
				}

			}
, 			{
				"box" : 				{
					"comment" : "output #22",
					"id" : "obj-1586",
					"index" : 0,
					"maxclass" : "outlet",
					"numinlets" : 1,
					"numoutlets" : 0,
					"patching_rect" : [ 935.023804000000041, 310.0, 14.0, 14.0 ]
				}

			}
, 			{
				"box" : 				{
					"comment" : "output #23",
					"id" : "obj-1588",
					"index" : 0,
					"maxclass" : "outlet",
					"numinlets" : 1,
					"numoutlets" : 0,
					"patching_rect" : [ 949.023804000000041, 310.0, 14.0, 14.0 ]
				}

			}
, 			{
				"box" : 				{
					"comment" : "output #24",
					"id" : "obj-1590",
					"index" : 0,
					"maxclass" : "outlet",
					"numinlets" : 1,
					"numoutlets" : 0,
					"patching_rect" : [ 963.023804000000041, 310.0, 14.0, 14.0 ]
				}

			}
, 			{
				"box" : 				{
					"comment" : "output #25",
					"id" : "obj-1592",
					"index" : 0,
					"maxclass" : "outlet",
					"numinlets" : 1,
					"numoutlets" : 0,
					"patching_rect" : [ 977.023804000000041, 310.0, 14.0, 14.0 ]
				}

			}
, 			{
				"box" : 				{
					"comment" : "output #26",
					"id" : "obj-1594",
					"index" : 0,
					"maxclass" : "outlet",
					"numinlets" : 1,
					"numoutlets" : 0,
					"patching_rect" : [ 991.023804000000041, 310.0, 14.0, 14.0 ]
				}

			}
, 			{
				"box" : 				{
					"comment" : "output #27",
					"id" : "obj-1596",
					"index" : 0,
					"maxclass" : "outlet",
					"numinlets" : 1,
					"numoutlets" : 0,
					"patching_rect" : [ 1005.023804000000041, 310.0, 14.0, 14.0 ]
				}

			}
, 			{
				"box" : 				{
					"comment" : "output #28",
					"id" : "obj-1598",
					"index" : 0,
					"maxclass" : "outlet",
					"numinlets" : 1,
					"numoutlets" : 0,
					"patching_rect" : [ 1019.023804000000041, 310.0, 14.0, 14.0 ]
				}

			}
, 			{
				"box" : 				{
					"comment" : "output #29",
					"id" : "obj-1600",
					"index" : 0,
					"maxclass" : "outlet",
					"numinlets" : 1,
					"numoutlets" : 0,
					"patching_rect" : [ 1033.023803999999927, 310.0, 14.0, 14.0 ]
				}

			}
, 			{
				"box" : 				{
					"comment" : "output #30",
					"id" : "obj-1602",
					"index" : 0,
					"maxclass" : "outlet",
					"numinlets" : 1,
					"numoutlets" : 0,
					"patching_rect" : [ 1047.023803999999927, 310.0, 14.0, 14.0 ]
				}

			}
, 			{
				"box" : 				{
					"comment" : "output #31",
					"id" : "obj-1604",
					"index" : 0,
					"maxclass" : "outlet",
					"numinlets" : 1,
					"numoutlets" : 0,
					"patching_rect" : [ 1061.023803999999927, 310.0, 14.0, 14.0 ]
				}

			}
, 			{
				"box" : 				{
					"comment" : "output #32",
					"id" : "obj-1606",
					"index" : 0,
					"maxclass" : "outlet",
					"numinlets" : 1,
					"numoutlets" : 0,
					"patching_rect" : [ 1075.023803999999927, 310.0, 14.0, 14.0 ]
				}

			}
, 			{
				"box" : 				{
					"id" : "obj-1673",
					"maxclass" : "newobj",
					"numinlets" : 32,
					"numoutlets" : 32,
					"outlettype" : [ "", "", "", "", "", "", "", "", "", "", "", "", "", "", "", "", "", "", "", "", "", "", "", "", "", "", "", "", "", "", "", "" ],
					"patching_rect" : [ 30.0, 150.0, 452.899445000000014, 21.0 ],
					"text" : "spat5.thru32~"
				}

			}
, 			{
				"box" : 				{
					"comment" : "input #1",
					"id" : "obj-1416",
					"index" : 0,
					"maxclass" : "inlet",
					"numinlets" : 0,
					"numoutlets" : 1,
					"outlettype" : [ "" ],
					"patching_rect" : [ 31.477295000000002, 120.0, 14.0, 14.0 ]
				}

			}
, 			{
				"box" : 				{
					"comment" : "input #2",
					"id" : "obj-1418",
					"index" : 0,
					"maxclass" : "inlet",
					"numinlets" : 0,
					"numoutlets" : 1,
					"outlettype" : [ "" ],
					"patching_rect" : [ 45.477294999999998, 120.0, 14.0, 14.0 ]
				}

			}
, 			{
				"box" : 				{
					"comment" : "input #3",
					"id" : "obj-1420",
					"index" : 0,
					"maxclass" : "inlet",
					"numinlets" : 0,
					"numoutlets" : 1,
					"outlettype" : [ "" ],
					"patching_rect" : [ 59.477294999999998, 120.0, 14.0, 14.0 ]
				}

			}
, 			{
				"box" : 				{
					"comment" : "input #4",
					"id" : "obj-1422",
					"index" : 0,
					"maxclass" : "inlet",
					"numinlets" : 0,
					"numoutlets" : 1,
					"outlettype" : [ "" ],
					"patching_rect" : [ 73.477294999999998, 120.0, 14.0, 14.0 ]
				}

			}
, 			{
				"box" : 				{
					"comment" : "input #5",
					"id" : "obj-1424",
					"index" : 0,
					"maxclass" : "inlet",
					"numinlets" : 0,
					"numoutlets" : 1,
					"outlettype" : [ "" ],
					"patching_rect" : [ 87.477294999999998, 120.0, 14.0, 14.0 ]
				}

			}
, 			{
				"box" : 				{
					"comment" : "input #6",
					"id" : "obj-1426",
					"index" : 0,
					"maxclass" : "inlet",
					"numinlets" : 0,
					"numoutlets" : 1,
					"outlettype" : [ "" ],
					"patching_rect" : [ 101.477294999999998, 120.0, 14.0, 14.0 ]
				}

			}
, 			{
				"box" : 				{
					"comment" : "input #7",
					"id" : "obj-1428",
					"index" : 0,
					"maxclass" : "inlet",
					"numinlets" : 0,
					"numoutlets" : 1,
					"outlettype" : [ "" ],
					"patching_rect" : [ 115.477294999999998, 120.0, 14.0, 14.0 ]
				}

			}
, 			{
				"box" : 				{
					"comment" : "input #8",
					"id" : "obj-1430",
					"index" : 0,
					"maxclass" : "inlet",
					"numinlets" : 0,
					"numoutlets" : 1,
					"outlettype" : [ "" ],
					"patching_rect" : [ 129.477294999999998, 120.0, 14.0, 14.0 ]
				}

			}
, 			{
				"box" : 				{
					"comment" : "input #9",
					"id" : "obj-1432",
					"index" : 0,
					"maxclass" : "inlet",
					"numinlets" : 0,
					"numoutlets" : 1,
					"outlettype" : [ "" ],
					"patching_rect" : [ 143.477294999999998, 120.0, 14.0, 14.0 ]
				}

			}
, 			{
				"box" : 				{
					"comment" : "input #10",
					"id" : "obj-1434",
					"index" : 0,
					"maxclass" : "inlet",
					"numinlets" : 0,
					"numoutlets" : 1,
					"outlettype" : [ "" ],
					"patching_rect" : [ 157.477294999999998, 120.0, 14.0, 14.0 ]
				}

			}
, 			{
				"box" : 				{
					"comment" : "input #11",
					"id" : "obj-1436",
					"index" : 0,
					"maxclass" : "inlet",
					"numinlets" : 0,
					"numoutlets" : 1,
					"outlettype" : [ "" ],
					"patching_rect" : [ 171.477294999999998, 120.0, 14.0, 14.0 ]
				}

			}
, 			{
				"box" : 				{
					"comment" : "input #12",
					"id" : "obj-1438",
					"index" : 0,
					"maxclass" : "inlet",
					"numinlets" : 0,
					"numoutlets" : 1,
					"outlettype" : [ "" ],
					"patching_rect" : [ 185.477294999999998, 120.0, 14.0, 14.0 ]
				}

			}
, 			{
				"box" : 				{
					"comment" : "input #13",
					"id" : "obj-1440",
					"index" : 0,
					"maxclass" : "inlet",
					"numinlets" : 0,
					"numoutlets" : 1,
					"outlettype" : [ "" ],
					"patching_rect" : [ 199.477294999999998, 120.0, 14.0, 14.0 ]
				}

			}
, 			{
				"box" : 				{
					"comment" : "input #14",
					"id" : "obj-1442",
					"index" : 0,
					"maxclass" : "inlet",
					"numinlets" : 0,
					"numoutlets" : 1,
					"outlettype" : [ "" ],
					"patching_rect" : [ 213.477294999999998, 120.0, 14.0, 14.0 ]
				}

			}
, 			{
				"box" : 				{
					"comment" : "input #15",
					"id" : "obj-1444",
					"index" : 0,
					"maxclass" : "inlet",
					"numinlets" : 0,
					"numoutlets" : 1,
					"outlettype" : [ "" ],
					"patching_rect" : [ 227.477294999999998, 120.0, 14.0, 14.0 ]
				}

			}
, 			{
				"box" : 				{
					"comment" : "input #16",
					"id" : "obj-1446",
					"index" : 0,
					"maxclass" : "inlet",
					"numinlets" : 0,
					"numoutlets" : 1,
					"outlettype" : [ "" ],
					"patching_rect" : [ 241.477294999999998, 120.0, 14.0, 14.0 ]
				}

			}
, 			{
				"box" : 				{
					"comment" : "input #17",
					"id" : "obj-1448",
					"index" : 0,
					"maxclass" : "inlet",
					"numinlets" : 0,
					"numoutlets" : 1,
					"outlettype" : [ "" ],
					"patching_rect" : [ 255.477294999999998, 120.0, 14.0, 14.0 ]
				}

			}
, 			{
				"box" : 				{
					"comment" : "input #18",
					"id" : "obj-1450",
					"index" : 0,
					"maxclass" : "inlet",
					"numinlets" : 0,
					"numoutlets" : 1,
					"outlettype" : [ "" ],
					"patching_rect" : [ 269.477295000000026, 120.0, 14.0, 14.0 ]
				}

			}
, 			{
				"box" : 				{
					"comment" : "input #19",
					"id" : "obj-1452",
					"index" : 0,
					"maxclass" : "inlet",
					"numinlets" : 0,
					"numoutlets" : 1,
					"outlettype" : [ "" ],
					"patching_rect" : [ 283.477295000000026, 120.0, 14.0, 14.0 ]
				}

			}
, 			{
				"box" : 				{
					"comment" : "input #20",
					"id" : "obj-1454",
					"index" : 0,
					"maxclass" : "inlet",
					"numinlets" : 0,
					"numoutlets" : 1,
					"outlettype" : [ "" ],
					"patching_rect" : [ 297.477295000000026, 120.0, 14.0, 14.0 ]
				}

			}
, 			{
				"box" : 				{
					"comment" : "input #21",
					"id" : "obj-1456",
					"index" : 0,
					"maxclass" : "inlet",
					"numinlets" : 0,
					"numoutlets" : 1,
					"outlettype" : [ "" ],
					"patching_rect" : [ 311.477295000000026, 120.0, 14.0, 14.0 ]
				}

			}
, 			{
				"box" : 				{
					"comment" : "input #22",
					"id" : "obj-1458",
					"index" : 0,
					"maxclass" : "inlet",
					"numinlets" : 0,
					"numoutlets" : 1,
					"outlettype" : [ "" ],
					"patching_rect" : [ 325.477295000000026, 120.0, 14.0, 14.0 ]
				}

			}
, 			{
				"box" : 				{
					"comment" : "input #23",
					"id" : "obj-1460",
					"index" : 0,
					"maxclass" : "inlet",
					"numinlets" : 0,
					"numoutlets" : 1,
					"outlettype" : [ "" ],
					"patching_rect" : [ 339.477295000000026, 120.0, 14.0, 14.0 ]
				}

			}
, 			{
				"box" : 				{
					"comment" : "input #24",
					"id" : "obj-1462",
					"index" : 0,
					"maxclass" : "inlet",
					"numinlets" : 0,
					"numoutlets" : 1,
					"outlettype" : [ "" ],
					"patching_rect" : [ 353.477295000000026, 120.0, 14.0, 14.0 ]
				}

			}
, 			{
				"box" : 				{
					"comment" : "input #25",
					"id" : "obj-1464",
					"index" : 0,
					"maxclass" : "inlet",
					"numinlets" : 0,
					"numoutlets" : 1,
					"outlettype" : [ "" ],
					"patching_rect" : [ 367.477295000000026, 120.0, 14.0, 14.0 ]
				}

			}
, 			{
				"box" : 				{
					"comment" : "input #26",
					"id" : "obj-1466",
					"index" : 0,
					"maxclass" : "inlet",
					"numinlets" : 0,
					"numoutlets" : 1,
					"outlettype" : [ "" ],
					"patching_rect" : [ 381.477295000000026, 120.0, 14.0, 14.0 ]
				}

			}
, 			{
				"box" : 				{
					"comment" : "input #27",
					"id" : "obj-1468",
					"index" : 0,
					"maxclass" : "inlet",
					"numinlets" : 0,
					"numoutlets" : 1,
					"outlettype" : [ "" ],
					"patching_rect" : [ 395.477295000000026, 120.0, 14.0, 14.0 ]
				}

			}
, 			{
				"box" : 				{
					"comment" : "input #28",
					"id" : "obj-1470",
					"index" : 0,
					"maxclass" : "inlet",
					"numinlets" : 0,
					"numoutlets" : 1,
					"outlettype" : [ "" ],
					"patching_rect" : [ 409.477295000000026, 120.0, 14.0, 14.0 ]
				}

			}
, 			{
				"box" : 				{
					"comment" : "input #29",
					"id" : "obj-1472",
					"index" : 0,
					"maxclass" : "inlet",
					"numinlets" : 0,
					"numoutlets" : 1,
					"outlettype" : [ "" ],
					"patching_rect" : [ 423.477295000000026, 120.0, 14.0, 14.0 ]
				}

			}
, 			{
				"box" : 				{
					"comment" : "input #30",
					"id" : "obj-1474",
					"index" : 0,
					"maxclass" : "inlet",
					"numinlets" : 0,
					"numoutlets" : 1,
					"outlettype" : [ "" ],
					"patching_rect" : [ 437.477295000000026, 120.0, 14.0, 14.0 ]
				}

			}
, 			{
				"box" : 				{
					"comment" : "input #31",
					"id" : "obj-1476",
					"index" : 0,
					"maxclass" : "inlet",
					"numinlets" : 0,
					"numoutlets" : 1,
					"outlettype" : [ "" ],
					"patching_rect" : [ 451.477295000000026, 120.0, 14.0, 14.0 ]
				}

			}
, 			{
				"box" : 				{
					"comment" : "input #32",
					"id" : "obj-1478",
					"index" : 0,
					"maxclass" : "inlet",
					"numinlets" : 0,
					"numoutlets" : 1,
					"outlettype" : [ "" ],
					"patching_rect" : [ 465.477295000000026, 120.0, 14.0, 14.0 ]
				}

			}
, 			{
				"box" : 				{
					"fontface" : 0,
					"fontsize" : 9.0,
					"id" : "obj-83",
					"maxclass" : "comment",
					"numinlets" : 1,
					"numoutlets" : 0,
					"patching_rect" : [ 113.096771000000004, 3.5, 21.0, 17.0 ],
					"presentation" : 1,
					"presentation_rect" : [ 155.0, 4.5, 25.0, 17.0 ],
					"text" : "24",
					"textjustification" : 1
				}

			}
, 			{
				"box" : 				{
					"id" : "obj-82",
					"justification" : 1,
					"maxclass" : "live.line",
					"numinlets" : 1,
					"numoutlets" : 0,
					"patching_rect" : [ 97.5, 20.0, 7.903229, 20.0 ],
					"presentation" : 1,
					"presentation_rect" : [ 165.0, 17.0, 6.0, 8.0 ]
				}

			}
, 			{
				"box" : 				{
					"id" : "obj-80",
					"justification" : 1,
					"maxclass" : "live.line",
					"numinlets" : 1,
					"numoutlets" : 0,
					"patching_rect" : [ 286.693541999999979, 21.5, 7.903229, 20.0 ],
					"presentation" : 1,
					"presentation_rect" : [ 108.5, 17.0, 6.0, 8.0 ]
				}

			}
, 			{
				"box" : 				{
					"id" : "obj-79",
					"justification" : 1,
					"maxclass" : "live.line",
					"numinlets" : 1,
					"numoutlets" : 0,
					"patching_rect" : [ 301.798369999999977, 21.5, 5.596771, 20.5 ],
					"presentation" : 1,
					"presentation_rect" : [ 53.0, 17.0, 6.0, 8.0 ]
				}

			}
, 			{
				"box" : 				{
					"fontface" : 0,
					"fontsize" : 9.0,
					"id" : "obj-78",
					"maxclass" : "comment",
					"numinlets" : 1,
					"numoutlets" : 0,
					"patching_rect" : [ 94.0, 3.5, 21.0, 17.0 ],
					"presentation" : 1,
					"presentation_rect" : [ 99.0, 4.5, 25.0, 17.0 ],
					"text" : "16",
					"textjustification" : 1
				}

			}
, 			{
				"box" : 				{
					"fontface" : 0,
					"fontsize" : 9.0,
					"id" : "obj-38",
					"maxclass" : "comment",
					"numinlets" : 1,
					"numoutlets" : 0,
					"patching_rect" : [ 78.096771000000004, 3.5, 19.0, 17.0 ],
					"presentation" : 1,
					"presentation_rect" : [ 47.0, 4.5, 19.0, 17.0 ],
					"text" : "8",
					"textjustification" : 1
				}

			}
, 			{
				"box" : 				{
					"id" : "obj-1",
					"maxclass" : "newobj",
					"numinlets" : 1,
					"numoutlets" : 1,
					"outlettype" : [ "" ],
					"patching_rect" : [ 511.096802000000025, 440.0, 38.0, 21.0 ],
					"text" : "dbtoa"
				}

			}
, 			{
				"box" : 				{
					"id" : "obj-91",
					"maxclass" : "newobj",
					"numinlets" : 1,
					"numoutlets" : 1,
					"outlettype" : [ "" ],
					"patching_rect" : [ 511.096802000000025, 180.0, 68.0, 21.0 ],
					"text" : "loadmess 0."
				}

			}
, 			{
				"box" : 				{
					"focusbordercolor" : [ 0.0, 0.019608, 0.078431, 0.0 ],
					"id" : "obj-52",
					"maxclass" : "live.slider",
					"numinlets" : 1,
					"numoutlets" : 2,
					"outlettype" : [ "", "float" ],
					"parameter_enable" : 1,
					"patching_rect" : [ 511.096802000000025, 290.0, 39.0, 133.0 ],
					"presentation" : 1,
					"presentation_rect" : [ 207.000031000000007, 10.5, 39.0, 107.0 ],
					"relative" : 1,
					"saved_attribute_attributes" : 					{
						"valueof" : 						{
							"parameter_type" : 0,
							"parameter_unitstyle" : 4,
							"parameter_mmin" : -60.0,
							"parameter_longname" : "live.slider",
							"parameter_mmax" : 6.0,
							"parameter_shortname" : " "
						}

					}
,
					"slidercolor" : [ 0.0, 0.019608, 0.078431, 0.0 ],
					"varname" : "live.slider"
				}

			}
, 			{
				"box" : 				{
					"id" : "obj-50",
					"linecount" : 3,
					"maxclass" : "comment",
					"numinlets" : 1,
					"numoutlets" : 0,
					"patching_rect" : [ 308.5, -2.0, 300.0, 43.0 ],
					"text" : "32 live.meter~  + one global gain\n\nMuch more efficient than live.gain~"
				}

			}
, 			{
				"box" : 				{
					"fontname" : "Arial",
					"fontsize" : 11.0,
					"id" : "obj-77",
					"maxclass" : "message",
					"numinlets" : 2,
					"numoutlets" : 1,
					"outlettype" : [ "" ],
					"patching_rect" : [ 511.096802000000025, 470.0, 100.0, 21.0 ],
					"text" : "/channel/*/gain $1"
				}

			}
, 			{
				"box" : 				{
					"id" : "obj-72",
					"maxclass" : "newobj",
					"numinlets" : 32,
					"numoutlets" : 33,
					"outlettype" : [ "signal", "signal", "signal", "signal", "signal", "signal", "signal", "signal", "signal", "signal", "signal", "signal", "signal", "signal", "signal", "signal", "signal", "signal", "signal", "signal", "signal", "signal", "signal", "signal", "signal", "signal", "signal", "signal", "signal", "signal", "signal", "signal", "" ],
					"patching_rect" : [ 30.0, 210.0, 452.899445000000014, 21.0 ],
					"saved_object_attributes" : 					{
						"parameter_enable" : 0
					}
,
					"text" : "spat5.diagmatrix~ @channels 32"
				}

			}
, 			{
				"box" : 				{
					"id" : "obj-34",
					"maxclass" : "newobj",
					"numinlets" : 32,
					"numoutlets" : 32,
					"outlettype" : [ "signal", "signal", "signal", "signal", "signal", "signal", "signal", "signal", "signal", "signal", "signal", "signal", "signal", "signal", "signal", "signal", "signal", "signal", "signal", "signal", "signal", "signal", "signal", "signal", "signal", "signal", "signal", "signal", "signal", "signal", "signal", "signal" ],
					"patching_rect" : [ 30.0, 270.0, 235.09677099999999, 21.0 ],
					"text" : "spat5.thru32~"
				}

			}
, 			{
				"box" : 				{
					"id" : "obj-18",
					"maxclass" : "live.meter~",
					"numinlets" : 1,
					"numoutlets" : 2,
					"outlettype" : [ "float", "int" ],
					"patching_rect" : [ 253.09677099999999, 306.0, 5.0, 100.0 ],
					"presentation" : 1,
					"presentation_rect" : [ 221.0, 25.0, 5.0, 76.0 ]
				}

			}
, 			{
				"box" : 				{
					"id" : "obj-19",
					"maxclass" : "live.meter~",
					"numinlets" : 1,
					"numoutlets" : 2,
					"outlettype" : [ "float", "int" ],
					"patching_rect" : [ 246.09677099999999, 306.0, 5.0, 100.0 ],
					"presentation" : 1,
					"presentation_rect" : [ 214.0, 25.0, 5.0, 76.0 ]
				}

			}
, 			{
				"box" : 				{
					"id" : "obj-20",
					"maxclass" : "live.meter~",
					"numinlets" : 1,
					"numoutlets" : 2,
					"outlettype" : [ "float", "int" ],
					"patching_rect" : [ 239.09677099999999, 306.0, 5.0, 100.0 ],
					"presentation" : 1,
					"presentation_rect" : [ 207.0, 25.0, 5.0, 76.0 ]
				}

			}
, 			{
				"box" : 				{
					"id" : "obj-21",
					"maxclass" : "live.meter~",
					"numinlets" : 1,
					"numoutlets" : 2,
					"outlettype" : [ "float", "int" ],
					"patching_rect" : [ 232.09677099999999, 306.0, 5.0, 100.0 ],
					"presentation" : 1,
					"presentation_rect" : [ 200.0, 25.0, 5.0, 76.0 ]
				}

			}
, 			{
				"box" : 				{
					"id" : "obj-22",
					"maxclass" : "live.meter~",
					"numinlets" : 1,
					"numoutlets" : 2,
					"outlettype" : [ "float", "int" ],
					"patching_rect" : [ 225.09677099999999, 306.0, 5.0, 100.0 ],
					"presentation" : 1,
					"presentation_rect" : [ 193.0, 25.0, 5.0, 76.0 ]
				}

			}
, 			{
				"box" : 				{
					"id" : "obj-23",
					"maxclass" : "live.meter~",
					"numinlets" : 1,
					"numoutlets" : 2,
					"outlettype" : [ "float", "int" ],
					"patching_rect" : [ 218.09677099999999, 306.0, 5.0, 100.0 ],
					"presentation" : 1,
					"presentation_rect" : [ 186.0, 25.0, 5.0, 76.0 ]
				}

			}
, 			{
				"box" : 				{
					"id" : "obj-24",
					"maxclass" : "live.meter~",
					"numinlets" : 1,
					"numoutlets" : 2,
					"outlettype" : [ "float", "int" ],
					"patching_rect" : [ 211.09677099999999, 306.0, 5.0, 100.0 ],
					"presentation" : 1,
					"presentation_rect" : [ 179.0, 25.0, 5.0, 76.0 ]
				}

			}
, 			{
				"box" : 				{
					"id" : "obj-25",
					"maxclass" : "live.meter~",
					"numinlets" : 1,
					"numoutlets" : 2,
					"outlettype" : [ "float", "int" ],
					"patching_rect" : [ 204.09677099999999, 306.0, 5.0, 100.0 ],
					"presentation" : 1,
					"presentation_rect" : [ 172.0, 25.0, 5.0, 76.0 ]
				}

			}
, 			{
				"box" : 				{
					"id" : "obj-26",
					"maxclass" : "live.meter~",
					"numinlets" : 1,
					"numoutlets" : 2,
					"outlettype" : [ "float", "int" ],
					"patching_rect" : [ 197.09677099999999, 306.0, 5.0, 100.0 ],
					"presentation" : 1,
					"presentation_rect" : [ 165.0, 25.0, 5.0, 76.0 ]
				}

			}
, 			{
				"box" : 				{
					"id" : "obj-27",
					"maxclass" : "live.meter~",
					"numinlets" : 1,
					"numoutlets" : 2,
					"outlettype" : [ "float", "int" ],
					"patching_rect" : [ 190.09677099999999, 306.0, 5.0, 100.0 ],
					"presentation" : 1,
					"presentation_rect" : [ 158.0, 25.0, 5.0, 76.0 ]
				}

			}
, 			{
				"box" : 				{
					"id" : "obj-28",
					"maxclass" : "live.meter~",
					"numinlets" : 1,
					"numoutlets" : 2,
					"outlettype" : [ "float", "int" ],
					"patching_rect" : [ 183.09677099999999, 306.0, 5.0, 100.0 ],
					"presentation" : 1,
					"presentation_rect" : [ 151.0, 25.0, 5.0, 76.0 ]
				}

			}
, 			{
				"box" : 				{
					"id" : "obj-29",
					"maxclass" : "live.meter~",
					"numinlets" : 1,
					"numoutlets" : 2,
					"outlettype" : [ "float", "int" ],
					"patching_rect" : [ 176.09677099999999, 306.0, 5.0, 100.0 ],
					"presentation" : 1,
					"presentation_rect" : [ 144.0, 25.0, 5.0, 76.0 ]
				}

			}
, 			{
				"box" : 				{
					"id" : "obj-30",
					"maxclass" : "live.meter~",
					"numinlets" : 1,
					"numoutlets" : 2,
					"outlettype" : [ "float", "int" ],
					"patching_rect" : [ 169.09677099999999, 306.0, 5.0, 100.0 ],
					"presentation" : 1,
					"presentation_rect" : [ 137.0, 25.0, 5.0, 76.0 ]
				}

			}
, 			{
				"box" : 				{
					"id" : "obj-31",
					"maxclass" : "live.meter~",
					"numinlets" : 1,
					"numoutlets" : 2,
					"outlettype" : [ "float", "int" ],
					"patching_rect" : [ 162.09677099999999, 306.0, 5.0, 100.0 ],
					"presentation" : 1,
					"presentation_rect" : [ 130.0, 25.0, 5.0, 76.0 ]
				}

			}
, 			{
				"box" : 				{
					"id" : "obj-32",
					"maxclass" : "live.meter~",
					"numinlets" : 1,
					"numoutlets" : 2,
					"outlettype" : [ "float", "int" ],
					"patching_rect" : [ 155.09677099999999, 306.0, 5.0, 100.0 ],
					"presentation" : 1,
					"presentation_rect" : [ 123.0, 25.0, 5.0, 76.0 ]
				}

			}
, 			{
				"box" : 				{
					"id" : "obj-33",
					"maxclass" : "live.meter~",
					"numinlets" : 1,
					"numoutlets" : 2,
					"outlettype" : [ "float", "int" ],
					"patching_rect" : [ 148.09677099999999, 306.0, 5.0, 100.0 ],
					"presentation" : 1,
					"presentation_rect" : [ 116.0, 25.0, 5.0, 76.0 ]
				}

			}
, 			{
				"box" : 				{
					"id" : "obj-10",
					"maxclass" : "live.meter~",
					"numinlets" : 1,
					"numoutlets" : 2,
					"outlettype" : [ "float", "int" ],
					"patching_rect" : [ 141.09677099999999, 306.0, 5.0, 100.0 ],
					"presentation" : 1,
					"presentation_rect" : [ 109.0, 25.0, 5.0, 76.0 ]
				}

			}
, 			{
				"box" : 				{
					"id" : "obj-11",
					"maxclass" : "live.meter~",
					"numinlets" : 1,
					"numoutlets" : 2,
					"outlettype" : [ "float", "int" ],
					"patching_rect" : [ 134.09677099999999, 306.0, 5.0, 100.0 ],
					"presentation" : 1,
					"presentation_rect" : [ 102.0, 25.0, 5.0, 76.0 ]
				}

			}
, 			{
				"box" : 				{
					"id" : "obj-12",
					"maxclass" : "live.meter~",
					"numinlets" : 1,
					"numoutlets" : 2,
					"outlettype" : [ "float", "int" ],
					"patching_rect" : [ 127.096771000000004, 306.0, 5.0, 100.0 ],
					"presentation" : 1,
					"presentation_rect" : [ 95.0, 25.0, 5.0, 76.0 ]
				}

			}
, 			{
				"box" : 				{
					"id" : "obj-13",
					"maxclass" : "live.meter~",
					"numinlets" : 1,
					"numoutlets" : 2,
					"outlettype" : [ "float", "int" ],
					"patching_rect" : [ 120.096771000000004, 306.0, 5.0, 100.0 ],
					"presentation" : 1,
					"presentation_rect" : [ 88.0, 25.0, 5.0, 76.0 ]
				}

			}
, 			{
				"box" : 				{
					"id" : "obj-14",
					"maxclass" : "live.meter~",
					"numinlets" : 1,
					"numoutlets" : 2,
					"outlettype" : [ "float", "int" ],
					"patching_rect" : [ 113.096771000000004, 306.0, 5.0, 100.0 ],
					"presentation" : 1,
					"presentation_rect" : [ 81.0, 25.0, 5.0, 76.0 ]
				}

			}
, 			{
				"box" : 				{
					"id" : "obj-15",
					"maxclass" : "live.meter~",
					"numinlets" : 1,
					"numoutlets" : 2,
					"outlettype" : [ "float", "int" ],
					"patching_rect" : [ 106.096771000000004, 306.0, 5.0, 100.0 ],
					"presentation" : 1,
					"presentation_rect" : [ 74.0, 25.0, 5.0, 76.0 ]
				}

			}
, 			{
				"box" : 				{
					"id" : "obj-16",
					"maxclass" : "live.meter~",
					"numinlets" : 1,
					"numoutlets" : 2,
					"outlettype" : [ "float", "int" ],
					"patching_rect" : [ 99.096771000000004, 306.0, 5.0, 100.0 ],
					"presentation" : 1,
					"presentation_rect" : [ 67.0, 25.0, 5.0, 76.0 ]
				}

			}
, 			{
				"box" : 				{
					"id" : "obj-17",
					"maxclass" : "live.meter~",
					"numinlets" : 1,
					"numoutlets" : 2,
					"outlettype" : [ "float", "int" ],
					"patching_rect" : [ 92.096771000000004, 306.0, 5.0, 100.0 ],
					"presentation" : 1,
					"presentation_rect" : [ 60.0, 25.0, 5.0, 76.0 ]
				}

			}
, 			{
				"box" : 				{
					"id" : "obj-6",
					"maxclass" : "live.meter~",
					"numinlets" : 1,
					"numoutlets" : 2,
					"outlettype" : [ "float", "int" ],
					"patching_rect" : [ 85.096771000000004, 306.0, 5.0, 100.0 ],
					"presentation" : 1,
					"presentation_rect" : [ 53.0, 25.0, 5.0, 76.0 ]
				}

			}
, 			{
				"box" : 				{
					"id" : "obj-7",
					"maxclass" : "live.meter~",
					"numinlets" : 1,
					"numoutlets" : 2,
					"outlettype" : [ "float", "int" ],
					"patching_rect" : [ 78.096771000000004, 306.0, 5.0, 100.0 ],
					"presentation" : 1,
					"presentation_rect" : [ 46.0, 25.0, 5.0, 76.0 ]
				}

			}
, 			{
				"box" : 				{
					"id" : "obj-8",
					"maxclass" : "live.meter~",
					"numinlets" : 1,
					"numoutlets" : 2,
					"outlettype" : [ "float", "int" ],
					"patching_rect" : [ 71.096771000000004, 306.0, 5.0, 100.0 ],
					"presentation" : 1,
					"presentation_rect" : [ 39.0, 25.0, 5.0, 76.0 ]
				}

			}
, 			{
				"box" : 				{
					"id" : "obj-9",
					"maxclass" : "live.meter~",
					"numinlets" : 1,
					"numoutlets" : 2,
					"outlettype" : [ "float", "int" ],
					"patching_rect" : [ 64.096771000000004, 306.0, 5.0, 100.0 ],
					"presentation" : 1,
					"presentation_rect" : [ 32.0, 25.0, 5.0, 76.0 ]
				}

			}
, 			{
				"box" : 				{
					"id" : "obj-5",
					"maxclass" : "live.meter~",
					"numinlets" : 1,
					"numoutlets" : 2,
					"outlettype" : [ "float", "int" ],
					"patching_rect" : [ 57.096770999999997, 306.0, 5.0, 100.0 ],
					"presentation" : 1,
					"presentation_rect" : [ 25.0, 25.0, 5.0, 76.0 ]
				}

			}
, 			{
				"box" : 				{
					"id" : "obj-4",
					"maxclass" : "live.meter~",
					"numinlets" : 1,
					"numoutlets" : 2,
					"outlettype" : [ "float", "int" ],
					"patching_rect" : [ 50.096770999999997, 306.0, 5.0, 100.0 ],
					"presentation" : 1,
					"presentation_rect" : [ 18.0, 25.0, 5.0, 76.0 ]
				}

			}
, 			{
				"box" : 				{
					"id" : "obj-3",
					"maxclass" : "live.meter~",
					"numinlets" : 1,
					"numoutlets" : 2,
					"outlettype" : [ "float", "int" ],
					"patching_rect" : [ 43.096770999999997, 306.0, 5.0, 100.0 ],
					"presentation" : 1,
					"presentation_rect" : [ 11.0, 25.0, 5.0, 76.0 ]
				}

			}
, 			{
				"box" : 				{
					"id" : "obj-2",
					"maxclass" : "live.meter~",
					"numinlets" : 1,
					"numoutlets" : 2,
					"outlettype" : [ "float", "int" ],
					"patching_rect" : [ 36.096770999999997, 306.0, 5.0, 100.0 ],
					"presentation" : 1,
					"presentation_rect" : [ 4.0, 25.0, 5.0, 76.0 ]
				}

			}
 ],
		"lines" : [ 			{
				"patchline" : 				{
					"destination" : [ "obj-77", 0 ],
					"source" : [ "obj-1", 0 ]
				}

			}
, 			{
				"patchline" : 				{
					"destination" : [ "obj-1673", 0 ],
					"source" : [ "obj-1416", 0 ]
				}

			}
, 			{
				"patchline" : 				{
					"destination" : [ "obj-1673", 1 ],
					"source" : [ "obj-1418", 0 ]
				}

			}
, 			{
				"patchline" : 				{
					"destination" : [ "obj-1673", 2 ],
					"source" : [ "obj-1420", 0 ]
				}

			}
, 			{
				"patchline" : 				{
					"destination" : [ "obj-1673", 3 ],
					"source" : [ "obj-1422", 0 ]
				}

			}
, 			{
				"patchline" : 				{
					"destination" : [ "obj-1673", 4 ],
					"source" : [ "obj-1424", 0 ]
				}

			}
, 			{
				"patchline" : 				{
					"destination" : [ "obj-1673", 5 ],
					"source" : [ "obj-1426", 0 ]
				}

			}
, 			{
				"patchline" : 				{
					"destination" : [ "obj-1673", 6 ],
					"source" : [ "obj-1428", 0 ]
				}

			}
, 			{
				"patchline" : 				{
					"destination" : [ "obj-1673", 7 ],
					"source" : [ "obj-1430", 0 ]
				}

			}
, 			{
				"patchline" : 				{
					"destination" : [ "obj-1673", 8 ],
					"source" : [ "obj-1432", 0 ]
				}

			}
, 			{
				"patchline" : 				{
					"destination" : [ "obj-1673", 9 ],
					"source" : [ "obj-1434", 0 ]
				}

			}
, 			{
				"patchline" : 				{
					"destination" : [ "obj-1673", 10 ],
					"source" : [ "obj-1436", 0 ]
				}

			}
, 			{
				"patchline" : 				{
					"destination" : [ "obj-1673", 11 ],
					"source" : [ "obj-1438", 0 ]
				}

			}
, 			{
				"patchline" : 				{
					"destination" : [ "obj-1673", 12 ],
					"source" : [ "obj-1440", 0 ]
				}

			}
, 			{
				"patchline" : 				{
					"destination" : [ "obj-1673", 13 ],
					"source" : [ "obj-1442", 0 ]
				}

			}
, 			{
				"patchline" : 				{
					"destination" : [ "obj-1673", 14 ],
					"source" : [ "obj-1444", 0 ]
				}

			}
, 			{
				"patchline" : 				{
					"destination" : [ "obj-1673", 15 ],
					"source" : [ "obj-1446", 0 ]
				}

			}
, 			{
				"patchline" : 				{
					"destination" : [ "obj-1673", 16 ],
					"source" : [ "obj-1448", 0 ]
				}

			}
, 			{
				"patchline" : 				{
					"destination" : [ "obj-1673", 17 ],
					"source" : [ "obj-1450", 0 ]
				}

			}
, 			{
				"patchline" : 				{
					"destination" : [ "obj-1673", 18 ],
					"source" : [ "obj-1452", 0 ]
				}

			}
, 			{
				"patchline" : 				{
					"destination" : [ "obj-1673", 19 ],
					"source" : [ "obj-1454", 0 ]
				}

			}
, 			{
				"patchline" : 				{
					"destination" : [ "obj-1673", 20 ],
					"source" : [ "obj-1456", 0 ]
				}

			}
, 			{
				"patchline" : 				{
					"destination" : [ "obj-1673", 21 ],
					"source" : [ "obj-1458", 0 ]
				}

			}
, 			{
				"patchline" : 				{
					"destination" : [ "obj-1673", 22 ],
					"source" : [ "obj-1460", 0 ]
				}

			}
, 			{
				"patchline" : 				{
					"destination" : [ "obj-1673", 23 ],
					"source" : [ "obj-1462", 0 ]
				}

			}
, 			{
				"patchline" : 				{
					"destination" : [ "obj-1673", 24 ],
					"source" : [ "obj-1464", 0 ]
				}

			}
, 			{
				"patchline" : 				{
					"destination" : [ "obj-1673", 25 ],
					"source" : [ "obj-1466", 0 ]
				}

			}
, 			{
				"patchline" : 				{
					"destination" : [ "obj-1673", 26 ],
					"source" : [ "obj-1468", 0 ]
				}

			}
, 			{
				"patchline" : 				{
					"destination" : [ "obj-1673", 27 ],
					"source" : [ "obj-1470", 0 ]
				}

			}
, 			{
				"patchline" : 				{
					"destination" : [ "obj-1673", 28 ],
					"source" : [ "obj-1472", 0 ]
				}

			}
, 			{
				"patchline" : 				{
					"destination" : [ "obj-1673", 29 ],
					"source" : [ "obj-1474", 0 ]
				}

			}
, 			{
				"patchline" : 				{
					"destination" : [ "obj-1673", 30 ],
					"source" : [ "obj-1476", 0 ]
				}

			}
, 			{
				"patchline" : 				{
					"destination" : [ "obj-1673", 31 ],
					"source" : [ "obj-1478", 0 ]
				}

			}
, 			{
				"patchline" : 				{
					"destination" : [ "obj-72", 31 ],
					"source" : [ "obj-1673", 31 ]
				}

			}
, 			{
				"patchline" : 				{
					"destination" : [ "obj-72", 30 ],
					"source" : [ "obj-1673", 30 ]
				}

			}
, 			{
				"patchline" : 				{
					"destination" : [ "obj-72", 29 ],
					"source" : [ "obj-1673", 29 ]
				}

			}
, 			{
				"patchline" : 				{
					"destination" : [ "obj-72", 28 ],
					"source" : [ "obj-1673", 28 ]
				}

			}
, 			{
				"patchline" : 				{
					"destination" : [ "obj-72", 27 ],
					"source" : [ "obj-1673", 27 ]
				}

			}
, 			{
				"patchline" : 				{
					"destination" : [ "obj-72", 26 ],
					"source" : [ "obj-1673", 26 ]
				}

			}
, 			{
				"patchline" : 				{
					"destination" : [ "obj-72", 25 ],
					"source" : [ "obj-1673", 25 ]
				}

			}
, 			{
				"patchline" : 				{
					"destination" : [ "obj-72", 24 ],
					"source" : [ "obj-1673", 24 ]
				}

			}
, 			{
				"patchline" : 				{
					"destination" : [ "obj-72", 23 ],
					"source" : [ "obj-1673", 23 ]
				}

			}
, 			{
				"patchline" : 				{
					"destination" : [ "obj-72", 22 ],
					"source" : [ "obj-1673", 22 ]
				}

			}
, 			{
				"patchline" : 				{
					"destination" : [ "obj-72", 21 ],
					"source" : [ "obj-1673", 21 ]
				}

			}
, 			{
				"patchline" : 				{
					"destination" : [ "obj-72", 20 ],
					"source" : [ "obj-1673", 20 ]
				}

			}
, 			{
				"patchline" : 				{
					"destination" : [ "obj-72", 19 ],
					"source" : [ "obj-1673", 19 ]
				}

			}
, 			{
				"patchline" : 				{
					"destination" : [ "obj-72", 18 ],
					"source" : [ "obj-1673", 18 ]
				}

			}
, 			{
				"patchline" : 				{
					"destination" : [ "obj-72", 17 ],
					"source" : [ "obj-1673", 17 ]
				}

			}
, 			{
				"patchline" : 				{
					"destination" : [ "obj-72", 16 ],
					"source" : [ "obj-1673", 16 ]
				}

			}
, 			{
				"patchline" : 				{
					"destination" : [ "obj-72", 15 ],
					"source" : [ "obj-1673", 15 ]
				}

			}
, 			{
				"patchline" : 				{
					"destination" : [ "obj-72", 14 ],
					"source" : [ "obj-1673", 14 ]
				}

			}
, 			{
				"patchline" : 				{
					"destination" : [ "obj-72", 13 ],
					"source" : [ "obj-1673", 13 ]
				}

			}
, 			{
				"patchline" : 				{
					"destination" : [ "obj-72", 12 ],
					"source" : [ "obj-1673", 12 ]
				}

			}
, 			{
				"patchline" : 				{
					"destination" : [ "obj-72", 11 ],
					"source" : [ "obj-1673", 11 ]
				}

			}
, 			{
				"patchline" : 				{
					"destination" : [ "obj-72", 10 ],
					"source" : [ "obj-1673", 10 ]
				}

			}
, 			{
				"patchline" : 				{
					"destination" : [ "obj-72", 9 ],
					"source" : [ "obj-1673", 9 ]
				}

			}
, 			{
				"patchline" : 				{
					"destination" : [ "obj-72", 8 ],
					"source" : [ "obj-1673", 8 ]
				}

			}
, 			{
				"patchline" : 				{
					"destination" : [ "obj-72", 7 ],
					"source" : [ "obj-1673", 7 ]
				}

			}
, 			{
				"patchline" : 				{
					"destination" : [ "obj-72", 6 ],
					"source" : [ "obj-1673", 6 ]
				}

			}
, 			{
				"patchline" : 				{
					"destination" : [ "obj-72", 5 ],
					"source" : [ "obj-1673", 5 ]
				}

			}
, 			{
				"patchline" : 				{
					"destination" : [ "obj-72", 4 ],
					"source" : [ "obj-1673", 4 ]
				}

			}
, 			{
				"patchline" : 				{
					"destination" : [ "obj-72", 3 ],
					"source" : [ "obj-1673", 3 ]
				}

			}
, 			{
				"patchline" : 				{
					"destination" : [ "obj-72", 2 ],
					"source" : [ "obj-1673", 2 ]
				}

			}
, 			{
				"patchline" : 				{
					"destination" : [ "obj-72", 1 ],
					"source" : [ "obj-1673", 1 ]
				}

			}
, 			{
				"patchline" : 				{
					"destination" : [ "obj-72", 0 ],
					"source" : [ "obj-1673", 0 ]
				}

			}
, 			{
				"patchline" : 				{
					"destination" : [ "obj-10", 0 ],
					"source" : [ "obj-34", 15 ]
				}

			}
, 			{
				"patchline" : 				{
					"destination" : [ "obj-11", 0 ],
					"source" : [ "obj-34", 14 ]
				}

			}
, 			{
				"patchline" : 				{
					"destination" : [ "obj-12", 0 ],
					"source" : [ "obj-34", 13 ]
				}

			}
, 			{
				"patchline" : 				{
					"destination" : [ "obj-13", 0 ],
					"source" : [ "obj-34", 12 ]
				}

			}
, 			{
				"patchline" : 				{
					"destination" : [ "obj-14", 0 ],
					"source" : [ "obj-34", 11 ]
				}

			}
, 			{
				"patchline" : 				{
					"destination" : [ "obj-15", 0 ],
					"source" : [ "obj-34", 10 ]
				}

			}
, 			{
				"patchline" : 				{
					"destination" : [ "obj-16", 0 ],
					"source" : [ "obj-34", 9 ]
				}

			}
, 			{
				"patchline" : 				{
					"destination" : [ "obj-17", 0 ],
					"source" : [ "obj-34", 8 ]
				}

			}
, 			{
				"patchline" : 				{
					"destination" : [ "obj-18", 0 ],
					"source" : [ "obj-34", 31 ]
				}

			}
, 			{
				"patchline" : 				{
					"destination" : [ "obj-19", 0 ],
					"source" : [ "obj-34", 30 ]
				}

			}
, 			{
				"patchline" : 				{
					"destination" : [ "obj-2", 0 ],
					"source" : [ "obj-34", 0 ]
				}

			}
, 			{
				"patchline" : 				{
					"destination" : [ "obj-20", 0 ],
					"source" : [ "obj-34", 29 ]
				}

			}
, 			{
				"patchline" : 				{
					"destination" : [ "obj-21", 0 ],
					"source" : [ "obj-34", 28 ]
				}

			}
, 			{
				"patchline" : 				{
					"destination" : [ "obj-22", 0 ],
					"source" : [ "obj-34", 27 ]
				}

			}
, 			{
				"patchline" : 				{
					"destination" : [ "obj-23", 0 ],
					"source" : [ "obj-34", 26 ]
				}

			}
, 			{
				"patchline" : 				{
					"destination" : [ "obj-24", 0 ],
					"source" : [ "obj-34", 25 ]
				}

			}
, 			{
				"patchline" : 				{
					"destination" : [ "obj-25", 0 ],
					"source" : [ "obj-34", 24 ]
				}

			}
, 			{
				"patchline" : 				{
					"destination" : [ "obj-26", 0 ],
					"source" : [ "obj-34", 23 ]
				}

			}
, 			{
				"patchline" : 				{
					"destination" : [ "obj-27", 0 ],
					"source" : [ "obj-34", 22 ]
				}

			}
, 			{
				"patchline" : 				{
					"destination" : [ "obj-28", 0 ],
					"source" : [ "obj-34", 21 ]
				}

			}
, 			{
				"patchline" : 				{
					"destination" : [ "obj-29", 0 ],
					"source" : [ "obj-34", 20 ]
				}

			}
, 			{
				"patchline" : 				{
					"destination" : [ "obj-3", 0 ],
					"source" : [ "obj-34", 1 ]
				}

			}
, 			{
				"patchline" : 				{
					"destination" : [ "obj-30", 0 ],
					"source" : [ "obj-34", 19 ]
				}

			}
, 			{
				"patchline" : 				{
					"destination" : [ "obj-31", 0 ],
					"source" : [ "obj-34", 18 ]
				}

			}
, 			{
				"patchline" : 				{
					"destination" : [ "obj-32", 0 ],
					"source" : [ "obj-34", 17 ]
				}

			}
, 			{
				"patchline" : 				{
					"destination" : [ "obj-33", 0 ],
					"source" : [ "obj-34", 16 ]
				}

			}
, 			{
				"patchline" : 				{
					"destination" : [ "obj-4", 0 ],
					"source" : [ "obj-34", 2 ]
				}

			}
, 			{
				"patchline" : 				{
					"destination" : [ "obj-5", 0 ],
					"source" : [ "obj-34", 3 ]
				}

			}
, 			{
				"patchline" : 				{
					"destination" : [ "obj-6", 0 ],
					"source" : [ "obj-34", 7 ]
				}

			}
, 			{
				"patchline" : 				{
					"destination" : [ "obj-7", 0 ],
					"source" : [ "obj-34", 6 ]
				}

			}
, 			{
				"patchline" : 				{
					"destination" : [ "obj-8", 0 ],
					"source" : [ "obj-34", 5 ]
				}

			}
, 			{
				"patchline" : 				{
					"destination" : [ "obj-9", 0 ],
					"source" : [ "obj-34", 4 ]
				}

			}
, 			{
				"patchline" : 				{
					"destination" : [ "obj-1", 0 ],
					"source" : [ "obj-52", 0 ]
				}

			}
, 			{
				"patchline" : 				{
					"destination" : [ "obj-1544", 0 ],
					"source" : [ "obj-63", 0 ]
				}

			}
, 			{
				"patchline" : 				{
					"destination" : [ "obj-1546", 0 ],
					"source" : [ "obj-63", 1 ]
				}

			}
, 			{
				"patchline" : 				{
					"destination" : [ "obj-1548", 0 ],
					"source" : [ "obj-63", 2 ]
				}

			}
, 			{
				"patchline" : 				{
					"destination" : [ "obj-1550", 0 ],
					"source" : [ "obj-63", 3 ]
				}

			}
, 			{
				"patchline" : 				{
					"destination" : [ "obj-1552", 0 ],
					"source" : [ "obj-63", 4 ]
				}

			}
, 			{
				"patchline" : 				{
					"destination" : [ "obj-1554", 0 ],
					"source" : [ "obj-63", 5 ]
				}

			}
, 			{
				"patchline" : 				{
					"destination" : [ "obj-1556", 0 ],
					"source" : [ "obj-63", 6 ]
				}

			}
, 			{
				"patchline" : 				{
					"destination" : [ "obj-1558", 0 ],
					"source" : [ "obj-63", 7 ]
				}

			}
, 			{
				"patchline" : 				{
					"destination" : [ "obj-1560", 0 ],
					"source" : [ "obj-63", 8 ]
				}

			}
, 			{
				"patchline" : 				{
					"destination" : [ "obj-1562", 0 ],
					"source" : [ "obj-63", 9 ]
				}

			}
, 			{
				"patchline" : 				{
					"destination" : [ "obj-1564", 0 ],
					"source" : [ "obj-63", 10 ]
				}

			}
, 			{
				"patchline" : 				{
					"destination" : [ "obj-1566", 0 ],
					"source" : [ "obj-63", 11 ]
				}

			}
, 			{
				"patchline" : 				{
					"destination" : [ "obj-1568", 0 ],
					"source" : [ "obj-63", 12 ]
				}

			}
, 			{
				"patchline" : 				{
					"destination" : [ "obj-1570", 0 ],
					"source" : [ "obj-63", 13 ]
				}

			}
, 			{
				"patchline" : 				{
					"destination" : [ "obj-1572", 0 ],
					"source" : [ "obj-63", 14 ]
				}

			}
, 			{
				"patchline" : 				{
					"destination" : [ "obj-1574", 0 ],
					"source" : [ "obj-63", 15 ]
				}

			}
, 			{
				"patchline" : 				{
					"destination" : [ "obj-1576", 0 ],
					"source" : [ "obj-63", 16 ]
				}

			}
, 			{
				"patchline" : 				{
					"destination" : [ "obj-1578", 0 ],
					"source" : [ "obj-63", 17 ]
				}

			}
, 			{
				"patchline" : 				{
					"destination" : [ "obj-1580", 0 ],
					"source" : [ "obj-63", 18 ]
				}

			}
, 			{
				"patchline" : 				{
					"destination" : [ "obj-1582", 0 ],
					"source" : [ "obj-63", 19 ]
				}

			}
, 			{
				"patchline" : 				{
					"destination" : [ "obj-1584", 0 ],
					"source" : [ "obj-63", 20 ]
				}

			}
, 			{
				"patchline" : 				{
					"destination" : [ "obj-1586", 0 ],
					"source" : [ "obj-63", 21 ]
				}

			}
, 			{
				"patchline" : 				{
					"destination" : [ "obj-1588", 0 ],
					"source" : [ "obj-63", 22 ]
				}

			}
, 			{
				"patchline" : 				{
					"destination" : [ "obj-1590", 0 ],
					"source" : [ "obj-63", 23 ]
				}

			}
, 			{
				"patchline" : 				{
					"destination" : [ "obj-1592", 0 ],
					"source" : [ "obj-63", 24 ]
				}

			}
, 			{
				"patchline" : 				{
					"destination" : [ "obj-1594", 0 ],
					"source" : [ "obj-63", 25 ]
				}

			}
, 			{
				"patchline" : 				{
					"destination" : [ "obj-1596", 0 ],
					"source" : [ "obj-63", 26 ]
				}

			}
, 			{
				"patchline" : 				{
					"destination" : [ "obj-1598", 0 ],
					"source" : [ "obj-63", 27 ]
				}

			}
, 			{
				"patchline" : 				{
					"destination" : [ "obj-1600", 0 ],
					"source" : [ "obj-63", 28 ]
				}

			}
, 			{
				"patchline" : 				{
					"destination" : [ "obj-1602", 0 ],
					"source" : [ "obj-63", 29 ]
				}

			}
, 			{
				"patchline" : 				{
					"destination" : [ "obj-1604", 0 ],
					"source" : [ "obj-63", 30 ]
				}

			}
, 			{
				"patchline" : 				{
					"destination" : [ "obj-1606", 0 ],
					"source" : [ "obj-63", 31 ]
				}

			}
, 			{
				"patchline" : 				{
					"destination" : [ "obj-34", 31 ],
					"order" : 1,
					"source" : [ "obj-72", 31 ]
				}

			}
, 			{
				"patchline" : 				{
					"destination" : [ "obj-34", 30 ],
					"order" : 1,
					"source" : [ "obj-72", 30 ]
				}

			}
, 			{
				"patchline" : 				{
					"destination" : [ "obj-34", 29 ],
					"order" : 1,
					"source" : [ "obj-72", 29 ]
				}

			}
, 			{
				"patchline" : 				{
					"destination" : [ "obj-34", 28 ],
					"order" : 1,
					"source" : [ "obj-72", 28 ]
				}

			}
, 			{
				"patchline" : 				{
					"destination" : [ "obj-34", 27 ],
					"order" : 1,
					"source" : [ "obj-72", 27 ]
				}

			}
, 			{
				"patchline" : 				{
					"destination" : [ "obj-34", 26 ],
					"order" : 1,
					"source" : [ "obj-72", 26 ]
				}

			}
, 			{
				"patchline" : 				{
					"destination" : [ "obj-34", 25 ],
					"order" : 1,
					"source" : [ "obj-72", 25 ]
				}

			}
, 			{
				"patchline" : 				{
					"destination" : [ "obj-34", 24 ],
					"order" : 1,
					"source" : [ "obj-72", 24 ]
				}

			}
, 			{
				"patchline" : 				{
					"destination" : [ "obj-34", 23 ],
					"order" : 1,
					"source" : [ "obj-72", 23 ]
				}

			}
, 			{
				"patchline" : 				{
					"destination" : [ "obj-34", 22 ],
					"order" : 1,
					"source" : [ "obj-72", 22 ]
				}

			}
, 			{
				"patchline" : 				{
					"destination" : [ "obj-34", 21 ],
					"order" : 1,
					"source" : [ "obj-72", 21 ]
				}

			}
, 			{
				"patchline" : 				{
					"destination" : [ "obj-34", 20 ],
					"order" : 1,
					"source" : [ "obj-72", 20 ]
				}

			}
, 			{
				"patchline" : 				{
					"destination" : [ "obj-34", 19 ],
					"order" : 1,
					"source" : [ "obj-72", 19 ]
				}

			}
, 			{
				"patchline" : 				{
					"destination" : [ "obj-34", 18 ],
					"order" : 1,
					"source" : [ "obj-72", 18 ]
				}

			}
, 			{
				"patchline" : 				{
					"destination" : [ "obj-34", 17 ],
					"order" : 1,
					"source" : [ "obj-72", 17 ]
				}

			}
, 			{
				"patchline" : 				{
					"destination" : [ "obj-34", 16 ],
					"order" : 1,
					"source" : [ "obj-72", 16 ]
				}

			}
, 			{
				"patchline" : 				{
					"destination" : [ "obj-34", 15 ],
					"order" : 1,
					"source" : [ "obj-72", 15 ]
				}

			}
, 			{
				"patchline" : 				{
					"destination" : [ "obj-34", 14 ],
					"order" : 1,
					"source" : [ "obj-72", 14 ]
				}

			}
, 			{
				"patchline" : 				{
					"destination" : [ "obj-34", 13 ],
					"order" : 1,
					"source" : [ "obj-72", 13 ]
				}

			}
, 			{
				"patchline" : 				{
					"destination" : [ "obj-34", 12 ],
					"order" : 1,
					"source" : [ "obj-72", 12 ]
				}

			}
, 			{
				"patchline" : 				{
					"destination" : [ "obj-34", 11 ],
					"order" : 1,
					"source" : [ "obj-72", 11 ]
				}

			}
, 			{
				"patchline" : 				{
					"destination" : [ "obj-34", 10 ],
					"order" : 1,
					"source" : [ "obj-72", 10 ]
				}

			}
, 			{
				"patchline" : 				{
					"destination" : [ "obj-34", 9 ],
					"order" : 1,
					"source" : [ "obj-72", 9 ]
				}

			}
, 			{
				"patchline" : 				{
					"destination" : [ "obj-34", 8 ],
					"order" : 1,
					"source" : [ "obj-72", 8 ]
				}

			}
, 			{
				"patchline" : 				{
					"destination" : [ "obj-34", 7 ],
					"order" : 1,
					"source" : [ "obj-72", 7 ]
				}

			}
, 			{
				"patchline" : 				{
					"destination" : [ "obj-34", 6 ],
					"order" : 1,
					"source" : [ "obj-72", 6 ]
				}

			}
, 			{
				"patchline" : 				{
					"destination" : [ "obj-34", 5 ],
					"order" : 1,
					"source" : [ "obj-72", 5 ]
				}

			}
, 			{
				"patchline" : 				{
					"destination" : [ "obj-34", 4 ],
					"order" : 1,
					"source" : [ "obj-72", 4 ]
				}

			}
, 			{
				"patchline" : 				{
					"destination" : [ "obj-34", 3 ],
					"order" : 1,
					"source" : [ "obj-72", 3 ]
				}

			}
, 			{
				"patchline" : 				{
					"destination" : [ "obj-34", 2 ],
					"order" : 1,
					"source" : [ "obj-72", 2 ]
				}

			}
, 			{
				"patchline" : 				{
					"destination" : [ "obj-34", 1 ],
					"order" : 1,
					"source" : [ "obj-72", 1 ]
				}

			}
, 			{
				"patchline" : 				{
					"destination" : [ "obj-34", 0 ],
					"order" : 1,
					"source" : [ "obj-72", 0 ]
				}

			}
, 			{
				"patchline" : 				{
					"destination" : [ "obj-63", 31 ],
					"order" : 0,
					"source" : [ "obj-72", 31 ]
				}

			}
, 			{
				"patchline" : 				{
					"destination" : [ "obj-63", 30 ],
					"order" : 0,
					"source" : [ "obj-72", 30 ]
				}

			}
, 			{
				"patchline" : 				{
					"destination" : [ "obj-63", 29 ],
					"order" : 0,
					"source" : [ "obj-72", 29 ]
				}

			}
, 			{
				"patchline" : 				{
					"destination" : [ "obj-63", 28 ],
					"order" : 0,
					"source" : [ "obj-72", 28 ]
				}

			}
, 			{
				"patchline" : 				{
					"destination" : [ "obj-63", 27 ],
					"order" : 0,
					"source" : [ "obj-72", 27 ]
				}

			}
, 			{
				"patchline" : 				{
					"destination" : [ "obj-63", 26 ],
					"order" : 0,
					"source" : [ "obj-72", 26 ]
				}

			}
, 			{
				"patchline" : 				{
					"destination" : [ "obj-63", 25 ],
					"order" : 0,
					"source" : [ "obj-72", 25 ]
				}

			}
, 			{
				"patchline" : 				{
					"destination" : [ "obj-63", 24 ],
					"order" : 0,
					"source" : [ "obj-72", 24 ]
				}

			}
, 			{
				"patchline" : 				{
					"destination" : [ "obj-63", 23 ],
					"order" : 0,
					"source" : [ "obj-72", 23 ]
				}

			}
, 			{
				"patchline" : 				{
					"destination" : [ "obj-63", 22 ],
					"order" : 0,
					"source" : [ "obj-72", 22 ]
				}

			}
, 			{
				"patchline" : 				{
					"destination" : [ "obj-63", 21 ],
					"order" : 0,
					"source" : [ "obj-72", 21 ]
				}

			}
, 			{
				"patchline" : 				{
					"destination" : [ "obj-63", 20 ],
					"order" : 0,
					"source" : [ "obj-72", 20 ]
				}

			}
, 			{
				"patchline" : 				{
					"destination" : [ "obj-63", 19 ],
					"order" : 0,
					"source" : [ "obj-72", 19 ]
				}

			}
, 			{
				"patchline" : 				{
					"destination" : [ "obj-63", 18 ],
					"order" : 0,
					"source" : [ "obj-72", 18 ]
				}

			}
, 			{
				"patchline" : 				{
					"destination" : [ "obj-63", 17 ],
					"order" : 0,
					"source" : [ "obj-72", 17 ]
				}

			}
, 			{
				"patchline" : 				{
					"destination" : [ "obj-63", 16 ],
					"order" : 0,
					"source" : [ "obj-72", 16 ]
				}

			}
, 			{
				"patchline" : 				{
					"destination" : [ "obj-63", 15 ],
					"order" : 0,
					"source" : [ "obj-72", 15 ]
				}

			}
, 			{
				"patchline" : 				{
					"destination" : [ "obj-63", 14 ],
					"order" : 0,
					"source" : [ "obj-72", 14 ]
				}

			}
, 			{
				"patchline" : 				{
					"destination" : [ "obj-63", 13 ],
					"order" : 0,
					"source" : [ "obj-72", 13 ]
				}

			}
, 			{
				"patchline" : 				{
					"destination" : [ "obj-63", 12 ],
					"order" : 0,
					"source" : [ "obj-72", 12 ]
				}

			}
, 			{
				"patchline" : 				{
					"destination" : [ "obj-63", 11 ],
					"order" : 0,
					"source" : [ "obj-72", 11 ]
				}

			}
, 			{
				"patchline" : 				{
					"destination" : [ "obj-63", 10 ],
					"order" : 0,
					"source" : [ "obj-72", 10 ]
				}

			}
, 			{
				"patchline" : 				{
					"destination" : [ "obj-63", 9 ],
					"order" : 0,
					"source" : [ "obj-72", 9 ]
				}

			}
, 			{
				"patchline" : 				{
					"destination" : [ "obj-63", 8 ],
					"order" : 0,
					"source" : [ "obj-72", 8 ]
				}

			}
, 			{
				"patchline" : 				{
					"destination" : [ "obj-63", 7 ],
					"order" : 0,
					"source" : [ "obj-72", 7 ]
				}

			}
, 			{
				"patchline" : 				{
					"destination" : [ "obj-63", 6 ],
					"order" : 0,
					"source" : [ "obj-72", 6 ]
				}

			}
, 			{
				"patchline" : 				{
					"destination" : [ "obj-63", 5 ],
					"order" : 0,
					"source" : [ "obj-72", 5 ]
				}

			}
, 			{
				"patchline" : 				{
					"destination" : [ "obj-63", 4 ],
					"order" : 0,
					"source" : [ "obj-72", 4 ]
				}

			}
, 			{
				"patchline" : 				{
					"destination" : [ "obj-63", 3 ],
					"order" : 0,
					"source" : [ "obj-72", 3 ]
				}

			}
, 			{
				"patchline" : 				{
					"destination" : [ "obj-63", 2 ],
					"order" : 0,
					"source" : [ "obj-72", 2 ]
				}

			}
, 			{
				"patchline" : 				{
					"destination" : [ "obj-63", 1 ],
					"order" : 0,
					"source" : [ "obj-72", 1 ]
				}

			}
, 			{
				"patchline" : 				{
					"destination" : [ "obj-63", 0 ],
					"order" : 0,
					"source" : [ "obj-72", 0 ]
				}

			}
, 			{
				"patchline" : 				{
					"destination" : [ "obj-72", 0 ],
					"midpoints" : [ 520.596802000000025, 511.0, 12.846771, 511.0, 12.846771, 199.0, 39.5, 199.0 ],
					"source" : [ "obj-77", 0 ]
				}

			}
, 			{
				"patchline" : 				{
					"destination" : [ "obj-52", 0 ],
					"source" : [ "obj-91", 0 ]
				}

			}
 ],
		"parameters" : 		{
			"obj-52" : [ "live.slider", " ", 0 ],
			"parameterbanks" : 			{

			}

		}
,
		"dependency_cache" : [ 			{
				"name" : "spat5.thru32~.maxpat",
				"bootpath" : "~/gitlab/spat/Spat5MaxMsp/patchers",
				"patcherrelativepath" : ".",
				"type" : "JSON",
				"implicit" : 1
			}
, 			{
				"name" : "spat5.diagmatrix~.mxo",
				"type" : "iLaX"
			}
 ],
		"autosave" : 0,
		"bgcolor" : [ 0.9, 0.9, 0.9, 1.0 ]
	}

}
