{
	"patcher" : 	{
		"fileversion" : 1,
		"appversion" : 		{
			"major" : 8,
			"minor" : 1,
			"revision" : 0,
			"architecture" : "x64",
			"modernui" : 1
		}
,
		"classnamespace" : "box",
		"rect" : [ 479.0, 471.0, 928.0, 133.0 ],
		"bglocked" : 0,
		"openinpresentation" : 0,
		"default_fontsize" : 11.0,
		"default_fontface" : 0,
		"default_fontname" : "Arial",
		"gridonopen" : 2,
		"gridsize" : [ 10.0, 10.0 ],
		"gridsnaponopen" : 2,
		"objectsnaponopen" : 1,
		"statusbarvisible" : 2,
		"toolbarvisible" : 0,
		"lefttoolbarpinned" : 0,
		"toptoolbarpinned" : 0,
		"righttoolbarpinned" : 0,
		"bottomtoolbarpinned" : 0,
		"toolbars_unpinned_last_save" : 15,
		"tallnewobj" : 0,
		"boxanimatetime" : 200,
		"enablehscroll" : 1,
		"enablevscroll" : 1,
		"devicewidth" : 0.0,
		"description" : "",
		"digest" : "",
		"tags" : "",
		"style" : "",
		"subpatcher_template" : "",
		"boxes" : [ 			{
				"box" : 				{
					"comment" : "adc #65",
					"id" : "obj-1",
					"index" : 0,
					"maxclass" : "outlet",
					"numinlets" : 1,
					"numoutlets" : 0,
					"patching_rect" : [ 912.0, 70.0, 14.0, 14.0 ]
				}

			}
, 			{
				"box" : 				{
					"comment" : "adc #66",
					"id" : "obj-2",
					"index" : 0,
					"maxclass" : "outlet",
					"numinlets" : 1,
					"numoutlets" : 0,
					"patching_rect" : [ 926.0, 70.0, 14.0, 14.0 ]
				}

			}
, 			{
				"box" : 				{
					"comment" : "adc #67",
					"id" : "obj-3",
					"index" : 0,
					"maxclass" : "outlet",
					"numinlets" : 1,
					"numoutlets" : 0,
					"patching_rect" : [ 940.0, 70.0, 14.0, 14.0 ]
				}

			}
, 			{
				"box" : 				{
					"comment" : "adc #68",
					"id" : "obj-4",
					"index" : 0,
					"maxclass" : "outlet",
					"numinlets" : 1,
					"numoutlets" : 0,
					"patching_rect" : [ 954.0, 70.0, 14.0, 14.0 ]
				}

			}
, 			{
				"box" : 				{
					"comment" : "adc #69",
					"id" : "obj-5",
					"index" : 0,
					"maxclass" : "outlet",
					"numinlets" : 1,
					"numoutlets" : 0,
					"patching_rect" : [ 968.0, 70.0, 14.0, 14.0 ]
				}

			}
, 			{
				"box" : 				{
					"comment" : "adc #70",
					"id" : "obj-6",
					"index" : 0,
					"maxclass" : "outlet",
					"numinlets" : 1,
					"numoutlets" : 0,
					"patching_rect" : [ 982.0, 70.0, 14.0, 14.0 ]
				}

			}
, 			{
				"box" : 				{
					"comment" : "adc #71",
					"id" : "obj-7",
					"index" : 0,
					"maxclass" : "outlet",
					"numinlets" : 1,
					"numoutlets" : 0,
					"patching_rect" : [ 996.0, 70.0, 14.0, 14.0 ]
				}

			}
, 			{
				"box" : 				{
					"comment" : "adc #72",
					"id" : "obj-8",
					"index" : 0,
					"maxclass" : "outlet",
					"numinlets" : 1,
					"numoutlets" : 0,
					"patching_rect" : [ 1010.0, 70.0, 14.0, 14.0 ]
				}

			}
, 			{
				"box" : 				{
					"comment" : "adc #73",
					"id" : "obj-9",
					"index" : 0,
					"maxclass" : "outlet",
					"numinlets" : 1,
					"numoutlets" : 0,
					"patching_rect" : [ 1024.0, 70.0, 14.0, 14.0 ]
				}

			}
, 			{
				"box" : 				{
					"comment" : "adc #74",
					"id" : "obj-10",
					"index" : 0,
					"maxclass" : "outlet",
					"numinlets" : 1,
					"numoutlets" : 0,
					"patching_rect" : [ 1038.0, 70.0, 14.0, 14.0 ]
				}

			}
, 			{
				"box" : 				{
					"comment" : "adc #75",
					"id" : "obj-11",
					"index" : 0,
					"maxclass" : "outlet",
					"numinlets" : 1,
					"numoutlets" : 0,
					"patching_rect" : [ 1052.0, 70.0, 14.0, 14.0 ]
				}

			}
, 			{
				"box" : 				{
					"comment" : "adc #76",
					"id" : "obj-12",
					"index" : 0,
					"maxclass" : "outlet",
					"numinlets" : 1,
					"numoutlets" : 0,
					"patching_rect" : [ 1066.0, 70.0, 14.0, 14.0 ]
				}

			}
, 			{
				"box" : 				{
					"comment" : "adc #77",
					"id" : "obj-13",
					"index" : 0,
					"maxclass" : "outlet",
					"numinlets" : 1,
					"numoutlets" : 0,
					"patching_rect" : [ 1080.0, 70.0, 14.0, 14.0 ]
				}

			}
, 			{
				"box" : 				{
					"comment" : "adc #78",
					"id" : "obj-14",
					"index" : 0,
					"maxclass" : "outlet",
					"numinlets" : 1,
					"numoutlets" : 0,
					"patching_rect" : [ 1094.0, 70.0, 14.0, 14.0 ]
				}

			}
, 			{
				"box" : 				{
					"comment" : "adc #79",
					"id" : "obj-15",
					"index" : 0,
					"maxclass" : "outlet",
					"numinlets" : 1,
					"numoutlets" : 0,
					"patching_rect" : [ 1108.0, 70.0, 14.0, 14.0 ]
				}

			}
, 			{
				"box" : 				{
					"comment" : "adc #80",
					"id" : "obj-16",
					"index" : 0,
					"maxclass" : "outlet",
					"numinlets" : 1,
					"numoutlets" : 0,
					"patching_rect" : [ 1122.0, 70.0, 14.0, 14.0 ]
				}

			}
, 			{
				"box" : 				{
					"comment" : "adc #81",
					"id" : "obj-17",
					"index" : 0,
					"maxclass" : "outlet",
					"numinlets" : 1,
					"numoutlets" : 0,
					"patching_rect" : [ 1136.0, 70.0, 14.0, 14.0 ]
				}

			}
, 			{
				"box" : 				{
					"comment" : "adc #82",
					"id" : "obj-18",
					"index" : 0,
					"maxclass" : "outlet",
					"numinlets" : 1,
					"numoutlets" : 0,
					"patching_rect" : [ 1150.0, 70.0, 14.0, 14.0 ]
				}

			}
, 			{
				"box" : 				{
					"comment" : "adc #83",
					"id" : "obj-19",
					"index" : 0,
					"maxclass" : "outlet",
					"numinlets" : 1,
					"numoutlets" : 0,
					"patching_rect" : [ 1164.0, 70.0, 14.0, 14.0 ]
				}

			}
, 			{
				"box" : 				{
					"comment" : "adc #84",
					"id" : "obj-20",
					"index" : 0,
					"maxclass" : "outlet",
					"numinlets" : 1,
					"numoutlets" : 0,
					"patching_rect" : [ 1178.0, 70.0, 14.0, 14.0 ]
				}

			}
, 			{
				"box" : 				{
					"comment" : "adc #85",
					"id" : "obj-21",
					"index" : 0,
					"maxclass" : "outlet",
					"numinlets" : 1,
					"numoutlets" : 0,
					"patching_rect" : [ 1192.0, 70.0, 14.0, 14.0 ]
				}

			}
, 			{
				"box" : 				{
					"comment" : "adc #86",
					"id" : "obj-22",
					"index" : 0,
					"maxclass" : "outlet",
					"numinlets" : 1,
					"numoutlets" : 0,
					"patching_rect" : [ 1206.0, 70.0, 14.0, 14.0 ]
				}

			}
, 			{
				"box" : 				{
					"comment" : "adc #87",
					"id" : "obj-23",
					"index" : 0,
					"maxclass" : "outlet",
					"numinlets" : 1,
					"numoutlets" : 0,
					"patching_rect" : [ 1220.0, 70.0, 14.0, 14.0 ]
				}

			}
, 			{
				"box" : 				{
					"comment" : "adc #88",
					"id" : "obj-24",
					"index" : 0,
					"maxclass" : "outlet",
					"numinlets" : 1,
					"numoutlets" : 0,
					"patching_rect" : [ 1234.0, 70.0, 14.0, 14.0 ]
				}

			}
, 			{
				"box" : 				{
					"comment" : "adc #89",
					"id" : "obj-25",
					"index" : 0,
					"maxclass" : "outlet",
					"numinlets" : 1,
					"numoutlets" : 0,
					"patching_rect" : [ 1248.0, 70.0, 14.0, 14.0 ]
				}

			}
, 			{
				"box" : 				{
					"comment" : "adc #90",
					"id" : "obj-26",
					"index" : 0,
					"maxclass" : "outlet",
					"numinlets" : 1,
					"numoutlets" : 0,
					"patching_rect" : [ 1262.0, 70.0, 14.0, 14.0 ]
				}

			}
, 			{
				"box" : 				{
					"comment" : "adc #91",
					"id" : "obj-27",
					"index" : 0,
					"maxclass" : "outlet",
					"numinlets" : 1,
					"numoutlets" : 0,
					"patching_rect" : [ 1276.0, 70.0, 14.0, 14.0 ]
				}

			}
, 			{
				"box" : 				{
					"comment" : "adc #92",
					"id" : "obj-28",
					"index" : 0,
					"maxclass" : "outlet",
					"numinlets" : 1,
					"numoutlets" : 0,
					"patching_rect" : [ 1290.0, 70.0, 14.0, 14.0 ]
				}

			}
, 			{
				"box" : 				{
					"comment" : "adc #93",
					"id" : "obj-29",
					"index" : 0,
					"maxclass" : "outlet",
					"numinlets" : 1,
					"numoutlets" : 0,
					"patching_rect" : [ 1304.0, 70.0, 14.0, 14.0 ]
				}

			}
, 			{
				"box" : 				{
					"comment" : "adc #94",
					"id" : "obj-30",
					"index" : 0,
					"maxclass" : "outlet",
					"numinlets" : 1,
					"numoutlets" : 0,
					"patching_rect" : [ 1318.0, 70.0, 14.0, 14.0 ]
				}

			}
, 			{
				"box" : 				{
					"comment" : "adc #95",
					"id" : "obj-31",
					"index" : 0,
					"maxclass" : "outlet",
					"numinlets" : 1,
					"numoutlets" : 0,
					"patching_rect" : [ 1332.0, 70.0, 14.0, 14.0 ]
				}

			}
, 			{
				"box" : 				{
					"comment" : "adc #96",
					"id" : "obj-32",
					"index" : 0,
					"maxclass" : "outlet",
					"numinlets" : 1,
					"numoutlets" : 0,
					"patching_rect" : [ 1346.0, 70.0, 14.0, 14.0 ]
				}

			}
, 			{
				"box" : 				{
					"comment" : "adc #97",
					"id" : "obj-33",
					"index" : 0,
					"maxclass" : "outlet",
					"numinlets" : 1,
					"numoutlets" : 0,
					"patching_rect" : [ 1360.0, 70.0, 14.0, 14.0 ]
				}

			}
, 			{
				"box" : 				{
					"comment" : "adc #98",
					"id" : "obj-34",
					"index" : 0,
					"maxclass" : "outlet",
					"numinlets" : 1,
					"numoutlets" : 0,
					"patching_rect" : [ 1374.0, 70.0, 14.0, 14.0 ]
				}

			}
, 			{
				"box" : 				{
					"comment" : "adc #99",
					"id" : "obj-35",
					"index" : 0,
					"maxclass" : "outlet",
					"numinlets" : 1,
					"numoutlets" : 0,
					"patching_rect" : [ 1388.0, 70.0, 14.0, 14.0 ]
				}

			}
, 			{
				"box" : 				{
					"comment" : "adc #100",
					"id" : "obj-36",
					"index" : 0,
					"maxclass" : "outlet",
					"numinlets" : 1,
					"numoutlets" : 0,
					"patching_rect" : [ 1402.0, 70.0, 14.0, 14.0 ]
				}

			}
, 			{
				"box" : 				{
					"comment" : "adc #101",
					"id" : "obj-37",
					"index" : 0,
					"maxclass" : "outlet",
					"numinlets" : 1,
					"numoutlets" : 0,
					"patching_rect" : [ 1416.0, 70.0, 14.0, 14.0 ]
				}

			}
, 			{
				"box" : 				{
					"comment" : "adc #102",
					"id" : "obj-38",
					"index" : 0,
					"maxclass" : "outlet",
					"numinlets" : 1,
					"numoutlets" : 0,
					"patching_rect" : [ 1430.0, 70.0, 14.0, 14.0 ]
				}

			}
, 			{
				"box" : 				{
					"comment" : "adc #103",
					"id" : "obj-39",
					"index" : 0,
					"maxclass" : "outlet",
					"numinlets" : 1,
					"numoutlets" : 0,
					"patching_rect" : [ 1444.0, 70.0, 14.0, 14.0 ]
				}

			}
, 			{
				"box" : 				{
					"comment" : "adc #104",
					"id" : "obj-40",
					"index" : 0,
					"maxclass" : "outlet",
					"numinlets" : 1,
					"numoutlets" : 0,
					"patching_rect" : [ 1458.0, 70.0, 14.0, 14.0 ]
				}

			}
, 			{
				"box" : 				{
					"comment" : "adc #105",
					"id" : "obj-41",
					"index" : 0,
					"maxclass" : "outlet",
					"numinlets" : 1,
					"numoutlets" : 0,
					"patching_rect" : [ 1472.0, 70.0, 14.0, 14.0 ]
				}

			}
, 			{
				"box" : 				{
					"comment" : "adc #106",
					"id" : "obj-42",
					"index" : 0,
					"maxclass" : "outlet",
					"numinlets" : 1,
					"numoutlets" : 0,
					"patching_rect" : [ 1486.0, 70.0, 14.0, 14.0 ]
				}

			}
, 			{
				"box" : 				{
					"comment" : "adc #107",
					"id" : "obj-43",
					"index" : 0,
					"maxclass" : "outlet",
					"numinlets" : 1,
					"numoutlets" : 0,
					"patching_rect" : [ 1500.0, 70.0, 14.0, 14.0 ]
				}

			}
, 			{
				"box" : 				{
					"comment" : "adc #108",
					"id" : "obj-44",
					"index" : 0,
					"maxclass" : "outlet",
					"numinlets" : 1,
					"numoutlets" : 0,
					"patching_rect" : [ 1514.0, 70.0, 14.0, 14.0 ]
				}

			}
, 			{
				"box" : 				{
					"comment" : "adc #109",
					"id" : "obj-45",
					"index" : 0,
					"maxclass" : "outlet",
					"numinlets" : 1,
					"numoutlets" : 0,
					"patching_rect" : [ 1528.0, 70.0, 14.0, 14.0 ]
				}

			}
, 			{
				"box" : 				{
					"comment" : "adc #110",
					"id" : "obj-46",
					"index" : 0,
					"maxclass" : "outlet",
					"numinlets" : 1,
					"numoutlets" : 0,
					"patching_rect" : [ 1542.0, 70.0, 14.0, 14.0 ]
				}

			}
, 			{
				"box" : 				{
					"comment" : "adc #111",
					"id" : "obj-47",
					"index" : 0,
					"maxclass" : "outlet",
					"numinlets" : 1,
					"numoutlets" : 0,
					"patching_rect" : [ 1556.0, 70.0, 14.0, 14.0 ]
				}

			}
, 			{
				"box" : 				{
					"comment" : "adc #112",
					"id" : "obj-48",
					"index" : 0,
					"maxclass" : "outlet",
					"numinlets" : 1,
					"numoutlets" : 0,
					"patching_rect" : [ 1570.0, 70.0, 14.0, 14.0 ]
				}

			}
, 			{
				"box" : 				{
					"comment" : "adc #113",
					"id" : "obj-49",
					"index" : 0,
					"maxclass" : "outlet",
					"numinlets" : 1,
					"numoutlets" : 0,
					"patching_rect" : [ 1584.0, 70.0, 14.0, 14.0 ]
				}

			}
, 			{
				"box" : 				{
					"comment" : "adc #114",
					"id" : "obj-50",
					"index" : 0,
					"maxclass" : "outlet",
					"numinlets" : 1,
					"numoutlets" : 0,
					"patching_rect" : [ 1598.0, 70.0, 14.0, 14.0 ]
				}

			}
, 			{
				"box" : 				{
					"comment" : "adc #115",
					"id" : "obj-51",
					"index" : 0,
					"maxclass" : "outlet",
					"numinlets" : 1,
					"numoutlets" : 0,
					"patching_rect" : [ 1612.0, 70.0, 14.0, 14.0 ]
				}

			}
, 			{
				"box" : 				{
					"comment" : "adc #116",
					"id" : "obj-52",
					"index" : 0,
					"maxclass" : "outlet",
					"numinlets" : 1,
					"numoutlets" : 0,
					"patching_rect" : [ 1626.0, 70.0, 14.0, 14.0 ]
				}

			}
, 			{
				"box" : 				{
					"comment" : "adc #117",
					"id" : "obj-53",
					"index" : 0,
					"maxclass" : "outlet",
					"numinlets" : 1,
					"numoutlets" : 0,
					"patching_rect" : [ 1640.0, 70.0, 14.0, 14.0 ]
				}

			}
, 			{
				"box" : 				{
					"comment" : "adc #118",
					"id" : "obj-54",
					"index" : 0,
					"maxclass" : "outlet",
					"numinlets" : 1,
					"numoutlets" : 0,
					"patching_rect" : [ 1654.0, 70.0, 14.0, 14.0 ]
				}

			}
, 			{
				"box" : 				{
					"comment" : "adc #119",
					"id" : "obj-55",
					"index" : 0,
					"maxclass" : "outlet",
					"numinlets" : 1,
					"numoutlets" : 0,
					"patching_rect" : [ 1668.0, 70.0, 14.0, 14.0 ]
				}

			}
, 			{
				"box" : 				{
					"comment" : "adc #120",
					"id" : "obj-56",
					"index" : 0,
					"maxclass" : "outlet",
					"numinlets" : 1,
					"numoutlets" : 0,
					"patching_rect" : [ 1682.0, 70.0, 14.0, 14.0 ]
				}

			}
, 			{
				"box" : 				{
					"comment" : "adc #121",
					"id" : "obj-57",
					"index" : 0,
					"maxclass" : "outlet",
					"numinlets" : 1,
					"numoutlets" : 0,
					"patching_rect" : [ 1696.0, 70.0, 14.0, 14.0 ]
				}

			}
, 			{
				"box" : 				{
					"comment" : "adc #122",
					"id" : "obj-58",
					"index" : 0,
					"maxclass" : "outlet",
					"numinlets" : 1,
					"numoutlets" : 0,
					"patching_rect" : [ 1710.0, 70.0, 14.0, 14.0 ]
				}

			}
, 			{
				"box" : 				{
					"comment" : "adc #123",
					"id" : "obj-59",
					"index" : 0,
					"maxclass" : "outlet",
					"numinlets" : 1,
					"numoutlets" : 0,
					"patching_rect" : [ 1724.0, 70.0, 14.0, 14.0 ]
				}

			}
, 			{
				"box" : 				{
					"comment" : "adc #124",
					"id" : "obj-60",
					"index" : 0,
					"maxclass" : "outlet",
					"numinlets" : 1,
					"numoutlets" : 0,
					"patching_rect" : [ 1738.0, 70.0, 14.0, 14.0 ]
				}

			}
, 			{
				"box" : 				{
					"comment" : "adc #125",
					"id" : "obj-61",
					"index" : 0,
					"maxclass" : "outlet",
					"numinlets" : 1,
					"numoutlets" : 0,
					"patching_rect" : [ 1752.0, 70.0, 14.0, 14.0 ]
				}

			}
, 			{
				"box" : 				{
					"comment" : "adc #126",
					"id" : "obj-62",
					"index" : 0,
					"maxclass" : "outlet",
					"numinlets" : 1,
					"numoutlets" : 0,
					"patching_rect" : [ 1766.0, 70.0, 14.0, 14.0 ]
				}

			}
, 			{
				"box" : 				{
					"comment" : "adc #127",
					"id" : "obj-63",
					"index" : 0,
					"maxclass" : "outlet",
					"numinlets" : 1,
					"numoutlets" : 0,
					"patching_rect" : [ 1780.0, 70.0, 14.0, 14.0 ]
				}

			}
, 			{
				"box" : 				{
					"comment" : "adc #128",
					"id" : "obj-64",
					"index" : 0,
					"maxclass" : "outlet",
					"numinlets" : 1,
					"numoutlets" : 0,
					"patching_rect" : [ 1794.0, 70.0, 14.0, 14.0 ]
				}

			}
, 			{
				"box" : 				{
					"fontname" : "Arial",
					"fontsize" : 11.0,
					"id" : "obj-1673",
					"linecount" : 2,
					"maxclass" : "newobj",
					"numinlets" : 1,
					"numoutlets" : 128,
					"outlettype" : [ "signal", "signal", "signal", "signal", "signal", "signal", "signal", "signal", "signal", "signal", "signal", "signal", "signal", "signal", "signal", "signal", "signal", "signal", "signal", "signal", "signal", "signal", "signal", "signal", "signal", "signal", "signal", "signal", "signal", "signal", "signal", "signal", "signal", "signal", "signal", "signal", "signal", "signal", "signal", "signal", "signal", "signal", "signal", "signal", "signal", "signal", "signal", "signal", "signal", "signal", "signal", "signal", "signal", "signal", "signal", "signal", "signal", "signal", "signal", "signal", "signal", "signal", "signal", "signal", "signal", "signal", "signal", "signal", "signal", "signal", "signal", "signal", "signal", "signal", "signal", "signal", "signal", "signal", "signal", "signal", "signal", "signal", "signal", "signal", "signal", "signal", "signal", "signal", "signal", "signal", "signal", "signal", "signal", "signal", "signal", "signal", "signal", "signal", "signal", "signal", "signal", "signal", "signal", "signal", "signal", "signal", "signal", "signal", "signal", "signal", "signal", "signal", "signal", "signal", "signal", "signal", "signal", "signal", "signal", "signal", "signal", "signal", "signal", "signal", "signal", "signal", "signal", "signal" ],
					"patching_rect" : [ 12.5, 20.0, 1885.020024666666586, 33.0 ],
					"text" : "adc~ 1 2 3 4 5 6 7 8 9 10 11 12 13 14 15 16 17 18 19 20 21 22 23 24 25 26 27 28 29 30 31 32 33 34 35 36 37 38 39 40 41 42 43 44 45 46 47 48 49 50 51 52 53 54 55 56 57 58 59 60 61 62 63 64 65 66 67 68 69 70 71 72 73 74 75 76 77 78 79 80 81 82 83 84 85 86 87 88 89 90 91 92 93 94 95 96 97 98 99 100 101 102 103 104 105 106 107 108 109 110 111 112 113 114 115 116 117 118 119 120 121 122 123 124 125 126 127 128"
				}

			}
, 			{
				"box" : 				{
					"comment" : "adc #1",
					"id" : "obj-1544",
					"index" : 0,
					"maxclass" : "outlet",
					"numinlets" : 1,
					"numoutlets" : 0,
					"patching_rect" : [ 14.0, 70.0, 14.0, 14.0 ]
				}

			}
, 			{
				"box" : 				{
					"comment" : "adc #2",
					"id" : "obj-1546",
					"index" : 0,
					"maxclass" : "outlet",
					"numinlets" : 1,
					"numoutlets" : 0,
					"patching_rect" : [ 28.0, 70.0, 14.0, 14.0 ]
				}

			}
, 			{
				"box" : 				{
					"comment" : "adc #3",
					"id" : "obj-1548",
					"index" : 0,
					"maxclass" : "outlet",
					"numinlets" : 1,
					"numoutlets" : 0,
					"patching_rect" : [ 42.0, 70.0, 14.0, 14.0 ]
				}

			}
, 			{
				"box" : 				{
					"comment" : "adc #4",
					"id" : "obj-1550",
					"index" : 0,
					"maxclass" : "outlet",
					"numinlets" : 1,
					"numoutlets" : 0,
					"patching_rect" : [ 56.0, 70.0, 14.0, 14.0 ]
				}

			}
, 			{
				"box" : 				{
					"comment" : "adc #5",
					"id" : "obj-1552",
					"index" : 0,
					"maxclass" : "outlet",
					"numinlets" : 1,
					"numoutlets" : 0,
					"patching_rect" : [ 70.0, 70.0, 14.0, 14.0 ]
				}

			}
, 			{
				"box" : 				{
					"comment" : "adc #6",
					"id" : "obj-1554",
					"index" : 0,
					"maxclass" : "outlet",
					"numinlets" : 1,
					"numoutlets" : 0,
					"patching_rect" : [ 84.0, 70.0, 14.0, 14.0 ]
				}

			}
, 			{
				"box" : 				{
					"comment" : "adc #7",
					"id" : "obj-1556",
					"index" : 0,
					"maxclass" : "outlet",
					"numinlets" : 1,
					"numoutlets" : 0,
					"patching_rect" : [ 98.0, 70.0, 14.0, 14.0 ]
				}

			}
, 			{
				"box" : 				{
					"comment" : "adc #8",
					"id" : "obj-1558",
					"index" : 0,
					"maxclass" : "outlet",
					"numinlets" : 1,
					"numoutlets" : 0,
					"patching_rect" : [ 112.0, 70.0, 14.0, 14.0 ]
				}

			}
, 			{
				"box" : 				{
					"comment" : "adc #9",
					"id" : "obj-1560",
					"index" : 0,
					"maxclass" : "outlet",
					"numinlets" : 1,
					"numoutlets" : 0,
					"patching_rect" : [ 126.0, 70.0, 14.0, 14.0 ]
				}

			}
, 			{
				"box" : 				{
					"comment" : "adc #10",
					"id" : "obj-1562",
					"index" : 0,
					"maxclass" : "outlet",
					"numinlets" : 1,
					"numoutlets" : 0,
					"patching_rect" : [ 140.0, 70.0, 14.0, 14.0 ]
				}

			}
, 			{
				"box" : 				{
					"comment" : "adc #11",
					"id" : "obj-1564",
					"index" : 0,
					"maxclass" : "outlet",
					"numinlets" : 1,
					"numoutlets" : 0,
					"patching_rect" : [ 154.0, 70.0, 14.0, 14.0 ]
				}

			}
, 			{
				"box" : 				{
					"comment" : "adc #12",
					"id" : "obj-1566",
					"index" : 0,
					"maxclass" : "outlet",
					"numinlets" : 1,
					"numoutlets" : 0,
					"patching_rect" : [ 168.0, 70.0, 14.0, 14.0 ]
				}

			}
, 			{
				"box" : 				{
					"comment" : "adc #13",
					"id" : "obj-1568",
					"index" : 0,
					"maxclass" : "outlet",
					"numinlets" : 1,
					"numoutlets" : 0,
					"patching_rect" : [ 182.0, 70.0, 14.0, 14.0 ]
				}

			}
, 			{
				"box" : 				{
					"comment" : "adc #14",
					"id" : "obj-1570",
					"index" : 0,
					"maxclass" : "outlet",
					"numinlets" : 1,
					"numoutlets" : 0,
					"patching_rect" : [ 196.0, 70.0, 14.0, 14.0 ]
				}

			}
, 			{
				"box" : 				{
					"comment" : "adc #15",
					"id" : "obj-1572",
					"index" : 0,
					"maxclass" : "outlet",
					"numinlets" : 1,
					"numoutlets" : 0,
					"patching_rect" : [ 210.0, 70.0, 14.0, 14.0 ]
				}

			}
, 			{
				"box" : 				{
					"comment" : "adc #16",
					"id" : "obj-1574",
					"index" : 0,
					"maxclass" : "outlet",
					"numinlets" : 1,
					"numoutlets" : 0,
					"patching_rect" : [ 224.0, 70.0, 14.0, 14.0 ]
				}

			}
, 			{
				"box" : 				{
					"comment" : "adc #17",
					"id" : "obj-1576",
					"index" : 0,
					"maxclass" : "outlet",
					"numinlets" : 1,
					"numoutlets" : 0,
					"patching_rect" : [ 238.0, 70.0, 14.0, 14.0 ]
				}

			}
, 			{
				"box" : 				{
					"comment" : "adc #18",
					"id" : "obj-1578",
					"index" : 0,
					"maxclass" : "outlet",
					"numinlets" : 1,
					"numoutlets" : 0,
					"patching_rect" : [ 252.0, 70.0, 14.0, 14.0 ]
				}

			}
, 			{
				"box" : 				{
					"comment" : "adc #19",
					"id" : "obj-1580",
					"index" : 0,
					"maxclass" : "outlet",
					"numinlets" : 1,
					"numoutlets" : 0,
					"patching_rect" : [ 266.0, 70.0, 14.0, 14.0 ]
				}

			}
, 			{
				"box" : 				{
					"comment" : "adc #20",
					"id" : "obj-1582",
					"index" : 0,
					"maxclass" : "outlet",
					"numinlets" : 1,
					"numoutlets" : 0,
					"patching_rect" : [ 280.0, 70.0, 14.0, 14.0 ]
				}

			}
, 			{
				"box" : 				{
					"comment" : "adc #21",
					"id" : "obj-1584",
					"index" : 0,
					"maxclass" : "outlet",
					"numinlets" : 1,
					"numoutlets" : 0,
					"patching_rect" : [ 294.0, 70.0, 14.0, 14.0 ]
				}

			}
, 			{
				"box" : 				{
					"comment" : "adc #22",
					"id" : "obj-1586",
					"index" : 0,
					"maxclass" : "outlet",
					"numinlets" : 1,
					"numoutlets" : 0,
					"patching_rect" : [ 308.0, 70.0, 14.0, 14.0 ]
				}

			}
, 			{
				"box" : 				{
					"comment" : "adc #23",
					"id" : "obj-1588",
					"index" : 0,
					"maxclass" : "outlet",
					"numinlets" : 1,
					"numoutlets" : 0,
					"patching_rect" : [ 322.0, 70.0, 14.0, 14.0 ]
				}

			}
, 			{
				"box" : 				{
					"comment" : "adc #24",
					"id" : "obj-1590",
					"index" : 0,
					"maxclass" : "outlet",
					"numinlets" : 1,
					"numoutlets" : 0,
					"patching_rect" : [ 336.0, 70.0, 14.0, 14.0 ]
				}

			}
, 			{
				"box" : 				{
					"comment" : "adc #25",
					"id" : "obj-1592",
					"index" : 0,
					"maxclass" : "outlet",
					"numinlets" : 1,
					"numoutlets" : 0,
					"patching_rect" : [ 350.0, 70.0, 14.0, 14.0 ]
				}

			}
, 			{
				"box" : 				{
					"comment" : "adc #26",
					"id" : "obj-1594",
					"index" : 0,
					"maxclass" : "outlet",
					"numinlets" : 1,
					"numoutlets" : 0,
					"patching_rect" : [ 364.0, 70.0, 14.0, 14.0 ]
				}

			}
, 			{
				"box" : 				{
					"comment" : "adc #27",
					"id" : "obj-1596",
					"index" : 0,
					"maxclass" : "outlet",
					"numinlets" : 1,
					"numoutlets" : 0,
					"patching_rect" : [ 378.0, 70.0, 14.0, 14.0 ]
				}

			}
, 			{
				"box" : 				{
					"comment" : "adc #28",
					"id" : "obj-1598",
					"index" : 0,
					"maxclass" : "outlet",
					"numinlets" : 1,
					"numoutlets" : 0,
					"patching_rect" : [ 392.0, 70.0, 14.0, 14.0 ]
				}

			}
, 			{
				"box" : 				{
					"comment" : "adc #29",
					"id" : "obj-1600",
					"index" : 0,
					"maxclass" : "outlet",
					"numinlets" : 1,
					"numoutlets" : 0,
					"patching_rect" : [ 406.0, 70.0, 14.0, 14.0 ]
				}

			}
, 			{
				"box" : 				{
					"comment" : "adc #30",
					"id" : "obj-1602",
					"index" : 0,
					"maxclass" : "outlet",
					"numinlets" : 1,
					"numoutlets" : 0,
					"patching_rect" : [ 420.0, 70.0, 14.0, 14.0 ]
				}

			}
, 			{
				"box" : 				{
					"comment" : "adc #31",
					"id" : "obj-1604",
					"index" : 0,
					"maxclass" : "outlet",
					"numinlets" : 1,
					"numoutlets" : 0,
					"patching_rect" : [ 434.0, 70.0, 14.0, 14.0 ]
				}

			}
, 			{
				"box" : 				{
					"comment" : "adc #32",
					"id" : "obj-1606",
					"index" : 0,
					"maxclass" : "outlet",
					"numinlets" : 1,
					"numoutlets" : 0,
					"patching_rect" : [ 448.0, 70.0, 14.0, 14.0 ]
				}

			}
, 			{
				"box" : 				{
					"comment" : "adc #33",
					"id" : "obj-1608",
					"index" : 0,
					"maxclass" : "outlet",
					"numinlets" : 1,
					"numoutlets" : 0,
					"patching_rect" : [ 462.0, 70.0, 14.0, 14.0 ]
				}

			}
, 			{
				"box" : 				{
					"comment" : "adc #34",
					"id" : "obj-1610",
					"index" : 0,
					"maxclass" : "outlet",
					"numinlets" : 1,
					"numoutlets" : 0,
					"patching_rect" : [ 476.0, 70.0, 14.0, 14.0 ]
				}

			}
, 			{
				"box" : 				{
					"comment" : "adc #35",
					"id" : "obj-1612",
					"index" : 0,
					"maxclass" : "outlet",
					"numinlets" : 1,
					"numoutlets" : 0,
					"patching_rect" : [ 490.0, 70.0, 14.0, 14.0 ]
				}

			}
, 			{
				"box" : 				{
					"comment" : "adc #36",
					"id" : "obj-1614",
					"index" : 0,
					"maxclass" : "outlet",
					"numinlets" : 1,
					"numoutlets" : 0,
					"patching_rect" : [ 504.0, 70.0, 14.0, 14.0 ]
				}

			}
, 			{
				"box" : 				{
					"comment" : "adc #37",
					"id" : "obj-1616",
					"index" : 0,
					"maxclass" : "outlet",
					"numinlets" : 1,
					"numoutlets" : 0,
					"patching_rect" : [ 518.0, 70.0, 14.0, 14.0 ]
				}

			}
, 			{
				"box" : 				{
					"comment" : "adc #38",
					"id" : "obj-1618",
					"index" : 0,
					"maxclass" : "outlet",
					"numinlets" : 1,
					"numoutlets" : 0,
					"patching_rect" : [ 532.0, 70.0, 14.0, 14.0 ]
				}

			}
, 			{
				"box" : 				{
					"comment" : "adc #39",
					"id" : "obj-1620",
					"index" : 0,
					"maxclass" : "outlet",
					"numinlets" : 1,
					"numoutlets" : 0,
					"patching_rect" : [ 546.0, 70.0, 14.0, 14.0 ]
				}

			}
, 			{
				"box" : 				{
					"comment" : "adc #40",
					"id" : "obj-1622",
					"index" : 0,
					"maxclass" : "outlet",
					"numinlets" : 1,
					"numoutlets" : 0,
					"patching_rect" : [ 560.0, 70.0, 14.0, 14.0 ]
				}

			}
, 			{
				"box" : 				{
					"comment" : "adc #41",
					"id" : "obj-1624",
					"index" : 0,
					"maxclass" : "outlet",
					"numinlets" : 1,
					"numoutlets" : 0,
					"patching_rect" : [ 574.0, 70.0, 14.0, 14.0 ]
				}

			}
, 			{
				"box" : 				{
					"comment" : "adc #42",
					"id" : "obj-1626",
					"index" : 0,
					"maxclass" : "outlet",
					"numinlets" : 1,
					"numoutlets" : 0,
					"patching_rect" : [ 588.0, 70.0, 14.0, 14.0 ]
				}

			}
, 			{
				"box" : 				{
					"comment" : "adc #43",
					"id" : "obj-1628",
					"index" : 0,
					"maxclass" : "outlet",
					"numinlets" : 1,
					"numoutlets" : 0,
					"patching_rect" : [ 602.0, 70.0, 14.0, 14.0 ]
				}

			}
, 			{
				"box" : 				{
					"comment" : "adc #44",
					"id" : "obj-1630",
					"index" : 0,
					"maxclass" : "outlet",
					"numinlets" : 1,
					"numoutlets" : 0,
					"patching_rect" : [ 616.0, 70.0, 14.0, 14.0 ]
				}

			}
, 			{
				"box" : 				{
					"comment" : "adc #45",
					"id" : "obj-1632",
					"index" : 0,
					"maxclass" : "outlet",
					"numinlets" : 1,
					"numoutlets" : 0,
					"patching_rect" : [ 630.0, 70.0, 14.0, 14.0 ]
				}

			}
, 			{
				"box" : 				{
					"comment" : "adc #46",
					"id" : "obj-1634",
					"index" : 0,
					"maxclass" : "outlet",
					"numinlets" : 1,
					"numoutlets" : 0,
					"patching_rect" : [ 644.0, 70.0, 14.0, 14.0 ]
				}

			}
, 			{
				"box" : 				{
					"comment" : "adc #47",
					"id" : "obj-1636",
					"index" : 0,
					"maxclass" : "outlet",
					"numinlets" : 1,
					"numoutlets" : 0,
					"patching_rect" : [ 658.0, 70.0, 14.0, 14.0 ]
				}

			}
, 			{
				"box" : 				{
					"comment" : "adc #48",
					"id" : "obj-1638",
					"index" : 0,
					"maxclass" : "outlet",
					"numinlets" : 1,
					"numoutlets" : 0,
					"patching_rect" : [ 672.0, 70.0, 14.0, 14.0 ]
				}

			}
, 			{
				"box" : 				{
					"comment" : "adc #49",
					"id" : "obj-1640",
					"index" : 0,
					"maxclass" : "outlet",
					"numinlets" : 1,
					"numoutlets" : 0,
					"patching_rect" : [ 686.0, 70.0, 14.0, 14.0 ]
				}

			}
, 			{
				"box" : 				{
					"comment" : "adc #50",
					"id" : "obj-1642",
					"index" : 0,
					"maxclass" : "outlet",
					"numinlets" : 1,
					"numoutlets" : 0,
					"patching_rect" : [ 700.0, 70.0, 14.0, 14.0 ]
				}

			}
, 			{
				"box" : 				{
					"comment" : "adc #51",
					"id" : "obj-1644",
					"index" : 0,
					"maxclass" : "outlet",
					"numinlets" : 1,
					"numoutlets" : 0,
					"patching_rect" : [ 714.0, 70.0, 14.0, 14.0 ]
				}

			}
, 			{
				"box" : 				{
					"comment" : "adc #52",
					"id" : "obj-1646",
					"index" : 0,
					"maxclass" : "outlet",
					"numinlets" : 1,
					"numoutlets" : 0,
					"patching_rect" : [ 728.0, 70.0, 14.0, 14.0 ]
				}

			}
, 			{
				"box" : 				{
					"comment" : "adc #53",
					"id" : "obj-1648",
					"index" : 0,
					"maxclass" : "outlet",
					"numinlets" : 1,
					"numoutlets" : 0,
					"patching_rect" : [ 742.0, 70.0, 14.0, 14.0 ]
				}

			}
, 			{
				"box" : 				{
					"comment" : "adc #54",
					"id" : "obj-1650",
					"index" : 0,
					"maxclass" : "outlet",
					"numinlets" : 1,
					"numoutlets" : 0,
					"patching_rect" : [ 756.0, 70.0, 14.0, 14.0 ]
				}

			}
, 			{
				"box" : 				{
					"comment" : "adc #55",
					"id" : "obj-1652",
					"index" : 0,
					"maxclass" : "outlet",
					"numinlets" : 1,
					"numoutlets" : 0,
					"patching_rect" : [ 770.0, 70.0, 14.0, 14.0 ]
				}

			}
, 			{
				"box" : 				{
					"comment" : "adc #56",
					"id" : "obj-1654",
					"index" : 0,
					"maxclass" : "outlet",
					"numinlets" : 1,
					"numoutlets" : 0,
					"patching_rect" : [ 784.0, 70.0, 14.0, 14.0 ]
				}

			}
, 			{
				"box" : 				{
					"comment" : "adc #57",
					"id" : "obj-1656",
					"index" : 0,
					"maxclass" : "outlet",
					"numinlets" : 1,
					"numoutlets" : 0,
					"patching_rect" : [ 798.0, 70.0, 14.0, 14.0 ]
				}

			}
, 			{
				"box" : 				{
					"comment" : "adc #58",
					"id" : "obj-1658",
					"index" : 0,
					"maxclass" : "outlet",
					"numinlets" : 1,
					"numoutlets" : 0,
					"patching_rect" : [ 812.0, 70.0, 14.0, 14.0 ]
				}

			}
, 			{
				"box" : 				{
					"comment" : "adc #59",
					"id" : "obj-1660",
					"index" : 0,
					"maxclass" : "outlet",
					"numinlets" : 1,
					"numoutlets" : 0,
					"patching_rect" : [ 826.0, 70.0, 14.0, 14.0 ]
				}

			}
, 			{
				"box" : 				{
					"comment" : "adc #60",
					"id" : "obj-1662",
					"index" : 0,
					"maxclass" : "outlet",
					"numinlets" : 1,
					"numoutlets" : 0,
					"patching_rect" : [ 840.0, 70.0, 14.0, 14.0 ]
				}

			}
, 			{
				"box" : 				{
					"comment" : "adc #61",
					"id" : "obj-1664",
					"index" : 0,
					"maxclass" : "outlet",
					"numinlets" : 1,
					"numoutlets" : 0,
					"patching_rect" : [ 854.0, 70.0, 14.0, 14.0 ]
				}

			}
, 			{
				"box" : 				{
					"comment" : "adc #62",
					"id" : "obj-1666",
					"index" : 0,
					"maxclass" : "outlet",
					"numinlets" : 1,
					"numoutlets" : 0,
					"patching_rect" : [ 868.0, 70.0, 14.0, 14.0 ]
				}

			}
, 			{
				"box" : 				{
					"comment" : "adc #63",
					"id" : "obj-1668",
					"index" : 0,
					"maxclass" : "outlet",
					"numinlets" : 1,
					"numoutlets" : 0,
					"patching_rect" : [ 882.0, 70.0, 14.0, 14.0 ]
				}

			}
, 			{
				"box" : 				{
					"comment" : "adc #64",
					"id" : "obj-1670",
					"index" : 0,
					"maxclass" : "outlet",
					"numinlets" : 1,
					"numoutlets" : 0,
					"patching_rect" : [ 896.0, 70.0, 14.0, 14.0 ]
				}

			}
 ],
		"lines" : [ 			{
				"patchline" : 				{
					"destination" : [ "obj-1", 0 ],
					"source" : [ "obj-1673", 64 ]
				}

			}
, 			{
				"patchline" : 				{
					"destination" : [ "obj-10", 0 ],
					"source" : [ "obj-1673", 73 ]
				}

			}
, 			{
				"patchline" : 				{
					"destination" : [ "obj-11", 0 ],
					"source" : [ "obj-1673", 74 ]
				}

			}
, 			{
				"patchline" : 				{
					"destination" : [ "obj-12", 0 ],
					"source" : [ "obj-1673", 75 ]
				}

			}
, 			{
				"patchline" : 				{
					"destination" : [ "obj-13", 0 ],
					"source" : [ "obj-1673", 76 ]
				}

			}
, 			{
				"patchline" : 				{
					"destination" : [ "obj-14", 0 ],
					"source" : [ "obj-1673", 77 ]
				}

			}
, 			{
				"patchline" : 				{
					"destination" : [ "obj-15", 0 ],
					"source" : [ "obj-1673", 78 ]
				}

			}
, 			{
				"patchline" : 				{
					"destination" : [ "obj-1544", 0 ],
					"source" : [ "obj-1673", 0 ]
				}

			}
, 			{
				"patchline" : 				{
					"destination" : [ "obj-1546", 0 ],
					"source" : [ "obj-1673", 1 ]
				}

			}
, 			{
				"patchline" : 				{
					"destination" : [ "obj-1548", 0 ],
					"source" : [ "obj-1673", 2 ]
				}

			}
, 			{
				"patchline" : 				{
					"destination" : [ "obj-1550", 0 ],
					"source" : [ "obj-1673", 3 ]
				}

			}
, 			{
				"patchline" : 				{
					"destination" : [ "obj-1552", 0 ],
					"source" : [ "obj-1673", 4 ]
				}

			}
, 			{
				"patchline" : 				{
					"destination" : [ "obj-1554", 0 ],
					"source" : [ "obj-1673", 5 ]
				}

			}
, 			{
				"patchline" : 				{
					"destination" : [ "obj-1556", 0 ],
					"source" : [ "obj-1673", 6 ]
				}

			}
, 			{
				"patchline" : 				{
					"destination" : [ "obj-1558", 0 ],
					"source" : [ "obj-1673", 7 ]
				}

			}
, 			{
				"patchline" : 				{
					"destination" : [ "obj-1560", 0 ],
					"source" : [ "obj-1673", 8 ]
				}

			}
, 			{
				"patchline" : 				{
					"destination" : [ "obj-1562", 0 ],
					"source" : [ "obj-1673", 9 ]
				}

			}
, 			{
				"patchline" : 				{
					"destination" : [ "obj-1564", 0 ],
					"source" : [ "obj-1673", 10 ]
				}

			}
, 			{
				"patchline" : 				{
					"destination" : [ "obj-1566", 0 ],
					"source" : [ "obj-1673", 11 ]
				}

			}
, 			{
				"patchline" : 				{
					"destination" : [ "obj-1568", 0 ],
					"source" : [ "obj-1673", 12 ]
				}

			}
, 			{
				"patchline" : 				{
					"destination" : [ "obj-1570", 0 ],
					"source" : [ "obj-1673", 13 ]
				}

			}
, 			{
				"patchline" : 				{
					"destination" : [ "obj-1572", 0 ],
					"source" : [ "obj-1673", 14 ]
				}

			}
, 			{
				"patchline" : 				{
					"destination" : [ "obj-1574", 0 ],
					"source" : [ "obj-1673", 15 ]
				}

			}
, 			{
				"patchline" : 				{
					"destination" : [ "obj-1576", 0 ],
					"source" : [ "obj-1673", 16 ]
				}

			}
, 			{
				"patchline" : 				{
					"destination" : [ "obj-1578", 0 ],
					"source" : [ "obj-1673", 17 ]
				}

			}
, 			{
				"patchline" : 				{
					"destination" : [ "obj-1580", 0 ],
					"source" : [ "obj-1673", 18 ]
				}

			}
, 			{
				"patchline" : 				{
					"destination" : [ "obj-1582", 0 ],
					"source" : [ "obj-1673", 19 ]
				}

			}
, 			{
				"patchline" : 				{
					"destination" : [ "obj-1584", 0 ],
					"source" : [ "obj-1673", 20 ]
				}

			}
, 			{
				"patchline" : 				{
					"destination" : [ "obj-1586", 0 ],
					"source" : [ "obj-1673", 21 ]
				}

			}
, 			{
				"patchline" : 				{
					"destination" : [ "obj-1588", 0 ],
					"source" : [ "obj-1673", 22 ]
				}

			}
, 			{
				"patchline" : 				{
					"destination" : [ "obj-1590", 0 ],
					"source" : [ "obj-1673", 23 ]
				}

			}
, 			{
				"patchline" : 				{
					"destination" : [ "obj-1592", 0 ],
					"source" : [ "obj-1673", 24 ]
				}

			}
, 			{
				"patchline" : 				{
					"destination" : [ "obj-1594", 0 ],
					"source" : [ "obj-1673", 25 ]
				}

			}
, 			{
				"patchline" : 				{
					"destination" : [ "obj-1596", 0 ],
					"source" : [ "obj-1673", 26 ]
				}

			}
, 			{
				"patchline" : 				{
					"destination" : [ "obj-1598", 0 ],
					"source" : [ "obj-1673", 27 ]
				}

			}
, 			{
				"patchline" : 				{
					"destination" : [ "obj-16", 0 ],
					"source" : [ "obj-1673", 79 ]
				}

			}
, 			{
				"patchline" : 				{
					"destination" : [ "obj-1600", 0 ],
					"source" : [ "obj-1673", 28 ]
				}

			}
, 			{
				"patchline" : 				{
					"destination" : [ "obj-1602", 0 ],
					"source" : [ "obj-1673", 29 ]
				}

			}
, 			{
				"patchline" : 				{
					"destination" : [ "obj-1604", 0 ],
					"source" : [ "obj-1673", 30 ]
				}

			}
, 			{
				"patchline" : 				{
					"destination" : [ "obj-1606", 0 ],
					"source" : [ "obj-1673", 31 ]
				}

			}
, 			{
				"patchline" : 				{
					"destination" : [ "obj-1608", 0 ],
					"source" : [ "obj-1673", 32 ]
				}

			}
, 			{
				"patchline" : 				{
					"destination" : [ "obj-1610", 0 ],
					"source" : [ "obj-1673", 33 ]
				}

			}
, 			{
				"patchline" : 				{
					"destination" : [ "obj-1612", 0 ],
					"source" : [ "obj-1673", 34 ]
				}

			}
, 			{
				"patchline" : 				{
					"destination" : [ "obj-1614", 0 ],
					"source" : [ "obj-1673", 35 ]
				}

			}
, 			{
				"patchline" : 				{
					"destination" : [ "obj-1616", 0 ],
					"source" : [ "obj-1673", 36 ]
				}

			}
, 			{
				"patchline" : 				{
					"destination" : [ "obj-1618", 0 ],
					"source" : [ "obj-1673", 37 ]
				}

			}
, 			{
				"patchline" : 				{
					"destination" : [ "obj-1620", 0 ],
					"source" : [ "obj-1673", 38 ]
				}

			}
, 			{
				"patchline" : 				{
					"destination" : [ "obj-1622", 0 ],
					"source" : [ "obj-1673", 39 ]
				}

			}
, 			{
				"patchline" : 				{
					"destination" : [ "obj-1624", 0 ],
					"source" : [ "obj-1673", 40 ]
				}

			}
, 			{
				"patchline" : 				{
					"destination" : [ "obj-1626", 0 ],
					"source" : [ "obj-1673", 41 ]
				}

			}
, 			{
				"patchline" : 				{
					"destination" : [ "obj-1628", 0 ],
					"source" : [ "obj-1673", 42 ]
				}

			}
, 			{
				"patchline" : 				{
					"destination" : [ "obj-1630", 0 ],
					"source" : [ "obj-1673", 43 ]
				}

			}
, 			{
				"patchline" : 				{
					"destination" : [ "obj-1632", 0 ],
					"source" : [ "obj-1673", 44 ]
				}

			}
, 			{
				"patchline" : 				{
					"destination" : [ "obj-1634", 0 ],
					"source" : [ "obj-1673", 45 ]
				}

			}
, 			{
				"patchline" : 				{
					"destination" : [ "obj-1636", 0 ],
					"source" : [ "obj-1673", 46 ]
				}

			}
, 			{
				"patchline" : 				{
					"destination" : [ "obj-1638", 0 ],
					"source" : [ "obj-1673", 47 ]
				}

			}
, 			{
				"patchline" : 				{
					"destination" : [ "obj-1640", 0 ],
					"source" : [ "obj-1673", 48 ]
				}

			}
, 			{
				"patchline" : 				{
					"destination" : [ "obj-1642", 0 ],
					"source" : [ "obj-1673", 49 ]
				}

			}
, 			{
				"patchline" : 				{
					"destination" : [ "obj-1644", 0 ],
					"source" : [ "obj-1673", 50 ]
				}

			}
, 			{
				"patchline" : 				{
					"destination" : [ "obj-1646", 0 ],
					"source" : [ "obj-1673", 51 ]
				}

			}
, 			{
				"patchline" : 				{
					"destination" : [ "obj-1648", 0 ],
					"source" : [ "obj-1673", 52 ]
				}

			}
, 			{
				"patchline" : 				{
					"destination" : [ "obj-1650", 0 ],
					"source" : [ "obj-1673", 53 ]
				}

			}
, 			{
				"patchline" : 				{
					"destination" : [ "obj-1652", 0 ],
					"source" : [ "obj-1673", 54 ]
				}

			}
, 			{
				"patchline" : 				{
					"destination" : [ "obj-1654", 0 ],
					"source" : [ "obj-1673", 55 ]
				}

			}
, 			{
				"patchline" : 				{
					"destination" : [ "obj-1656", 0 ],
					"source" : [ "obj-1673", 56 ]
				}

			}
, 			{
				"patchline" : 				{
					"destination" : [ "obj-1658", 0 ],
					"source" : [ "obj-1673", 57 ]
				}

			}
, 			{
				"patchline" : 				{
					"destination" : [ "obj-1660", 0 ],
					"source" : [ "obj-1673", 58 ]
				}

			}
, 			{
				"patchline" : 				{
					"destination" : [ "obj-1662", 0 ],
					"source" : [ "obj-1673", 59 ]
				}

			}
, 			{
				"patchline" : 				{
					"destination" : [ "obj-1664", 0 ],
					"source" : [ "obj-1673", 60 ]
				}

			}
, 			{
				"patchline" : 				{
					"destination" : [ "obj-1666", 0 ],
					"source" : [ "obj-1673", 61 ]
				}

			}
, 			{
				"patchline" : 				{
					"destination" : [ "obj-1668", 0 ],
					"source" : [ "obj-1673", 62 ]
				}

			}
, 			{
				"patchline" : 				{
					"destination" : [ "obj-1670", 0 ],
					"source" : [ "obj-1673", 63 ]
				}

			}
, 			{
				"patchline" : 				{
					"destination" : [ "obj-17", 0 ],
					"source" : [ "obj-1673", 80 ]
				}

			}
, 			{
				"patchline" : 				{
					"destination" : [ "obj-18", 0 ],
					"source" : [ "obj-1673", 81 ]
				}

			}
, 			{
				"patchline" : 				{
					"destination" : [ "obj-19", 0 ],
					"source" : [ "obj-1673", 82 ]
				}

			}
, 			{
				"patchline" : 				{
					"destination" : [ "obj-2", 0 ],
					"source" : [ "obj-1673", 65 ]
				}

			}
, 			{
				"patchline" : 				{
					"destination" : [ "obj-20", 0 ],
					"source" : [ "obj-1673", 83 ]
				}

			}
, 			{
				"patchline" : 				{
					"destination" : [ "obj-21", 0 ],
					"source" : [ "obj-1673", 84 ]
				}

			}
, 			{
				"patchline" : 				{
					"destination" : [ "obj-22", 0 ],
					"source" : [ "obj-1673", 85 ]
				}

			}
, 			{
				"patchline" : 				{
					"destination" : [ "obj-23", 0 ],
					"source" : [ "obj-1673", 86 ]
				}

			}
, 			{
				"patchline" : 				{
					"destination" : [ "obj-24", 0 ],
					"source" : [ "obj-1673", 87 ]
				}

			}
, 			{
				"patchline" : 				{
					"destination" : [ "obj-25", 0 ],
					"source" : [ "obj-1673", 88 ]
				}

			}
, 			{
				"patchline" : 				{
					"destination" : [ "obj-26", 0 ],
					"source" : [ "obj-1673", 89 ]
				}

			}
, 			{
				"patchline" : 				{
					"destination" : [ "obj-27", 0 ],
					"source" : [ "obj-1673", 90 ]
				}

			}
, 			{
				"patchline" : 				{
					"destination" : [ "obj-28", 0 ],
					"source" : [ "obj-1673", 91 ]
				}

			}
, 			{
				"patchline" : 				{
					"destination" : [ "obj-29", 0 ],
					"source" : [ "obj-1673", 92 ]
				}

			}
, 			{
				"patchline" : 				{
					"destination" : [ "obj-3", 0 ],
					"source" : [ "obj-1673", 66 ]
				}

			}
, 			{
				"patchline" : 				{
					"destination" : [ "obj-30", 0 ],
					"source" : [ "obj-1673", 93 ]
				}

			}
, 			{
				"patchline" : 				{
					"destination" : [ "obj-31", 0 ],
					"source" : [ "obj-1673", 94 ]
				}

			}
, 			{
				"patchline" : 				{
					"destination" : [ "obj-32", 0 ],
					"source" : [ "obj-1673", 95 ]
				}

			}
, 			{
				"patchline" : 				{
					"destination" : [ "obj-33", 0 ],
					"source" : [ "obj-1673", 96 ]
				}

			}
, 			{
				"patchline" : 				{
					"destination" : [ "obj-34", 0 ],
					"source" : [ "obj-1673", 97 ]
				}

			}
, 			{
				"patchline" : 				{
					"destination" : [ "obj-35", 0 ],
					"source" : [ "obj-1673", 98 ]
				}

			}
, 			{
				"patchline" : 				{
					"destination" : [ "obj-36", 0 ],
					"source" : [ "obj-1673", 99 ]
				}

			}
, 			{
				"patchline" : 				{
					"destination" : [ "obj-37", 0 ],
					"source" : [ "obj-1673", 100 ]
				}

			}
, 			{
				"patchline" : 				{
					"destination" : [ "obj-38", 0 ],
					"source" : [ "obj-1673", 101 ]
				}

			}
, 			{
				"patchline" : 				{
					"destination" : [ "obj-39", 0 ],
					"source" : [ "obj-1673", 102 ]
				}

			}
, 			{
				"patchline" : 				{
					"destination" : [ "obj-4", 0 ],
					"source" : [ "obj-1673", 67 ]
				}

			}
, 			{
				"patchline" : 				{
					"destination" : [ "obj-40", 0 ],
					"source" : [ "obj-1673", 103 ]
				}

			}
, 			{
				"patchline" : 				{
					"destination" : [ "obj-41", 0 ],
					"source" : [ "obj-1673", 104 ]
				}

			}
, 			{
				"patchline" : 				{
					"destination" : [ "obj-42", 0 ],
					"source" : [ "obj-1673", 105 ]
				}

			}
, 			{
				"patchline" : 				{
					"destination" : [ "obj-43", 0 ],
					"source" : [ "obj-1673", 106 ]
				}

			}
, 			{
				"patchline" : 				{
					"destination" : [ "obj-44", 0 ],
					"source" : [ "obj-1673", 107 ]
				}

			}
, 			{
				"patchline" : 				{
					"destination" : [ "obj-45", 0 ],
					"source" : [ "obj-1673", 108 ]
				}

			}
, 			{
				"patchline" : 				{
					"destination" : [ "obj-46", 0 ],
					"source" : [ "obj-1673", 109 ]
				}

			}
, 			{
				"patchline" : 				{
					"destination" : [ "obj-47", 0 ],
					"source" : [ "obj-1673", 110 ]
				}

			}
, 			{
				"patchline" : 				{
					"destination" : [ "obj-48", 0 ],
					"source" : [ "obj-1673", 111 ]
				}

			}
, 			{
				"patchline" : 				{
					"destination" : [ "obj-49", 0 ],
					"source" : [ "obj-1673", 112 ]
				}

			}
, 			{
				"patchline" : 				{
					"destination" : [ "obj-5", 0 ],
					"source" : [ "obj-1673", 68 ]
				}

			}
, 			{
				"patchline" : 				{
					"destination" : [ "obj-50", 0 ],
					"source" : [ "obj-1673", 113 ]
				}

			}
, 			{
				"patchline" : 				{
					"destination" : [ "obj-51", 0 ],
					"source" : [ "obj-1673", 114 ]
				}

			}
, 			{
				"patchline" : 				{
					"destination" : [ "obj-52", 0 ],
					"source" : [ "obj-1673", 115 ]
				}

			}
, 			{
				"patchline" : 				{
					"destination" : [ "obj-53", 0 ],
					"source" : [ "obj-1673", 116 ]
				}

			}
, 			{
				"patchline" : 				{
					"destination" : [ "obj-54", 0 ],
					"source" : [ "obj-1673", 117 ]
				}

			}
, 			{
				"patchline" : 				{
					"destination" : [ "obj-55", 0 ],
					"source" : [ "obj-1673", 118 ]
				}

			}
, 			{
				"patchline" : 				{
					"destination" : [ "obj-56", 0 ],
					"source" : [ "obj-1673", 119 ]
				}

			}
, 			{
				"patchline" : 				{
					"destination" : [ "obj-57", 0 ],
					"source" : [ "obj-1673", 120 ]
				}

			}
, 			{
				"patchline" : 				{
					"destination" : [ "obj-58", 0 ],
					"source" : [ "obj-1673", 121 ]
				}

			}
, 			{
				"patchline" : 				{
					"destination" : [ "obj-59", 0 ],
					"source" : [ "obj-1673", 122 ]
				}

			}
, 			{
				"patchline" : 				{
					"destination" : [ "obj-6", 0 ],
					"source" : [ "obj-1673", 69 ]
				}

			}
, 			{
				"patchline" : 				{
					"destination" : [ "obj-60", 0 ],
					"source" : [ "obj-1673", 123 ]
				}

			}
, 			{
				"patchline" : 				{
					"destination" : [ "obj-61", 0 ],
					"source" : [ "obj-1673", 124 ]
				}

			}
, 			{
				"patchline" : 				{
					"destination" : [ "obj-62", 0 ],
					"source" : [ "obj-1673", 125 ]
				}

			}
, 			{
				"patchline" : 				{
					"destination" : [ "obj-63", 0 ],
					"source" : [ "obj-1673", 126 ]
				}

			}
, 			{
				"patchline" : 				{
					"destination" : [ "obj-64", 0 ],
					"source" : [ "obj-1673", 127 ]
				}

			}
, 			{
				"patchline" : 				{
					"destination" : [ "obj-7", 0 ],
					"source" : [ "obj-1673", 70 ]
				}

			}
, 			{
				"patchline" : 				{
					"destination" : [ "obj-8", 0 ],
					"source" : [ "obj-1673", 71 ]
				}

			}
, 			{
				"patchline" : 				{
					"destination" : [ "obj-9", 0 ],
					"source" : [ "obj-1673", 72 ]
				}

			}
 ],
		"dependency_cache" : [  ],
		"autosave" : 0,
		"styles" : [ 			{
				"name" : "AudioStatus_Menu",
				"default" : 				{
					"bgfillcolor" : 					{
						"type" : "color",
						"color" : [ 0.294118, 0.313726, 0.337255, 1 ],
						"color1" : [ 0.454902, 0.462745, 0.482353, 0.0 ],
						"color2" : [ 0.290196, 0.309804, 0.301961, 1.0 ],
						"angle" : 270.0,
						"proportion" : 0.39,
						"autogradient" : 0
					}

				}
,
				"parentstyle" : "",
				"multi" : 0
			}
, 			{
				"name" : "Default 11Bold Poletti",
				"default" : 				{
					"fontsize" : [ 11.0 ]
				}
,
				"parentstyle" : "",
				"multi" : 0
			}
, 			{
				"name" : "Default M4L",
				"default" : 				{
					"fontsize" : [ 11.0 ],
					"fontname" : [ "Arial Bold" ],
					"patchlinecolor" : [ 0.290196, 0.309804, 0.301961, 0.85 ]
				}
,
				"parentstyle" : "",
				"multi" : 0
			}
, 			{
				"name" : "Default M4L Poletti",
				"default" : 				{
					"fontsize" : [ 10.0 ],
					"fontname" : [ "Arial Bold" ],
					"patchlinecolor" : [ 0.290196, 0.309804, 0.301961, 0.85 ]
				}
,
				"parentstyle" : "",
				"multi" : 0
			}
, 			{
				"name" : "Default M4L-1",
				"default" : 				{
					"fontsize" : [ 11.0 ],
					"fontname" : [ "Arial" ],
					"fontface" : [ 1 ],
					"bgfillcolor" : 					{
						"type" : "gradient",
						"color1" : [ 0.376471, 0.384314, 0.4, 1.0 ],
						"color2" : [ 0.290196, 0.309804, 0.301961, 1.0 ],
						"color" : [ 0.290196, 0.309804, 0.301961, 1.0 ],
						"angle" : 270.0,
						"proportion" : 0.39
					}

				}
,
				"parentstyle" : "",
				"multi" : 0
			}
, 			{
				"name" : "Default Max7 Poletti",
				"default" : 				{
					"bgfillcolor" : 					{
						"type" : "gradient",
						"color1" : [ 0.376471, 0.384314, 0.4, 1.0 ],
						"color2" : [ 0.290196, 0.309804, 0.301961, 1.0 ],
						"color" : [ 0.290196, 0.309804, 0.301961, 1.0 ],
						"angle" : 270.0,
						"proportion" : 0.39
					}

				}
,
				"parentstyle" : "",
				"multi" : 0
			}
, 			{
				"name" : "jbb",
				"default" : 				{
					"fontsize" : [ 9.0 ],
					"fontname" : [ "Arial" ],
					"bgfillcolor" : 					{
						"type" : "gradient",
						"color1" : [ 0.376471, 0.384314, 0.4, 1.0 ],
						"color2" : [ 0.290196, 0.309804, 0.301961, 1.0 ],
						"color" : [ 0.290196, 0.309804, 0.301961, 1.0 ],
						"angle" : 270.0,
						"proportion" : 0.39
					}

				}
,
				"parentstyle" : "",
				"multi" : 0
			}
, 			{
				"name" : "ksliderWhite",
				"default" : 				{
					"color" : [ 1.0, 1.0, 1.0, 1.0 ]
				}
,
				"parentstyle" : "",
				"multi" : 0
			}
, 			{
				"name" : "newobjBlue-1",
				"default" : 				{
					"accentcolor" : [ 0.317647, 0.654902, 0.976471, 1.0 ]
				}
,
				"parentstyle" : "",
				"multi" : 0
			}
, 			{
				"name" : "newobjGreen-1",
				"default" : 				{
					"accentcolor" : [ 0.0, 0.533333, 0.168627, 1.0 ]
				}
,
				"parentstyle" : "",
				"multi" : 0
			}
, 			{
				"name" : "numberGold-1",
				"default" : 				{
					"accentcolor" : [ 0.764706, 0.592157, 0.101961, 1.0 ]
				}
,
				"parentstyle" : "",
				"multi" : 0
			}
 ],
		"bgcolor" : [ 0.9, 0.9, 0.9, 1.0 ]
	}

}
