{
	"patcher" : 	{
		"fileversion" : 1,
		"appversion" : 		{
			"major" : 8,
			"minor" : 1,
			"revision" : 1,
			"architecture" : "x64",
			"modernui" : 1
		}
,
		"classnamespace" : "box",
		"rect" : [ 54.0, 274.0, 494.0, 142.0 ],
		"bglocked" : 0,
		"openinpresentation" : 0,
		"default_fontsize" : 11.0,
		"default_fontface" : 0,
		"default_fontname" : "Arial",
		"gridonopen" : 2,
		"gridsize" : [ 10.0, 10.0 ],
		"gridsnaponopen" : 2,
		"objectsnaponopen" : 1,
		"statusbarvisible" : 2,
		"toolbarvisible" : 0,
		"lefttoolbarpinned" : 0,
		"toptoolbarpinned" : 0,
		"righttoolbarpinned" : 0,
		"bottomtoolbarpinned" : 0,
		"toolbars_unpinned_last_save" : 15,
		"tallnewobj" : 0,
		"boxanimatetime" : 200,
		"enablehscroll" : 1,
		"enablevscroll" : 1,
		"devicewidth" : 0.0,
		"description" : "",
		"digest" : "",
		"tags" : "",
		"style" : "",
		"subpatcher_template" : "",
		"boxes" : [ 			{
				"box" : 				{
					"id" : "obj-1673",
					"maxclass" : "newobj",
					"numinlets" : 32,
					"numoutlets" : 32,
					"outlettype" : [ "", "", "", "", "", "", "", "", "", "", "", "", "", "", "", "", "", "", "", "", "", "", "", "", "", "", "", "", "", "", "", "" ],
					"patching_rect" : [ 12.976191, 60.0, 452.523809000000028, 21.0 ],
					"text" : "spat5.thru32~"
				}

			}
, 			{
				"box" : 				{
					"id" : "obj-1672",
					"linecount" : 2,
					"maxclass" : "comment",
					"numinlets" : 1,
					"numoutlets" : 0,
					"patching_rect" : [ 12.976191, 10.0, 432.0, 31.0 ],
					"text" : "This patcher just contains 32 tiny outlets, properly labelled with a comment \"outlet #\". \nThe idea is that you can copy/paster this section and use it in your patchers..."
				}

			}
, 			{
				"box" : 				{
					"comment" : "output #1",
					"id" : "obj-1544",
					"index" : 0,
					"maxclass" : "outlet",
					"numinlets" : 1,
					"numoutlets" : 0,
					"patching_rect" : [ 14.0, 100.0, 14.0, 14.0 ]
				}

			}
, 			{
				"box" : 				{
					"comment" : "output #2",
					"id" : "obj-1546",
					"index" : 0,
					"maxclass" : "outlet",
					"numinlets" : 1,
					"numoutlets" : 0,
					"patching_rect" : [ 28.0, 100.0, 14.0, 14.0 ]
				}

			}
, 			{
				"box" : 				{
					"comment" : "output #3",
					"id" : "obj-1548",
					"index" : 0,
					"maxclass" : "outlet",
					"numinlets" : 1,
					"numoutlets" : 0,
					"patching_rect" : [ 42.0, 100.0, 14.0, 14.0 ]
				}

			}
, 			{
				"box" : 				{
					"comment" : "output #4",
					"id" : "obj-1550",
					"index" : 0,
					"maxclass" : "outlet",
					"numinlets" : 1,
					"numoutlets" : 0,
					"patching_rect" : [ 56.0, 100.0, 14.0, 14.0 ]
				}

			}
, 			{
				"box" : 				{
					"comment" : "output #5",
					"id" : "obj-1552",
					"index" : 0,
					"maxclass" : "outlet",
					"numinlets" : 1,
					"numoutlets" : 0,
					"patching_rect" : [ 70.0, 100.0, 14.0, 14.0 ]
				}

			}
, 			{
				"box" : 				{
					"comment" : "output #6",
					"id" : "obj-1554",
					"index" : 0,
					"maxclass" : "outlet",
					"numinlets" : 1,
					"numoutlets" : 0,
					"patching_rect" : [ 84.0, 100.0, 14.0, 14.0 ]
				}

			}
, 			{
				"box" : 				{
					"comment" : "output #7",
					"id" : "obj-1556",
					"index" : 0,
					"maxclass" : "outlet",
					"numinlets" : 1,
					"numoutlets" : 0,
					"patching_rect" : [ 98.0, 100.0, 14.0, 14.0 ]
				}

			}
, 			{
				"box" : 				{
					"comment" : "output #8",
					"id" : "obj-1558",
					"index" : 0,
					"maxclass" : "outlet",
					"numinlets" : 1,
					"numoutlets" : 0,
					"patching_rect" : [ 112.0, 100.0, 14.0, 14.0 ]
				}

			}
, 			{
				"box" : 				{
					"comment" : "output #9",
					"id" : "obj-1560",
					"index" : 0,
					"maxclass" : "outlet",
					"numinlets" : 1,
					"numoutlets" : 0,
					"patching_rect" : [ 126.0, 100.0, 14.0, 14.0 ]
				}

			}
, 			{
				"box" : 				{
					"comment" : "output #10",
					"id" : "obj-1562",
					"index" : 0,
					"maxclass" : "outlet",
					"numinlets" : 1,
					"numoutlets" : 0,
					"patching_rect" : [ 140.0, 100.0, 14.0, 14.0 ]
				}

			}
, 			{
				"box" : 				{
					"comment" : "output #11",
					"id" : "obj-1564",
					"index" : 0,
					"maxclass" : "outlet",
					"numinlets" : 1,
					"numoutlets" : 0,
					"patching_rect" : [ 154.0, 100.0, 14.0, 14.0 ]
				}

			}
, 			{
				"box" : 				{
					"comment" : "output #12",
					"id" : "obj-1566",
					"index" : 0,
					"maxclass" : "outlet",
					"numinlets" : 1,
					"numoutlets" : 0,
					"patching_rect" : [ 168.0, 100.0, 14.0, 14.0 ]
				}

			}
, 			{
				"box" : 				{
					"comment" : "output #13",
					"id" : "obj-1568",
					"index" : 0,
					"maxclass" : "outlet",
					"numinlets" : 1,
					"numoutlets" : 0,
					"patching_rect" : [ 182.0, 100.0, 14.0, 14.0 ]
				}

			}
, 			{
				"box" : 				{
					"comment" : "output #14",
					"id" : "obj-1570",
					"index" : 0,
					"maxclass" : "outlet",
					"numinlets" : 1,
					"numoutlets" : 0,
					"patching_rect" : [ 196.0, 100.0, 14.0, 14.0 ]
				}

			}
, 			{
				"box" : 				{
					"comment" : "output #15",
					"id" : "obj-1572",
					"index" : 0,
					"maxclass" : "outlet",
					"numinlets" : 1,
					"numoutlets" : 0,
					"patching_rect" : [ 210.0, 100.0, 14.0, 14.0 ]
				}

			}
, 			{
				"box" : 				{
					"comment" : "output #16",
					"id" : "obj-1574",
					"index" : 0,
					"maxclass" : "outlet",
					"numinlets" : 1,
					"numoutlets" : 0,
					"patching_rect" : [ 224.0, 100.0, 14.0, 14.0 ]
				}

			}
, 			{
				"box" : 				{
					"comment" : "output #17",
					"id" : "obj-1576",
					"index" : 0,
					"maxclass" : "outlet",
					"numinlets" : 1,
					"numoutlets" : 0,
					"patching_rect" : [ 238.0, 100.0, 14.0, 14.0 ]
				}

			}
, 			{
				"box" : 				{
					"comment" : "output #18",
					"id" : "obj-1578",
					"index" : 0,
					"maxclass" : "outlet",
					"numinlets" : 1,
					"numoutlets" : 0,
					"patching_rect" : [ 252.0, 100.0, 14.0, 14.0 ]
				}

			}
, 			{
				"box" : 				{
					"comment" : "output #19",
					"id" : "obj-1580",
					"index" : 0,
					"maxclass" : "outlet",
					"numinlets" : 1,
					"numoutlets" : 0,
					"patching_rect" : [ 266.0, 100.0, 14.0, 14.0 ]
				}

			}
, 			{
				"box" : 				{
					"comment" : "output #20",
					"id" : "obj-1582",
					"index" : 0,
					"maxclass" : "outlet",
					"numinlets" : 1,
					"numoutlets" : 0,
					"patching_rect" : [ 280.0, 100.0, 14.0, 14.0 ]
				}

			}
, 			{
				"box" : 				{
					"comment" : "output #21",
					"id" : "obj-1584",
					"index" : 0,
					"maxclass" : "outlet",
					"numinlets" : 1,
					"numoutlets" : 0,
					"patching_rect" : [ 294.0, 100.0, 14.0, 14.0 ]
				}

			}
, 			{
				"box" : 				{
					"comment" : "output #22",
					"id" : "obj-1586",
					"index" : 0,
					"maxclass" : "outlet",
					"numinlets" : 1,
					"numoutlets" : 0,
					"patching_rect" : [ 308.0, 100.0, 14.0, 14.0 ]
				}

			}
, 			{
				"box" : 				{
					"comment" : "output #23",
					"id" : "obj-1588",
					"index" : 0,
					"maxclass" : "outlet",
					"numinlets" : 1,
					"numoutlets" : 0,
					"patching_rect" : [ 322.0, 100.0, 14.0, 14.0 ]
				}

			}
, 			{
				"box" : 				{
					"comment" : "output #24",
					"id" : "obj-1590",
					"index" : 0,
					"maxclass" : "outlet",
					"numinlets" : 1,
					"numoutlets" : 0,
					"patching_rect" : [ 336.0, 100.0, 14.0, 14.0 ]
				}

			}
, 			{
				"box" : 				{
					"comment" : "output #25",
					"id" : "obj-1592",
					"index" : 0,
					"maxclass" : "outlet",
					"numinlets" : 1,
					"numoutlets" : 0,
					"patching_rect" : [ 350.0, 100.0, 14.0, 14.0 ]
				}

			}
, 			{
				"box" : 				{
					"comment" : "output #26",
					"id" : "obj-1594",
					"index" : 0,
					"maxclass" : "outlet",
					"numinlets" : 1,
					"numoutlets" : 0,
					"patching_rect" : [ 364.0, 100.0, 14.0, 14.0 ]
				}

			}
, 			{
				"box" : 				{
					"comment" : "output #27",
					"id" : "obj-1596",
					"index" : 0,
					"maxclass" : "outlet",
					"numinlets" : 1,
					"numoutlets" : 0,
					"patching_rect" : [ 378.0, 100.0, 14.0, 14.0 ]
				}

			}
, 			{
				"box" : 				{
					"comment" : "output #28",
					"id" : "obj-1598",
					"index" : 0,
					"maxclass" : "outlet",
					"numinlets" : 1,
					"numoutlets" : 0,
					"patching_rect" : [ 392.0, 100.0, 14.0, 14.0 ]
				}

			}
, 			{
				"box" : 				{
					"comment" : "output #29",
					"id" : "obj-1600",
					"index" : 0,
					"maxclass" : "outlet",
					"numinlets" : 1,
					"numoutlets" : 0,
					"patching_rect" : [ 406.0, 100.0, 14.0, 14.0 ]
				}

			}
, 			{
				"box" : 				{
					"comment" : "output #30",
					"id" : "obj-1602",
					"index" : 0,
					"maxclass" : "outlet",
					"numinlets" : 1,
					"numoutlets" : 0,
					"patching_rect" : [ 420.0, 100.0, 14.0, 14.0 ]
				}

			}
, 			{
				"box" : 				{
					"comment" : "output #31",
					"id" : "obj-1604",
					"index" : 0,
					"maxclass" : "outlet",
					"numinlets" : 1,
					"numoutlets" : 0,
					"patching_rect" : [ 434.0, 100.0, 14.0, 14.0 ]
				}

			}
, 			{
				"box" : 				{
					"comment" : "output #32",
					"id" : "obj-1606",
					"index" : 0,
					"maxclass" : "outlet",
					"numinlets" : 1,
					"numoutlets" : 0,
					"patching_rect" : [ 448.0, 100.0, 14.0, 14.0 ]
				}

			}
 ],
		"lines" : [ 			{
				"patchline" : 				{
					"destination" : [ "obj-1544", 0 ],
					"source" : [ "obj-1673", 0 ]
				}

			}
, 			{
				"patchline" : 				{
					"destination" : [ "obj-1546", 0 ],
					"source" : [ "obj-1673", 1 ]
				}

			}
, 			{
				"patchline" : 				{
					"destination" : [ "obj-1548", 0 ],
					"source" : [ "obj-1673", 2 ]
				}

			}
, 			{
				"patchline" : 				{
					"destination" : [ "obj-1550", 0 ],
					"source" : [ "obj-1673", 3 ]
				}

			}
, 			{
				"patchline" : 				{
					"destination" : [ "obj-1552", 0 ],
					"source" : [ "obj-1673", 4 ]
				}

			}
, 			{
				"patchline" : 				{
					"destination" : [ "obj-1554", 0 ],
					"source" : [ "obj-1673", 5 ]
				}

			}
, 			{
				"patchline" : 				{
					"destination" : [ "obj-1556", 0 ],
					"source" : [ "obj-1673", 6 ]
				}

			}
, 			{
				"patchline" : 				{
					"destination" : [ "obj-1558", 0 ],
					"source" : [ "obj-1673", 7 ]
				}

			}
, 			{
				"patchline" : 				{
					"destination" : [ "obj-1560", 0 ],
					"source" : [ "obj-1673", 8 ]
				}

			}
, 			{
				"patchline" : 				{
					"destination" : [ "obj-1562", 0 ],
					"source" : [ "obj-1673", 9 ]
				}

			}
, 			{
				"patchline" : 				{
					"destination" : [ "obj-1564", 0 ],
					"source" : [ "obj-1673", 10 ]
				}

			}
, 			{
				"patchline" : 				{
					"destination" : [ "obj-1566", 0 ],
					"source" : [ "obj-1673", 11 ]
				}

			}
, 			{
				"patchline" : 				{
					"destination" : [ "obj-1568", 0 ],
					"source" : [ "obj-1673", 12 ]
				}

			}
, 			{
				"patchline" : 				{
					"destination" : [ "obj-1570", 0 ],
					"source" : [ "obj-1673", 13 ]
				}

			}
, 			{
				"patchline" : 				{
					"destination" : [ "obj-1572", 0 ],
					"source" : [ "obj-1673", 14 ]
				}

			}
, 			{
				"patchline" : 				{
					"destination" : [ "obj-1574", 0 ],
					"source" : [ "obj-1673", 15 ]
				}

			}
, 			{
				"patchline" : 				{
					"destination" : [ "obj-1576", 0 ],
					"source" : [ "obj-1673", 16 ]
				}

			}
, 			{
				"patchline" : 				{
					"destination" : [ "obj-1578", 0 ],
					"source" : [ "obj-1673", 17 ]
				}

			}
, 			{
				"patchline" : 				{
					"destination" : [ "obj-1580", 0 ],
					"source" : [ "obj-1673", 18 ]
				}

			}
, 			{
				"patchline" : 				{
					"destination" : [ "obj-1582", 0 ],
					"source" : [ "obj-1673", 19 ]
				}

			}
, 			{
				"patchline" : 				{
					"destination" : [ "obj-1584", 0 ],
					"source" : [ "obj-1673", 20 ]
				}

			}
, 			{
				"patchline" : 				{
					"destination" : [ "obj-1586", 0 ],
					"source" : [ "obj-1673", 21 ]
				}

			}
, 			{
				"patchline" : 				{
					"destination" : [ "obj-1588", 0 ],
					"source" : [ "obj-1673", 22 ]
				}

			}
, 			{
				"patchline" : 				{
					"destination" : [ "obj-1590", 0 ],
					"source" : [ "obj-1673", 23 ]
				}

			}
, 			{
				"patchline" : 				{
					"destination" : [ "obj-1592", 0 ],
					"source" : [ "obj-1673", 24 ]
				}

			}
, 			{
				"patchline" : 				{
					"destination" : [ "obj-1594", 0 ],
					"source" : [ "obj-1673", 25 ]
				}

			}
, 			{
				"patchline" : 				{
					"destination" : [ "obj-1596", 0 ],
					"source" : [ "obj-1673", 26 ]
				}

			}
, 			{
				"patchline" : 				{
					"destination" : [ "obj-1598", 0 ],
					"source" : [ "obj-1673", 27 ]
				}

			}
, 			{
				"patchline" : 				{
					"destination" : [ "obj-1600", 0 ],
					"source" : [ "obj-1673", 28 ]
				}

			}
, 			{
				"patchline" : 				{
					"destination" : [ "obj-1602", 0 ],
					"source" : [ "obj-1673", 29 ]
				}

			}
, 			{
				"patchline" : 				{
					"destination" : [ "obj-1604", 0 ],
					"source" : [ "obj-1673", 30 ]
				}

			}
, 			{
				"patchline" : 				{
					"destination" : [ "obj-1606", 0 ],
					"source" : [ "obj-1673", 31 ]
				}

			}
 ],
		"dependency_cache" : [ 			{
				"name" : "spat5.thru32~.maxpat",
				"bootpath" : "~/gitlab/spat/Spat5MaxMsp/patchers",
				"patcherrelativepath" : ".",
				"type" : "JSON",
				"implicit" : 1
			}
 ],
		"autosave" : 0,
		"bgcolor" : [ 0.9, 0.9, 0.9, 1.0 ]
	}

}
