{
	"patcher" : 	{
		"fileversion" : 1,
		"appversion" : 		{
			"major" : 8,
			"minor" : 1,
			"revision" : 1,
			"architecture" : "x64",
			"modernui" : 1
		}
,
		"classnamespace" : "box",
		"rect" : [ 27.0, 180.0, 1358.0, 183.0 ],
		"bglocked" : 0,
		"openinpresentation" : 0,
		"default_fontsize" : 11.0,
		"default_fontface" : 0,
		"default_fontname" : "Arial",
		"gridonopen" : 2,
		"gridsize" : [ 10.0, 10.0 ],
		"gridsnaponopen" : 2,
		"objectsnaponopen" : 1,
		"statusbarvisible" : 2,
		"toolbarvisible" : 0,
		"lefttoolbarpinned" : 0,
		"toptoolbarpinned" : 0,
		"righttoolbarpinned" : 0,
		"bottomtoolbarpinned" : 0,
		"toolbars_unpinned_last_save" : 15,
		"tallnewobj" : 0,
		"boxanimatetime" : 200,
		"enablehscroll" : 1,
		"enablevscroll" : 1,
		"devicewidth" : 0.0,
		"description" : "",
		"digest" : "",
		"tags" : "",
		"style" : "",
		"subpatcher_template" : "",
		"boxes" : [ 			{
				"box" : 				{
					"id" : "obj-643",
					"maxclass" : "newobj",
					"numinlets" : 96,
					"numoutlets" : 96,
					"outlettype" : [ "", "", "", "", "", "", "", "", "", "", "", "", "", "", "", "", "", "", "", "", "", "", "", "", "", "", "", "", "", "", "", "", "", "", "", "", "", "", "", "", "", "", "", "", "", "", "", "", "", "", "", "", "", "", "", "", "", "", "", "", "", "", "", "", "", "", "", "", "", "", "", "", "", "", "", "", "", "", "", "", "", "", "", "", "", "", "", "", "", "", "", "", "", "", "", "" ],
					"patching_rect" : [ 10.0, 70.0, 1158.320925384615293, 21.0 ],
					"text" : "spat5.thru96~"
				}

			}
, 			{
				"box" : 				{
					"id" : "obj-1672",
					"linecount" : 2,
					"maxclass" : "comment",
					"numinlets" : 1,
					"numoutlets" : 0,
					"patching_rect" : [ 10.0, 20.0, 436.0, 31.0 ],
					"text" : "This patcher just contains 96 tiny outlets, properly labelled with a comment \"outlet #\". \nThe idea is that you can copy/paster this section and use it in your patchers..."
				}

			}
, 			{
				"box" : 				{
					"comment" : "output1",
					"id" : "obj-388",
					"index" : 0,
					"maxclass" : "outlet",
					"numinlets" : 1,
					"numoutlets" : 0,
					"patching_rect" : [ 13.407081, 110.0, 12.0, 12.0 ]
				}

			}
, 			{
				"box" : 				{
					"comment" : "output2",
					"id" : "obj-390",
					"index" : 0,
					"maxclass" : "outlet",
					"numinlets" : 1,
					"numoutlets" : 0,
					"patching_rect" : [ 25.407081999999999, 110.0, 12.0, 12.0 ]
				}

			}
, 			{
				"box" : 				{
					"comment" : "output3",
					"id" : "obj-392",
					"index" : 0,
					"maxclass" : "outlet",
					"numinlets" : 1,
					"numoutlets" : 0,
					"patching_rect" : [ 37.407082000000003, 110.0, 12.0, 12.0 ]
				}

			}
, 			{
				"box" : 				{
					"comment" : "output4",
					"id" : "obj-394",
					"index" : 0,
					"maxclass" : "outlet",
					"numinlets" : 1,
					"numoutlets" : 0,
					"patching_rect" : [ 49.407082000000003, 110.0, 12.0, 12.0 ]
				}

			}
, 			{
				"box" : 				{
					"comment" : "output5",
					"id" : "obj-396",
					"index" : 0,
					"maxclass" : "outlet",
					"numinlets" : 1,
					"numoutlets" : 0,
					"patching_rect" : [ 61.407082000000003, 110.0, 12.0, 12.0 ]
				}

			}
, 			{
				"box" : 				{
					"comment" : "output6",
					"id" : "obj-398",
					"index" : 0,
					"maxclass" : "outlet",
					"numinlets" : 1,
					"numoutlets" : 0,
					"patching_rect" : [ 73.407082000000003, 110.0, 12.0, 12.0 ]
				}

			}
, 			{
				"box" : 				{
					"comment" : "output7",
					"id" : "obj-400",
					"index" : 0,
					"maxclass" : "outlet",
					"numinlets" : 1,
					"numoutlets" : 0,
					"patching_rect" : [ 85.407082000000003, 110.0, 12.0, 12.0 ]
				}

			}
, 			{
				"box" : 				{
					"comment" : "output8",
					"id" : "obj-402",
					"index" : 0,
					"maxclass" : "outlet",
					"numinlets" : 1,
					"numoutlets" : 0,
					"patching_rect" : [ 97.407082000000003, 110.0, 12.0, 12.0 ]
				}

			}
, 			{
				"box" : 				{
					"comment" : "output9",
					"id" : "obj-404",
					"index" : 0,
					"maxclass" : "outlet",
					"numinlets" : 1,
					"numoutlets" : 0,
					"patching_rect" : [ 109.407082000000003, 110.0, 12.0, 12.0 ]
				}

			}
, 			{
				"box" : 				{
					"comment" : "output10",
					"id" : "obj-406",
					"index" : 0,
					"maxclass" : "outlet",
					"numinlets" : 1,
					"numoutlets" : 0,
					"patching_rect" : [ 121.407082000000003, 110.0, 12.0, 12.0 ]
				}

			}
, 			{
				"box" : 				{
					"comment" : "output11",
					"id" : "obj-408",
					"index" : 0,
					"maxclass" : "outlet",
					"numinlets" : 1,
					"numoutlets" : 0,
					"patching_rect" : [ 133.407073999999994, 110.0, 12.0, 12.0 ]
				}

			}
, 			{
				"box" : 				{
					"comment" : "output12",
					"id" : "obj-410",
					"index" : 0,
					"maxclass" : "outlet",
					"numinlets" : 1,
					"numoutlets" : 0,
					"patching_rect" : [ 145.407073999999994, 110.0, 12.0, 12.0 ]
				}

			}
, 			{
				"box" : 				{
					"comment" : "output13",
					"id" : "obj-412",
					"index" : 0,
					"maxclass" : "outlet",
					"numinlets" : 1,
					"numoutlets" : 0,
					"patching_rect" : [ 157.407073999999994, 110.0, 12.0, 12.0 ]
				}

			}
, 			{
				"box" : 				{
					"comment" : "output14",
					"id" : "obj-414",
					"index" : 0,
					"maxclass" : "outlet",
					"numinlets" : 1,
					"numoutlets" : 0,
					"patching_rect" : [ 169.407073999999994, 110.0, 12.0, 12.0 ]
				}

			}
, 			{
				"box" : 				{
					"comment" : "output15",
					"id" : "obj-416",
					"index" : 0,
					"maxclass" : "outlet",
					"numinlets" : 1,
					"numoutlets" : 0,
					"patching_rect" : [ 181.407073999999994, 110.0, 12.0, 12.0 ]
				}

			}
, 			{
				"box" : 				{
					"comment" : "output16",
					"id" : "obj-418",
					"index" : 0,
					"maxclass" : "outlet",
					"numinlets" : 1,
					"numoutlets" : 0,
					"patching_rect" : [ 193.407073999999994, 110.0, 12.0, 12.0 ]
				}

			}
, 			{
				"box" : 				{
					"comment" : "output17",
					"id" : "obj-420",
					"index" : 0,
					"maxclass" : "outlet",
					"numinlets" : 1,
					"numoutlets" : 0,
					"patching_rect" : [ 205.407073999999994, 110.0, 12.0, 12.0 ]
				}

			}
, 			{
				"box" : 				{
					"comment" : "output18",
					"id" : "obj-422",
					"index" : 0,
					"maxclass" : "outlet",
					"numinlets" : 1,
					"numoutlets" : 0,
					"patching_rect" : [ 217.407073999999994, 110.0, 12.0, 12.0 ]
				}

			}
, 			{
				"box" : 				{
					"comment" : "output19",
					"id" : "obj-424",
					"index" : 0,
					"maxclass" : "outlet",
					"numinlets" : 1,
					"numoutlets" : 0,
					"patching_rect" : [ 229.407073999999994, 110.0, 12.0, 12.0 ]
				}

			}
, 			{
				"box" : 				{
					"comment" : "output20",
					"id" : "obj-426",
					"index" : 0,
					"maxclass" : "outlet",
					"numinlets" : 1,
					"numoutlets" : 0,
					"patching_rect" : [ 241.407073999999994, 110.0, 12.0, 12.0 ]
				}

			}
, 			{
				"box" : 				{
					"comment" : "output21",
					"id" : "obj-428",
					"index" : 0,
					"maxclass" : "outlet",
					"numinlets" : 1,
					"numoutlets" : 0,
					"patching_rect" : [ 253.407073999999994, 110.0, 12.0, 12.0 ]
				}

			}
, 			{
				"box" : 				{
					"comment" : "output22",
					"id" : "obj-430",
					"index" : 0,
					"maxclass" : "outlet",
					"numinlets" : 1,
					"numoutlets" : 0,
					"patching_rect" : [ 265.407074000000023, 110.0, 12.0, 12.0 ]
				}

			}
, 			{
				"box" : 				{
					"comment" : "output23",
					"id" : "obj-432",
					"index" : 0,
					"maxclass" : "outlet",
					"numinlets" : 1,
					"numoutlets" : 0,
					"patching_rect" : [ 277.407074000000023, 110.0, 12.0, 12.0 ]
				}

			}
, 			{
				"box" : 				{
					"comment" : "output24",
					"id" : "obj-434",
					"index" : 0,
					"maxclass" : "outlet",
					"numinlets" : 1,
					"numoutlets" : 0,
					"patching_rect" : [ 289.407074000000023, 110.0, 12.0, 12.0 ]
				}

			}
, 			{
				"box" : 				{
					"comment" : "output25",
					"id" : "obj-436",
					"index" : 0,
					"maxclass" : "outlet",
					"numinlets" : 1,
					"numoutlets" : 0,
					"patching_rect" : [ 301.407074000000023, 110.0, 12.0, 12.0 ]
				}

			}
, 			{
				"box" : 				{
					"comment" : "output26",
					"id" : "obj-438",
					"index" : 0,
					"maxclass" : "outlet",
					"numinlets" : 1,
					"numoutlets" : 0,
					"patching_rect" : [ 313.407074000000023, 110.0, 12.0, 12.0 ]
				}

			}
, 			{
				"box" : 				{
					"comment" : "output27",
					"id" : "obj-440",
					"index" : 0,
					"maxclass" : "outlet",
					"numinlets" : 1,
					"numoutlets" : 0,
					"patching_rect" : [ 325.407074000000023, 110.0, 12.0, 12.0 ]
				}

			}
, 			{
				"box" : 				{
					"comment" : "output28",
					"id" : "obj-442",
					"index" : 0,
					"maxclass" : "outlet",
					"numinlets" : 1,
					"numoutlets" : 0,
					"patching_rect" : [ 337.407074000000023, 110.0, 12.0, 12.0 ]
				}

			}
, 			{
				"box" : 				{
					"comment" : "output29",
					"id" : "obj-444",
					"index" : 0,
					"maxclass" : "outlet",
					"numinlets" : 1,
					"numoutlets" : 0,
					"patching_rect" : [ 349.407074000000023, 110.0, 12.0, 12.0 ]
				}

			}
, 			{
				"box" : 				{
					"comment" : "output30",
					"id" : "obj-446",
					"index" : 0,
					"maxclass" : "outlet",
					"numinlets" : 1,
					"numoutlets" : 0,
					"patching_rect" : [ 361.407074000000023, 110.0, 12.0, 12.0 ]
				}

			}
, 			{
				"box" : 				{
					"comment" : "output31",
					"id" : "obj-448",
					"index" : 0,
					"maxclass" : "outlet",
					"numinlets" : 1,
					"numoutlets" : 0,
					"patching_rect" : [ 373.407074000000023, 110.0, 12.0, 12.0 ]
				}

			}
, 			{
				"box" : 				{
					"comment" : "output32",
					"id" : "obj-450",
					"index" : 0,
					"maxclass" : "outlet",
					"numinlets" : 1,
					"numoutlets" : 0,
					"patching_rect" : [ 385.407074000000023, 110.0, 12.0, 12.0 ]
				}

			}
, 			{
				"box" : 				{
					"comment" : "output33",
					"id" : "obj-452",
					"index" : 0,
					"maxclass" : "outlet",
					"numinlets" : 1,
					"numoutlets" : 0,
					"patching_rect" : [ 397.407074000000023, 110.0, 12.0, 12.0 ]
				}

			}
, 			{
				"box" : 				{
					"comment" : "output34",
					"id" : "obj-454",
					"index" : 0,
					"maxclass" : "outlet",
					"numinlets" : 1,
					"numoutlets" : 0,
					"patching_rect" : [ 409.407074000000023, 110.0, 12.0, 12.0 ]
				}

			}
, 			{
				"box" : 				{
					"comment" : "output35",
					"id" : "obj-456",
					"index" : 0,
					"maxclass" : "outlet",
					"numinlets" : 1,
					"numoutlets" : 0,
					"patching_rect" : [ 421.407074000000023, 110.0, 12.0, 12.0 ]
				}

			}
, 			{
				"box" : 				{
					"comment" : "output36",
					"id" : "obj-458",
					"index" : 0,
					"maxclass" : "outlet",
					"numinlets" : 1,
					"numoutlets" : 0,
					"patching_rect" : [ 433.407074000000023, 110.0, 12.0, 12.0 ]
				}

			}
, 			{
				"box" : 				{
					"comment" : "output37",
					"id" : "obj-460",
					"index" : 0,
					"maxclass" : "outlet",
					"numinlets" : 1,
					"numoutlets" : 0,
					"patching_rect" : [ 445.407074000000023, 110.0, 12.0, 12.0 ]
				}

			}
, 			{
				"box" : 				{
					"comment" : "output38",
					"id" : "obj-462",
					"index" : 0,
					"maxclass" : "outlet",
					"numinlets" : 1,
					"numoutlets" : 0,
					"patching_rect" : [ 457.407074000000023, 110.0, 12.0, 12.0 ]
				}

			}
, 			{
				"box" : 				{
					"comment" : "output39",
					"id" : "obj-464",
					"index" : 0,
					"maxclass" : "outlet",
					"numinlets" : 1,
					"numoutlets" : 0,
					"patching_rect" : [ 469.407074000000023, 110.0, 12.0, 12.0 ]
				}

			}
, 			{
				"box" : 				{
					"comment" : "output40",
					"id" : "obj-466",
					"index" : 0,
					"maxclass" : "outlet",
					"numinlets" : 1,
					"numoutlets" : 0,
					"patching_rect" : [ 481.407074000000023, 110.0, 12.0, 12.0 ]
				}

			}
, 			{
				"box" : 				{
					"comment" : "output41",
					"id" : "obj-468",
					"index" : 0,
					"maxclass" : "outlet",
					"numinlets" : 1,
					"numoutlets" : 0,
					"patching_rect" : [ 493.407074000000023, 110.0, 12.0, 12.0 ]
				}

			}
, 			{
				"box" : 				{
					"comment" : "output42",
					"id" : "obj-470",
					"index" : 0,
					"maxclass" : "outlet",
					"numinlets" : 1,
					"numoutlets" : 0,
					"patching_rect" : [ 505.407074000000023, 110.0, 12.0, 12.0 ]
				}

			}
, 			{
				"box" : 				{
					"comment" : "output43",
					"id" : "obj-472",
					"index" : 0,
					"maxclass" : "outlet",
					"numinlets" : 1,
					"numoutlets" : 0,
					"patching_rect" : [ 517.407104000000004, 110.0, 12.0, 12.0 ]
				}

			}
, 			{
				"box" : 				{
					"comment" : "output44",
					"id" : "obj-474",
					"index" : 0,
					"maxclass" : "outlet",
					"numinlets" : 1,
					"numoutlets" : 0,
					"patching_rect" : [ 529.407104000000004, 110.0, 12.0, 12.0 ]
				}

			}
, 			{
				"box" : 				{
					"comment" : "output45",
					"id" : "obj-476",
					"index" : 0,
					"maxclass" : "outlet",
					"numinlets" : 1,
					"numoutlets" : 0,
					"patching_rect" : [ 541.407104000000004, 110.0, 12.0, 12.0 ]
				}

			}
, 			{
				"box" : 				{
					"comment" : "output46",
					"id" : "obj-478",
					"index" : 0,
					"maxclass" : "outlet",
					"numinlets" : 1,
					"numoutlets" : 0,
					"patching_rect" : [ 553.407104000000004, 110.0, 12.0, 12.0 ]
				}

			}
, 			{
				"box" : 				{
					"comment" : "output47",
					"id" : "obj-480",
					"index" : 0,
					"maxclass" : "outlet",
					"numinlets" : 1,
					"numoutlets" : 0,
					"patching_rect" : [ 565.407104000000004, 110.0, 12.0, 12.0 ]
				}

			}
, 			{
				"box" : 				{
					"comment" : "output48",
					"id" : "obj-482",
					"index" : 0,
					"maxclass" : "outlet",
					"numinlets" : 1,
					"numoutlets" : 0,
					"patching_rect" : [ 577.407104000000004, 110.0, 12.0, 12.0 ]
				}

			}
, 			{
				"box" : 				{
					"comment" : "output49",
					"id" : "obj-484",
					"index" : 0,
					"maxclass" : "outlet",
					"numinlets" : 1,
					"numoutlets" : 0,
					"patching_rect" : [ 589.407104000000004, 110.0, 12.0, 12.0 ]
				}

			}
, 			{
				"box" : 				{
					"comment" : "output50",
					"id" : "obj-486",
					"index" : 0,
					"maxclass" : "outlet",
					"numinlets" : 1,
					"numoutlets" : 0,
					"patching_rect" : [ 601.407104000000004, 110.0, 12.0, 12.0 ]
				}

			}
, 			{
				"box" : 				{
					"comment" : "output51",
					"id" : "obj-488",
					"index" : 0,
					"maxclass" : "outlet",
					"numinlets" : 1,
					"numoutlets" : 0,
					"patching_rect" : [ 613.407104000000004, 110.0, 12.0, 12.0 ]
				}

			}
, 			{
				"box" : 				{
					"comment" : "output52",
					"id" : "obj-490",
					"index" : 0,
					"maxclass" : "outlet",
					"numinlets" : 1,
					"numoutlets" : 0,
					"patching_rect" : [ 625.407104000000004, 110.0, 12.0, 12.0 ]
				}

			}
, 			{
				"box" : 				{
					"comment" : "output53",
					"id" : "obj-492",
					"index" : 0,
					"maxclass" : "outlet",
					"numinlets" : 1,
					"numoutlets" : 0,
					"patching_rect" : [ 637.407104000000004, 110.0, 12.0, 12.0 ]
				}

			}
, 			{
				"box" : 				{
					"comment" : "output54",
					"id" : "obj-494",
					"index" : 0,
					"maxclass" : "outlet",
					"numinlets" : 1,
					"numoutlets" : 0,
					"patching_rect" : [ 649.407104000000004, 110.0, 12.0, 12.0 ]
				}

			}
, 			{
				"box" : 				{
					"comment" : "output55",
					"id" : "obj-496",
					"index" : 0,
					"maxclass" : "outlet",
					"numinlets" : 1,
					"numoutlets" : 0,
					"patching_rect" : [ 661.407104000000004, 110.0, 12.0, 12.0 ]
				}

			}
, 			{
				"box" : 				{
					"comment" : "output56",
					"id" : "obj-498",
					"index" : 0,
					"maxclass" : "outlet",
					"numinlets" : 1,
					"numoutlets" : 0,
					"patching_rect" : [ 673.407104000000004, 110.0, 12.0, 12.0 ]
				}

			}
, 			{
				"box" : 				{
					"comment" : "output57",
					"id" : "obj-500",
					"index" : 0,
					"maxclass" : "outlet",
					"numinlets" : 1,
					"numoutlets" : 0,
					"patching_rect" : [ 685.407104000000004, 110.0, 12.0, 12.0 ]
				}

			}
, 			{
				"box" : 				{
					"comment" : "output58",
					"id" : "obj-502",
					"index" : 0,
					"maxclass" : "outlet",
					"numinlets" : 1,
					"numoutlets" : 0,
					"patching_rect" : [ 697.407104000000004, 110.0, 12.0, 12.0 ]
				}

			}
, 			{
				"box" : 				{
					"comment" : "output59",
					"id" : "obj-504",
					"index" : 0,
					"maxclass" : "outlet",
					"numinlets" : 1,
					"numoutlets" : 0,
					"patching_rect" : [ 709.407104000000004, 110.0, 12.0, 12.0 ]
				}

			}
, 			{
				"box" : 				{
					"comment" : "output60",
					"id" : "obj-506",
					"index" : 0,
					"maxclass" : "outlet",
					"numinlets" : 1,
					"numoutlets" : 0,
					"patching_rect" : [ 721.407104000000004, 110.0, 12.0, 12.0 ]
				}

			}
, 			{
				"box" : 				{
					"comment" : "output61",
					"id" : "obj-508",
					"index" : 0,
					"maxclass" : "outlet",
					"numinlets" : 1,
					"numoutlets" : 0,
					"patching_rect" : [ 733.407104000000004, 110.0, 12.0, 12.0 ]
				}

			}
, 			{
				"box" : 				{
					"comment" : "output62",
					"id" : "obj-510",
					"index" : 0,
					"maxclass" : "outlet",
					"numinlets" : 1,
					"numoutlets" : 0,
					"patching_rect" : [ 745.407104000000004, 110.0, 12.0, 12.0 ]
				}

			}
, 			{
				"box" : 				{
					"comment" : "output63",
					"id" : "obj-512",
					"index" : 0,
					"maxclass" : "outlet",
					"numinlets" : 1,
					"numoutlets" : 0,
					"patching_rect" : [ 757.407104000000004, 110.0, 12.0, 12.0 ]
				}

			}
, 			{
				"box" : 				{
					"comment" : "output64",
					"id" : "obj-514",
					"index" : 0,
					"maxclass" : "outlet",
					"numinlets" : 1,
					"numoutlets" : 0,
					"patching_rect" : [ 769.407104000000004, 110.0, 12.0, 12.0 ]
				}

			}
, 			{
				"box" : 				{
					"comment" : "output65",
					"id" : "obj-516",
					"index" : 0,
					"maxclass" : "outlet",
					"numinlets" : 1,
					"numoutlets" : 0,
					"patching_rect" : [ 781.407104000000004, 110.0, 12.0, 12.0 ]
				}

			}
, 			{
				"box" : 				{
					"comment" : "output66",
					"id" : "obj-518",
					"index" : 0,
					"maxclass" : "outlet",
					"numinlets" : 1,
					"numoutlets" : 0,
					"patching_rect" : [ 793.407104000000004, 110.0, 12.0, 12.0 ]
				}

			}
, 			{
				"box" : 				{
					"comment" : "output67",
					"id" : "obj-520",
					"index" : 0,
					"maxclass" : "outlet",
					"numinlets" : 1,
					"numoutlets" : 0,
					"patching_rect" : [ 805.407104000000004, 110.0, 12.0, 12.0 ]
				}

			}
, 			{
				"box" : 				{
					"comment" : "output68",
					"id" : "obj-522",
					"index" : 0,
					"maxclass" : "outlet",
					"numinlets" : 1,
					"numoutlets" : 0,
					"patching_rect" : [ 817.407104000000004, 110.0, 12.0, 12.0 ]
				}

			}
, 			{
				"box" : 				{
					"comment" : "output69",
					"id" : "obj-524",
					"index" : 0,
					"maxclass" : "outlet",
					"numinlets" : 1,
					"numoutlets" : 0,
					"patching_rect" : [ 829.407104000000004, 110.0, 12.0, 12.0 ]
				}

			}
, 			{
				"box" : 				{
					"comment" : "output70",
					"id" : "obj-526",
					"index" : 0,
					"maxclass" : "outlet",
					"numinlets" : 1,
					"numoutlets" : 0,
					"patching_rect" : [ 841.407104000000004, 110.0, 12.0, 12.0 ]
				}

			}
, 			{
				"box" : 				{
					"comment" : "output71",
					"id" : "obj-528",
					"index" : 0,
					"maxclass" : "outlet",
					"numinlets" : 1,
					"numoutlets" : 0,
					"patching_rect" : [ 853.407104000000004, 110.0, 12.0, 12.0 ]
				}

			}
, 			{
				"box" : 				{
					"comment" : "output72",
					"id" : "obj-530",
					"index" : 0,
					"maxclass" : "outlet",
					"numinlets" : 1,
					"numoutlets" : 0,
					"patching_rect" : [ 865.407104000000004, 110.0, 12.0, 12.0 ]
				}

			}
, 			{
				"box" : 				{
					"comment" : "output73",
					"id" : "obj-532",
					"index" : 0,
					"maxclass" : "outlet",
					"numinlets" : 1,
					"numoutlets" : 0,
					"patching_rect" : [ 877.407104000000004, 110.0, 12.0, 12.0 ]
				}

			}
, 			{
				"box" : 				{
					"comment" : "output74",
					"id" : "obj-534",
					"index" : 0,
					"maxclass" : "outlet",
					"numinlets" : 1,
					"numoutlets" : 0,
					"patching_rect" : [ 889.407104000000004, 110.0, 12.0, 12.0 ]
				}

			}
, 			{
				"box" : 				{
					"comment" : "output75",
					"id" : "obj-536",
					"index" : 0,
					"maxclass" : "outlet",
					"numinlets" : 1,
					"numoutlets" : 0,
					"patching_rect" : [ 901.407104000000004, 110.0, 12.0, 12.0 ]
				}

			}
, 			{
				"box" : 				{
					"comment" : "output76",
					"id" : "obj-538",
					"index" : 0,
					"maxclass" : "outlet",
					"numinlets" : 1,
					"numoutlets" : 0,
					"patching_rect" : [ 913.407104000000004, 110.0, 12.0, 12.0 ]
				}

			}
, 			{
				"box" : 				{
					"comment" : "output77",
					"id" : "obj-540",
					"index" : 0,
					"maxclass" : "outlet",
					"numinlets" : 1,
					"numoutlets" : 0,
					"patching_rect" : [ 925.407104000000004, 110.0, 12.0, 12.0 ]
				}

			}
, 			{
				"box" : 				{
					"comment" : "output78",
					"id" : "obj-542",
					"index" : 0,
					"maxclass" : "outlet",
					"numinlets" : 1,
					"numoutlets" : 0,
					"patching_rect" : [ 937.407104000000004, 110.0, 12.0, 12.0 ]
				}

			}
, 			{
				"box" : 				{
					"comment" : "output79",
					"id" : "obj-544",
					"index" : 0,
					"maxclass" : "outlet",
					"numinlets" : 1,
					"numoutlets" : 0,
					"patching_rect" : [ 949.407104000000004, 110.0, 12.0, 12.0 ]
				}

			}
, 			{
				"box" : 				{
					"comment" : "output80",
					"id" : "obj-546",
					"index" : 0,
					"maxclass" : "outlet",
					"numinlets" : 1,
					"numoutlets" : 0,
					"patching_rect" : [ 961.407104000000004, 110.0, 12.0, 12.0 ]
				}

			}
, 			{
				"box" : 				{
					"comment" : "output81",
					"id" : "obj-548",
					"index" : 0,
					"maxclass" : "outlet",
					"numinlets" : 1,
					"numoutlets" : 0,
					"patching_rect" : [ 973.407104000000004, 110.0, 12.0, 12.0 ]
				}

			}
, 			{
				"box" : 				{
					"comment" : "output82",
					"id" : "obj-550",
					"index" : 0,
					"maxclass" : "outlet",
					"numinlets" : 1,
					"numoutlets" : 0,
					"patching_rect" : [ 985.407104000000004, 110.0, 12.0, 12.0 ]
				}

			}
, 			{
				"box" : 				{
					"comment" : "output83",
					"id" : "obj-552",
					"index" : 0,
					"maxclass" : "outlet",
					"numinlets" : 1,
					"numoutlets" : 0,
					"patching_rect" : [ 997.407104000000004, 110.0, 12.0, 12.0 ]
				}

			}
, 			{
				"box" : 				{
					"comment" : "output84",
					"id" : "obj-554",
					"index" : 0,
					"maxclass" : "outlet",
					"numinlets" : 1,
					"numoutlets" : 0,
					"patching_rect" : [ 1009.407104000000004, 110.0, 12.0, 12.0 ]
				}

			}
, 			{
				"box" : 				{
					"comment" : "output85",
					"id" : "obj-556",
					"index" : 0,
					"maxclass" : "outlet",
					"numinlets" : 1,
					"numoutlets" : 0,
					"patching_rect" : [ 1021.407104000000004, 110.0, 12.0, 12.0 ]
				}

			}
, 			{
				"box" : 				{
					"comment" : "output86",
					"id" : "obj-558",
					"index" : 0,
					"maxclass" : "outlet",
					"numinlets" : 1,
					"numoutlets" : 0,
					"patching_rect" : [ 1033.40710399999989, 110.0, 12.0, 12.0 ]
				}

			}
, 			{
				"box" : 				{
					"comment" : "output87",
					"id" : "obj-560",
					"index" : 0,
					"maxclass" : "outlet",
					"numinlets" : 1,
					"numoutlets" : 0,
					"patching_rect" : [ 1045.40710399999989, 110.0, 12.0, 12.0 ]
				}

			}
, 			{
				"box" : 				{
					"comment" : "output88",
					"id" : "obj-562",
					"index" : 0,
					"maxclass" : "outlet",
					"numinlets" : 1,
					"numoutlets" : 0,
					"patching_rect" : [ 1057.40710399999989, 110.0, 12.0, 12.0 ]
				}

			}
, 			{
				"box" : 				{
					"comment" : "output89",
					"id" : "obj-564",
					"index" : 0,
					"maxclass" : "outlet",
					"numinlets" : 1,
					"numoutlets" : 0,
					"patching_rect" : [ 1069.40710399999989, 110.0, 12.0, 12.0 ]
				}

			}
, 			{
				"box" : 				{
					"comment" : "output90",
					"id" : "obj-566",
					"index" : 0,
					"maxclass" : "outlet",
					"numinlets" : 1,
					"numoutlets" : 0,
					"patching_rect" : [ 1081.40710399999989, 110.0, 12.0, 12.0 ]
				}

			}
, 			{
				"box" : 				{
					"comment" : "output91",
					"id" : "obj-568",
					"index" : 0,
					"maxclass" : "outlet",
					"numinlets" : 1,
					"numoutlets" : 0,
					"patching_rect" : [ 1093.40710399999989, 110.0, 12.0, 12.0 ]
				}

			}
, 			{
				"box" : 				{
					"comment" : "output92",
					"id" : "obj-570",
					"index" : 0,
					"maxclass" : "outlet",
					"numinlets" : 1,
					"numoutlets" : 0,
					"patching_rect" : [ 1105.40710399999989, 110.0, 12.0, 12.0 ]
				}

			}
, 			{
				"box" : 				{
					"comment" : "output93",
					"id" : "obj-572",
					"index" : 0,
					"maxclass" : "outlet",
					"numinlets" : 1,
					"numoutlets" : 0,
					"patching_rect" : [ 1117.40710399999989, 110.0, 12.0, 12.0 ]
				}

			}
, 			{
				"box" : 				{
					"comment" : "output94",
					"id" : "obj-574",
					"index" : 0,
					"maxclass" : "outlet",
					"numinlets" : 1,
					"numoutlets" : 0,
					"patching_rect" : [ 1129.40710399999989, 110.0, 12.0, 12.0 ]
				}

			}
, 			{
				"box" : 				{
					"comment" : "output95",
					"id" : "obj-576",
					"index" : 0,
					"maxclass" : "outlet",
					"numinlets" : 1,
					"numoutlets" : 0,
					"patching_rect" : [ 1141.40710399999989, 110.0, 12.0, 12.0 ]
				}

			}
, 			{
				"box" : 				{
					"comment" : "output96",
					"id" : "obj-578",
					"index" : 0,
					"maxclass" : "outlet",
					"numinlets" : 1,
					"numoutlets" : 0,
					"patching_rect" : [ 1153.40710399999989, 110.0, 12.0, 12.0 ]
				}

			}
 ],
		"lines" : [ 			{
				"patchline" : 				{
					"destination" : [ "obj-388", 0 ],
					"source" : [ "obj-643", 0 ]
				}

			}
, 			{
				"patchline" : 				{
					"destination" : [ "obj-390", 0 ],
					"source" : [ "obj-643", 1 ]
				}

			}
, 			{
				"patchline" : 				{
					"destination" : [ "obj-392", 0 ],
					"source" : [ "obj-643", 2 ]
				}

			}
, 			{
				"patchline" : 				{
					"destination" : [ "obj-394", 0 ],
					"source" : [ "obj-643", 3 ]
				}

			}
, 			{
				"patchline" : 				{
					"destination" : [ "obj-396", 0 ],
					"source" : [ "obj-643", 4 ]
				}

			}
, 			{
				"patchline" : 				{
					"destination" : [ "obj-398", 0 ],
					"source" : [ "obj-643", 5 ]
				}

			}
, 			{
				"patchline" : 				{
					"destination" : [ "obj-400", 0 ],
					"source" : [ "obj-643", 6 ]
				}

			}
, 			{
				"patchline" : 				{
					"destination" : [ "obj-402", 0 ],
					"source" : [ "obj-643", 7 ]
				}

			}
, 			{
				"patchline" : 				{
					"destination" : [ "obj-404", 0 ],
					"source" : [ "obj-643", 8 ]
				}

			}
, 			{
				"patchline" : 				{
					"destination" : [ "obj-406", 0 ],
					"source" : [ "obj-643", 9 ]
				}

			}
, 			{
				"patchline" : 				{
					"destination" : [ "obj-408", 0 ],
					"source" : [ "obj-643", 10 ]
				}

			}
, 			{
				"patchline" : 				{
					"destination" : [ "obj-410", 0 ],
					"source" : [ "obj-643", 11 ]
				}

			}
, 			{
				"patchline" : 				{
					"destination" : [ "obj-412", 0 ],
					"source" : [ "obj-643", 12 ]
				}

			}
, 			{
				"patchline" : 				{
					"destination" : [ "obj-414", 0 ],
					"source" : [ "obj-643", 13 ]
				}

			}
, 			{
				"patchline" : 				{
					"destination" : [ "obj-416", 0 ],
					"source" : [ "obj-643", 14 ]
				}

			}
, 			{
				"patchline" : 				{
					"destination" : [ "obj-418", 0 ],
					"source" : [ "obj-643", 15 ]
				}

			}
, 			{
				"patchline" : 				{
					"destination" : [ "obj-420", 0 ],
					"source" : [ "obj-643", 16 ]
				}

			}
, 			{
				"patchline" : 				{
					"destination" : [ "obj-422", 0 ],
					"source" : [ "obj-643", 17 ]
				}

			}
, 			{
				"patchline" : 				{
					"destination" : [ "obj-424", 0 ],
					"source" : [ "obj-643", 18 ]
				}

			}
, 			{
				"patchline" : 				{
					"destination" : [ "obj-426", 0 ],
					"source" : [ "obj-643", 19 ]
				}

			}
, 			{
				"patchline" : 				{
					"destination" : [ "obj-428", 0 ],
					"source" : [ "obj-643", 20 ]
				}

			}
, 			{
				"patchline" : 				{
					"destination" : [ "obj-430", 0 ],
					"source" : [ "obj-643", 21 ]
				}

			}
, 			{
				"patchline" : 				{
					"destination" : [ "obj-432", 0 ],
					"source" : [ "obj-643", 22 ]
				}

			}
, 			{
				"patchline" : 				{
					"destination" : [ "obj-434", 0 ],
					"source" : [ "obj-643", 23 ]
				}

			}
, 			{
				"patchline" : 				{
					"destination" : [ "obj-436", 0 ],
					"source" : [ "obj-643", 24 ]
				}

			}
, 			{
				"patchline" : 				{
					"destination" : [ "obj-438", 0 ],
					"source" : [ "obj-643", 25 ]
				}

			}
, 			{
				"patchline" : 				{
					"destination" : [ "obj-440", 0 ],
					"source" : [ "obj-643", 26 ]
				}

			}
, 			{
				"patchline" : 				{
					"destination" : [ "obj-442", 0 ],
					"source" : [ "obj-643", 27 ]
				}

			}
, 			{
				"patchline" : 				{
					"destination" : [ "obj-444", 0 ],
					"source" : [ "obj-643", 28 ]
				}

			}
, 			{
				"patchline" : 				{
					"destination" : [ "obj-446", 0 ],
					"source" : [ "obj-643", 29 ]
				}

			}
, 			{
				"patchline" : 				{
					"destination" : [ "obj-448", 0 ],
					"source" : [ "obj-643", 30 ]
				}

			}
, 			{
				"patchline" : 				{
					"destination" : [ "obj-450", 0 ],
					"source" : [ "obj-643", 31 ]
				}

			}
, 			{
				"patchline" : 				{
					"destination" : [ "obj-452", 0 ],
					"source" : [ "obj-643", 32 ]
				}

			}
, 			{
				"patchline" : 				{
					"destination" : [ "obj-454", 0 ],
					"source" : [ "obj-643", 33 ]
				}

			}
, 			{
				"patchline" : 				{
					"destination" : [ "obj-456", 0 ],
					"source" : [ "obj-643", 34 ]
				}

			}
, 			{
				"patchline" : 				{
					"destination" : [ "obj-458", 0 ],
					"source" : [ "obj-643", 35 ]
				}

			}
, 			{
				"patchline" : 				{
					"destination" : [ "obj-460", 0 ],
					"source" : [ "obj-643", 36 ]
				}

			}
, 			{
				"patchline" : 				{
					"destination" : [ "obj-462", 0 ],
					"source" : [ "obj-643", 37 ]
				}

			}
, 			{
				"patchline" : 				{
					"destination" : [ "obj-464", 0 ],
					"source" : [ "obj-643", 38 ]
				}

			}
, 			{
				"patchline" : 				{
					"destination" : [ "obj-466", 0 ],
					"source" : [ "obj-643", 39 ]
				}

			}
, 			{
				"patchline" : 				{
					"destination" : [ "obj-468", 0 ],
					"source" : [ "obj-643", 40 ]
				}

			}
, 			{
				"patchline" : 				{
					"destination" : [ "obj-470", 0 ],
					"source" : [ "obj-643", 41 ]
				}

			}
, 			{
				"patchline" : 				{
					"destination" : [ "obj-472", 0 ],
					"source" : [ "obj-643", 42 ]
				}

			}
, 			{
				"patchline" : 				{
					"destination" : [ "obj-474", 0 ],
					"source" : [ "obj-643", 43 ]
				}

			}
, 			{
				"patchline" : 				{
					"destination" : [ "obj-476", 0 ],
					"source" : [ "obj-643", 44 ]
				}

			}
, 			{
				"patchline" : 				{
					"destination" : [ "obj-478", 0 ],
					"source" : [ "obj-643", 45 ]
				}

			}
, 			{
				"patchline" : 				{
					"destination" : [ "obj-480", 0 ],
					"source" : [ "obj-643", 46 ]
				}

			}
, 			{
				"patchline" : 				{
					"destination" : [ "obj-482", 0 ],
					"source" : [ "obj-643", 47 ]
				}

			}
, 			{
				"patchline" : 				{
					"destination" : [ "obj-484", 0 ],
					"source" : [ "obj-643", 48 ]
				}

			}
, 			{
				"patchline" : 				{
					"destination" : [ "obj-486", 0 ],
					"source" : [ "obj-643", 49 ]
				}

			}
, 			{
				"patchline" : 				{
					"destination" : [ "obj-488", 0 ],
					"source" : [ "obj-643", 50 ]
				}

			}
, 			{
				"patchline" : 				{
					"destination" : [ "obj-490", 0 ],
					"source" : [ "obj-643", 51 ]
				}

			}
, 			{
				"patchline" : 				{
					"destination" : [ "obj-492", 0 ],
					"source" : [ "obj-643", 52 ]
				}

			}
, 			{
				"patchline" : 				{
					"destination" : [ "obj-494", 0 ],
					"source" : [ "obj-643", 53 ]
				}

			}
, 			{
				"patchline" : 				{
					"destination" : [ "obj-496", 0 ],
					"source" : [ "obj-643", 54 ]
				}

			}
, 			{
				"patchline" : 				{
					"destination" : [ "obj-498", 0 ],
					"source" : [ "obj-643", 55 ]
				}

			}
, 			{
				"patchline" : 				{
					"destination" : [ "obj-500", 0 ],
					"source" : [ "obj-643", 56 ]
				}

			}
, 			{
				"patchline" : 				{
					"destination" : [ "obj-502", 0 ],
					"source" : [ "obj-643", 57 ]
				}

			}
, 			{
				"patchline" : 				{
					"destination" : [ "obj-504", 0 ],
					"source" : [ "obj-643", 58 ]
				}

			}
, 			{
				"patchline" : 				{
					"destination" : [ "obj-506", 0 ],
					"source" : [ "obj-643", 59 ]
				}

			}
, 			{
				"patchline" : 				{
					"destination" : [ "obj-508", 0 ],
					"source" : [ "obj-643", 60 ]
				}

			}
, 			{
				"patchline" : 				{
					"destination" : [ "obj-510", 0 ],
					"source" : [ "obj-643", 61 ]
				}

			}
, 			{
				"patchline" : 				{
					"destination" : [ "obj-512", 0 ],
					"source" : [ "obj-643", 62 ]
				}

			}
, 			{
				"patchline" : 				{
					"destination" : [ "obj-514", 0 ],
					"source" : [ "obj-643", 63 ]
				}

			}
, 			{
				"patchline" : 				{
					"destination" : [ "obj-516", 0 ],
					"source" : [ "obj-643", 64 ]
				}

			}
, 			{
				"patchline" : 				{
					"destination" : [ "obj-518", 0 ],
					"source" : [ "obj-643", 65 ]
				}

			}
, 			{
				"patchline" : 				{
					"destination" : [ "obj-520", 0 ],
					"source" : [ "obj-643", 66 ]
				}

			}
, 			{
				"patchline" : 				{
					"destination" : [ "obj-522", 0 ],
					"source" : [ "obj-643", 67 ]
				}

			}
, 			{
				"patchline" : 				{
					"destination" : [ "obj-524", 0 ],
					"source" : [ "obj-643", 68 ]
				}

			}
, 			{
				"patchline" : 				{
					"destination" : [ "obj-526", 0 ],
					"source" : [ "obj-643", 69 ]
				}

			}
, 			{
				"patchline" : 				{
					"destination" : [ "obj-528", 0 ],
					"source" : [ "obj-643", 70 ]
				}

			}
, 			{
				"patchline" : 				{
					"destination" : [ "obj-530", 0 ],
					"source" : [ "obj-643", 71 ]
				}

			}
, 			{
				"patchline" : 				{
					"destination" : [ "obj-532", 0 ],
					"source" : [ "obj-643", 72 ]
				}

			}
, 			{
				"patchline" : 				{
					"destination" : [ "obj-534", 0 ],
					"source" : [ "obj-643", 73 ]
				}

			}
, 			{
				"patchline" : 				{
					"destination" : [ "obj-536", 0 ],
					"source" : [ "obj-643", 74 ]
				}

			}
, 			{
				"patchline" : 				{
					"destination" : [ "obj-538", 0 ],
					"source" : [ "obj-643", 75 ]
				}

			}
, 			{
				"patchline" : 				{
					"destination" : [ "obj-540", 0 ],
					"source" : [ "obj-643", 76 ]
				}

			}
, 			{
				"patchline" : 				{
					"destination" : [ "obj-542", 0 ],
					"source" : [ "obj-643", 77 ]
				}

			}
, 			{
				"patchline" : 				{
					"destination" : [ "obj-544", 0 ],
					"source" : [ "obj-643", 78 ]
				}

			}
, 			{
				"patchline" : 				{
					"destination" : [ "obj-546", 0 ],
					"source" : [ "obj-643", 79 ]
				}

			}
, 			{
				"patchline" : 				{
					"destination" : [ "obj-548", 0 ],
					"source" : [ "obj-643", 80 ]
				}

			}
, 			{
				"patchline" : 				{
					"destination" : [ "obj-550", 0 ],
					"source" : [ "obj-643", 81 ]
				}

			}
, 			{
				"patchline" : 				{
					"destination" : [ "obj-552", 0 ],
					"source" : [ "obj-643", 82 ]
				}

			}
, 			{
				"patchline" : 				{
					"destination" : [ "obj-554", 0 ],
					"source" : [ "obj-643", 83 ]
				}

			}
, 			{
				"patchline" : 				{
					"destination" : [ "obj-556", 0 ],
					"source" : [ "obj-643", 84 ]
				}

			}
, 			{
				"patchline" : 				{
					"destination" : [ "obj-558", 0 ],
					"source" : [ "obj-643", 85 ]
				}

			}
, 			{
				"patchline" : 				{
					"destination" : [ "obj-560", 0 ],
					"source" : [ "obj-643", 86 ]
				}

			}
, 			{
				"patchline" : 				{
					"destination" : [ "obj-562", 0 ],
					"source" : [ "obj-643", 87 ]
				}

			}
, 			{
				"patchline" : 				{
					"destination" : [ "obj-564", 0 ],
					"source" : [ "obj-643", 88 ]
				}

			}
, 			{
				"patchline" : 				{
					"destination" : [ "obj-566", 0 ],
					"source" : [ "obj-643", 89 ]
				}

			}
, 			{
				"patchline" : 				{
					"destination" : [ "obj-568", 0 ],
					"source" : [ "obj-643", 90 ]
				}

			}
, 			{
				"patchline" : 				{
					"destination" : [ "obj-570", 0 ],
					"source" : [ "obj-643", 91 ]
				}

			}
, 			{
				"patchline" : 				{
					"destination" : [ "obj-572", 0 ],
					"source" : [ "obj-643", 92 ]
				}

			}
, 			{
				"patchline" : 				{
					"destination" : [ "obj-574", 0 ],
					"source" : [ "obj-643", 93 ]
				}

			}
, 			{
				"patchline" : 				{
					"destination" : [ "obj-576", 0 ],
					"source" : [ "obj-643", 94 ]
				}

			}
, 			{
				"patchline" : 				{
					"destination" : [ "obj-578", 0 ],
					"source" : [ "obj-643", 95 ]
				}

			}
 ],
		"dependency_cache" : [ 			{
				"name" : "spat5.thru96~.maxpat",
				"bootpath" : "~/gitlab/spat/Spat5MaxMsp/patchers",
				"patcherrelativepath" : ".",
				"type" : "JSON",
				"implicit" : 1
			}
 ],
		"autosave" : 0,
		"bgcolor" : [ 0.9, 0.9, 0.9, 1.0 ]
	}

}
