{
	"patcher" : 	{
		"fileversion" : 1,
		"appversion" : 		{
			"major" : 8,
			"minor" : 6,
			"revision" : 5,
			"architecture" : "x64",
			"modernui" : 1
		}
,
		"classnamespace" : "box",
		"rect" : [ 97.0, 89.0, 1415.0, 725.0 ],
		"bglocked" : 0,
		"openinpresentation" : 0,
		"default_fontsize" : 11.0,
		"default_fontface" : 0,
		"default_fontname" : "Arial",
		"gridonopen" : 2,
		"gridsize" : [ 10.0, 10.0 ],
		"gridsnaponopen" : 2,
		"objectsnaponopen" : 1,
		"statusbarvisible" : 2,
		"toolbarvisible" : 0,
		"lefttoolbarpinned" : 0,
		"toptoolbarpinned" : 0,
		"righttoolbarpinned" : 0,
		"bottomtoolbarpinned" : 0,
		"toolbars_unpinned_last_save" : 15,
		"tallnewobj" : 0,
		"boxanimatetime" : 200,
		"enablehscroll" : 1,
		"enablevscroll" : 1,
		"devicewidth" : 0.0,
		"description" : "",
		"digest" : "",
		"tags" : "",
		"style" : "",
		"subpatcher_template" : "",
		"assistshowspatchername" : 0,
		"boxes" : [ 			{
				"box" : 				{
					"hidden" : 1,
					"id" : "obj-54",
					"maxclass" : "newobj",
					"numinlets" : 1,
					"numoutlets" : 1,
					"outlettype" : [ "" ],
					"patching_rect" : [ 1182.5, 617.0, 83.0, 21.0 ],
					"saved_object_attributes" : 					{
						"filename" : "spat5.style.js",
						"parameter_enable" : 0
					}
,
					"text" : "js spat5.style.js"
				}

			}
, 			{
				"box" : 				{
					"args" : [ "spat5.positions", "maxhelp" ],
					"bgmode" : 0,
					"border" : 0,
					"clickthrough" : 0,
					"enablehscroll" : 0,
					"enablevscroll" : 0,
					"id" : "obj-47",
					"lockeddragscroll" : 0,
					"lockedsize" : 0,
					"maxclass" : "bpatcher",
					"name" : "spat5.openpatcher.maxpat",
					"numinlets" : 0,
					"numoutlets" : 0,
					"offset" : [ 0.0, 0.0 ],
					"patching_rect" : [ 464.5, 18.0, 170.0, 20.0 ],
					"presentation" : 1,
					"presentation_rect" : [ 210.0, 21.0, 170.0, 20.0 ],
					"viewvisibility" : 1
				}

			}
, 			{
				"box" : 				{
					"fontface" : 1,
					"fontsize" : 14.0,
					"id" : "obj-44",
					"maxclass" : "comment",
					"numinlets" : 1,
					"numoutlets" : 0,
					"patching_rect" : [ 927.0, 10.0, 196.0, 22.0 ],
					"saved_attribute_attributes" : 					{
						"bubble_bgcolor" : 						{
							"expression" : "themecolor.theme_bubble_bgcolor"
						}
,
						"bubble_outlinecolor" : 						{
							"expression" : "themecolor.theme_bubble_outlinecolor"
						}

					}
,
					"text" : "Example: using OSC syntax",
					"textcolor" : [ 0.784313976764679, 0.145098000764847, 0.023529000580311, 1.0 ]
				}

			}
, 			{
				"box" : 				{
					"id" : "obj-7",
					"maxclass" : "newobj",
					"numinlets" : 1,
					"numoutlets" : 1,
					"outlettype" : [ "" ],
					"patching_rect" : [ 19.5, 219.0, 29.0, 21.0 ],
					"text" : "thru"
				}

			}
, 			{
				"box" : 				{
					"id" : "obj-2",
					"maxclass" : "message",
					"numinlets" : 2,
					"numoutlets" : 1,
					"outlettype" : [ "" ],
					"patching_rect" : [ 630.0, 247.0, 92.0, 21.0 ],
					"text" : "\"something else\""
				}

			}
, 			{
				"box" : 				{
					"id" : "obj-1",
					"maxclass" : "message",
					"numinlets" : 2,
					"numoutlets" : 1,
					"outlettype" : [ "" ],
					"patching_rect" : [ 559.5, 247.0, 60.0, 21.0 ],
					"text" : "\"source 1\""
				}

			}
, 			{
				"box" : 				{
					"bubble" : 1,
					"bubbleside" : 3,
					"fontname" : "Arial",
					"fontsize" : 11.0,
					"id" : "obj-83",
					"maxclass" : "comment",
					"numinlets" : 1,
					"numoutlets" : 0,
					"patching_rect" : [ 54.5, 66.5, 193.0, 23.0 ],
					"saved_attribute_attributes" : 					{
						"bubble_bgcolor" : 						{
							"expression" : "themecolor.theme_bubble_bgcolor"
						}
,
						"bubble_outlinecolor" : 						{
							"expression" : "themecolor.theme_bubble_outlinecolor"
						}
,
						"textcolor" : 						{
							"expression" : "themecolor.live_control_fg"
						}

					}
,
					"text" : "bpatcher spat5.gui.control.maxpat"
				}

			}
, 			{
				"box" : 				{
					"bubble" : 1,
					"bubbleside" : 0,
					"fontname" : "Arial",
					"fontsize" : 11.0,
					"id" : "obj-82",
					"linecount" : 2,
					"maxclass" : "comment",
					"numinlets" : 1,
					"numoutlets" : 0,
					"patching_rect" : [ 1250.0, 159.5, 148.0, 50.0 ],
					"saved_attribute_attributes" : 					{
						"bubble_bgcolor" : 						{
							"expression" : "themecolor.theme_bubble_bgcolor"
						}
,
						"bubble_outlinecolor" : 						{
							"expression" : "themecolor.theme_bubble_outlinecolor"
						}
,
						"textcolor" : 						{
							"expression" : "themecolor.live_control_fg"
						}

					}
,
					"text" : "use * (star) to apply the message to all elements"
				}

			}
, 			{
				"box" : 				{
					"bubble" : 1,
					"bubbleside" : 0,
					"fontname" : "Arial",
					"fontsize" : 11.0,
					"id" : "obj-81",
					"linecount" : 2,
					"maxclass" : "comment",
					"numinlets" : 1,
					"numoutlets" : 0,
					"patching_rect" : [ 455.5, 159.5, 179.0, 50.0 ],
					"saved_attribute_attributes" : 					{
						"bubble_bgcolor" : 						{
							"expression" : "themecolor.theme_bubble_bgcolor"
						}
,
						"bubble_outlinecolor" : 						{
							"expression" : "themecolor.theme_bubble_outlinecolor"
						}
,
						"textcolor" : 						{
							"expression" : "themecolor.live_control_fg"
						}

					}
,
					"text" : "source positions can be specified with various coordinate formats"
				}

			}
, 			{
				"box" : 				{
					"bubble" : 1,
					"bubbleside" : 0,
					"fontname" : "Arial",
					"fontsize" : 11.0,
					"id" : "obj-80",
					"maxclass" : "comment",
					"numinlets" : 1,
					"numoutlets" : 0,
					"patching_rect" : [ 423.0, 413.0, 91.0, 38.0 ],
					"saved_attribute_attributes" : 					{
						"bubble_bgcolor" : 						{
							"expression" : "themecolor.theme_bubble_bgcolor"
						}
,
						"bubble_outlinecolor" : 						{
							"expression" : "themecolor.theme_bubble_outlinecolor"
						}
,
						"textcolor" : 						{
							"expression" : "themecolor.live_control_fg"
						}

					}
,
					"text" : "mute all sources",
					"textjustification" : 1
				}

			}
, 			{
				"box" : 				{
					"bubble" : 1,
					"bubbleside" : 0,
					"fontname" : "Arial",
					"fontsize" : 11.0,
					"id" : "obj-79",
					"linecount" : 4,
					"maxclass" : "comment",
					"numinlets" : 1,
					"numoutlets" : 0,
					"patching_rect" : [ 980.0, 159.5, 261.0, 75.0 ],
					"saved_attribute_attributes" : 					{
						"bubble_bgcolor" : 						{
							"expression" : "themecolor.theme_bubble_bgcolor"
						}
,
						"bubble_outlinecolor" : 						{
							"expression" : "themecolor.theme_bubble_outlinecolor"
						}
,
						"textcolor" : 						{
							"expression" : "themecolor.live_control_fg"
						}

					}
,
					"text" : "curly brackets are used to specify a list of indices. The list is comma \",\" separated. In Max, you have to use the \"\\,\" (baskslash comma) to format the message properly."
				}

			}
, 			{
				"box" : 				{
					"bubble" : 1,
					"bubbleside" : 0,
					"fontname" : "Arial",
					"fontsize" : 11.0,
					"id" : "obj-78",
					"linecount" : 2,
					"maxclass" : "comment",
					"numinlets" : 1,
					"numoutlets" : 0,
					"patching_rect" : [ 710.0, 159.5, 150.0, 50.0 ],
					"saved_attribute_attributes" : 					{
						"bubble_bgcolor" : 						{
							"expression" : "themecolor.theme_bubble_bgcolor"
						}
,
						"bubble_outlinecolor" : 						{
							"expression" : "themecolor.theme_bubble_outlinecolor"
						}
,
						"textcolor" : 						{
							"expression" : "themecolor.live_control_fg"
						}

					}
,
					"text" : "square brackets are used to specify a range of indices"
				}

			}
, 			{
				"box" : 				{
					"bubble" : 1,
					"bubbleside" : 2,
					"fontname" : "Arial",
					"fontsize" : 11.0,
					"id" : "obj-73",
					"linecount" : 2,
					"maxclass" : "comment",
					"numinlets" : 1,
					"numoutlets" : 0,
					"patching_rect" : [ 998.5, 58.0, 118.0, 50.0 ],
					"saved_attribute_attributes" : 					{
						"bubble_bgcolor" : 						{
							"expression" : "themecolor.theme_bubble_bgcolor"
						}
,
						"bubble_outlinecolor" : 						{
							"expression" : "themecolor.theme_bubble_outlinecolor"
						}
,
						"textcolor" : 						{
							"expression" : "themecolor.live_control_fg"
						}

					}
,
					"text" : "change the distance of sources 1, 3 and 4"
				}

			}
, 			{
				"box" : 				{
					"format" : 6,
					"id" : "obj-74",
					"maxclass" : "flonum",
					"maximum" : 10.0,
					"minimum" : 0.1,
					"numinlets" : 1,
					"numoutlets" : 2,
					"outlettype" : [ "", "bang" ],
					"parameter_enable" : 0,
					"patching_rect" : [ 1010.0, 110.0, 50.0, 21.0 ]
				}

			}
, 			{
				"box" : 				{
					"id" : "obj-77",
					"maxclass" : "message",
					"numinlets" : 2,
					"numoutlets" : 1,
					"outlettype" : [ "" ],
					"patching_rect" : [ 1010.0, 140.0, 123.0, 21.0 ],
					"text" : "/source/{1\\,3\\,4}/dist $1"
				}

			}
, 			{
				"box" : 				{
					"bubble" : 1,
					"bubbleside" : 2,
					"fontname" : "Arial",
					"fontsize" : 11.0,
					"id" : "obj-72",
					"linecount" : 2,
					"maxclass" : "comment",
					"numinlets" : 1,
					"numoutlets" : 0,
					"patching_rect" : [ 343.75, 18.0, 108.5, 50.0 ],
					"saved_attribute_attributes" : 					{
						"bubble_bgcolor" : 						{
							"expression" : "themecolor.theme_bubble_bgcolor"
						}
,
						"bubble_outlinecolor" : 						{
							"expression" : "themecolor.theme_bubble_outlinecolor"
						}
,
						"textcolor" : 						{
							"expression" : "themecolor.live_control_fg"
						}

					}
,
					"text" : "view/edit a list of keyboard shortcuts"
				}

			}
, 			{
				"box" : 				{
					"bubble" : 1,
					"bubbleside" : 2,
					"fontname" : "Arial",
					"fontsize" : 11.0,
					"id" : "obj-71",
					"linecount" : 2,
					"maxclass" : "comment",
					"numinlets" : 1,
					"numoutlets" : 0,
					"patching_rect" : [ 219.5, 18.0, 121.0, 50.0 ],
					"saved_attribute_attributes" : 					{
						"bubble_bgcolor" : 						{
							"expression" : "themecolor.theme_bubble_bgcolor"
						}
,
						"bubble_outlinecolor" : 						{
							"expression" : "themecolor.theme_bubble_outlinecolor"
						}
,
						"textcolor" : 						{
							"expression" : "themecolor.live_control_fg"
						}

					}
,
					"text" : "open the spat5.viewer control interface"
				}

			}
, 			{
				"box" : 				{
					"bgmode" : 0,
					"border" : 0,
					"clickthrough" : 0,
					"enablehscroll" : 0,
					"enablevscroll" : 0,
					"id" : "obj-76",
					"lockeddragscroll" : 0,
					"lockedsize" : 0,
					"maxclass" : "bpatcher",
					"name" : "spat5.gui.control.maxpat",
					"numinlets" : 1,
					"numoutlets" : 1,
					"offset" : [ 0.0, 0.0 ],
					"outlettype" : [ "" ],
					"patching_rect" : [ 249.5, 58.0, 290.0, 42.0 ],
					"viewvisibility" : 1
				}

			}
, 			{
				"box" : 				{
					"bubble" : 1,
					"bubbleside" : 2,
					"fontname" : "Arial",
					"fontsize" : 11.0,
					"id" : "obj-67",
					"linecount" : 2,
					"maxclass" : "comment",
					"numinlets" : 1,
					"numoutlets" : 0,
					"patching_rect" : [ 878.5, 58.0, 118.0, 50.0 ],
					"saved_attribute_attributes" : 					{
						"bubble_bgcolor" : 						{
							"expression" : "themecolor.theme_bubble_bgcolor"
						}
,
						"bubble_outlinecolor" : 						{
							"expression" : "themecolor.theme_bubble_outlinecolor"
						}
,
						"textcolor" : 						{
							"expression" : "themecolor.live_control_fg"
						}

					}
,
					"text" : "change the distance of sources 2, and 4"
				}

			}
, 			{
				"box" : 				{
					"format" : 6,
					"id" : "obj-68",
					"maxclass" : "flonum",
					"maximum" : 10.0,
					"minimum" : 0.1,
					"numinlets" : 1,
					"numoutlets" : 2,
					"outlettype" : [ "", "bang" ],
					"parameter_enable" : 0,
					"patching_rect" : [ 890.0, 110.0, 50.0, 21.0 ]
				}

			}
, 			{
				"box" : 				{
					"id" : "obj-69",
					"maxclass" : "message",
					"numinlets" : 2,
					"numoutlets" : 1,
					"outlettype" : [ "" ],
					"patching_rect" : [ 890.0, 140.0, 111.0, 21.0 ],
					"text" : "/source/{2\\,4}/dist $1"
				}

			}
, 			{
				"box" : 				{
					"bubble" : 1,
					"bubbleside" : 2,
					"fontname" : "Arial",
					"fontsize" : 11.0,
					"id" : "obj-66",
					"linecount" : 2,
					"maxclass" : "comment",
					"numinlets" : 1,
					"numoutlets" : 0,
					"patching_rect" : [ 755.5, 58.0, 118.0, 50.0 ],
					"saved_attribute_attributes" : 					{
						"bubble_bgcolor" : 						{
							"expression" : "themecolor.theme_bubble_bgcolor"
						}
,
						"bubble_outlinecolor" : 						{
							"expression" : "themecolor.theme_bubble_outlinecolor"
						}
,
						"textcolor" : 						{
							"expression" : "themecolor.live_control_fg"
						}

					}
,
					"text" : "change the distance of sources 2, 3 and 4"
				}

			}
, 			{
				"box" : 				{
					"bubble" : 1,
					"bubbleside" : 2,
					"fontname" : "Arial",
					"fontsize" : 11.0,
					"id" : "obj-65",
					"linecount" : 2,
					"maxclass" : "comment",
					"numinlets" : 1,
					"numoutlets" : 0,
					"patching_rect" : [ 1222.5, 58.0, 118.0, 50.0 ],
					"saved_attribute_attributes" : 					{
						"bubble_bgcolor" : 						{
							"expression" : "themecolor.theme_bubble_bgcolor"
						}
,
						"bubble_outlinecolor" : 						{
							"expression" : "themecolor.theme_bubble_outlinecolor"
						}
,
						"textcolor" : 						{
							"expression" : "themecolor.live_control_fg"
						}

					}
,
					"text" : "change the distance of all sources"
				}

			}
, 			{
				"box" : 				{
					"format" : 6,
					"id" : "obj-63",
					"maxclass" : "flonum",
					"maximum" : 10.0,
					"minimum" : 0.1,
					"numinlets" : 1,
					"numoutlets" : 2,
					"outlettype" : [ "", "bang" ],
					"parameter_enable" : 0,
					"patching_rect" : [ 767.0, 110.0, 50.0, 21.0 ]
				}

			}
, 			{
				"box" : 				{
					"id" : "obj-64",
					"maxclass" : "message",
					"numinlets" : 2,
					"numoutlets" : 1,
					"outlettype" : [ "" ],
					"patching_rect" : [ 767.0, 140.0, 107.0, 21.0 ],
					"text" : "/source/[2-4]/dist $1"
				}

			}
, 			{
				"box" : 				{
					"id" : "obj-59",
					"maxclass" : "newobj",
					"numinlets" : 1,
					"numoutlets" : 1,
					"outlettype" : [ "bang" ],
					"patching_rect" : [ 1196.0, 280.0, 56.0, 21.0 ],
					"text" : "loadbang"
				}

			}
, 			{
				"box" : 				{
					"id" : "obj-61",
					"maxclass" : "message",
					"numinlets" : 2,
					"numoutlets" : 1,
					"outlettype" : [ "" ],
					"patching_rect" : [ 1196.0, 310.0, 84.0, 21.0 ],
					"text" : "/title \"source 4\""
				}

			}
, 			{
				"box" : 				{
					"bgmode" : 0,
					"border" : 0,
					"clickthrough" : 0,
					"enablehscroll" : 0,
					"enablevscroll" : 0,
					"id" : "obj-62",
					"lockeddragscroll" : 0,
					"lockedsize" : 0,
					"maxclass" : "bpatcher",
					"name" : "spat5.input~.maxpat",
					"numinlets" : 1,
					"numoutlets" : 1,
					"offset" : [ 0.0, 0.0 ],
					"outlettype" : [ "signal" ],
					"patching_rect" : [ 1196.0, 340.0, 210.0, 121.0 ],
					"viewvisibility" : 1
				}

			}
, 			{
				"box" : 				{
					"id" : "obj-56",
					"maxclass" : "newobj",
					"numinlets" : 1,
					"numoutlets" : 1,
					"outlettype" : [ "bang" ],
					"patching_rect" : [ 986.0, 280.0, 56.0, 21.0 ],
					"text" : "loadbang"
				}

			}
, 			{
				"box" : 				{
					"id" : "obj-57",
					"maxclass" : "message",
					"numinlets" : 2,
					"numoutlets" : 1,
					"outlettype" : [ "" ],
					"patching_rect" : [ 986.0, 310.0, 133.0, 21.0 ],
					"text" : "/title \"source 3\", /gain -20"
				}

			}
, 			{
				"box" : 				{
					"bgmode" : 0,
					"border" : 0,
					"clickthrough" : 0,
					"enablehscroll" : 0,
					"enablevscroll" : 0,
					"id" : "obj-58",
					"lockeddragscroll" : 0,
					"lockedsize" : 0,
					"maxclass" : "bpatcher",
					"name" : "spat5.input~.maxpat",
					"numinlets" : 1,
					"numoutlets" : 1,
					"offset" : [ 0.0, 0.0 ],
					"outlettype" : [ "signal" ],
					"patching_rect" : [ 986.0, 340.0, 210.0, 121.0 ],
					"viewvisibility" : 1
				}

			}
, 			{
				"box" : 				{
					"format" : 6,
					"id" : "obj-55",
					"maxclass" : "flonum",
					"maximum" : 10.0,
					"minimum" : 0.1,
					"numinlets" : 1,
					"numoutlets" : 2,
					"outlettype" : [ "", "bang" ],
					"parameter_enable" : 0,
					"patching_rect" : [ 1256.5, 110.0, 50.0, 21.0 ]
				}

			}
, 			{
				"box" : 				{
					"id" : "obj-53",
					"maxclass" : "message",
					"numinlets" : 2,
					"numoutlets" : 1,
					"outlettype" : [ "" ],
					"patching_rect" : [ 1256.5, 140.0, 89.0, 21.0 ],
					"text" : "/source/*/dist $1"
				}

			}
, 			{
				"box" : 				{
					"id" : "obj-52",
					"maxclass" : "newobj",
					"numinlets" : 2,
					"numoutlets" : 1,
					"outlettype" : [ "" ],
					"patching_rect" : [ 550.0, 110.0, 79.5, 21.0 ],
					"text" : "pak 0. 0."
				}

			}
, 			{
				"box" : 				{
					"format" : 6,
					"id" : "obj-51",
					"maxclass" : "flonum",
					"numinlets" : 1,
					"numoutlets" : 2,
					"outlettype" : [ "", "bang" ],
					"parameter_enable" : 0,
					"patching_rect" : [ 610.5, 80.0, 50.0, 21.0 ]
				}

			}
, 			{
				"box" : 				{
					"format" : 6,
					"id" : "obj-49",
					"maxclass" : "flonum",
					"numinlets" : 1,
					"numoutlets" : 2,
					"outlettype" : [ "", "bang" ],
					"parameter_enable" : 0,
					"patching_rect" : [ 550.0, 80.0, 50.0, 21.0 ]
				}

			}
, 			{
				"box" : 				{
					"id" : "obj-50",
					"maxclass" : "message",
					"numinlets" : 2,
					"numoutlets" : 1,
					"outlettype" : [ "" ],
					"patching_rect" : [ 550.0, 140.0, 100.0, 21.0 ],
					"text" : "/source/2/xy $1 $2"
				}

			}
, 			{
				"box" : 				{
					"bubble" : 1,
					"fontname" : "Arial",
					"fontsize" : 11.0,
					"id" : "obj-70",
					"maxclass" : "comment",
					"numinlets" : 1,
					"numoutlets" : 0,
					"patching_rect" : [ 630.0, 18.0, 238.0, 23.0 ],
					"saved_attribute_attributes" : 					{
						"bubble_bgcolor" : 						{
							"expression" : "themecolor.theme_bubble_bgcolor"
						}
,
						"bubble_outlinecolor" : 						{
							"expression" : "themecolor.theme_bubble_outlinecolor"
						}
,
						"textcolor" : 						{
							"expression" : "themecolor.live_control_fg"
						}

					}
,
					"text" : "see also this patcher for position messages"
				}

			}
, 			{
				"box" : 				{
					"format" : 6,
					"id" : "obj-48",
					"maxclass" : "flonum",
					"numinlets" : 1,
					"numoutlets" : 2,
					"outlettype" : [ "", "bang" ],
					"parameter_enable" : 0,
					"patching_rect" : [ 430.0, 110.0, 50.0, 21.0 ]
				}

			}
, 			{
				"box" : 				{
					"id" : "obj-46",
					"maxclass" : "message",
					"numinlets" : 2,
					"numoutlets" : 1,
					"outlettype" : [ "" ],
					"patching_rect" : [ 430.0, 140.0, 97.0, 21.0 ],
					"text" : "/source/1/azim $1"
				}

			}
, 			{
				"box" : 				{
					"bubble" : 1,
					"fontname" : "Arial",
					"fontsize" : 11.0,
					"id" : "obj-43",
					"maxclass" : "comment",
					"numinlets" : 1,
					"numoutlets" : 0,
					"patching_rect" : [ 151.5, 120.0, 84.0, 23.0 ],
					"saved_attribute_attributes" : 					{
						"bubble_bgcolor" : 						{
							"expression" : "themecolor.theme_bubble_bgcolor"
						}
,
						"bubble_outlinecolor" : 						{
							"expression" : "themecolor.theme_bubble_outlinecolor"
						}
,
						"textcolor" : 						{
							"expression" : "themecolor.live_control_fg"
						}

					}
,
					"text" : "initialization"
				}

			}
, 			{
				"box" : 				{
					"activebgoncolor" : [ 0.996078431372549, 0.192156862745098, 0.192156862745098, 1.0 ],
					"id" : "obj-41",
					"maxclass" : "live.text",
					"numinlets" : 1,
					"numoutlets" : 2,
					"outlettype" : [ "", "" ],
					"parameter_enable" : 1,
					"patching_rect" : [ 926.5, 267.5, 40.0, 20.0 ],
					"saved_attribute_attributes" : 					{
						"activebgoncolor" : 						{
							"expression" : ""
						}
,
						"valueof" : 						{
							"parameter_enum" : [ "val1", "val2" ],
							"parameter_longname" : "live.toggle[7]",
							"parameter_mmax" : 1,
							"parameter_modmode" : 0,
							"parameter_shortname" : "live.toggle[4]",
							"parameter_type" : 2
						}

					}
,
					"text" : "mute",
					"texton" : "mute",
					"varname" : "live.toggle[3]"
				}

			}
, 			{
				"box" : 				{
					"id" : "obj-42",
					"maxclass" : "message",
					"numinlets" : 2,
					"numoutlets" : 1,
					"outlettype" : [ "" ],
					"patching_rect" : [ 926.5, 290.0, 53.0, 21.0 ],
					"text" : "/mute $1"
				}

			}
, 			{
				"box" : 				{
					"activebgoncolor" : [ 0.996078431372549, 0.192156862745098, 0.192156862745098, 1.0 ],
					"id" : "obj-38",
					"maxclass" : "live.text",
					"numinlets" : 1,
					"numoutlets" : 2,
					"outlettype" : [ "", "" ],
					"parameter_enable" : 1,
					"patching_rect" : [ 419.0, 370.0, 40.0, 20.0 ],
					"saved_attribute_attributes" : 					{
						"activebgoncolor" : 						{
							"expression" : ""
						}
,
						"valueof" : 						{
							"parameter_enum" : [ "val1", "val2" ],
							"parameter_longname" : "live.toggle[19]",
							"parameter_mmax" : 1,
							"parameter_modmode" : 0,
							"parameter_shortname" : "live.toggle[4]",
							"parameter_type" : 2
						}

					}
,
					"text" : "mute",
					"texton" : "mute",
					"varname" : "live.toggle[2]"
				}

			}
, 			{
				"box" : 				{
					"id" : "obj-40",
					"maxclass" : "message",
					"numinlets" : 2,
					"numoutlets" : 1,
					"outlettype" : [ "" ],
					"patching_rect" : [ 419.0, 394.0, 95.0, 21.0 ],
					"text" : "/source/*/mute $1"
				}

			}
, 			{
				"box" : 				{
					"activebgoncolor" : [ 0.996078431372549, 0.192156862745098, 0.192156862745098, 1.0 ],
					"id" : "obj-36",
					"maxclass" : "live.text",
					"numinlets" : 1,
					"numoutlets" : 2,
					"outlettype" : [ "", "" ],
					"parameter_enable" : 1,
					"patching_rect" : [ 399.0, 316.0, 40.0, 20.0 ],
					"saved_attribute_attributes" : 					{
						"activebgoncolor" : 						{
							"expression" : ""
						}
,
						"valueof" : 						{
							"parameter_enum" : [ "val1", "val2" ],
							"parameter_longname" : "live.toggle[20]",
							"parameter_mmax" : 1,
							"parameter_modmode" : 0,
							"parameter_shortname" : "live.toggle[4]",
							"parameter_type" : 2
						}

					}
,
					"text" : "mute",
					"texton" : "mute",
					"varname" : "live.toggle[1]"
				}

			}
, 			{
				"box" : 				{
					"id" : "obj-37",
					"maxclass" : "message",
					"numinlets" : 2,
					"numoutlets" : 1,
					"outlettype" : [ "" ],
					"patching_rect" : [ 399.0, 338.0, 97.0, 21.0 ],
					"text" : "/source/2/mute $1"
				}

			}
, 			{
				"box" : 				{
					"activebgoncolor" : [ 0.996078431372549, 0.192156862745098, 0.192156862745098, 1.0 ],
					"id" : "obj-35",
					"maxclass" : "live.text",
					"numinlets" : 1,
					"numoutlets" : 2,
					"outlettype" : [ "", "" ],
					"parameter_enable" : 1,
					"patching_rect" : [ 369.5, 267.5, 40.0, 20.0 ],
					"saved_attribute_attributes" : 					{
						"activebgoncolor" : 						{
							"expression" : ""
						}
,
						"valueof" : 						{
							"parameter_enum" : [ "val1", "val2" ],
							"parameter_longname" : "live.toggle[21]",
							"parameter_mmax" : 1,
							"parameter_modmode" : 0,
							"parameter_shortname" : "live.toggle[4]",
							"parameter_type" : 2
						}

					}
,
					"text" : "mute",
					"texton" : "mute",
					"varname" : "live.toggle"
				}

			}
, 			{
				"box" : 				{
					"id" : "obj-34",
					"maxclass" : "newobj",
					"numinlets" : 1,
					"numoutlets" : 1,
					"outlettype" : [ "" ],
					"patching_rect" : [ 369.5, 430.0, 29.0, 21.0 ],
					"text" : "thru"
				}

			}
, 			{
				"box" : 				{
					"id" : "obj-33",
					"maxclass" : "message",
					"numinlets" : 2,
					"numoutlets" : 1,
					"outlettype" : [ "" ],
					"patching_rect" : [ 369.5, 290.0, 97.0, 21.0 ],
					"text" : "/source/1/mute $1"
				}

			}
, 			{
				"box" : 				{
					"bubble" : 1,
					"bubbleside" : 2,
					"fontname" : "Arial",
					"fontsize" : 11.0,
					"id" : "obj-32",
					"linecount" : 2,
					"maxclass" : "comment",
					"numinlets" : 1,
					"numoutlets" : 0,
					"patching_rect" : [ 857.25, 190.0, 100.5, 50.0 ],
					"saved_attribute_attributes" : 					{
						"bubble_bgcolor" : 						{
							"expression" : "themecolor.theme_bubble_bgcolor"
						}
,
						"bubble_outlinecolor" : 						{
							"expression" : "themecolor.theme_bubble_outlinecolor"
						}
,
						"textcolor" : 						{
							"expression" : "themecolor.live_control_fg"
						}

					}
,
					"text" : "adjusting the gain of the bpatcher"
				}

			}
, 			{
				"box" : 				{
					"focusbordercolor" : [ 0.0, 0.019608, 0.078431, 0.0 ],
					"id" : "obj-31",
					"maxclass" : "live.dial",
					"numinlets" : 1,
					"numoutlets" : 2,
					"outlettype" : [ "", "float" ],
					"parameter_enable" : 1,
					"patching_rect" : [ 866.5, 234.0, 44.0, 48.0 ],
					"saved_attribute_attributes" : 					{
						"focusbordercolor" : 						{
							"expression" : ""
						}
,
						"valueof" : 						{
							"parameter_initial" : [ -30.0 ],
							"parameter_initial_enable" : 1,
							"parameter_longname" : "live.dial[2]",
							"parameter_mmax" : 6.0,
							"parameter_mmin" : -80.0,
							"parameter_modmode" : 0,
							"parameter_shortname" : "gain",
							"parameter_type" : 0,
							"parameter_unitstyle" : 4
						}

					}
,
					"varname" : "live.dial"
				}

			}
, 			{
				"box" : 				{
					"id" : "obj-28",
					"maxclass" : "message",
					"numinlets" : 2,
					"numoutlets" : 1,
					"outlettype" : [ "" ],
					"patching_rect" : [ 866.5, 290.0, 50.0, 21.0 ],
					"text" : "/gain $1"
				}

			}
, 			{
				"box" : 				{
					"id" : "obj-26",
					"maxclass" : "message",
					"numinlets" : 2,
					"numoutlets" : 1,
					"outlettype" : [ "" ],
					"patching_rect" : [ 334.75, 140.0, 78.0, 21.0 ],
					"text" : "/window/close"
				}

			}
, 			{
				"box" : 				{
					"id" : "obj-27",
					"maxclass" : "message",
					"numinlets" : 2,
					"numoutlets" : 1,
					"outlettype" : [ "" ],
					"patching_rect" : [ 319.5, 110.0, 78.0, 21.0 ],
					"text" : "/window/open"
				}

			}
, 			{
				"box" : 				{
					"id" : "obj-25",
					"maxclass" : "newobj",
					"numinlets" : 1,
					"numoutlets" : 1,
					"outlettype" : [ "" ],
					"patching_rect" : [ 249.5, 180.0, 29.0, 21.0 ],
					"text" : "thru"
				}

			}
, 			{
				"box" : 				{
					"id" : "obj-8",
					"maxclass" : "newobj",
					"numinlets" : 1,
					"numoutlets" : 1,
					"outlettype" : [ "bang" ],
					"patching_rect" : [ 769.5, 260.0, 56.0, 21.0 ],
					"text" : "loadbang"
				}

			}
, 			{
				"box" : 				{
					"id" : "obj-14",
					"maxclass" : "message",
					"numinlets" : 2,
					"numoutlets" : 1,
					"outlettype" : [ "" ],
					"patching_rect" : [ 769.5, 290.0, 84.0, 21.0 ],
					"text" : "/title \"source 2\""
				}

			}
, 			{
				"box" : 				{
					"bgmode" : 0,
					"border" : 0,
					"clickthrough" : 0,
					"enablehscroll" : 0,
					"enablevscroll" : 0,
					"id" : "obj-24",
					"lockeddragscroll" : 0,
					"lockedsize" : 0,
					"maxclass" : "bpatcher",
					"name" : "spat5.input~.maxpat",
					"numinlets" : 1,
					"numoutlets" : 1,
					"offset" : [ 0.0, 0.0 ],
					"outlettype" : [ "signal" ],
					"patching_rect" : [ 769.5, 340.0, 210.0, 121.0 ],
					"viewvisibility" : 1
				}

			}
, 			{
				"box" : 				{
					"bubble" : 1,
					"bubbleside" : 2,
					"fontname" : "Arial",
					"fontsize" : 11.0,
					"id" : "obj-6",
					"linecount" : 2,
					"maxclass" : "comment",
					"numinlets" : 1,
					"numoutlets" : 0,
					"patching_rect" : [ 59.5, 348.0, 110.0, 50.0 ],
					"saved_attribute_attributes" : 					{
						"bubble_bgcolor" : 						{
							"expression" : "themecolor.theme_bubble_bgcolor"
						}
,
						"bubble_outlinecolor" : 						{
							"expression" : "themecolor.theme_bubble_outlinecolor"
						}
,
						"textcolor" : 						{
							"expression" : "themecolor.live_control_fg"
						}

					}
,
					"text" : "several 2D pairwise panning techniques"
				}

			}
, 			{
				"box" : 				{
					"id" : "obj-9",
					"maxclass" : "live.menu",
					"numinlets" : 1,
					"numoutlets" : 3,
					"outlettype" : [ "", "", "float" ],
					"parameter_enable" : 1,
					"patching_rect" : [ 59.5, 400.0, 100.0, 15.0 ],
					"saved_attribute_attributes" : 					{
						"valueof" : 						{
							"parameter_enum" : [ "angular", "vbap2d", "vbip2d" ],
							"parameter_longname" : "live.menu[3]",
							"parameter_mmax" : 2,
							"parameter_modmode" : 0,
							"parameter_shortname" : "live.menu",
							"parameter_type" : 2
						}

					}
,
					"varname" : "live.menu"
				}

			}
, 			{
				"box" : 				{
					"bubble" : 1,
					"bubbleside" : 2,
					"fontname" : "Arial",
					"fontsize" : 11.0,
					"id" : "obj-3",
					"linecount" : 2,
					"maxclass" : "comment",
					"numinlets" : 1,
					"numoutlets" : 0,
					"patching_rect" : [ 204.5, 348.0, 140.0, 50.0 ],
					"saved_attribute_attributes" : 					{
						"bubble_bgcolor" : 						{
							"expression" : "themecolor.theme_bubble_bgcolor"
						}
,
						"bubble_outlinecolor" : 						{
							"expression" : "themecolor.theme_bubble_outlinecolor"
						}
,
						"textcolor" : 						{
							"expression" : "themecolor.live_control_fg"
						}

					}
,
					"text" : "bpatcher spat5.dsp.control.maxpat",
					"textjustification" : 1
				}

			}
, 			{
				"box" : 				{
					"bgmode" : 0,
					"border" : 0,
					"clickthrough" : 0,
					"enablehscroll" : 0,
					"enablevscroll" : 0,
					"id" : "obj-39",
					"lockeddragscroll" : 0,
					"lockedsize" : 0,
					"maxclass" : "bpatcher",
					"name" : "spat5.dsp.control.maxpat",
					"numinlets" : 1,
					"numoutlets" : 1,
					"offset" : [ 0.0, 0.0 ],
					"outlettype" : [ "" ],
					"patching_rect" : [ 219.5, 394.0, 110.0, 57.0 ],
					"viewvisibility" : 1
				}

			}
, 			{
				"box" : 				{
					"id" : "obj-45",
					"maxclass" : "newobj",
					"numinlets" : 1,
					"numoutlets" : 1,
					"outlettype" : [ "" ],
					"patching_rect" : [ 19.5, 480.0, 29.0, 21.0 ],
					"text" : "thru"
				}

			}
, 			{
				"box" : 				{
					"bubble" : 1,
					"bubbleside" : 2,
					"fontname" : "Arial",
					"fontsize" : 11.0,
					"id" : "obj-30",
					"maxclass" : "comment",
					"numinlets" : 1,
					"numoutlets" : 0,
					"patching_rect" : [ 950.0, 550.0, 164.0, 38.0 ],
					"saved_attribute_attributes" : 					{
						"bubble_bgcolor" : 						{
							"expression" : "themecolor.theme_bubble_bgcolor"
						}
,
						"bubble_outlinecolor" : 						{
							"expression" : "themecolor.theme_bubble_outlinecolor"
						}
,
						"textcolor" : 						{
							"expression" : "themecolor.live_control_fg"
						}

					}
,
					"text" : "bpatcher spat5.monitor.maxpat"
				}

			}
, 			{
				"box" : 				{
					"bgmode" : 0,
					"border" : 0,
					"clickthrough" : 0,
					"enablehscroll" : 0,
					"enablevscroll" : 0,
					"id" : "obj-29",
					"lockeddragscroll" : 0,
					"lockedsize" : 0,
					"maxclass" : "bpatcher",
					"name" : "spat5.monitor.maxpat",
					"numinlets" : 1,
					"numoutlets" : 0,
					"offset" : [ 0.0, 0.0 ],
					"patching_rect" : [ 769.5, 579.0, 376.0, 131.0 ],
					"viewvisibility" : 1
				}

			}
, 			{
				"box" : 				{
					"bgcolor" : [ 1.0, 1.0, 1.0, 0.0 ],
					"bgmode" : 0,
					"border" : 0,
					"clickthrough" : 0,
					"enablehscroll" : 0,
					"enablevscroll" : 0,
					"id" : "obj-60",
					"lockeddragscroll" : 0,
					"lockedsize" : 0,
					"maxclass" : "bpatcher",
					"name" : "spat5.copyright.maxpat",
					"numinlets" : 0,
					"numoutlets" : 0,
					"offset" : [ 0.0, 0.0 ],
					"patching_rect" : [ 1160.0, 640.0, 239.0, 70.0 ],
					"viewvisibility" : 1
				}

			}
, 			{
				"box" : 				{
					"bubble" : 1,
					"fontname" : "Arial",
					"fontsize" : 11.0,
					"id" : "obj-21",
					"maxclass" : "comment",
					"numinlets" : 1,
					"numoutlets" : 0,
					"patching_rect" : [ 266.5, 530.0, 216.0, 23.0 ],
					"saved_attribute_attributes" : 					{
						"bubble_bgcolor" : 						{
							"expression" : "themecolor.theme_bubble_bgcolor"
						}
,
						"bubble_outlinecolor" : 						{
							"expression" : "themecolor.theme_bubble_outlinecolor"
						}
,
						"textcolor" : 						{
							"expression" : "themecolor.live_control_fg"
						}

					}
,
					"text" : "double-click to open the status window"
				}

			}
, 			{
				"box" : 				{
					"bubble" : 1,
					"fontname" : "Arial",
					"fontsize" : 11.0,
					"id" : "obj-20",
					"maxclass" : "comment",
					"numinlets" : 1,
					"numoutlets" : 0,
					"patching_rect" : [ 228.0, 590.0, 74.0, 23.0 ],
					"saved_attribute_attributes" : 					{
						"bubble_bgcolor" : 						{
							"expression" : "themecolor.theme_bubble_bgcolor"
						}
,
						"bubble_outlinecolor" : 						{
							"expression" : "themecolor.theme_bubble_outlinecolor"
						}
,
						"textcolor" : 						{
							"expression" : "themecolor.live_control_fg"
						}

					}
,
					"text" : "live.gain~"
				}

			}
, 			{
				"box" : 				{
					"id" : "obj-19",
					"maxclass" : "newobj",
					"numinlets" : 1,
					"numoutlets" : 1,
					"outlettype" : [ "" ],
					"patching_rect" : [ 59.5, 310.0, 67.0, 21.0 ],
					"text" : "loadmess 0"
				}

			}
, 			{
				"box" : 				{
					"id" : "obj-16",
					"maxclass" : "message",
					"numinlets" : 2,
					"numoutlets" : 1,
					"outlettype" : [ "" ],
					"patching_rect" : [ 59.5, 430.0, 92.0, 21.0 ],
					"text" : "/panning/type $1"
				}

			}
, 			{
				"box" : 				{
					"id" : "obj-18",
					"maxclass" : "newobj",
					"numinlets" : 6,
					"numoutlets" : 0,
					"patching_rect" : [ 19.0, 680.0, 136.5, 21.0 ],
					"text" : "dac~ 1 2 3 4 5 6"
				}

			}
, 			{
				"box" : 				{
					"channels" : 6,
					"id" : "obj-12",
					"lastchannelcount" : 0,
					"maxclass" : "live.gain~",
					"numinlets" : 6,
					"numoutlets" : 9,
					"outlettype" : [ "signal", "signal", "signal", "signal", "signal", "signal", "", "float", "list" ],
					"parameter_enable" : 1,
					"patching_rect" : [ 19.0, 570.0, 207.0, 90.0 ],
					"relative" : 1,
					"saved_attribute_attributes" : 					{
						"valueof" : 						{
							"parameter_initial" : [ 0.0 ],
							"parameter_longname" : "live.gain~[3]",
							"parameter_mmax" : 6.0,
							"parameter_mmin" : -70.0,
							"parameter_modmode" : 0,
							"parameter_shortname" : "loudspeakers",
							"parameter_type" : 0,
							"parameter_unitstyle" : 4
						}

					}
,
					"varname" : "live.gain~"
				}

			}
, 			{
				"box" : 				{
					"id" : "obj-11",
					"maxclass" : "newobj",
					"numinlets" : 4,
					"numoutlets" : 7,
					"outlettype" : [ "signal", "signal", "signal", "signal", "signal", "signal", "" ],
					"patching_rect" : [ 19.5, 530.0, 244.0, 21.0 ],
					"saved_object_attributes" : 					{
						"parameter_enable" : 0
					}
,
					"text" : "spat5.pan~ @inputs 4 @outputs 6"
				}

			}
, 			{
				"box" : 				{
					"bubble" : 1,
					"bubbleside" : 2,
					"fontname" : "Arial",
					"fontsize" : 11.0,
					"id" : "obj-5",
					"maxclass" : "comment",
					"numinlets" : 1,
					"numoutlets" : 0,
					"patching_rect" : [ 607.5, 310.0, 158.0, 38.0 ],
					"saved_attribute_attributes" : 					{
						"bubble_bgcolor" : 						{
							"expression" : "themecolor.theme_bubble_bgcolor"
						}
,
						"bubble_outlinecolor" : 						{
							"expression" : "themecolor.theme_bubble_outlinecolor"
						}
,
						"textcolor" : 						{
							"expression" : "themecolor.live_control_fg"
						}

					}
,
					"text" : "bpatcher spat5.input~.maxpat"
				}

			}
, 			{
				"box" : 				{
					"id" : "obj-23",
					"maxclass" : "newobj",
					"numinlets" : 1,
					"numoutlets" : 1,
					"outlettype" : [ "bang" ],
					"patching_rect" : [ 559.5, 219.0, 56.0, 21.0 ],
					"text" : "loadbang"
				}

			}
, 			{
				"box" : 				{
					"id" : "obj-22",
					"maxclass" : "message",
					"numinlets" : 2,
					"numoutlets" : 1,
					"outlettype" : [ "" ],
					"patching_rect" : [ 559.5, 280.0, 46.0, 21.0 ],
					"text" : "/title $1"
				}

			}
, 			{
				"box" : 				{
					"bgmode" : 0,
					"border" : 0,
					"clickthrough" : 0,
					"enablehscroll" : 0,
					"enablevscroll" : 0,
					"id" : "obj-17",
					"lockeddragscroll" : 0,
					"lockedsize" : 0,
					"maxclass" : "bpatcher",
					"name" : "spat5.input~.maxpat",
					"numinlets" : 1,
					"numoutlets" : 1,
					"offset" : [ 0.0, 0.0 ],
					"outlettype" : [ "signal" ],
					"patching_rect" : [ 559.5, 340.0, 210.0, 121.0 ],
					"viewvisibility" : 1
				}

			}
, 			{
				"box" : 				{
					"bubble" : 1,
					"fontname" : "Arial",
					"fontsize" : 11.0,
					"id" : "obj-4",
					"linecount" : 3,
					"maxclass" : "comment",
					"numinlets" : 1,
					"numoutlets" : 0,
					"patching_rect" : [ 93.5, 257.0, 214.0, 47.0 ],
					"saved_attribute_attributes" : 					{
						"bubble_bgcolor" : 						{
							"expression" : "themecolor.theme_bubble_bgcolor"
						}
,
						"bubble_outlinecolor" : 						{
							"expression" : "themecolor.theme_bubble_outlinecolor"
						}
,
						"textcolor" : 						{
							"expression" : "themecolor.live_control_fg"
						}

					}
,
					"text" : "double-click to open.\nScroll with the mouse wheel to adjust the display zoom "
				}

			}
, 			{
				"box" : 				{
					"id" : "obj-15",
					"maxclass" : "newobj",
					"numinlets" : 1,
					"numoutlets" : 1,
					"outlettype" : [ "bang" ],
					"patching_rect" : [ 19.5, 90.0, 56.0, 21.0 ],
					"text" : "loadbang"
				}

			}
, 			{
				"box" : 				{
					"id" : "obj-13",
					"linecount" : 6,
					"maxclass" : "message",
					"numinlets" : 2,
					"numoutlets" : 1,
					"outlettype" : [ "" ],
					"patching_rect" : [ 19.5, 120.0, 130.0, 82.0 ],
					"text" : "/source/number 4, /speaker/number 6, /speakers/az 0 60 120 180 240 300, /layout single, /window/size 600 600, bang"
				}

			}
, 			{
				"box" : 				{
					"id" : "obj-10",
					"maxclass" : "newobj",
					"numinlets" : 1,
					"numoutlets" : 3,
					"outlettype" : [ "", "", "" ],
					"patching_rect" : [ 19.5, 270.0, 72.0, 21.0 ],
					"saved_object_attributes" : 					{
						"parameter_enable" : 0
					}
,
					"text" : "spat5.viewer",
					"varname" : "spat5.viewer"
				}

			}
 ],
		"lines" : [ 			{
				"patchline" : 				{
					"destination" : [ "obj-22", 0 ],
					"source" : [ "obj-1", 0 ]
				}

			}
, 			{
				"patchline" : 				{
					"destination" : [ "obj-45", 0 ],
					"source" : [ "obj-10", 0 ]
				}

			}
, 			{
				"patchline" : 				{
					"destination" : [ "obj-12", 5 ],
					"source" : [ "obj-11", 5 ]
				}

			}
, 			{
				"patchline" : 				{
					"destination" : [ "obj-12", 4 ],
					"source" : [ "obj-11", 4 ]
				}

			}
, 			{
				"patchline" : 				{
					"destination" : [ "obj-12", 3 ],
					"source" : [ "obj-11", 3 ]
				}

			}
, 			{
				"patchline" : 				{
					"destination" : [ "obj-12", 2 ],
					"source" : [ "obj-11", 2 ]
				}

			}
, 			{
				"patchline" : 				{
					"destination" : [ "obj-12", 1 ],
					"source" : [ "obj-11", 1 ]
				}

			}
, 			{
				"patchline" : 				{
					"destination" : [ "obj-12", 0 ],
					"source" : [ "obj-11", 0 ]
				}

			}
, 			{
				"patchline" : 				{
					"destination" : [ "obj-18", 5 ],
					"source" : [ "obj-12", 5 ]
				}

			}
, 			{
				"patchline" : 				{
					"destination" : [ "obj-18", 4 ],
					"source" : [ "obj-12", 4 ]
				}

			}
, 			{
				"patchline" : 				{
					"destination" : [ "obj-18", 3 ],
					"source" : [ "obj-12", 3 ]
				}

			}
, 			{
				"patchline" : 				{
					"destination" : [ "obj-18", 2 ],
					"source" : [ "obj-12", 2 ]
				}

			}
, 			{
				"patchline" : 				{
					"destination" : [ "obj-18", 1 ],
					"source" : [ "obj-12", 1 ]
				}

			}
, 			{
				"patchline" : 				{
					"destination" : [ "obj-18", 0 ],
					"source" : [ "obj-12", 0 ]
				}

			}
, 			{
				"patchline" : 				{
					"destination" : [ "obj-7", 0 ],
					"source" : [ "obj-13", 0 ]
				}

			}
, 			{
				"patchline" : 				{
					"destination" : [ "obj-24", 0 ],
					"source" : [ "obj-14", 0 ]
				}

			}
, 			{
				"patchline" : 				{
					"destination" : [ "obj-13", 0 ],
					"source" : [ "obj-15", 0 ]
				}

			}
, 			{
				"patchline" : 				{
					"destination" : [ "obj-45", 0 ],
					"midpoints" : [ 69.0, 465.0, 29.0, 465.0 ],
					"source" : [ "obj-16", 0 ]
				}

			}
, 			{
				"patchline" : 				{
					"destination" : [ "obj-11", 0 ],
					"source" : [ "obj-17", 0 ]
				}

			}
, 			{
				"patchline" : 				{
					"destination" : [ "obj-9", 0 ],
					"source" : [ "obj-19", 0 ]
				}

			}
, 			{
				"patchline" : 				{
					"destination" : [ "obj-22", 0 ],
					"midpoints" : [ 639.5, 273.5, 569.0, 273.5 ],
					"source" : [ "obj-2", 0 ]
				}

			}
, 			{
				"patchline" : 				{
					"destination" : [ "obj-17", 0 ],
					"source" : [ "obj-22", 0 ]
				}

			}
, 			{
				"patchline" : 				{
					"destination" : [ "obj-1", 0 ],
					"source" : [ "obj-23", 0 ]
				}

			}
, 			{
				"patchline" : 				{
					"destination" : [ "obj-11", 1 ],
					"source" : [ "obj-24", 0 ]
				}

			}
, 			{
				"patchline" : 				{
					"destination" : [ "obj-7", 0 ],
					"midpoints" : [ 259.0, 209.5, 29.0, 209.5 ],
					"source" : [ "obj-25", 0 ]
				}

			}
, 			{
				"patchline" : 				{
					"destination" : [ "obj-25", 0 ],
					"midpoints" : [ 344.25, 170.0, 259.0, 170.0 ],
					"source" : [ "obj-26", 0 ]
				}

			}
, 			{
				"patchline" : 				{
					"destination" : [ "obj-25", 0 ],
					"midpoints" : [ 329.0, 169.0, 259.0, 169.0 ],
					"source" : [ "obj-27", 0 ]
				}

			}
, 			{
				"patchline" : 				{
					"destination" : [ "obj-24", 0 ],
					"midpoints" : [ 876.0, 325.0, 779.0, 325.0 ],
					"source" : [ "obj-28", 0 ]
				}

			}
, 			{
				"patchline" : 				{
					"destination" : [ "obj-28", 0 ],
					"source" : [ "obj-31", 0 ]
				}

			}
, 			{
				"patchline" : 				{
					"destination" : [ "obj-34", 0 ],
					"source" : [ "obj-33", 0 ]
				}

			}
, 			{
				"patchline" : 				{
					"destination" : [ "obj-45", 0 ],
					"midpoints" : [ 379.0, 465.0, 29.0, 465.0 ],
					"source" : [ "obj-34", 0 ]
				}

			}
, 			{
				"patchline" : 				{
					"destination" : [ "obj-33", 0 ],
					"source" : [ "obj-35", 0 ]
				}

			}
, 			{
				"patchline" : 				{
					"destination" : [ "obj-37", 0 ],
					"source" : [ "obj-36", 0 ]
				}

			}
, 			{
				"patchline" : 				{
					"destination" : [ "obj-34", 0 ],
					"source" : [ "obj-37", 0 ]
				}

			}
, 			{
				"patchline" : 				{
					"destination" : [ "obj-40", 0 ],
					"source" : [ "obj-38", 0 ]
				}

			}
, 			{
				"patchline" : 				{
					"destination" : [ "obj-45", 0 ],
					"midpoints" : [ 229.0, 465.0, 29.0, 465.0 ],
					"source" : [ "obj-39", 0 ]
				}

			}
, 			{
				"patchline" : 				{
					"destination" : [ "obj-34", 0 ],
					"source" : [ "obj-40", 0 ]
				}

			}
, 			{
				"patchline" : 				{
					"destination" : [ "obj-42", 0 ],
					"source" : [ "obj-41", 0 ]
				}

			}
, 			{
				"patchline" : 				{
					"destination" : [ "obj-24", 0 ],
					"midpoints" : [ 936.0, 325.0, 779.0, 325.0 ],
					"source" : [ "obj-42", 0 ]
				}

			}
, 			{
				"patchline" : 				{
					"destination" : [ "obj-11", 0 ],
					"source" : [ "obj-45", 0 ]
				}

			}
, 			{
				"patchline" : 				{
					"destination" : [ "obj-25", 0 ],
					"midpoints" : [ 439.5, 170.0, 259.0, 170.0 ],
					"source" : [ "obj-46", 0 ]
				}

			}
, 			{
				"patchline" : 				{
					"destination" : [ "obj-46", 0 ],
					"source" : [ "obj-48", 0 ]
				}

			}
, 			{
				"patchline" : 				{
					"destination" : [ "obj-52", 0 ],
					"source" : [ "obj-49", 0 ]
				}

			}
, 			{
				"patchline" : 				{
					"destination" : [ "obj-25", 0 ],
					"midpoints" : [ 559.5, 170.0, 259.0, 170.0 ],
					"source" : [ "obj-50", 0 ]
				}

			}
, 			{
				"patchline" : 				{
					"destination" : [ "obj-52", 1 ],
					"source" : [ "obj-51", 0 ]
				}

			}
, 			{
				"patchline" : 				{
					"destination" : [ "obj-50", 0 ],
					"source" : [ "obj-52", 0 ]
				}

			}
, 			{
				"patchline" : 				{
					"destination" : [ "obj-25", 0 ],
					"midpoints" : [ 1266.0, 170.0, 259.0, 170.0 ],
					"source" : [ "obj-53", 0 ]
				}

			}
, 			{
				"patchline" : 				{
					"destination" : [ "obj-53", 0 ],
					"source" : [ "obj-55", 0 ]
				}

			}
, 			{
				"patchline" : 				{
					"destination" : [ "obj-57", 0 ],
					"source" : [ "obj-56", 0 ]
				}

			}
, 			{
				"patchline" : 				{
					"destination" : [ "obj-58", 0 ],
					"source" : [ "obj-57", 0 ]
				}

			}
, 			{
				"patchline" : 				{
					"destination" : [ "obj-11", 2 ],
					"source" : [ "obj-58", 0 ]
				}

			}
, 			{
				"patchline" : 				{
					"destination" : [ "obj-61", 0 ],
					"source" : [ "obj-59", 0 ]
				}

			}
, 			{
				"patchline" : 				{
					"destination" : [ "obj-62", 0 ],
					"source" : [ "obj-61", 0 ]
				}

			}
, 			{
				"patchline" : 				{
					"destination" : [ "obj-11", 3 ],
					"source" : [ "obj-62", 0 ]
				}

			}
, 			{
				"patchline" : 				{
					"destination" : [ "obj-64", 0 ],
					"source" : [ "obj-63", 0 ]
				}

			}
, 			{
				"patchline" : 				{
					"destination" : [ "obj-25", 0 ],
					"midpoints" : [ 776.5, 170.0, 259.0, 170.0 ],
					"source" : [ "obj-64", 0 ]
				}

			}
, 			{
				"patchline" : 				{
					"destination" : [ "obj-69", 0 ],
					"source" : [ "obj-68", 0 ]
				}

			}
, 			{
				"patchline" : 				{
					"destination" : [ "obj-25", 0 ],
					"midpoints" : [ 899.5, 170.0, 259.0, 170.0 ],
					"source" : [ "obj-69", 0 ]
				}

			}
, 			{
				"patchline" : 				{
					"destination" : [ "obj-10", 0 ],
					"source" : [ "obj-7", 0 ]
				}

			}
, 			{
				"patchline" : 				{
					"destination" : [ "obj-77", 0 ],
					"source" : [ "obj-74", 0 ]
				}

			}
, 			{
				"patchline" : 				{
					"destination" : [ "obj-25", 0 ],
					"source" : [ "obj-76", 0 ]
				}

			}
, 			{
				"patchline" : 				{
					"destination" : [ "obj-25", 0 ],
					"midpoints" : [ 1019.5, 170.0, 259.0, 170.0 ],
					"source" : [ "obj-77", 0 ]
				}

			}
, 			{
				"patchline" : 				{
					"destination" : [ "obj-14", 0 ],
					"source" : [ "obj-8", 0 ]
				}

			}
, 			{
				"patchline" : 				{
					"destination" : [ "obj-16", 0 ],
					"source" : [ "obj-9", 1 ]
				}

			}
 ],
		"parameters" : 		{
			"obj-12" : [ "live.gain~[3]", "loudspeakers", 0 ],
			"obj-17::obj-1" : [ "live.menu", "live.menu", 0 ],
			"obj-17::obj-12::obj-4" : [ "live.numbox", "live.numbox", 0 ],
			"obj-17::obj-182" : [ "live.text[1]", "live.text[1]", 0 ],
			"obj-17::obj-2" : [ "live.gain~", " ", 0 ],
			"obj-17::obj-26::obj-56" : [ "live.button[1]", "live.button[1]", 0 ],
			"obj-17::obj-26::obj-58" : [ "live.toggle[1]", "live.toggle[1]", 0 ],
			"obj-17::obj-26::obj-59" : [ "live.numbox[1]", "live.numbox[1]", 0 ],
			"obj-17::obj-43::obj-8" : [ "live.dial", "freq", 0 ],
			"obj-17::obj-46::obj-36" : [ "select folder[1]", "select folder", 0 ],
			"obj-17::obj-46::obj-70" : [ "live.toggle[2]", "live.toggle", 0 ],
			"obj-17::obj-46::obj-8" : [ "live.drop", "live.drop", 0 ],
			"obj-17::obj-5::obj-12" : [ "live.button", "live.button", 0 ],
			"obj-24::obj-1" : [ "live.menu[4]", "live.menu", 0 ],
			"obj-24::obj-12::obj-4" : [ "live.numbox[3]", "live.numbox", 0 ],
			"obj-24::obj-182" : [ "live.text[9]", "live.text[1]", 0 ],
			"obj-24::obj-2" : [ "live.gain~[1]", " ", 0 ],
			"obj-24::obj-26::obj-56" : [ "live.button[2]", "live.button[1]", 0 ],
			"obj-24::obj-26::obj-58" : [ "live.toggle[4]", "live.toggle[1]", 0 ],
			"obj-24::obj-26::obj-59" : [ "live.numbox[2]", "live.numbox[1]", 0 ],
			"obj-24::obj-43::obj-8" : [ "live.dial[1]", "freq", 0 ],
			"obj-24::obj-46::obj-36" : [ "select folder[2]", "select folder", 0 ],
			"obj-24::obj-46::obj-70" : [ "live.toggle[3]", "live.toggle", 0 ],
			"obj-24::obj-46::obj-8" : [ "live.drop[1]", "live.drop", 0 ],
			"obj-24::obj-5::obj-12" : [ "live.button[5]", "live.button", 0 ],
			"obj-29::obj-11" : [ "live.text[7]", "live.text", 0 ],
			"obj-29::obj-110" : [ "live.text[5]", "live.text", 0 ],
			"obj-29::obj-16" : [ "live.text[2]", "live.text", 0 ],
			"obj-29::obj-55" : [ "live.text[6]", "live.text", 0 ],
			"obj-29::obj-606" : [ "live.text[4]", "live.text", 0 ],
			"obj-29::obj-607" : [ "live.button[4]", "live.button", 0 ],
			"obj-31" : [ "live.dial[2]", "gain", 0 ],
			"obj-35" : [ "live.toggle[21]", "live.toggle[4]", 0 ],
			"obj-36" : [ "live.toggle[20]", "live.toggle[4]", 0 ],
			"obj-38" : [ "live.toggle[19]", "live.toggle[4]", 0 ],
			"obj-39::obj-58" : [ "live.text[10]", "live.text[9]", 0 ],
			"obj-39::obj-62" : [ "live.text[12]", "live.text[9]", 0 ],
			"obj-39::obj-6::obj-3" : [ "live.text", "live.text", 0 ],
			"obj-39::obj-6::obj-6" : [ "live.text[8]", "live.text", 0 ],
			"obj-41" : [ "live.toggle[7]", "live.toggle[4]", 0 ],
			"obj-47::obj-11" : [ "live.text[260]", "live.text", 0 ],
			"obj-58::obj-1" : [ "live.menu[5]", "live.menu", 0 ],
			"obj-58::obj-12::obj-4" : [ "live.numbox[9]", "live.numbox", 0 ],
			"obj-58::obj-182" : [ "live.text[15]", "live.text[1]", 0 ],
			"obj-58::obj-2" : [ "live.gain~[2]", " ", 0 ],
			"obj-58::obj-26::obj-56" : [ "live.button[6]", "live.button[1]", 0 ],
			"obj-58::obj-26::obj-58" : [ "live.toggle[14]", "live.toggle[1]", 0 ],
			"obj-58::obj-26::obj-59" : [ "live.numbox[8]", "live.numbox[1]", 0 ],
			"obj-58::obj-43::obj-8" : [ "live.dial[3]", "freq", 0 ],
			"obj-58::obj-46::obj-36" : [ "select folder[3]", "select folder", 0 ],
			"obj-58::obj-46::obj-70" : [ "live.toggle[6]", "live.toggle", 0 ],
			"obj-58::obj-46::obj-8" : [ "live.drop[2]", "live.drop", 0 ],
			"obj-58::obj-5::obj-12" : [ "live.button[7]", "live.button", 0 ],
			"obj-62::obj-1" : [ "live.menu[6]", "live.menu", 0 ],
			"obj-62::obj-12::obj-4" : [ "live.numbox[11]", "live.numbox", 0 ],
			"obj-62::obj-182" : [ "live.text[16]", "live.text[1]", 0 ],
			"obj-62::obj-2" : [ "live.gain~[4]", " ", 0 ],
			"obj-62::obj-26::obj-56" : [ "live.button[8]", "live.button[1]", 0 ],
			"obj-62::obj-26::obj-58" : [ "live.toggle[17]", "live.toggle[1]", 0 ],
			"obj-62::obj-26::obj-59" : [ "live.numbox[10]", "live.numbox[1]", 0 ],
			"obj-62::obj-43::obj-8" : [ "live.dial[4]", "freq", 0 ],
			"obj-62::obj-46::obj-36" : [ "select folder[4]", "select folder", 0 ],
			"obj-62::obj-46::obj-70" : [ "live.toggle[16]", "live.toggle", 0 ],
			"obj-62::obj-46::obj-8" : [ "live.drop[3]", "live.drop", 0 ],
			"obj-62::obj-5::obj-12" : [ "live.button[9]", "live.button", 0 ],
			"obj-76::obj-102" : [ "live.toggle[436]", "live.toggle", 0 ],
			"obj-76::obj-3" : [ "live.text[21]", "live.text[9]", 0 ],
			"obj-76::obj-57" : [ "live.text[18]", "live.text[9]", 0 ],
			"obj-76::obj-58" : [ "live.text[20]", "live.text[9]", 0 ],
			"obj-76::obj-62" : [ "live.text[17]", "live.text[9]", 0 ],
			"obj-76::obj-72" : [ "live.text[19]", "live.text[8]", 0 ],
			"obj-9" : [ "live.menu[3]", "live.menu", 0 ],
			"parameterbanks" : 			{

			}
,
			"parameter_overrides" : 			{
				"obj-17::obj-182" : 				{
					"parameter_longname" : "live.text[1]",
					"parameter_shortname" : "live.text[1]"
				}
,
				"obj-24::obj-1" : 				{
					"parameter_longname" : "live.menu[4]"
				}
,
				"obj-24::obj-12::obj-4" : 				{
					"parameter_longname" : "live.numbox[3]"
				}
,
				"obj-24::obj-182" : 				{
					"parameter_longname" : "live.text[9]",
					"parameter_shortname" : "live.text[1]"
				}
,
				"obj-24::obj-2" : 				{
					"parameter_longname" : "live.gain~[1]"
				}
,
				"obj-24::obj-26::obj-56" : 				{
					"parameter_longname" : "live.button[2]"
				}
,
				"obj-24::obj-26::obj-58" : 				{
					"parameter_longname" : "live.toggle[4]"
				}
,
				"obj-24::obj-26::obj-59" : 				{
					"parameter_longname" : "live.numbox[2]"
				}
,
				"obj-24::obj-43::obj-8" : 				{
					"parameter_longname" : "live.dial[1]"
				}
,
				"obj-24::obj-46::obj-36" : 				{
					"parameter_longname" : "select folder[2]"
				}
,
				"obj-24::obj-46::obj-70" : 				{
					"parameter_longname" : "live.toggle[3]"
				}
,
				"obj-24::obj-46::obj-8" : 				{
					"parameter_longname" : "live.drop[1]"
				}
,
				"obj-24::obj-5::obj-12" : 				{
					"parameter_longname" : "live.button[5]"
				}
,
				"obj-29::obj-11" : 				{
					"parameter_longname" : "live.text[7]"
				}
,
				"obj-29::obj-16" : 				{
					"parameter_longname" : "live.text[2]"
				}
,
				"obj-29::obj-55" : 				{
					"parameter_longname" : "live.text[6]"
				}
,
				"obj-29::obj-606" : 				{
					"parameter_longname" : "live.text[4]"
				}
,
				"obj-29::obj-607" : 				{
					"parameter_longname" : "live.button[4]"
				}
,
				"obj-39::obj-6::obj-6" : 				{
					"parameter_longname" : "live.text[8]"
				}
,
				"obj-58::obj-1" : 				{
					"parameter_longname" : "live.menu[5]"
				}
,
				"obj-58::obj-12::obj-4" : 				{
					"parameter_longname" : "live.numbox[9]"
				}
,
				"obj-58::obj-182" : 				{
					"parameter_longname" : "live.text[15]",
					"parameter_shortname" : "live.text[1]"
				}
,
				"obj-58::obj-2" : 				{
					"parameter_longname" : "live.gain~[2]"
				}
,
				"obj-58::obj-26::obj-56" : 				{
					"parameter_longname" : "live.button[6]"
				}
,
				"obj-58::obj-26::obj-58" : 				{
					"parameter_longname" : "live.toggle[14]"
				}
,
				"obj-58::obj-26::obj-59" : 				{
					"parameter_longname" : "live.numbox[8]"
				}
,
				"obj-58::obj-43::obj-8" : 				{
					"parameter_longname" : "live.dial[3]"
				}
,
				"obj-58::obj-46::obj-36" : 				{
					"parameter_longname" : "select folder[3]"
				}
,
				"obj-58::obj-46::obj-70" : 				{
					"parameter_longname" : "live.toggle[6]"
				}
,
				"obj-58::obj-46::obj-8" : 				{
					"parameter_longname" : "live.drop[2]"
				}
,
				"obj-58::obj-5::obj-12" : 				{
					"parameter_longname" : "live.button[7]"
				}
,
				"obj-62::obj-1" : 				{
					"parameter_longname" : "live.menu[6]"
				}
,
				"obj-62::obj-12::obj-4" : 				{
					"parameter_longname" : "live.numbox[11]"
				}
,
				"obj-62::obj-182" : 				{
					"parameter_longname" : "live.text[16]",
					"parameter_shortname" : "live.text[1]"
				}
,
				"obj-62::obj-2" : 				{
					"parameter_longname" : "live.gain~[4]"
				}
,
				"obj-62::obj-26::obj-56" : 				{
					"parameter_longname" : "live.button[8]"
				}
,
				"obj-62::obj-26::obj-58" : 				{
					"parameter_longname" : "live.toggle[17]"
				}
,
				"obj-62::obj-26::obj-59" : 				{
					"parameter_longname" : "live.numbox[10]"
				}
,
				"obj-62::obj-43::obj-8" : 				{
					"parameter_longname" : "live.dial[4]"
				}
,
				"obj-62::obj-46::obj-36" : 				{
					"parameter_longname" : "select folder[4]"
				}
,
				"obj-62::obj-46::obj-70" : 				{
					"parameter_longname" : "live.toggle[16]"
				}
,
				"obj-62::obj-46::obj-8" : 				{
					"parameter_longname" : "live.drop[3]"
				}
,
				"obj-62::obj-5::obj-12" : 				{
					"parameter_longname" : "live.button[9]"
				}
,
				"obj-76::obj-3" : 				{
					"parameter_longname" : "live.text[21]"
				}
,
				"obj-76::obj-57" : 				{
					"parameter_longname" : "live.text[18]"
				}
,
				"obj-76::obj-58" : 				{
					"parameter_longname" : "live.text[20]"
				}
,
				"obj-76::obj-62" : 				{
					"parameter_longname" : "live.text[17]"
				}
,
				"obj-76::obj-72" : 				{
					"parameter_longname" : "live.text[19]"
				}

			}
,
			"inherited_shortname" : 1
		}
,
		"dependency_cache" : [ 			{
				"name" : "ircam-cnrs-spat-alpha.png",
				"bootpath" : "~/gitlab/spat/Spat5MaxMsp/media/images",
				"patcherrelativepath" : "../../media/images",
				"type" : "PNG",
				"implicit" : 1
			}
, 			{
				"name" : "spat5.copyright.maxpat",
				"bootpath" : "~/gitlab/spat/Spat5MaxMsp/patchers",
				"patcherrelativepath" : "../../patchers",
				"type" : "JSON",
				"implicit" : 1
			}
, 			{
				"name" : "spat5.cpu.mxo",
				"type" : "iLaX"
			}
, 			{
				"name" : "spat5.digest.js",
				"bootpath" : "~/gitlab/spat/Spat5MaxMsp/javascript",
				"patcherrelativepath" : "../../javascript",
				"type" : "TEXT",
				"implicit" : 1
			}
, 			{
				"name" : "spat5.dsp.control.maxpat",
				"bootpath" : "~/gitlab/spat/Spat5MaxMsp/patchers",
				"patcherrelativepath" : "../../patchers",
				"type" : "JSON",
				"implicit" : 1
			}
, 			{
				"name" : "spat5.dsp.mute.bypass.maxpat",
				"bootpath" : "~/gitlab/spat/Spat5MaxMsp/patchers",
				"patcherrelativepath" : "../../patchers",
				"type" : "JSON",
				"implicit" : 1
			}
, 			{
				"name" : "spat5.gui.control.maxpat",
				"bootpath" : "~/gitlab/spat/Spat5MaxMsp/patchers",
				"patcherrelativepath" : "../../patchers",
				"type" : "JSON",
				"implicit" : 1
			}
, 			{
				"name" : "spat5.hostinfos.mxo",
				"type" : "iLaX"
			}
, 			{
				"name" : "spat5.input~.maxpat",
				"bootpath" : "~/gitlab/spat/Spat5MaxMsp/patchers",
				"patcherrelativepath" : "../../patchers",
				"type" : "JSON",
				"implicit" : 1
			}
, 			{
				"name" : "spat5.loop.png",
				"bootpath" : "~/gitlab/spat/Spat5MaxMsp/media/images",
				"patcherrelativepath" : "../../media/images",
				"type" : "PNG",
				"implicit" : 1
			}
, 			{
				"name" : "spat5.monitor.maxpat",
				"bootpath" : "~/gitlab/spat/Spat5MaxMsp/patchers",
				"patcherrelativepath" : "../../patchers",
				"type" : "JSON",
				"implicit" : 1
			}
, 			{
				"name" : "spat5.openpatcher.maxpat",
				"bootpath" : "~/gitlab/spat/Spat5MaxMsp/patchers",
				"patcherrelativepath" : "../../patchers",
				"type" : "JSON",
				"implicit" : 1
			}
, 			{
				"name" : "spat5.osc.route.mxo",
				"type" : "iLaX"
			}
, 			{
				"name" : "spat5.pan~.mxo",
				"type" : "iLaX"
			}
, 			{
				"name" : "spat5.style.js",
				"bootpath" : "~/gitlab/spat/Spat5MaxMsp/javascript",
				"patcherrelativepath" : "../../javascript",
				"type" : "TEXT",
				"implicit" : 1
			}
, 			{
				"name" : "spat5.viewer.mxo",
				"type" : "iLaX"
			}
, 			{
				"name" : "thru.maxpat",
				"bootpath" : "C74:/patchers/m4l/Pluggo for Live resources/patches",
				"type" : "JSON",
				"implicit" : 1
			}
 ],
		"autosave" : 0,
		"styles" : [ 			{
				"name" : "AudioStatus_Menu",
				"default" : 				{
					"bgfillcolor" : 					{
						"angle" : 270.0,
						"autogradient" : 0,
						"color" : [ 0.294118, 0.313726, 0.337255, 1 ],
						"color1" : [ 0.454902, 0.462745, 0.482353, 0.0 ],
						"color2" : [ 0.290196, 0.309804, 0.301961, 1.0 ],
						"proportion" : 0.39,
						"type" : "color"
					}

				}
,
				"parentstyle" : "",
				"multi" : 0
			}
, 			{
				"name" : "Default 11Bold Poletti",
				"default" : 				{
					"fontsize" : [ 11.0 ]
				}
,
				"parentstyle" : "",
				"multi" : 0
			}
, 			{
				"name" : "Default M4L",
				"default" : 				{
					"fontname" : [ "Arial Bold" ],
					"fontsize" : [ 11.0 ],
					"patchlinecolor" : [ 0.290196, 0.309804, 0.301961, 0.85 ]
				}
,
				"parentstyle" : "",
				"multi" : 0
			}
, 			{
				"name" : "Default M4L Poletti",
				"default" : 				{
					"fontname" : [ "Arial Bold" ],
					"fontsize" : [ 10.0 ],
					"patchlinecolor" : [ 0.290196, 0.309804, 0.301961, 0.85 ]
				}
,
				"parentstyle" : "",
				"multi" : 0
			}
, 			{
				"name" : "Default M4L-1",
				"default" : 				{
					"bgfillcolor" : 					{
						"angle" : 270.0,
						"color" : [ 0.290196, 0.309804, 0.301961, 1.0 ],
						"color1" : [ 0.376471, 0.384314, 0.4, 1.0 ],
						"color2" : [ 0.290196, 0.309804, 0.301961, 1.0 ],
						"proportion" : 0.39,
						"type" : "gradient"
					}
,
					"fontface" : [ 1 ],
					"fontname" : [ "Arial" ],
					"fontsize" : [ 11.0 ]
				}
,
				"parentstyle" : "",
				"multi" : 0
			}
, 			{
				"name" : "Default Max7 Poletti",
				"default" : 				{
					"bgfillcolor" : 					{
						"angle" : 270.0,
						"color" : [ 0.290196, 0.309804, 0.301961, 1.0 ],
						"color1" : [ 0.376471, 0.384314, 0.4, 1.0 ],
						"color2" : [ 0.290196, 0.309804, 0.301961, 1.0 ],
						"proportion" : 0.39,
						"type" : "gradient"
					}

				}
,
				"parentstyle" : "",
				"multi" : 0
			}
, 			{
				"name" : "jbb",
				"default" : 				{
					"bgfillcolor" : 					{
						"angle" : 270.0,
						"color" : [ 0.290196, 0.309804, 0.301961, 1.0 ],
						"color1" : [ 0.376471, 0.384314, 0.4, 1.0 ],
						"color2" : [ 0.290196, 0.309804, 0.301961, 1.0 ],
						"proportion" : 0.39,
						"type" : "gradient"
					}
,
					"fontname" : [ "Arial" ],
					"fontsize" : [ 9.0 ]
				}
,
				"parentstyle" : "",
				"multi" : 0
			}
, 			{
				"name" : "ksliderWhite",
				"default" : 				{
					"color" : [ 1.0, 1.0, 1.0, 1.0 ]
				}
,
				"parentstyle" : "",
				"multi" : 0
			}
, 			{
				"name" : "newobjBlue-1",
				"default" : 				{
					"accentcolor" : [ 0.317647, 0.654902, 0.976471, 1.0 ]
				}
,
				"parentstyle" : "",
				"multi" : 0
			}
, 			{
				"name" : "newobjGreen-1",
				"default" : 				{
					"accentcolor" : [ 0.0, 0.533333, 0.168627, 1.0 ]
				}
,
				"parentstyle" : "",
				"multi" : 0
			}
, 			{
				"name" : "numberGold-1",
				"default" : 				{
					"accentcolor" : [ 0.764706, 0.592157, 0.101961, 1.0 ]
				}
,
				"parentstyle" : "",
				"multi" : 0
			}
 ],
		"textcolor" : [ 0.0, 0.0, 0.0, 1.0 ],
		"bgcolor" : [ 0.529411764705882, 0.529411764705882, 0.529411764705882, 1.0 ],
		"editing_bgcolor" : [ 0.529411764705882, 0.529411764705882, 0.529411764705882, 1.0 ],
		"saved_attribute_attributes" : 		{
			"accentcolor" : 			{
				"expression" : "themecolor.theme_accentcolor"
			}
,
			"bubble_bgcolor" : 			{
				"expression" : "themecolor.theme_bubble_bgcolor"
			}
,
			"bubble_outlinecolor" : 			{
				"expression" : "themecolor.theme_bubble_outlinecolor"
			}
,
			"clearcolor" : 			{
				"expression" : "themecolor.theme_clearcolor"
			}
,
			"color" : 			{
				"expression" : "themecolor.theme_color"
			}
,
			"editing_bgcolor" : 			{
				"expression" : "themecolor.live_surface_bg"
			}
,
			"elementcolor" : 			{
				"expression" : "themecolor.theme_elementcolor"
			}
,
			"locked_bgcolor" : 			{
				"expression" : "themecolor.live_surface_bg"
			}
,
			"patchlinecolor" : 			{
				"expression" : "themecolor.theme_patchlinecolor"
			}
,
			"selectioncolor" : 			{
				"expression" : "themecolor.theme_selectioncolor"
			}
,
			"stripecolor" : 			{
				"expression" : "themecolor.theme_stripecolor"
			}
,
			"textcolor" : 			{
				"expression" : "themecolor.live_control_fg"
			}

		}

	}

}
