{
	"patcher" : 	{
		"fileversion" : 1,
		"appversion" : 		{
			"major" : 9,
			"minor" : 0,
			"revision" : 0,
			"architecture" : "x64",
			"modernui" : 1
		}
,
		"classnamespace" : "box",
		"rect" : [ 119.0, 86.0, 1161.0, 751.0 ],
		"gridonopen" : 2,
		"gridsize" : [ 10.0, 10.0 ],
		"gridsnaponopen" : 2,
		"toolbarvisible" : 0,
		"toolbars_unpinned_last_save" : 15,
		"showrootpatcherontab" : 0,
		"showontab" : 0,
		"helpsidebarclosed" : 1,
		"boxes" : [ 			{
				"box" : 				{
					"id" : "obj-3",
					"maxclass" : "newobj",
					"numinlets" : 1,
					"numoutlets" : 1,
					"outlettype" : [ "" ],
					"patching_rect" : [ 90.0, 110.0, 85.0, 21.0 ],
					"saved_object_attributes" : 					{
						"filename" : "spat5.style.js",
						"parameter_enable" : 0
					}
,
					"text" : "js spat5.style.js"
				}

			}
, 			{
				"box" : 				{
					"fontname" : "Arial",
					"fontsize" : 11.0,
					"id" : "obj-38",
					"maxclass" : "newobj",
					"numinlets" : 0,
					"numoutlets" : 0,
					"patcher" : 					{
						"fileversion" : 1,
						"appversion" : 						{
							"major" : 9,
							"minor" : 0,
							"revision" : 0,
							"architecture" : "x64",
							"modernui" : 1
						}
,
						"classnamespace" : "box",
						"rect" : [ 0.0, 26.0, 1161.0, 725.0 ],
						"gridonopen" : 2,
						"gridsize" : [ 10.0, 10.0 ],
						"gridsnaponopen" : 2,
						"toolbarvisible" : 0,
						"toolbars_unpinned_last_save" : 15,
						"showontab" : 1,
						"boxes" : [  ],
						"lines" : [  ],
						"originid" : "pat-5718",
						"bgcolor" : [ 0.279471418544607, 0.279471350143365, 0.279471368104493, 1.0 ],
						"editing_bgcolor" : [ 0.279471418544607, 0.279471350143365, 0.279471368104493, 1.0 ],
						"saved_attribute_attributes" : 						{
							"accentcolor" : 							{
								"expression" : "themecolor.theme_accentcolor"
							}
,
							"bubble_bgcolor" : 							{
								"expression" : "themecolor.theme_bubble_bgcolor"
							}
,
							"bubble_outlinecolor" : 							{
								"expression" : "themecolor.theme_bubble_outlinecolor"
							}
,
							"clearcolor" : 							{
								"expression" : "themecolor.theme_clearcolor"
							}
,
							"color" : 							{
								"expression" : "themecolor.theme_color"
							}
,
							"editing_bgcolor" : 							{
								"expression" : "themecolor.live_surface_bg"
							}
,
							"elementcolor" : 							{
								"expression" : "themecolor.theme_elementcolor"
							}
,
							"locked_bgcolor" : 							{
								"expression" : "themecolor.live_surface_bg"
							}
,
							"patchlinecolor" : 							{
								"expression" : "themecolor.theme_patchlinecolor"
							}
,
							"selectioncolor" : 							{
								"expression" : "themecolor.theme_selectioncolor"
							}
,
							"stripecolor" : 							{
								"expression" : "themecolor.theme_stripecolor"
							}
,
							"textcolor" : 							{
								"expression" : "themecolor.live_control_fg"
							}

						}

					}
,
					"patching_rect" : [ 60.0, 60.0, 50.0, 21.0 ],
					"saved_attribute_attributes" : 					{
						"accentcolor" : 						{
							"expression" : "themecolor.theme_accentcolor"
						}
,
						"bubble_bgcolor" : 						{
							"expression" : "themecolor.theme_bubble_bgcolor"
						}
,
						"bubble_outlinecolor" : 						{
							"expression" : "themecolor.theme_bubble_outlinecolor"
						}
,
						"clearcolor" : 						{
							"expression" : "themecolor.theme_clearcolor"
						}
,
						"color" : 						{
							"expression" : "themecolor.theme_color"
						}
,
						"editing_bgcolor" : 						{
							"expression" : "themecolor.live_surface_bg"
						}
,
						"elementcolor" : 						{
							"expression" : "themecolor.theme_elementcolor"
						}
,
						"locked_bgcolor" : 						{
							"expression" : "themecolor.live_surface_bg"
						}
,
						"patchlinecolor" : 						{
							"expression" : "themecolor.theme_patchlinecolor"
						}
,
						"selectioncolor" : 						{
							"expression" : "themecolor.theme_selectioncolor"
						}
,
						"stripecolor" : 						{
							"expression" : "themecolor.theme_stripecolor"
						}
,
						"textcolor" : 						{
							"expression" : "themecolor.live_control_fg"
						}

					}
,
					"saved_object_attributes" : 					{
						"editing_bgcolor" : [ 0.279471418544607, 0.279471350143365, 0.279471368104493, 1.0 ],
						"fontsize" : 11.0,
						"globalpatchername" : "",
						"locked_bgcolor" : [ 0.279471418544607, 0.279471350143365, 0.279471368104493, 1.0 ]
					}
,
					"text" : "p ?",
					"varname" : "q_tab"
				}

			}
, 			{
				"box" : 				{
					"id" : "obj-2",
					"maxclass" : "newobj",
					"numinlets" : 0,
					"numoutlets" : 0,
					"patcher" : 					{
						"fileversion" : 1,
						"appversion" : 						{
							"major" : 9,
							"minor" : 0,
							"revision" : 0,
							"architecture" : "x64",
							"modernui" : 1
						}
,
						"classnamespace" : "box",
						"rect" : [ 119.0, 112.0, 1161.0, 725.0 ],
						"bglocked" : 1,
						"gridonopen" : 2,
						"gridsize" : [ 10.0, 10.0 ],
						"gridsnaponopen" : 2,
						"toolbarvisible" : 0,
						"showontab" : 1,
						"boxes" : [ 							{
								"box" : 								{
									"args" : [ "spat5.tuto-mc-2", "maxpat" ],
									"bgmode" : 0,
									"border" : 0,
									"clickthrough" : 0,
									"enablehscroll" : 0,
									"enablevscroll" : 0,
									"id" : "obj-24",
									"lockeddragscroll" : 0,
									"lockedsize" : 0,
									"maxclass" : "bpatcher",
									"name" : "spat5.openpatcher.maxpat",
									"numinlets" : 0,
									"numoutlets" : 0,
									"offset" : [ 0.0, 0.0 ],
									"patching_rect" : [ 731.5, 669.5, 170.0, 20.0 ],
									"presentation" : 1,
									"presentation_rect" : [ 650.5, 531.5, 170.0, 20.0 ],
									"viewvisibility" : 1
								}

							}
, 							{
								"box" : 								{
									"args" : [ "spat5.tuto-mc", "maxpat" ],
									"bgmode" : 0,
									"border" : 0,
									"clickthrough" : 0,
									"enablehscroll" : 0,
									"enablevscroll" : 0,
									"id" : "obj-72",
									"lockeddragscroll" : 0,
									"lockedsize" : 0,
									"maxclass" : "bpatcher",
									"name" : "spat5.openpatcher.maxpat",
									"numinlets" : 0,
									"numoutlets" : 0,
									"offset" : [ 0.0, 0.0 ],
									"patching_rect" : [ 731.5, 640.0, 170.0, 20.0 ],
									"presentation" : 1,
									"presentation_rect" : [ 225.0, 36.0, 170.0, 20.0 ],
									"viewvisibility" : 1
								}

							}
, 							{
								"box" : 								{
									"bubble" : 1,
									"bubbleside" : 3,
									"fontname" : "Arial",
									"fontsize" : 11.0,
									"id" : "obj-26",
									"linecount" : 2,
									"maxclass" : "comment",
									"numinlets" : 1,
									"numoutlets" : 0,
									"patching_rect" : [ 552.5, 640.0, 177.0, 35.0 ],
									"saved_attribute_attributes" : 									{
										"bubble_bgcolor" : 										{
											"expression" : "themecolor.theme_bubble_bgcolor"
										}
,
										"bubble_outlinecolor" : 										{
											"expression" : "themecolor.theme_bubble_outlinecolor"
										}
,
										"textcolor" : 										{
											"expression" : "themecolor.live_control_fg"
										}

									}
,
									"text" : "have a look at this patch for further information about MC",
									"textjustification" : 1
								}

							}
, 							{
								"box" : 								{
									"fontname" : "Arial",
									"fontsize" : 11.0,
									"id" : "obj-20",
									"maxclass" : "newobj",
									"numinlets" : 1,
									"numoutlets" : 2,
									"outlettype" : [ "multichannelsignal", "" ],
									"patching_rect" : [ 38.5, 672.0, 183.0, 21.0 ],
									"saved_object_attributes" : 									{
										"parameter_enable" : 0
									}
,
									"text" : "spat5.delay~ @channels 64 @mc 1"
								}

							}
, 							{
								"box" : 								{
									"fontname" : "Arial",
									"fontsize" : 11.0,
									"id" : "obj-21",
									"maxclass" : "newobj",
									"numinlets" : 1,
									"numoutlets" : 2,
									"outlettype" : [ "multichannelsignal", "" ],
									"patching_rect" : [ 38.5, 617.0, 207.0, 21.0 ],
									"saved_object_attributes" : 									{
										"parameter_enable" : 0
									}
,
									"text" : "spat5.diagmatrix~ @channels 64 @mc 1"
								}

							}
, 							{
								"box" : 								{
									"fontname" : "Arial",
									"fontsize" : 11.0,
									"id" : "obj-22",
									"maxclass" : "newobj",
									"numinlets" : 1,
									"numoutlets" : 2,
									"outlettype" : [ "multichannelsignal", "" ],
									"patching_rect" : [ 38.5, 566.0, 183.0, 21.0 ],
									"saved_object_attributes" : 									{
										"parameter_enable" : 0
									}
,
									"text" : "spat5.delay~ @channels 64 @mc 1"
								}

							}
, 							{
								"box" : 								{
									"fontface" : 1,
									"fontname" : "Arial",
									"fontsize" : 14.0,
									"id" : "obj-15",
									"linecount" : 4,
									"maxclass" : "comment",
									"numinlets" : 1,
									"numoutlets" : 0,
									"patching_rect" : [ 294.871216000000004, 549.0, 251.25, 69.0 ],
									"saved_attribute_attributes" : 									{
										"bubble_bgcolor" : 										{
											"expression" : "themecolor.theme_bubble_bgcolor"
										}
,
										"bubble_outlinecolor" : 										{
											"expression" : "themecolor.theme_bubble_outlinecolor"
										}
,
										"textcolor" : 										{
											"expression" : "themecolor.live_control_fg_on"
										}

									}
,
									"text" : "If you are using Max 8, it is recommended to rather use \"MC\" (multichannel) patch cords, for the sake of clarity and scalability",
									"textcolor" : [ 0.079348079365577, 0.07934804057877, 0.079348050547289, 1.0 ]
								}

							}
, 							{
								"box" : 								{
									"bgcolor" : [ 1.0, 1.0, 1.0, 0.0 ],
									"bgmode" : 0,
									"border" : 0,
									"clickthrough" : 0,
									"enablehscroll" : 0,
									"enablevscroll" : 0,
									"id" : "obj-60",
									"lockeddragscroll" : 0,
									"lockedsize" : 0,
									"maxclass" : "bpatcher",
									"name" : "spat5.copyright.maxpat",
									"numinlets" : 0,
									"numoutlets" : 0,
									"offset" : [ 0.0, 0.0 ],
									"patching_rect" : [ 910.0, 480.0, 239.0, 70.0 ],
									"viewvisibility" : 1
								}

							}
, 							{
								"box" : 								{
									"fontname" : "Arial",
									"fontsize" : 14.0,
									"id" : "obj-38",
									"linecount" : 3,
									"maxclass" : "comment",
									"numinlets" : 1,
									"numoutlets" : 0,
									"patching_rect" : [ 270.0, 408.0, 203.0, 53.0 ],
									"saved_attribute_attributes" : 									{
										"bubble_bgcolor" : 										{
											"expression" : "themecolor.theme_bubble_bgcolor"
										}
,
										"bubble_outlinecolor" : 										{
											"expression" : "themecolor.theme_bubble_outlinecolor"
										}
,
										"textcolor" : 										{
											"expression" : "themecolor.live_control_fg_on"
										}

									}
,
									"text" : "NB : on french keyboards, the \"\\\" (backslash) symbol is made with Alt+Shift+/",
									"textcolor" : [ 0.079348079365577, 0.07934804057877, 0.079348050547289, 1.0 ]
								}

							}
, 							{
								"box" : 								{
									"fontname" : "Arial",
									"fontsize" : 14.0,
									"id" : "obj-31",
									"linecount" : 3,
									"maxclass" : "comment",
									"numinlets" : 1,
									"numoutlets" : 0,
									"patching_rect" : [ 910.0, 199.0, 210.0, 53.0 ],
									"saved_attribute_attributes" : 									{
										"bubble_bgcolor" : 										{
											"expression" : "themecolor.theme_bubble_bgcolor"
										}
,
										"bubble_outlinecolor" : 										{
											"expression" : "themecolor.theme_bubble_outlinecolor"
										}
,
										"textcolor" : 										{
											"expression" : "themecolor.live_control_fg_on"
										}

									}
,
									"text" : "NB : on french keyboards, the \"|\" (pipe) symbol is made with Alt+Shift+L",
									"textcolor" : [ 0.079348079365577, 0.07934804057877, 0.079348050547289, 1.0 ]
								}

							}
, 							{
								"box" : 								{
									"fontname" : "Arial",
									"fontsize" : 11.0,
									"id" : "obj-35",
									"maxclass" : "newobj",
									"numinlets" : 2,
									"numoutlets" : 2,
									"outlettype" : [ "", "" ],
									"patching_rect" : [ 594.5, 420.0, 55.0, 21.0 ],
									"text" : "route xyz"
								}

							}
, 							{
								"box" : 								{
									"fontface" : 1,
									"fontname" : "Arial",
									"fontsize" : 14.0,
									"id" : "obj-34",
									"maxclass" : "comment",
									"numinlets" : 1,
									"numoutlets" : 0,
									"patching_rect" : [ 344.5, 125.0, 516.0, 22.0 ],
									"saved_attribute_attributes" : 									{
										"bubble_bgcolor" : 										{
											"expression" : "themecolor.theme_bubble_bgcolor"
										}
,
										"bubble_outlinecolor" : 										{
											"expression" : "themecolor.theme_bubble_outlinecolor"
										}

									}
,
									"text" : "To use, first select some objects and then press one of the shortcuts below:"
								}

							}
, 							{
								"box" : 								{
									"fontface" : 1,
									"fontname" : "Arial",
									"fontsize" : 14.0,
									"id" : "obj-3",
									"linecount" : 2,
									"maxclass" : "comment",
									"numinlets" : 1,
									"numoutlets" : 0,
									"patching_rect" : [ 825.319641000000047, 370.0, 180.0, 38.0 ],
									"saved_attribute_attributes" : 									{
										"bubble_bgcolor" : 										{
											"expression" : "themecolor.theme_bubble_bgcolor"
										}
,
										"bubble_outlinecolor" : 										{
											"expression" : "themecolor.theme_bubble_outlinecolor"
										}
,
										"textcolor" : 										{
											"expression" : "themecolor.live_control_fg_on"
										}

									}
,
									"text" : "[ / ] =  connect multiple outlets to one inlet",
									"textcolor" : [ 0.079348079365577, 0.07934804057877, 0.079348050547289, 1.0 ]
								}

							}
, 							{
								"box" : 								{
									"fontname" : "Arial",
									"fontsize" : 11.0,
									"id" : "obj-14",
									"maxclass" : "newobj",
									"numinlets" : 14,
									"numoutlets" : 14,
									"outlettype" : [ "", "", "", "", "", "", "", "", "", "", "", "", "", "" ],
									"patching_rect" : [ 594.5, 370.0, 187.0, 21.0 ],
									"text" : "route 1 2 3 4 5 6 7 8 9 10 11 12 13"
								}

							}
, 							{
								"box" : 								{
									"fontname" : "Arial",
									"fontsize" : 11.0,
									"id" : "obj-16",
									"maxclass" : "newobj",
									"numinlets" : 64,
									"numoutlets" : 65,
									"outlettype" : [ "signal", "signal", "signal", "signal", "signal", "signal", "signal", "signal", "signal", "signal", "signal", "signal", "signal", "signal", "signal", "signal", "signal", "signal", "signal", "signal", "signal", "signal", "signal", "signal", "signal", "signal", "signal", "signal", "signal", "signal", "signal", "signal", "signal", "signal", "signal", "signal", "signal", "signal", "signal", "signal", "signal", "signal", "signal", "signal", "signal", "signal", "signal", "signal", "signal", "signal", "signal", "signal", "signal", "signal", "signal", "signal", "signal", "signal", "signal", "signal", "signal", "signal", "signal", "signal", "" ],
									"patching_rect" : [ 610.5, 278.0, 394.81964099999999, 21.0 ],
									"saved_object_attributes" : 									{
										"parameter_enable" : 0
									}
,
									"text" : "spat5.delay~ @channels 64"
								}

							}
, 							{
								"box" : 								{
									"fontname" : "Arial",
									"fontsize" : 11.0,
									"id" : "obj-23",
									"maxclass" : "newobj",
									"numinlets" : 64,
									"numoutlets" : 65,
									"outlettype" : [ "signal", "signal", "signal", "signal", "signal", "signal", "signal", "signal", "signal", "signal", "signal", "signal", "signal", "signal", "signal", "signal", "signal", "signal", "signal", "signal", "signal", "signal", "signal", "signal", "signal", "signal", "signal", "signal", "signal", "signal", "signal", "signal", "signal", "signal", "signal", "signal", "signal", "signal", "signal", "signal", "signal", "signal", "signal", "signal", "signal", "signal", "signal", "signal", "signal", "signal", "signal", "signal", "signal", "signal", "signal", "signal", "signal", "signal", "signal", "signal", "signal", "signal", "signal", "signal", "" ],
									"patching_rect" : [ 609.125, 221.0, 194.90625, 21.0 ],
									"saved_object_attributes" : 									{
										"parameter_enable" : 0
									}
,
									"text" : "spat5.diagmatrix~ @channels 64"
								}

							}
, 							{
								"box" : 								{
									"fontname" : "Arial",
									"fontsize" : 11.0,
									"id" : "obj-25",
									"linecount" : 2,
									"maxclass" : "newobj",
									"numinlets" : 64,
									"numoutlets" : 65,
									"outlettype" : [ "signal", "signal", "signal", "signal", "signal", "signal", "signal", "signal", "signal", "signal", "signal", "signal", "signal", "signal", "signal", "signal", "signal", "signal", "signal", "signal", "signal", "signal", "signal", "signal", "signal", "signal", "signal", "signal", "signal", "signal", "signal", "signal", "signal", "signal", "signal", "signal", "signal", "signal", "signal", "signal", "signal", "signal", "signal", "signal", "signal", "signal", "signal", "signal", "signal", "signal", "signal", "signal", "signal", "signal", "signal", "signal", "signal", "signal", "signal", "signal", "signal", "signal", "signal", "signal", "" ],
									"patching_rect" : [ 624.9375, 172.0, 106.0, 33.0 ],
									"saved_object_attributes" : 									{
										"parameter_enable" : 0
									}
,
									"text" : "spat5.delay~ @channels 64"
								}

							}
, 							{
								"box" : 								{
									"fontface" : 1,
									"fontname" : "Arial",
									"fontsize" : 14.0,
									"id" : "obj-27",
									"linecount" : 2,
									"maxclass" : "comment",
									"numinlets" : 1,
									"numoutlets" : 0,
									"patching_rect" : [ 910.0, 161.5, 230.0, 38.0 ],
									"saved_attribute_attributes" : 									{
										"bubble_bgcolor" : 										{
											"expression" : "themecolor.theme_bubble_bgcolor"
										}
,
										"bubble_outlinecolor" : 										{
											"expression" : "themecolor.theme_bubble_outlinecolor"
										}
,
										"textcolor" : 										{
											"expression" : "themecolor.live_control_fg_on"
										}

									}
,
									"text" : "[ | ] =  align x position and width of selected objects to top object",
									"textcolor" : [ 0.079348079365577, 0.07934804057877, 0.079348050547289, 1.0 ]
								}

							}
, 							{
								"box" : 								{
									"fontface" : 1,
									"fontname" : "Arial",
									"fontsize" : 14.0,
									"id" : "obj-19",
									"linecount" : 2,
									"maxclass" : "comment",
									"numinlets" : 1,
									"numoutlets" : 0,
									"patching_rect" : [ 270.0, 358.0, 200.0, 38.0 ],
									"saved_attribute_attributes" : 									{
										"bubble_bgcolor" : 										{
											"expression" : "themecolor.theme_bubble_bgcolor"
										}
,
										"bubble_outlinecolor" : 										{
											"expression" : "themecolor.theme_bubble_outlinecolor"
										}
,
										"textcolor" : 										{
											"expression" : "themecolor.live_control_fg_on"
										}

									}
,
									"text" : "[ \\ ] =  connect one outlet to multiple inlets",
									"textcolor" : [ 0.079348079365577, 0.07934804057877, 0.079348050547289, 1.0 ]
								}

							}
, 							{
								"box" : 								{
									"fontname" : "Arial",
									"fontsize" : 11.0,
									"id" : "obj-18",
									"maxclass" : "newobj",
									"numinlets" : 1,
									"numoutlets" : 1,
									"outlettype" : [ "signal" ],
									"patching_rect" : [ 49.0, 375.0, 40.0, 21.0 ],
									"text" : "sig~ 1"
								}

							}
, 							{
								"box" : 								{
									"fontname" : "Arial",
									"fontsize" : 11.0,
									"id" : "obj-17",
									"maxclass" : "newobj",
									"numinlets" : 64,
									"numoutlets" : 65,
									"outlettype" : [ "signal", "signal", "signal", "signal", "signal", "signal", "signal", "signal", "signal", "signal", "signal", "signal", "signal", "signal", "signal", "signal", "signal", "signal", "signal", "signal", "signal", "signal", "signal", "signal", "signal", "signal", "signal", "signal", "signal", "signal", "signal", "signal", "signal", "signal", "signal", "signal", "signal", "signal", "signal", "signal", "signal", "signal", "signal", "signal", "signal", "signal", "signal", "signal", "signal", "signal", "signal", "signal", "signal", "signal", "signal", "signal", "signal", "signal", "signal", "signal", "signal", "signal", "signal", "signal", "" ],
									"patching_rect" : [ 49.0, 420.0, 192.0, 21.0 ],
									"saved_object_attributes" : 									{
										"parameter_enable" : 0
									}
,
									"text" : "spat5.diagmatrix~ @channels 64"
								}

							}
, 							{
								"box" : 								{
									"bubble" : 1,
									"fontname" : "Arial",
									"fontsize" : 11.0,
									"id" : "obj-8",
									"linecount" : 2,
									"maxclass" : "comment",
									"numinlets" : 1,
									"numoutlets" : 0,
									"patching_rect" : [ 756.0, 67.5, 199.0, 35.0 ],
									"saved_attribute_attributes" : 									{
										"bubble_bgcolor" : 										{
											"expression" : "themecolor.theme_bubble_bgcolor"
										}
,
										"bubble_outlinecolor" : 										{
											"expression" : "themecolor.theme_bubble_outlinecolor"
										}
,
										"textcolor" : 										{
											"expression" : "themecolor.live_control_fg"
										}

									}
,
									"text" : "argument sets (maximum) number of connections (optional)"
								}

							}
, 							{
								"box" : 								{
									"bubble" : 1,
									"fontname" : "Arial",
									"fontsize" : 11.0,
									"id" : "obj-6",
									"linecount" : 2,
									"maxclass" : "comment",
									"numinlets" : 1,
									"numoutlets" : 0,
									"patching_rect" : [ 580.0, 20.0, 185.0, 35.0 ],
									"saved_attribute_attributes" : 									{
										"bubble_bgcolor" : 										{
											"expression" : "themecolor.theme_bubble_bgcolor"
										}
,
										"bubble_outlinecolor" : 										{
											"expression" : "themecolor.theme_bubble_outlinecolor"
										}
,
										"textcolor" : 										{
											"expression" : "themecolor.live_control_fg"
										}

									}
,
									"text" : "number of connections can be changed after initialization also"
								}

							}
, 							{
								"box" : 								{
									"fontname" : "Arial",
									"fontsize" : 11.0,
									"id" : "obj-5",
									"maxclass" : "number",
									"minimum" : 0,
									"numinlets" : 1,
									"numoutlets" : 2,
									"outlettype" : [ "", "bang" ],
									"parameter_enable" : 0,
									"patching_rect" : [ 528.0, 27.0, 50.0, 21.0 ]
								}

							}
, 							{
								"box" : 								{
									"fontname" : "Arial",
									"fontsize" : 11.0,
									"id" : "obj-12",
									"maxclass" : "newobj",
									"numinlets" : 64,
									"numoutlets" : 65,
									"outlettype" : [ "signal", "signal", "signal", "signal", "signal", "signal", "signal", "signal", "signal", "signal", "signal", "signal", "signal", "signal", "signal", "signal", "signal", "signal", "signal", "signal", "signal", "signal", "signal", "signal", "signal", "signal", "signal", "signal", "signal", "signal", "signal", "signal", "signal", "signal", "signal", "signal", "signal", "signal", "signal", "signal", "signal", "signal", "signal", "signal", "signal", "signal", "signal", "signal", "signal", "signal", "signal", "signal", "signal", "signal", "signal", "signal", "signal", "signal", "signal", "signal", "signal", "signal", "signal", "signal", "" ],
									"patching_rect" : [ 39.5, 278.0, 181.0, 21.0 ],
									"saved_object_attributes" : 									{
										"parameter_enable" : 0
									}
,
									"text" : "spat5.delay~ @channels 64"
								}

							}
, 							{
								"box" : 								{
									"fontname" : "Arial",
									"fontsize" : 11.0,
									"id" : "obj-11",
									"maxclass" : "newobj",
									"numinlets" : 64,
									"numoutlets" : 65,
									"outlettype" : [ "signal", "signal", "signal", "signal", "signal", "signal", "signal", "signal", "signal", "signal", "signal", "signal", "signal", "signal", "signal", "signal", "signal", "signal", "signal", "signal", "signal", "signal", "signal", "signal", "signal", "signal", "signal", "signal", "signal", "signal", "signal", "signal", "signal", "signal", "signal", "signal", "signal", "signal", "signal", "signal", "signal", "signal", "signal", "signal", "signal", "signal", "signal", "signal", "signal", "signal", "signal", "signal", "signal", "signal", "signal", "signal", "signal", "signal", "signal", "signal", "signal", "signal", "signal", "signal", "" ],
									"patching_rect" : [ 39.5, 223.0, 191.0, 21.0 ],
									"saved_object_attributes" : 									{
										"parameter_enable" : 0
									}
,
									"text" : "spat5.diagmatrix~ @channels 64"
								}

							}
, 							{
								"box" : 								{
									"fontname" : "Arial",
									"fontsize" : 11.0,
									"id" : "obj-10",
									"maxclass" : "newobj",
									"numinlets" : 64,
									"numoutlets" : 65,
									"outlettype" : [ "signal", "signal", "signal", "signal", "signal", "signal", "signal", "signal", "signal", "signal", "signal", "signal", "signal", "signal", "signal", "signal", "signal", "signal", "signal", "signal", "signal", "signal", "signal", "signal", "signal", "signal", "signal", "signal", "signal", "signal", "signal", "signal", "signal", "signal", "signal", "signal", "signal", "signal", "signal", "signal", "signal", "signal", "signal", "signal", "signal", "signal", "signal", "signal", "signal", "signal", "signal", "signal", "signal", "signal", "signal", "signal", "signal", "signal", "signal", "signal", "signal", "signal", "signal", "signal", "" ],
									"patching_rect" : [ 39.5, 172.0, 181.0, 21.0 ],
									"saved_object_attributes" : 									{
										"parameter_enable" : 0
									}
,
									"text" : "spat5.delay~ @channels 64"
								}

							}
, 							{
								"box" : 								{
									"fontface" : 1,
									"fontname" : "Arial",
									"fontsize" : 14.0,
									"id" : "obj-9",
									"linecount" : 2,
									"maxclass" : "comment",
									"numinlets" : 1,
									"numoutlets" : 0,
									"patching_rect" : [ 270.0, 217.0, 173.0, 38.0 ],
									"saved_attribute_attributes" : 									{
										"bubble_bgcolor" : 										{
											"expression" : "themecolor.theme_bubble_bgcolor"
										}
,
										"bubble_outlinecolor" : 										{
											"expression" : "themecolor.theme_bubble_outlinecolor"
										}
,
										"textcolor" : 										{
											"expression" : "themecolor.live_control_fg_on"
										}

									}
,
									"text" : "[ ! ] =  connect multiple outlets to multiple inlets ",
									"textcolor" : [ 0.079348079365577, 0.07934804057877, 0.079348050547289, 1.0 ]
								}

							}
, 							{
								"box" : 								{
									"fontname" : "Arial",
									"fontsize" : 16.0,
									"id" : "obj-1",
									"maxclass" : "newobj",
									"numinlets" : 1,
									"numoutlets" : 0,
									"patching_rect" : [ 528.0, 72.0, 226.0, 26.0 ],
									"text" : "spat5.multi.connect.maxpat 64"
								}

							}
, 							{
								"box" : 								{
									"fontface" : 1,
									"fontname" : "Arial",
									"fontsize" : 11.0,
									"id" : "obj-2",
									"linecount" : 2,
									"maxclass" : "comment",
									"numinlets" : 1,
									"numoutlets" : 0,
									"patching_rect" : [ 580.0, 519.0, 315.0, 31.0 ],
									"saved_attribute_attributes" : 									{
										"bubble_bgcolor" : 										{
											"expression" : "themecolor.theme_bubble_bgcolor"
										}
,
										"bubble_outlinecolor" : 										{
											"expression" : "themecolor.theme_bubble_outlinecolor"
										}

									}
,
									"text" : "spat5.multi.connect - developed by Rama Gottfried, 2012\n(based on the maxtoolbox by Nathanaël Lécaudé)"
								}

							}
, 							{
								"box" : 								{
									"angle" : 0.0,
									"background" : 1,
									"bgcolor" : [ 0.901961, 0.901961, 0.901961, 1.0 ],
									"border" : 2,
									"bordercolor" : [ 0.317647, 0.654902, 0.976471, 1.0 ],
									"id" : "obj-33",
									"maxclass" : "panel",
									"mode" : 0,
									"numinlets" : 1,
									"numoutlets" : 0,
									"patching_rect" : [ 577.0, 150.0, 570.121216000000004, 172.0 ],
									"presentation" : 1,
									"presentation_rect" : [ 575.0, 159.0, 145.228103637695312, 134.541275024414062 ],
									"proportion" : 0.39,
									"rounded" : 15
								}

							}
, 							{
								"box" : 								{
									"angle" : 0.0,
									"background" : 1,
									"bgcolor" : [ 0.901961, 0.901961, 0.901961, 1.0 ],
									"border" : 2,
									"bordercolor" : [ 0.317647, 0.654902, 0.976471, 1.0 ],
									"id" : "obj-30",
									"maxclass" : "panel",
									"mode" : 0,
									"numinlets" : 1,
									"numoutlets" : 0,
									"patching_rect" : [ 20.0, 340.0, 526.121216000000004, 137.888824 ],
									"presentation" : 1,
									"presentation_rect" : [ 90.0, 90.0, 145.228103637695312, 134.541275024414062 ],
									"proportion" : 0.39,
									"rounded" : 15
								}

							}
, 							{
								"box" : 								{
									"angle" : 0.0,
									"background" : 1,
									"bgcolor" : [ 0.901961, 0.901961, 0.901961, 1.0 ],
									"border" : 2,
									"bordercolor" : [ 0.317647, 0.654902, 0.976471, 1.0 ],
									"id" : "obj-32",
									"maxclass" : "panel",
									"mode" : 0,
									"numinlets" : 1,
									"numoutlets" : 0,
									"patching_rect" : [ 577.0, 340.0, 570.121216000000004, 137.888824 ],
									"presentation" : 1,
									"presentation_rect" : [ 577.0, 390.0, 145.228103637695312, 134.541275024414062 ],
									"proportion" : 0.39,
									"rounded" : 15
								}

							}
, 							{
								"box" : 								{
									"angle" : 0.0,
									"background" : 1,
									"bgcolor" : [ 0.901961, 0.901961, 0.901961, 1.0 ],
									"border" : 2,
									"bordercolor" : [ 0.317647, 0.654902, 0.976471, 1.0 ],
									"id" : "obj-29",
									"maxclass" : "panel",
									"mode" : 0,
									"numinlets" : 1,
									"numoutlets" : 0,
									"patching_rect" : [ 20.0, 150.0, 526.121216000000004, 172.0 ],
									"presentation" : 1,
									"presentation_rect" : [ 75.0, 75.0, 145.228103637695312, 134.541275024414062 ],
									"proportion" : 0.39,
									"rounded" : 15
								}

							}
, 							{
								"box" : 								{
									"angle" : 0.0,
									"background" : 1,
									"bgcolor" : [ 0.901961, 0.901961, 0.901961, 1.0 ],
									"border" : 2,
									"bordercolor" : [ 0.317647, 0.654902, 0.976471, 1.0 ],
									"id" : "obj-13",
									"maxclass" : "panel",
									"mode" : 0,
									"numinlets" : 1,
									"numoutlets" : 0,
									"patching_rect" : [ 20.0, 540.0, 526.121216000000004, 172.0 ],
									"presentation" : 1,
									"presentation_rect" : [ 19.0, 544.0, 145.228103637695312, 134.541275024414062 ],
									"proportion" : 0.39,
									"rounded" : 15
								}

							}
, 							{
								"box" : 								{
									"background" : 1,
									"border" : 0,
									"filename" : "spat5.helpdetails.js",
									"id" : "obj-28",
									"ignoreclick" : 1,
									"jsarguments" : [ "spat5.multi.connect" ],
									"maxclass" : "jsui",
									"numinlets" : 1,
									"numoutlets" : 1,
									"outlettype" : [ "" ],
									"parameter_enable" : 0,
									"patching_rect" : [ 10.0, 10.0, 700.0, 100.0 ],
									"varname" : "digest_jsui"
								}

							}
 ],
						"lines" : [ 							{
								"patchline" : 								{
									"destination" : [ "obj-20", 0 ],
									"source" : [ "obj-21", 0 ]
								}

							}
, 							{
								"patchline" : 								{
									"destination" : [ "obj-21", 0 ],
									"source" : [ "obj-22", 0 ]
								}

							}
, 							{
								"patchline" : 								{
									"destination" : [ "obj-16", 63 ],
									"source" : [ "obj-23", 63 ]
								}

							}
, 							{
								"patchline" : 								{
									"destination" : [ "obj-16", 62 ],
									"source" : [ "obj-23", 62 ]
								}

							}
, 							{
								"patchline" : 								{
									"destination" : [ "obj-16", 61 ],
									"source" : [ "obj-23", 61 ]
								}

							}
, 							{
								"patchline" : 								{
									"destination" : [ "obj-16", 60 ],
									"source" : [ "obj-23", 60 ]
								}

							}
, 							{
								"patchline" : 								{
									"destination" : [ "obj-16", 59 ],
									"source" : [ "obj-23", 59 ]
								}

							}
, 							{
								"patchline" : 								{
									"destination" : [ "obj-16", 58 ],
									"source" : [ "obj-23", 58 ]
								}

							}
, 							{
								"patchline" : 								{
									"destination" : [ "obj-16", 57 ],
									"source" : [ "obj-23", 57 ]
								}

							}
, 							{
								"patchline" : 								{
									"destination" : [ "obj-16", 56 ],
									"source" : [ "obj-23", 56 ]
								}

							}
, 							{
								"patchline" : 								{
									"destination" : [ "obj-16", 55 ],
									"source" : [ "obj-23", 55 ]
								}

							}
, 							{
								"patchline" : 								{
									"destination" : [ "obj-16", 54 ],
									"source" : [ "obj-23", 54 ]
								}

							}
, 							{
								"patchline" : 								{
									"destination" : [ "obj-16", 53 ],
									"source" : [ "obj-23", 53 ]
								}

							}
, 							{
								"patchline" : 								{
									"destination" : [ "obj-16", 52 ],
									"source" : [ "obj-23", 52 ]
								}

							}
, 							{
								"patchline" : 								{
									"destination" : [ "obj-16", 51 ],
									"source" : [ "obj-23", 51 ]
								}

							}
, 							{
								"patchline" : 								{
									"destination" : [ "obj-16", 50 ],
									"source" : [ "obj-23", 50 ]
								}

							}
, 							{
								"patchline" : 								{
									"destination" : [ "obj-16", 49 ],
									"source" : [ "obj-23", 49 ]
								}

							}
, 							{
								"patchline" : 								{
									"destination" : [ "obj-16", 48 ],
									"source" : [ "obj-23", 48 ]
								}

							}
, 							{
								"patchline" : 								{
									"destination" : [ "obj-16", 47 ],
									"source" : [ "obj-23", 47 ]
								}

							}
, 							{
								"patchline" : 								{
									"destination" : [ "obj-16", 46 ],
									"source" : [ "obj-23", 46 ]
								}

							}
, 							{
								"patchline" : 								{
									"destination" : [ "obj-16", 45 ],
									"source" : [ "obj-23", 45 ]
								}

							}
, 							{
								"patchline" : 								{
									"destination" : [ "obj-16", 44 ],
									"source" : [ "obj-23", 44 ]
								}

							}
, 							{
								"patchline" : 								{
									"destination" : [ "obj-16", 43 ],
									"source" : [ "obj-23", 43 ]
								}

							}
, 							{
								"patchline" : 								{
									"destination" : [ "obj-16", 42 ],
									"source" : [ "obj-23", 42 ]
								}

							}
, 							{
								"patchline" : 								{
									"destination" : [ "obj-16", 41 ],
									"source" : [ "obj-23", 41 ]
								}

							}
, 							{
								"patchline" : 								{
									"destination" : [ "obj-16", 40 ],
									"source" : [ "obj-23", 40 ]
								}

							}
, 							{
								"patchline" : 								{
									"destination" : [ "obj-16", 39 ],
									"source" : [ "obj-23", 39 ]
								}

							}
, 							{
								"patchline" : 								{
									"destination" : [ "obj-16", 38 ],
									"source" : [ "obj-23", 38 ]
								}

							}
, 							{
								"patchline" : 								{
									"destination" : [ "obj-16", 37 ],
									"source" : [ "obj-23", 37 ]
								}

							}
, 							{
								"patchline" : 								{
									"destination" : [ "obj-16", 36 ],
									"source" : [ "obj-23", 36 ]
								}

							}
, 							{
								"patchline" : 								{
									"destination" : [ "obj-16", 35 ],
									"source" : [ "obj-23", 35 ]
								}

							}
, 							{
								"patchline" : 								{
									"destination" : [ "obj-16", 34 ],
									"source" : [ "obj-23", 34 ]
								}

							}
, 							{
								"patchline" : 								{
									"destination" : [ "obj-16", 33 ],
									"source" : [ "obj-23", 33 ]
								}

							}
, 							{
								"patchline" : 								{
									"destination" : [ "obj-16", 32 ],
									"source" : [ "obj-23", 32 ]
								}

							}
, 							{
								"patchline" : 								{
									"destination" : [ "obj-16", 31 ],
									"source" : [ "obj-23", 31 ]
								}

							}
, 							{
								"patchline" : 								{
									"destination" : [ "obj-16", 30 ],
									"source" : [ "obj-23", 30 ]
								}

							}
, 							{
								"patchline" : 								{
									"destination" : [ "obj-16", 29 ],
									"source" : [ "obj-23", 29 ]
								}

							}
, 							{
								"patchline" : 								{
									"destination" : [ "obj-16", 28 ],
									"source" : [ "obj-23", 28 ]
								}

							}
, 							{
								"patchline" : 								{
									"destination" : [ "obj-16", 27 ],
									"source" : [ "obj-23", 27 ]
								}

							}
, 							{
								"patchline" : 								{
									"destination" : [ "obj-16", 26 ],
									"source" : [ "obj-23", 26 ]
								}

							}
, 							{
								"patchline" : 								{
									"destination" : [ "obj-16", 25 ],
									"source" : [ "obj-23", 25 ]
								}

							}
, 							{
								"patchline" : 								{
									"destination" : [ "obj-16", 24 ],
									"source" : [ "obj-23", 24 ]
								}

							}
, 							{
								"patchline" : 								{
									"destination" : [ "obj-16", 23 ],
									"source" : [ "obj-23", 23 ]
								}

							}
, 							{
								"patchline" : 								{
									"destination" : [ "obj-16", 22 ],
									"source" : [ "obj-23", 22 ]
								}

							}
, 							{
								"patchline" : 								{
									"destination" : [ "obj-16", 21 ],
									"source" : [ "obj-23", 21 ]
								}

							}
, 							{
								"patchline" : 								{
									"destination" : [ "obj-16", 20 ],
									"source" : [ "obj-23", 20 ]
								}

							}
, 							{
								"patchline" : 								{
									"destination" : [ "obj-16", 19 ],
									"source" : [ "obj-23", 19 ]
								}

							}
, 							{
								"patchline" : 								{
									"destination" : [ "obj-16", 18 ],
									"source" : [ "obj-23", 18 ]
								}

							}
, 							{
								"patchline" : 								{
									"destination" : [ "obj-16", 17 ],
									"source" : [ "obj-23", 17 ]
								}

							}
, 							{
								"patchline" : 								{
									"destination" : [ "obj-16", 16 ],
									"source" : [ "obj-23", 16 ]
								}

							}
, 							{
								"patchline" : 								{
									"destination" : [ "obj-16", 15 ],
									"source" : [ "obj-23", 15 ]
								}

							}
, 							{
								"patchline" : 								{
									"destination" : [ "obj-16", 14 ],
									"source" : [ "obj-23", 14 ]
								}

							}
, 							{
								"patchline" : 								{
									"destination" : [ "obj-16", 13 ],
									"source" : [ "obj-23", 13 ]
								}

							}
, 							{
								"patchline" : 								{
									"destination" : [ "obj-16", 12 ],
									"source" : [ "obj-23", 12 ]
								}

							}
, 							{
								"patchline" : 								{
									"destination" : [ "obj-16", 11 ],
									"source" : [ "obj-23", 11 ]
								}

							}
, 							{
								"patchline" : 								{
									"destination" : [ "obj-16", 10 ],
									"source" : [ "obj-23", 10 ]
								}

							}
, 							{
								"patchline" : 								{
									"destination" : [ "obj-16", 9 ],
									"source" : [ "obj-23", 9 ]
								}

							}
, 							{
								"patchline" : 								{
									"destination" : [ "obj-16", 8 ],
									"source" : [ "obj-23", 8 ]
								}

							}
, 							{
								"patchline" : 								{
									"destination" : [ "obj-16", 7 ],
									"source" : [ "obj-23", 7 ]
								}

							}
, 							{
								"patchline" : 								{
									"destination" : [ "obj-16", 6 ],
									"source" : [ "obj-23", 6 ]
								}

							}
, 							{
								"patchline" : 								{
									"destination" : [ "obj-16", 5 ],
									"source" : [ "obj-23", 5 ]
								}

							}
, 							{
								"patchline" : 								{
									"destination" : [ "obj-16", 4 ],
									"source" : [ "obj-23", 4 ]
								}

							}
, 							{
								"patchline" : 								{
									"destination" : [ "obj-16", 3 ],
									"source" : [ "obj-23", 3 ]
								}

							}
, 							{
								"patchline" : 								{
									"destination" : [ "obj-16", 2 ],
									"source" : [ "obj-23", 2 ]
								}

							}
, 							{
								"patchline" : 								{
									"destination" : [ "obj-16", 1 ],
									"source" : [ "obj-23", 1 ]
								}

							}
, 							{
								"patchline" : 								{
									"destination" : [ "obj-16", 0 ],
									"source" : [ "obj-23", 0 ]
								}

							}
, 							{
								"patchline" : 								{
									"destination" : [ "obj-23", 63 ],
									"source" : [ "obj-25", 63 ]
								}

							}
, 							{
								"patchline" : 								{
									"destination" : [ "obj-23", 62 ],
									"source" : [ "obj-25", 62 ]
								}

							}
, 							{
								"patchline" : 								{
									"destination" : [ "obj-23", 61 ],
									"source" : [ "obj-25", 61 ]
								}

							}
, 							{
								"patchline" : 								{
									"destination" : [ "obj-23", 60 ],
									"source" : [ "obj-25", 60 ]
								}

							}
, 							{
								"patchline" : 								{
									"destination" : [ "obj-23", 59 ],
									"source" : [ "obj-25", 59 ]
								}

							}
, 							{
								"patchline" : 								{
									"destination" : [ "obj-23", 58 ],
									"source" : [ "obj-25", 58 ]
								}

							}
, 							{
								"patchline" : 								{
									"destination" : [ "obj-23", 57 ],
									"source" : [ "obj-25", 57 ]
								}

							}
, 							{
								"patchline" : 								{
									"destination" : [ "obj-23", 56 ],
									"source" : [ "obj-25", 56 ]
								}

							}
, 							{
								"patchline" : 								{
									"destination" : [ "obj-23", 55 ],
									"source" : [ "obj-25", 55 ]
								}

							}
, 							{
								"patchline" : 								{
									"destination" : [ "obj-23", 54 ],
									"source" : [ "obj-25", 54 ]
								}

							}
, 							{
								"patchline" : 								{
									"destination" : [ "obj-23", 53 ],
									"source" : [ "obj-25", 53 ]
								}

							}
, 							{
								"patchline" : 								{
									"destination" : [ "obj-23", 52 ],
									"source" : [ "obj-25", 52 ]
								}

							}
, 							{
								"patchline" : 								{
									"destination" : [ "obj-23", 51 ],
									"source" : [ "obj-25", 51 ]
								}

							}
, 							{
								"patchline" : 								{
									"destination" : [ "obj-23", 50 ],
									"source" : [ "obj-25", 50 ]
								}

							}
, 							{
								"patchline" : 								{
									"destination" : [ "obj-23", 49 ],
									"source" : [ "obj-25", 49 ]
								}

							}
, 							{
								"patchline" : 								{
									"destination" : [ "obj-23", 48 ],
									"source" : [ "obj-25", 48 ]
								}

							}
, 							{
								"patchline" : 								{
									"destination" : [ "obj-23", 47 ],
									"source" : [ "obj-25", 47 ]
								}

							}
, 							{
								"patchline" : 								{
									"destination" : [ "obj-23", 46 ],
									"source" : [ "obj-25", 46 ]
								}

							}
, 							{
								"patchline" : 								{
									"destination" : [ "obj-23", 45 ],
									"source" : [ "obj-25", 45 ]
								}

							}
, 							{
								"patchline" : 								{
									"destination" : [ "obj-23", 44 ],
									"source" : [ "obj-25", 44 ]
								}

							}
, 							{
								"patchline" : 								{
									"destination" : [ "obj-23", 43 ],
									"source" : [ "obj-25", 43 ]
								}

							}
, 							{
								"patchline" : 								{
									"destination" : [ "obj-23", 42 ],
									"source" : [ "obj-25", 42 ]
								}

							}
, 							{
								"patchline" : 								{
									"destination" : [ "obj-23", 41 ],
									"source" : [ "obj-25", 41 ]
								}

							}
, 							{
								"patchline" : 								{
									"destination" : [ "obj-23", 40 ],
									"source" : [ "obj-25", 40 ]
								}

							}
, 							{
								"patchline" : 								{
									"destination" : [ "obj-23", 39 ],
									"source" : [ "obj-25", 39 ]
								}

							}
, 							{
								"patchline" : 								{
									"destination" : [ "obj-23", 38 ],
									"source" : [ "obj-25", 38 ]
								}

							}
, 							{
								"patchline" : 								{
									"destination" : [ "obj-23", 37 ],
									"source" : [ "obj-25", 37 ]
								}

							}
, 							{
								"patchline" : 								{
									"destination" : [ "obj-23", 36 ],
									"source" : [ "obj-25", 36 ]
								}

							}
, 							{
								"patchline" : 								{
									"destination" : [ "obj-23", 35 ],
									"source" : [ "obj-25", 35 ]
								}

							}
, 							{
								"patchline" : 								{
									"destination" : [ "obj-23", 34 ],
									"source" : [ "obj-25", 34 ]
								}

							}
, 							{
								"patchline" : 								{
									"destination" : [ "obj-23", 33 ],
									"source" : [ "obj-25", 33 ]
								}

							}
, 							{
								"patchline" : 								{
									"destination" : [ "obj-23", 32 ],
									"source" : [ "obj-25", 32 ]
								}

							}
, 							{
								"patchline" : 								{
									"destination" : [ "obj-23", 31 ],
									"source" : [ "obj-25", 31 ]
								}

							}
, 							{
								"patchline" : 								{
									"destination" : [ "obj-23", 30 ],
									"source" : [ "obj-25", 30 ]
								}

							}
, 							{
								"patchline" : 								{
									"destination" : [ "obj-23", 29 ],
									"source" : [ "obj-25", 29 ]
								}

							}
, 							{
								"patchline" : 								{
									"destination" : [ "obj-23", 28 ],
									"source" : [ "obj-25", 28 ]
								}

							}
, 							{
								"patchline" : 								{
									"destination" : [ "obj-23", 27 ],
									"source" : [ "obj-25", 27 ]
								}

							}
, 							{
								"patchline" : 								{
									"destination" : [ "obj-23", 26 ],
									"source" : [ "obj-25", 26 ]
								}

							}
, 							{
								"patchline" : 								{
									"destination" : [ "obj-23", 25 ],
									"source" : [ "obj-25", 25 ]
								}

							}
, 							{
								"patchline" : 								{
									"destination" : [ "obj-23", 24 ],
									"source" : [ "obj-25", 24 ]
								}

							}
, 							{
								"patchline" : 								{
									"destination" : [ "obj-23", 23 ],
									"source" : [ "obj-25", 23 ]
								}

							}
, 							{
								"patchline" : 								{
									"destination" : [ "obj-23", 22 ],
									"source" : [ "obj-25", 22 ]
								}

							}
, 							{
								"patchline" : 								{
									"destination" : [ "obj-23", 21 ],
									"source" : [ "obj-25", 21 ]
								}

							}
, 							{
								"patchline" : 								{
									"destination" : [ "obj-23", 20 ],
									"source" : [ "obj-25", 20 ]
								}

							}
, 							{
								"patchline" : 								{
									"destination" : [ "obj-23", 19 ],
									"source" : [ "obj-25", 19 ]
								}

							}
, 							{
								"patchline" : 								{
									"destination" : [ "obj-23", 18 ],
									"source" : [ "obj-25", 18 ]
								}

							}
, 							{
								"patchline" : 								{
									"destination" : [ "obj-23", 17 ],
									"source" : [ "obj-25", 17 ]
								}

							}
, 							{
								"patchline" : 								{
									"destination" : [ "obj-23", 16 ],
									"source" : [ "obj-25", 16 ]
								}

							}
, 							{
								"patchline" : 								{
									"destination" : [ "obj-23", 15 ],
									"source" : [ "obj-25", 15 ]
								}

							}
, 							{
								"patchline" : 								{
									"destination" : [ "obj-23", 14 ],
									"source" : [ "obj-25", 14 ]
								}

							}
, 							{
								"patchline" : 								{
									"destination" : [ "obj-23", 13 ],
									"source" : [ "obj-25", 13 ]
								}

							}
, 							{
								"patchline" : 								{
									"destination" : [ "obj-23", 12 ],
									"source" : [ "obj-25", 12 ]
								}

							}
, 							{
								"patchline" : 								{
									"destination" : [ "obj-23", 11 ],
									"source" : [ "obj-25", 11 ]
								}

							}
, 							{
								"patchline" : 								{
									"destination" : [ "obj-23", 10 ],
									"source" : [ "obj-25", 10 ]
								}

							}
, 							{
								"patchline" : 								{
									"destination" : [ "obj-23", 9 ],
									"source" : [ "obj-25", 9 ]
								}

							}
, 							{
								"patchline" : 								{
									"destination" : [ "obj-23", 8 ],
									"source" : [ "obj-25", 8 ]
								}

							}
, 							{
								"patchline" : 								{
									"destination" : [ "obj-23", 7 ],
									"source" : [ "obj-25", 7 ]
								}

							}
, 							{
								"patchline" : 								{
									"destination" : [ "obj-23", 6 ],
									"source" : [ "obj-25", 6 ]
								}

							}
, 							{
								"patchline" : 								{
									"destination" : [ "obj-23", 5 ],
									"source" : [ "obj-25", 5 ]
								}

							}
, 							{
								"patchline" : 								{
									"destination" : [ "obj-23", 4 ],
									"source" : [ "obj-25", 4 ]
								}

							}
, 							{
								"patchline" : 								{
									"destination" : [ "obj-23", 3 ],
									"source" : [ "obj-25", 3 ]
								}

							}
, 							{
								"patchline" : 								{
									"destination" : [ "obj-23", 2 ],
									"source" : [ "obj-25", 2 ]
								}

							}
, 							{
								"patchline" : 								{
									"destination" : [ "obj-23", 1 ],
									"source" : [ "obj-25", 1 ]
								}

							}
, 							{
								"patchline" : 								{
									"destination" : [ "obj-23", 0 ],
									"source" : [ "obj-25", 0 ]
								}

							}
, 							{
								"patchline" : 								{
									"destination" : [ "obj-1", 0 ],
									"source" : [ "obj-5", 0 ]
								}

							}
 ],
						"originid" : "pat-5720",
						"styles" : [ 							{
								"name" : "AudioStatus_Menu",
								"default" : 								{
									"bgfillcolor" : 									{
										"angle" : 270.0,
										"autogradient" : 0,
										"color" : [ 0.294118, 0.313726, 0.337255, 1 ],
										"color1" : [ 0.454902, 0.462745, 0.482353, 0.0 ],
										"color2" : [ 0.290196, 0.309804, 0.301961, 1.0 ],
										"proportion" : 0.39,
										"type" : "color"
									}

								}
,
								"parentstyle" : "",
								"multi" : 0
							}
, 							{
								"name" : "Audiomix",
								"default" : 								{
									"bgfillcolor" : 									{
										"angle" : 270.0,
										"color" : [ 0.290196, 0.309804, 0.301961, 1.0 ],
										"color1" : [ 0.376471, 0.384314, 0.4, 1.0 ],
										"color2" : [ 0.290196, 0.309804, 0.301961, 1.0 ],
										"proportion" : 0.39,
										"type" : "gradient"
									}

								}
,
								"parentstyle" : "",
								"multi" : 0
							}
, 							{
								"name" : "Default 11Bold Poletti",
								"default" : 								{
									"fontsize" : [ 11.0 ]
								}
,
								"parentstyle" : "",
								"multi" : 0
							}
, 							{
								"name" : "Default M4L",
								"default" : 								{
									"fontname" : [ "Arial Bold" ],
									"fontsize" : [ 11.0 ],
									"patchlinecolor" : [ 0.290196, 0.309804, 0.301961, 0.85 ]
								}
,
								"parentstyle" : "",
								"multi" : 0
							}
, 							{
								"name" : "Default M4L Poletti",
								"default" : 								{
									"fontname" : [ "Arial Bold" ],
									"fontsize" : [ 10.0 ],
									"patchlinecolor" : [ 0.290196, 0.309804, 0.301961, 0.85 ]
								}
,
								"parentstyle" : "",
								"multi" : 0
							}
, 							{
								"name" : "Default M4L-1",
								"default" : 								{
									"bgfillcolor" : 									{
										"angle" : 270.0,
										"color" : [ 0.290196, 0.309804, 0.301961, 1.0 ],
										"color1" : [ 0.376471, 0.384314, 0.4, 1.0 ],
										"color2" : [ 0.290196, 0.309804, 0.301961, 1.0 ],
										"proportion" : 0.39,
										"type" : "gradient"
									}
,
									"fontface" : [ 1 ],
									"fontname" : [ "Arial" ],
									"fontsize" : [ 11.0 ]
								}
,
								"parentstyle" : "",
								"multi" : 0
							}
, 							{
								"name" : "Default Max7 Poletti",
								"default" : 								{
									"bgfillcolor" : 									{
										"angle" : 270.0,
										"color" : [ 0.290196, 0.309804, 0.301961, 1.0 ],
										"color1" : [ 0.376471, 0.384314, 0.4, 1.0 ],
										"color2" : [ 0.290196, 0.309804, 0.301961, 1.0 ],
										"proportion" : 0.39,
										"type" : "gradient"
									}

								}
,
								"parentstyle" : "",
								"multi" : 0
							}
, 							{
								"name" : "Max 12 Regular",
								"parentstyle" : "",
								"multi" : 0
							}
, 							{
								"name" : "jbb",
								"default" : 								{
									"bgfillcolor" : 									{
										"angle" : 270.0,
										"color" : [ 0.290196, 0.309804, 0.301961, 1.0 ],
										"color1" : [ 0.376471, 0.384314, 0.4, 1.0 ],
										"color2" : [ 0.290196, 0.309804, 0.301961, 1.0 ],
										"proportion" : 0.39,
										"type" : "gradient"
									}
,
									"fontname" : [ "Arial" ],
									"fontsize" : [ 9.0 ]
								}
,
								"parentstyle" : "",
								"multi" : 0
							}
, 							{
								"name" : "ksliderWhite",
								"default" : 								{
									"color" : [ 1.0, 1.0, 1.0, 1.0 ]
								}
,
								"parentstyle" : "",
								"multi" : 0
							}
, 							{
								"name" : "newobjBlue-1",
								"default" : 								{
									"accentcolor" : [ 0.317647, 0.654902, 0.976471, 1.0 ]
								}
,
								"parentstyle" : "",
								"multi" : 0
							}
, 							{
								"name" : "newobjGreen-1",
								"default" : 								{
									"accentcolor" : [ 0.0, 0.533333, 0.168627, 1.0 ]
								}
,
								"parentstyle" : "",
								"multi" : 0
							}
, 							{
								"name" : "numberGold-1",
								"default" : 								{
									"accentcolor" : [ 0.764706, 0.592157, 0.101961, 1.0 ]
								}
,
								"parentstyle" : "",
								"multi" : 0
							}
 ],
						"bgcolor" : [ 0.279471418544607, 0.279471350143365, 0.279471368104493, 1.0 ],
						"editing_bgcolor" : [ 0.279471418544607, 0.279471350143365, 0.279471368104493, 1.0 ],
						"saved_attribute_attributes" : 						{
							"accentcolor" : 							{
								"expression" : "themecolor.theme_accentcolor"
							}
,
							"bubble_bgcolor" : 							{
								"expression" : "themecolor.theme_bubble_bgcolor"
							}
,
							"bubble_outlinecolor" : 							{
								"expression" : "themecolor.theme_bubble_outlinecolor"
							}
,
							"clearcolor" : 							{
								"expression" : "themecolor.theme_clearcolor"
							}
,
							"color" : 							{
								"expression" : "themecolor.theme_color"
							}
,
							"editing_bgcolor" : 							{
								"expression" : "themecolor.live_surface_bg"
							}
,
							"elementcolor" : 							{
								"expression" : "themecolor.theme_elementcolor"
							}
,
							"locked_bgcolor" : 							{
								"expression" : "themecolor.live_surface_bg"
							}
,
							"patchlinecolor" : 							{
								"expression" : "themecolor.theme_patchlinecolor"
							}
,
							"selectioncolor" : 							{
								"expression" : "themecolor.theme_selectioncolor"
							}
,
							"stripecolor" : 							{
								"expression" : "themecolor.theme_stripecolor"
							}
,
							"textcolor" : 							{
								"expression" : "themecolor.live_control_fg"
							}

						}

					}
,
					"patching_rect" : [ 10.0, 10.0, 45.0, 21.0 ],
					"saved_attribute_attributes" : 					{
						"accentcolor" : 						{
							"expression" : "themecolor.theme_accentcolor"
						}
,
						"bubble_bgcolor" : 						{
							"expression" : "themecolor.theme_bubble_bgcolor"
						}
,
						"bubble_outlinecolor" : 						{
							"expression" : "themecolor.theme_bubble_outlinecolor"
						}
,
						"clearcolor" : 						{
							"expression" : "themecolor.theme_clearcolor"
						}
,
						"color" : 						{
							"expression" : "themecolor.theme_color"
						}
,
						"editing_bgcolor" : 						{
							"expression" : "themecolor.live_surface_bg"
						}
,
						"elementcolor" : 						{
							"expression" : "themecolor.theme_elementcolor"
						}
,
						"locked_bgcolor" : 						{
							"expression" : "themecolor.live_surface_bg"
						}
,
						"patchlinecolor" : 						{
							"expression" : "themecolor.theme_patchlinecolor"
						}
,
						"selectioncolor" : 						{
							"expression" : "themecolor.theme_selectioncolor"
						}
,
						"stripecolor" : 						{
							"expression" : "themecolor.theme_stripecolor"
						}
,
						"textcolor" : 						{
							"expression" : "themecolor.live_control_fg"
						}

					}
,
					"saved_object_attributes" : 					{
						"editing_bgcolor" : [ 0.279471418544607, 0.279471350143365, 0.279471368104493, 1.0 ],
						"fontsize" : 11.0,
						"globalpatchername" : "",
						"locked_bgcolor" : [ 0.279471418544607, 0.279471350143365, 0.279471368104493, 1.0 ]
					}
,
					"text" : "p basic",
					"varname" : "basic_tab"
				}

			}
 ],
		"lines" : [  ],
		"originid" : "pat-5716",
		"parameters" : 		{
			"obj-2::obj-24::obj-11" : [ "live.text[260]", "live.text", 0 ],
			"obj-2::obj-72::obj-11" : [ "live.text[1]", "live.text", 0 ],
			"parameterbanks" : 			{

			}
,
			"parameter_overrides" : 			{
				"obj-2::obj-72::obj-11" : 				{
					"parameter_longname" : "live.text[1]"
				}

			}
,
			"inherited_shortname" : 1
		}
,
		"dependency_cache" : [ 			{
				"name" : "ircam-cnrs-spat-alpha.png",
				"bootpath" : "~/gitlab/spat/Spat5MaxMsp/media/images",
				"patcherrelativepath" : "../media/images",
				"type" : "PNG",
				"implicit" : 1
			}
, 			{
				"name" : "spat5.copyright.maxpat",
				"bootpath" : "~/gitlab/spat/Spat5MaxMsp/patchers",
				"patcherrelativepath" : "../patchers",
				"type" : "JSON",
				"implicit" : 1
			}
, 			{
				"name" : "spat5.delay~.mxo",
				"type" : "iLaX"
			}
, 			{
				"name" : "spat5.diagmatrix~.mxo",
				"type" : "iLaX"
			}
, 			{
				"name" : "spat5.digest.js",
				"bootpath" : "~/gitlab/spat/Spat5MaxMsp/javascript",
				"patcherrelativepath" : "../javascript",
				"type" : "TEXT",
				"implicit" : 1
			}
, 			{
				"name" : "spat5.helpdetails.js",
				"bootpath" : "~/gitlab/spat/Spat5MaxMsp/javascript",
				"patcherrelativepath" : "../javascript",
				"type" : "TEXT",
				"implicit" : 1
			}
, 			{
				"name" : "spat5.multi-connect.js",
				"bootpath" : "~/gitlab/spat/Spat5MaxMsp/javascript",
				"patcherrelativepath" : "../javascript",
				"type" : "TEXT",
				"implicit" : 1
			}
, 			{
				"name" : "spat5.multi.connect.maxpat",
				"bootpath" : "~/gitlab/spat/Spat5MaxMsp/patchers",
				"patcherrelativepath" : "../patchers",
				"type" : "JSON",
				"implicit" : 1
			}
, 			{
				"name" : "spat5.openpatcher.maxpat",
				"bootpath" : "~/gitlab/spat/Spat5MaxMsp/patchers",
				"patcherrelativepath" : "../patchers",
				"type" : "JSON",
				"implicit" : 1
			}
, 			{
				"name" : "spat5.style.js",
				"bootpath" : "~/gitlab/spat/Spat5MaxMsp/javascript",
				"patcherrelativepath" : "../javascript",
				"type" : "TEXT",
				"implicit" : 1
			}
 ],
		"autosave" : 0,
		"styles" : [ 			{
				"name" : "AudioStatus_Menu",
				"default" : 				{
					"bgfillcolor" : 					{
						"angle" : 270.0,
						"autogradient" : 0,
						"color" : [ 0.294118, 0.313726, 0.337255, 1 ],
						"color1" : [ 0.454902, 0.462745, 0.482353, 0.0 ],
						"color2" : [ 0.290196, 0.309804, 0.301961, 1.0 ],
						"proportion" : 0.39,
						"type" : "color"
					}

				}
,
				"parentstyle" : "",
				"multi" : 0
			}
, 			{
				"name" : "Default 11Bold Poletti",
				"default" : 				{
					"fontsize" : [ 11.0 ]
				}
,
				"parentstyle" : "",
				"multi" : 0
			}
, 			{
				"name" : "Default M4L",
				"default" : 				{
					"fontname" : [ "Arial Bold" ],
					"fontsize" : [ 11.0 ],
					"patchlinecolor" : [ 0.290196, 0.309804, 0.301961, 0.85 ]
				}
,
				"parentstyle" : "",
				"multi" : 0
			}
, 			{
				"name" : "Default M4L Poletti",
				"default" : 				{
					"fontname" : [ "Arial Bold" ],
					"fontsize" : [ 10.0 ],
					"patchlinecolor" : [ 0.290196, 0.309804, 0.301961, 0.85 ]
				}
,
				"parentstyle" : "",
				"multi" : 0
			}
, 			{
				"name" : "Default M4L-1",
				"default" : 				{
					"bgfillcolor" : 					{
						"angle" : 270.0,
						"color" : [ 0.290196, 0.309804, 0.301961, 1.0 ],
						"color1" : [ 0.376471, 0.384314, 0.4, 1.0 ],
						"color2" : [ 0.290196, 0.309804, 0.301961, 1.0 ],
						"proportion" : 0.39,
						"type" : "gradient"
					}
,
					"fontface" : [ 1 ],
					"fontname" : [ "Arial" ],
					"fontsize" : [ 11.0 ]
				}
,
				"parentstyle" : "",
				"multi" : 0
			}
, 			{
				"name" : "Default Max7 Poletti",
				"default" : 				{
					"bgfillcolor" : 					{
						"angle" : 270.0,
						"color" : [ 0.290196, 0.309804, 0.301961, 1.0 ],
						"color1" : [ 0.376471, 0.384314, 0.4, 1.0 ],
						"color2" : [ 0.290196, 0.309804, 0.301961, 1.0 ],
						"proportion" : 0.39,
						"type" : "gradient"
					}

				}
,
				"parentstyle" : "",
				"multi" : 0
			}
, 			{
				"name" : "jbb",
				"default" : 				{
					"bgfillcolor" : 					{
						"angle" : 270.0,
						"color" : [ 0.290196, 0.309804, 0.301961, 1.0 ],
						"color1" : [ 0.376471, 0.384314, 0.4, 1.0 ],
						"color2" : [ 0.290196, 0.309804, 0.301961, 1.0 ],
						"proportion" : 0.39,
						"type" : "gradient"
					}
,
					"fontname" : [ "Arial" ],
					"fontsize" : [ 9.0 ]
				}
,
				"parentstyle" : "",
				"multi" : 0
			}
, 			{
				"name" : "ksliderWhite",
				"default" : 				{
					"color" : [ 1.0, 1.0, 1.0, 1.0 ]
				}
,
				"parentstyle" : "",
				"multi" : 0
			}
, 			{
				"name" : "newobjBlue-1",
				"default" : 				{
					"accentcolor" : [ 0.317647, 0.654902, 0.976471, 1.0 ]
				}
,
				"parentstyle" : "",
				"multi" : 0
			}
, 			{
				"name" : "newobjGreen-1",
				"default" : 				{
					"accentcolor" : [ 0.0, 0.533333, 0.168627, 1.0 ]
				}
,
				"parentstyle" : "",
				"multi" : 0
			}
, 			{
				"name" : "numberGold-1",
				"default" : 				{
					"accentcolor" : [ 0.764706, 0.592157, 0.101961, 1.0 ]
				}
,
				"parentstyle" : "",
				"multi" : 0
			}
 ],
		"bgcolor" : [ 0.279471418544607, 0.279471350143365, 0.279471368104493, 1.0 ],
		"editing_bgcolor" : [ 0.279471418544607, 0.279471350143365, 0.279471368104493, 1.0 ],
		"saved_attribute_attributes" : 		{
			"accentcolor" : 			{
				"expression" : "themecolor.theme_accentcolor"
			}
,
			"bubble_bgcolor" : 			{
				"expression" : "themecolor.theme_bubble_bgcolor"
			}
,
			"bubble_outlinecolor" : 			{
				"expression" : "themecolor.theme_bubble_outlinecolor"
			}
,
			"clearcolor" : 			{
				"expression" : "themecolor.theme_clearcolor"
			}
,
			"color" : 			{
				"expression" : "themecolor.theme_color"
			}
,
			"editing_bgcolor" : 			{
				"expression" : "themecolor.live_surface_bg"
			}
,
			"elementcolor" : 			{
				"expression" : "themecolor.theme_elementcolor"
			}
,
			"locked_bgcolor" : 			{
				"expression" : "themecolor.live_surface_bg"
			}
,
			"patchlinecolor" : 			{
				"expression" : "themecolor.theme_patchlinecolor"
			}
,
			"selectioncolor" : 			{
				"expression" : "themecolor.theme_selectioncolor"
			}
,
			"stripecolor" : 			{
				"expression" : "themecolor.theme_stripecolor"
			}
,
			"textcolor" : 			{
				"expression" : "themecolor.live_control_fg"
			}

		}

	}

}
