{
	"patcher" : 	{
		"fileversion" : 1,
		"appversion" : 		{
			"major" : 9,
			"minor" : 0,
			"revision" : 0,
			"architecture" : "x64",
			"modernui" : 1
		}
,
		"classnamespace" : "box",
		"rect" : [ 100.0, 100.0, 705.0, 712.0 ],
		"gridonopen" : 2,
		"gridsize" : [ 10.0, 10.0 ],
		"gridsnaponopen" : 2,
		"toolbarvisible" : 0,
		"toolbars_unpinned_last_save" : 15,
		"showrootpatcherontab" : 0,
		"showontab" : 0,
		"helpsidebarclosed" : 1,
		"boxes" : [ 			{
				"box" : 				{
					"id" : "obj-4",
					"maxclass" : "newobj",
					"numinlets" : 0,
					"numoutlets" : 0,
					"patcher" : 					{
						"fileversion" : 1,
						"appversion" : 						{
							"major" : 9,
							"minor" : 0,
							"revision" : 0,
							"architecture" : "x64",
							"modernui" : 1
						}
,
						"classnamespace" : "box",
						"rect" : [ 0.0, 26.0, 705.0, 686.0 ],
						"gridonopen" : 2,
						"gridsize" : [ 10.0, 10.0 ],
						"gridsnaponopen" : 2,
						"toolbarvisible" : 0,
						"showontab" : 1,
						"boxes" : [ 							{
								"box" : 								{
									"bgcolor" : [ 1.0, 1.0, 1.0, 0.0 ],
									"bgmode" : 0,
									"border" : 0,
									"clickthrough" : 0,
									"enablehscroll" : 0,
									"enablevscroll" : 0,
									"id" : "obj-22",
									"lockeddragscroll" : 0,
									"lockedsize" : 0,
									"maxclass" : "bpatcher",
									"name" : "spat5.copyright.maxpat",
									"numinlets" : 0,
									"numoutlets" : 0,
									"offset" : [ 0.0, 0.0 ],
									"patching_rect" : [ 460.0, 10.0, 239.0, 70.0 ],
									"viewvisibility" : 1
								}

							}
, 							{
								"box" : 								{
									"bubble" : 1,
									"bubbleside" : 0,
									"id" : "obj-19",
									"maxclass" : "comment",
									"numinlets" : 1,
									"numoutlets" : 0,
									"patching_rect" : [ 440.0, 640.0, 139.0, 38.0 ],
									"saved_attribute_attributes" : 									{
										"bubble_bgcolor" : 										{
											"expression" : "themecolor.theme_bubble_bgcolor"
										}
,
										"bubble_outlinecolor" : 										{
											"expression" : "themecolor.theme_bubble_outlinecolor"
										}
,
										"textcolor" : 										{
											"expression" : "themecolor.live_control_fg"
										}

									}
,
									"text" : "first biquad of the cascade"
								}

							}
, 							{
								"box" : 								{
									"id" : "obj-18",
									"maxclass" : "newobj",
									"numinlets" : 1,
									"numoutlets" : 1,
									"outlettype" : [ "bang" ],
									"patching_rect" : [ 545.0, 457.0, 54.0, 21.0 ],
									"text" : "loadbang"
								}

							}
, 							{
								"box" : 								{
									"fontname" : "Arial",
									"fontsize" : 11.0,
									"id" : "obj-17",
									"maxclass" : "newobj",
									"numinlets" : 1,
									"numoutlets" : 2,
									"outlettype" : [ "", "" ],
									"patching_rect" : [ 387.0, 480.0, 145.0, 21.0 ],
									"text" : "spat5.osc.route /1/cascades"
								}

							}
, 							{
								"box" : 								{
									"fontname" : "Arial",
									"fontsize" : 11.0,
									"id" : "obj-13",
									"maxclass" : "message",
									"numinlets" : 2,
									"numoutlets" : 1,
									"outlettype" : [ "" ],
									"patching_rect" : [ 545.0, 480.0, 52.0, 21.0 ],
									"text" : "nfilters 1"
								}

							}
, 							{
								"box" : 								{
									"fontface" : 0,
									"id" : "obj-11",
									"linmarkers" : [ 0.0, 11025.0, 16537.5 ],
									"logmarkers" : [ 0.0, 100.0, 1000.0, 10000.0 ],
									"maxclass" : "filtergraph~",
									"nfilters" : 1,
									"numinlets" : 8,
									"numoutlets" : 7,
									"outlettype" : [ "list", "float", "float", "float", "float", "list", "int" ],
									"parameter_enable" : 0,
									"patching_rect" : [ 387.0, 520.0, 256.0, 128.0 ],
									"setfilter" : [ 0, 0, 1, 0, 0, 85.632789611816406, 0.154985994100571, 1.705531001091003, 0.0, 0.0, 0.0, 0.0, 0.0, 0.0 ]
								}

							}
, 							{
								"box" : 								{
									"bubble" : 1,
									"id" : "obj-3",
									"linecount" : 2,
									"maxclass" : "comment",
									"numinlets" : 1,
									"numoutlets" : 0,
									"patching_rect" : [ 412.0, 380.0, 167.0, 35.0 ],
									"presentation_linecount" : 2,
									"saved_attribute_attributes" : 									{
										"bubble_bgcolor" : 										{
											"expression" : "themecolor.theme_bubble_bgcolor"
										}
,
										"bubble_outlinecolor" : 										{
											"expression" : "themecolor.theme_bubble_outlinecolor"
										}
,
										"textcolor" : 										{
											"expression" : "themecolor.live_control_fg"
										}

									}
,
									"text" : "coefficients of the 3 biquads that form the cascade"
								}

							}
, 							{
								"box" : 								{
									"bubble" : 1,
									"id" : "obj-12",
									"maxclass" : "comment",
									"numinlets" : 1,
									"numoutlets" : 0,
									"patching_rect" : [ 342.0, 270.0, 183.0, 23.0 ],
									"saved_attribute_attributes" : 									{
										"bubble_bgcolor" : 										{
											"expression" : "themecolor.theme_bubble_bgcolor"
										}
,
										"bubble_outlinecolor" : 										{
											"expression" : "themecolor.theme_bubble_outlinecolor"
										}
,
										"textcolor" : 										{
											"expression" : "themecolor.live_control_fg"
										}

									}
,
									"text" : "each cascade has 5 coefficients"
								}

							}
, 							{
								"box" : 								{
									"id" : "obj-9",
									"maxclass" : "spat5.osc.view",
									"numinlets" : 1,
									"numoutlets" : 3,
									"outlettype" : [ "", "int", "" ],
									"parameter_enable" : 0,
									"patching_rect" : [ 160.0, 354.0, 250.0, 71.0 ]
								}

							}
, 							{
								"box" : 								{
									"id" : "obj-1",
									"maxclass" : "spat5.osc.view",
									"numinlets" : 1,
									"numoutlets" : 3,
									"outlettype" : [ "", "int", "" ],
									"parameter_enable" : 0,
									"patching_rect" : [ 160.0, 310.0, 350.0, 30.0 ]
								}

							}
, 							{
								"box" : 								{
									"id" : "obj-8",
									"maxclass" : "newobj",
									"numinlets" : 1,
									"numoutlets" : 1,
									"outlettype" : [ "bang" ],
									"patching_rect" : [ 290.0, 90.0, 29.0, 21.0 ],
									"text" : "thru"
								}

							}
, 							{
								"box" : 								{
									"id" : "obj-6",
									"maxclass" : "newobj",
									"numinlets" : 1,
									"numoutlets" : 3,
									"outlettype" : [ "bang", "bang", "bang" ],
									"patching_rect" : [ 10.0, 40.0, 429.0, 21.0 ],
									"text" : "t b b b"
								}

							}
, 							{
								"box" : 								{
									"id" : "obj-5",
									"maxclass" : "newobj",
									"numinlets" : 1,
									"numoutlets" : 1,
									"outlettype" : [ "bang" ],
									"patching_rect" : [ 420.0, 90.0, 29.0, 21.0 ],
									"text" : "thru"
								}

							}
, 							{
								"box" : 								{
									"id" : "obj-10",
									"linecount" : 3,
									"maxclass" : "message",
									"numinlets" : 2,
									"numoutlets" : 1,
									"outlettype" : [ "" ],
									"patching_rect" : [ 420.0, 140.0, 190.0, 45.0 ],
									"presentation_linecount" : 3,
									"text" : "/curve/number 3, /curve/*/fill 0, /curve/1/color 1 0 0 1, /curve/2/color 0 1 0 1, /curve/3/color 0 0 1 1"
								}

							}
, 							{
								"box" : 								{
									"fontname" : "Arial",
									"fontsize" : 11.0,
									"id" : "obj-21",
									"maxclass" : "newobj",
									"numinlets" : 1,
									"numoutlets" : 2,
									"outlettype" : [ "", "" ],
									"patching_rect" : [ 10.0, 430.0, 134.0, 21.0 ],
									"text" : "spat5.osc.prepend /curve"
								}

							}
, 							{
								"box" : 								{
									"embed" : 0,
									"id" : "obj-7",
									"maxclass" : "spat5.frequencyresponse.embedded",
									"numinlets" : 1,
									"numoutlets" : 2,
									"outlettype" : [ "", "" ],
									"parameter_enable" : 0,
									"patching_rect" : [ 10.0, 480.0, 340.0, 168.0 ],
									"varname" : "spat5.frequencyresponse.embedded"
								}

							}
, 							{
								"box" : 								{
									"id" : "obj-4",
									"maxclass" : "message",
									"numinlets" : 2,
									"numoutlets" : 1,
									"outlettype" : [ "" ],
									"patching_rect" : [ 290.0, 270.0, 50.0, 21.0 ],
									"text" : "/stride 5"
								}

							}
, 							{
								"box" : 								{
									"fontname" : "Arial",
									"fontsize" : 11.0,
									"id" : "obj-20",
									"maxclass" : "newobj",
									"numinlets" : 1,
									"numoutlets" : 1,
									"outlettype" : [ "" ],
									"patching_rect" : [ 10.0, 240.0, 103.0, 21.0 ],
									"text" : "prepend /cascades"
								}

							}
, 							{
								"box" : 								{
									"fontname" : "Arial",
									"fontsize" : 11.0,
									"id" : "obj-14",
									"maxclass" : "newobj",
									"numinlets" : 1,
									"numoutlets" : 1,
									"outlettype" : [ "bang" ],
									"patching_rect" : [ 10.0, 10.0, 56.0, 21.0 ],
									"text" : "loadbang"
								}

							}
, 							{
								"box" : 								{
									"fontface" : 0,
									"id" : "obj-15",
									"linmarkers" : [ 0.0, 11025.0, 16537.5 ],
									"logmarkers" : [ 0.0, 100.0, 1000.0, 10000.0 ],
									"maxclass" : "filtergraph~",
									"nfilters" : 3,
									"numinlets" : 8,
									"numoutlets" : 7,
									"outlettype" : [ "list", "float", "float", "float", "float", "list", "int" ],
									"parameter_enable" : 0,
									"patching_rect" : [ 10.0, 100.0, 256.0, 128.0 ],
									"setfilter" : [ 2, 5, 1, 0, 0, 2506.014404296875, 8.009482383728027, 1.668835997581482, 0.0, 0.0, 0.0, 0.0, 0.0, 0.0, 1, 5, 1, 0, 0, 492.447265625, 2.601093053817749, 2.5, 0.0, 0.0, 0.0, 0.0, 0.0, 0.0, 0, 5, 1, 0, 0, 100.809104919433594, 0.161905005574226, 1.705531001091003, 0.0, 0.0, 0.0, 0.0, 0.0, 0.0 ]
								}

							}
, 							{
								"box" : 								{
									"fontname" : "Arial",
									"fontsize" : 11.0,
									"id" : "obj-16",
									"maxclass" : "message",
									"numinlets" : 2,
									"numoutlets" : 1,
									"outlettype" : [ "" ],
									"patching_rect" : [ 10.0, 70.0, 52.0, 21.0 ],
									"text" : "nfilters 3"
								}

							}
, 							{
								"box" : 								{
									"fontname" : "Arial",
									"fontsize" : 11.0,
									"id" : "obj-2",
									"maxclass" : "newobj",
									"numinlets" : 1,
									"numoutlets" : 2,
									"outlettype" : [ "", "" ],
									"patching_rect" : [ 10.0, 310.0, 80.0, 21.0 ],
									"text" : "spat5.osc.split"
								}

							}
 ],
						"lines" : [ 							{
								"patchline" : 								{
									"destination" : [ "obj-7", 0 ],
									"midpoints" : [ 429.5, 464.0, 19.5, 464.0 ],
									"source" : [ "obj-10", 0 ]
								}

							}
, 							{
								"patchline" : 								{
									"destination" : [ "obj-11", 0 ],
									"midpoints" : [ 554.5, 510.0, 396.5, 510.0 ],
									"source" : [ "obj-13", 0 ]
								}

							}
, 							{
								"patchline" : 								{
									"destination" : [ "obj-6", 0 ],
									"source" : [ "obj-14", 0 ]
								}

							}
, 							{
								"patchline" : 								{
									"destination" : [ "obj-20", 0 ],
									"source" : [ "obj-15", 0 ]
								}

							}
, 							{
								"patchline" : 								{
									"destination" : [ "obj-15", 0 ],
									"source" : [ "obj-16", 0 ]
								}

							}
, 							{
								"patchline" : 								{
									"destination" : [ "obj-11", 0 ],
									"source" : [ "obj-17", 0 ]
								}

							}
, 							{
								"patchline" : 								{
									"destination" : [ "obj-13", 0 ],
									"source" : [ "obj-18", 0 ]
								}

							}
, 							{
								"patchline" : 								{
									"destination" : [ "obj-17", 0 ],
									"order" : 0,
									"source" : [ "obj-2", 0 ]
								}

							}
, 							{
								"patchline" : 								{
									"destination" : [ "obj-21", 0 ],
									"order" : 2,
									"source" : [ "obj-2", 0 ]
								}

							}
, 							{
								"patchline" : 								{
									"destination" : [ "obj-9", 0 ],
									"midpoints" : [ 19.5, 342.0, 169.5, 342.0 ],
									"order" : 1,
									"source" : [ "obj-2", 0 ]
								}

							}
, 							{
								"patchline" : 								{
									"destination" : [ "obj-1", 0 ],
									"order" : 0,
									"source" : [ "obj-20", 0 ]
								}

							}
, 							{
								"patchline" : 								{
									"destination" : [ "obj-2", 0 ],
									"order" : 1,
									"source" : [ "obj-20", 0 ]
								}

							}
, 							{
								"patchline" : 								{
									"destination" : [ "obj-7", 0 ],
									"source" : [ "obj-21", 0 ]
								}

							}
, 							{
								"patchline" : 								{
									"destination" : [ "obj-2", 0 ],
									"midpoints" : [ 299.5, 300.0, 19.5, 300.0 ],
									"source" : [ "obj-4", 0 ]
								}

							}
, 							{
								"patchline" : 								{
									"destination" : [ "obj-10", 0 ],
									"source" : [ "obj-5", 0 ]
								}

							}
, 							{
								"patchline" : 								{
									"destination" : [ "obj-16", 0 ],
									"source" : [ "obj-6", 0 ]
								}

							}
, 							{
								"patchline" : 								{
									"destination" : [ "obj-5", 0 ],
									"source" : [ "obj-6", 2 ]
								}

							}
, 							{
								"patchline" : 								{
									"destination" : [ "obj-8", 0 ],
									"source" : [ "obj-6", 1 ]
								}

							}
, 							{
								"patchline" : 								{
									"destination" : [ "obj-4", 0 ],
									"source" : [ "obj-8", 0 ]
								}

							}
 ],
						"originid" : "pat-27468",
						"bgcolor" : [ 0.279471418544607, 0.279471350143365, 0.279471368104493, 1.0 ],
						"editing_bgcolor" : [ 0.279471418544607, 0.279471350143365, 0.279471368104493, 1.0 ],
						"saved_attribute_attributes" : 						{
							"accentcolor" : 							{
								"expression" : "themecolor.theme_accentcolor"
							}
,
							"bubble_bgcolor" : 							{
								"expression" : "themecolor.theme_bubble_bgcolor"
							}
,
							"bubble_outlinecolor" : 							{
								"expression" : "themecolor.theme_bubble_outlinecolor"
							}
,
							"clearcolor" : 							{
								"expression" : "themecolor.theme_clearcolor"
							}
,
							"color" : 							{
								"expression" : "themecolor.theme_color"
							}
,
							"editing_bgcolor" : 							{
								"expression" : "themecolor.live_surface_bg"
							}
,
							"elementcolor" : 							{
								"expression" : "themecolor.theme_elementcolor"
							}
,
							"locked_bgcolor" : 							{
								"expression" : "themecolor.live_surface_bg"
							}
,
							"patchlinecolor" : 							{
								"expression" : "themecolor.theme_patchlinecolor"
							}
,
							"selectioncolor" : 							{
								"expression" : "themecolor.theme_selectioncolor"
							}
,
							"stripecolor" : 							{
								"expression" : "themecolor.theme_stripecolor"
							}
,
							"textcolor" : 							{
								"expression" : "themecolor.live_control_fg"
							}

						}

					}
,
					"patching_rect" : [ 70.0, 110.0, 78.0, 21.0 ],
					"saved_attribute_attributes" : 					{
						"accentcolor" : 						{
							"expression" : "themecolor.theme_accentcolor"
						}
,
						"bubble_bgcolor" : 						{
							"expression" : "themecolor.theme_bubble_bgcolor"
						}
,
						"bubble_outlinecolor" : 						{
							"expression" : "themecolor.theme_bubble_outlinecolor"
						}
,
						"clearcolor" : 						{
							"expression" : "themecolor.theme_clearcolor"
						}
,
						"color" : 						{
							"expression" : "themecolor.theme_color"
						}
,
						"editing_bgcolor" : 						{
							"expression" : "themecolor.live_surface_bg"
						}
,
						"elementcolor" : 						{
							"expression" : "themecolor.theme_elementcolor"
						}
,
						"locked_bgcolor" : 						{
							"expression" : "themecolor.live_surface_bg"
						}
,
						"patchlinecolor" : 						{
							"expression" : "themecolor.theme_patchlinecolor"
						}
,
						"selectioncolor" : 						{
							"expression" : "themecolor.theme_selectioncolor"
						}
,
						"stripecolor" : 						{
							"expression" : "themecolor.theme_stripecolor"
						}
,
						"textcolor" : 						{
							"expression" : "themecolor.live_control_fg"
						}

					}
,
					"saved_object_attributes" : 					{
						"editing_bgcolor" : [ 0.279471418544607, 0.279471350143365, 0.279471368104493, 1.0 ],
						"fontsize" : 11.0,
						"globalpatchername" : "",
						"locked_bgcolor" : [ 0.279471418544607, 0.279471350143365, 0.279471368104493, 1.0 ]
					}
,
					"text" : "p \"example 2\"",
					"varname" : "basic_tab[2]"
				}

			}
, 			{
				"box" : 				{
					"id" : "obj-3",
					"maxclass" : "newobj",
					"numinlets" : 0,
					"numoutlets" : 0,
					"patcher" : 					{
						"fileversion" : 1,
						"appversion" : 						{
							"major" : 9,
							"minor" : 0,
							"revision" : 0,
							"architecture" : "x64",
							"modernui" : 1
						}
,
						"classnamespace" : "box",
						"rect" : [ 0.0, 26.0, 705.0, 686.0 ],
						"gridonopen" : 2,
						"gridsize" : [ 10.0, 10.0 ],
						"gridsnaponopen" : 2,
						"toolbarvisible" : 0,
						"showontab" : 1,
						"boxes" : [ 							{
								"box" : 								{
									"bgcolor" : [ 1.0, 1.0, 1.0, 0.0 ],
									"bgmode" : 0,
									"border" : 0,
									"clickthrough" : 0,
									"enablehscroll" : 0,
									"enablevscroll" : 0,
									"id" : "obj-10",
									"lockeddragscroll" : 0,
									"lockedsize" : 0,
									"maxclass" : "bpatcher",
									"name" : "spat5.copyright.maxpat",
									"numinlets" : 0,
									"numoutlets" : 0,
									"offset" : [ 0.0, 0.0 ],
									"patching_rect" : [ 462.5, 10.0, 239.0, 70.0 ],
									"viewvisibility" : 1
								}

							}
, 							{
								"box" : 								{
									"id" : "obj-8",
									"maxclass" : "spat5.osc.view",
									"numinlets" : 1,
									"numoutlets" : 3,
									"outlettype" : [ "", "int", "" ],
									"parameter_enable" : 0,
									"patching_rect" : [ 120.0, 260.0, 470.0, 40.0 ]
								}

							}
, 							{
								"box" : 								{
									"id" : "obj-6",
									"maxclass" : "spat5.osc.view",
									"numinlets" : 1,
									"numoutlets" : 3,
									"outlettype" : [ "", "int", "" ],
									"parameter_enable" : 0,
									"patching_rect" : [ 30.0, 480.0, 320.0, 110.0 ]
								}

							}
, 							{
								"box" : 								{
									"fontname" : "Arial",
									"fontsize" : 11.0,
									"id" : "obj-1",
									"maxclass" : "newobj",
									"numinlets" : 1,
									"numoutlets" : 3,
									"outlettype" : [ "", "", "" ],
									"patching_rect" : [ 30.0, 450.0, 246.0, 21.0 ],
									"text" : "spat5.osc.replace @initwith \"/speakers /speaker\""
								}

							}
, 							{
								"box" : 								{
									"id" : "obj-3",
									"maxclass" : "spat5.osc.view",
									"numinlets" : 1,
									"numoutlets" : 3,
									"outlettype" : [ "", "int", "" ],
									"parameter_enable" : 0,
									"patching_rect" : [ 30.0, 330.0, 320.0, 110.0 ]
								}

							}
, 							{
								"box" : 								{
									"fontname" : "Arial",
									"fontsize" : 11.0,
									"id" : "obj-17",
									"maxclass" : "newobj",
									"numinlets" : 1,
									"numoutlets" : 1,
									"outlettype" : [ "" ],
									"patching_rect" : [ 30.0, 220.0, 29.0, 21.0 ],
									"text" : "thru"
								}

							}
, 							{
								"box" : 								{
									"id" : "obj-19",
									"maxclass" : "newobj",
									"numinlets" : 1,
									"numoutlets" : 1,
									"outlettype" : [ "" ],
									"patching_rect" : [ 210.0, 178.0, 29.0, 21.0 ],
									"text" : "thru"
								}

							}
, 							{
								"box" : 								{
									"id" : "obj-20",
									"maxclass" : "message",
									"numinlets" : 2,
									"numoutlets" : 1,
									"outlettype" : [ "" ],
									"patching_rect" : [ 240.0, 128.0, 50.0, 21.0 ],
									"text" : "/stride 3"
								}

							}
, 							{
								"box" : 								{
									"id" : "obj-21",
									"maxclass" : "newobj",
									"numinlets" : 1,
									"numoutlets" : 2,
									"outlettype" : [ "", "bang" ],
									"patching_rect" : [ 210.0, 98.0, 49.0, 21.0 ],
									"text" : "t l b"
								}

							}
, 							{
								"box" : 								{
									"id" : "obj-18",
									"linecount" : 3,
									"maxclass" : "message",
									"numinlets" : 2,
									"numoutlets" : 1,
									"outlettype" : [ "" ],
									"patching_rect" : [ 210.0, 38.0, 112.0, 45.0 ],
									"presentation_linecount" : 3,
									"text" : "/speakers/aed -30 0 1 0 0 1 30 0 1 -110 0 1 110 0 1"
								}

							}
, 							{
								"box" : 								{
									"id" : "obj-12",
									"maxclass" : "newobj",
									"numinlets" : 1,
									"numoutlets" : 1,
									"outlettype" : [ "" ],
									"patching_rect" : [ 30.0, 178.0, 29.0, 21.0 ],
									"text" : "thru"
								}

							}
, 							{
								"box" : 								{
									"id" : "obj-9",
									"maxclass" : "message",
									"numinlets" : 2,
									"numoutlets" : 1,
									"outlettype" : [ "" ],
									"patching_rect" : [ 60.0, 128.0, 52.0, 21.0 ],
									"text" : "/stride 2"
								}

							}
, 							{
								"box" : 								{
									"id" : "obj-7",
									"maxclass" : "newobj",
									"numinlets" : 1,
									"numoutlets" : 2,
									"outlettype" : [ "", "bang" ],
									"patching_rect" : [ 30.0, 98.0, 49.0, 21.0 ],
									"text" : "t l b"
								}

							}
, 							{
								"box" : 								{
									"id" : "obj-4",
									"linecount" : 3,
									"maxclass" : "message",
									"numinlets" : 2,
									"numoutlets" : 1,
									"outlettype" : [ "" ],
									"patching_rect" : [ 30.0, 38.0, 164.0, 45.0 ],
									"presentation_linecount" : 3,
									"text" : "/speakers/xy -0.5 0.866026 0. 1. 0.5 0.866025 -0.939693 -0.34202 0.939693 -0.34202"
								}

							}
, 							{
								"box" : 								{
									"fontname" : "Arial",
									"fontsize" : 11.0,
									"id" : "obj-2",
									"maxclass" : "newobj",
									"numinlets" : 1,
									"numoutlets" : 2,
									"outlettype" : [ "", "" ],
									"patching_rect" : [ 30.0, 300.0, 80.0, 21.0 ],
									"text" : "spat5.osc.split"
								}

							}
 ],
						"lines" : [ 							{
								"patchline" : 								{
									"destination" : [ "obj-6", 0 ],
									"source" : [ "obj-1", 0 ]
								}

							}
, 							{
								"patchline" : 								{
									"destination" : [ "obj-17", 0 ],
									"source" : [ "obj-12", 0 ]
								}

							}
, 							{
								"patchline" : 								{
									"destination" : [ "obj-2", 0 ],
									"order" : 1,
									"source" : [ "obj-17", 0 ]
								}

							}
, 							{
								"patchline" : 								{
									"destination" : [ "obj-8", 0 ],
									"midpoints" : [ 39.5, 250.0, 129.5, 250.0 ],
									"order" : 0,
									"source" : [ "obj-17", 0 ]
								}

							}
, 							{
								"patchline" : 								{
									"destination" : [ "obj-21", 0 ],
									"source" : [ "obj-18", 0 ]
								}

							}
, 							{
								"patchline" : 								{
									"destination" : [ "obj-17", 0 ],
									"midpoints" : [ 219.5, 209.0, 39.5, 209.0 ],
									"source" : [ "obj-19", 0 ]
								}

							}
, 							{
								"patchline" : 								{
									"destination" : [ "obj-3", 0 ],
									"source" : [ "obj-2", 0 ]
								}

							}
, 							{
								"patchline" : 								{
									"destination" : [ "obj-19", 0 ],
									"source" : [ "obj-20", 0 ]
								}

							}
, 							{
								"patchline" : 								{
									"destination" : [ "obj-19", 0 ],
									"source" : [ "obj-21", 0 ]
								}

							}
, 							{
								"patchline" : 								{
									"destination" : [ "obj-20", 0 ],
									"source" : [ "obj-21", 1 ]
								}

							}
, 							{
								"patchline" : 								{
									"destination" : [ "obj-1", 0 ],
									"source" : [ "obj-3", 0 ]
								}

							}
, 							{
								"patchline" : 								{
									"destination" : [ "obj-7", 0 ],
									"source" : [ "obj-4", 0 ]
								}

							}
, 							{
								"patchline" : 								{
									"destination" : [ "obj-12", 0 ],
									"source" : [ "obj-7", 0 ]
								}

							}
, 							{
								"patchline" : 								{
									"destination" : [ "obj-9", 0 ],
									"source" : [ "obj-7", 1 ]
								}

							}
, 							{
								"patchline" : 								{
									"destination" : [ "obj-12", 0 ],
									"source" : [ "obj-9", 0 ]
								}

							}
 ],
						"originid" : "pat-27476",
						"bgcolor" : [ 0.279471418544607, 0.279471350143365, 0.279471368104493, 1.0 ],
						"editing_bgcolor" : [ 0.279471418544607, 0.279471350143365, 0.279471368104493, 1.0 ],
						"saved_attribute_attributes" : 						{
							"accentcolor" : 							{
								"expression" : "themecolor.theme_accentcolor"
							}
,
							"bubble_bgcolor" : 							{
								"expression" : "themecolor.theme_bubble_bgcolor"
							}
,
							"bubble_outlinecolor" : 							{
								"expression" : "themecolor.theme_bubble_outlinecolor"
							}
,
							"clearcolor" : 							{
								"expression" : "themecolor.theme_clearcolor"
							}
,
							"color" : 							{
								"expression" : "themecolor.theme_color"
							}
,
							"editing_bgcolor" : 							{
								"expression" : "themecolor.live_surface_bg"
							}
,
							"elementcolor" : 							{
								"expression" : "themecolor.theme_elementcolor"
							}
,
							"locked_bgcolor" : 							{
								"expression" : "themecolor.live_surface_bg"
							}
,
							"patchlinecolor" : 							{
								"expression" : "themecolor.theme_patchlinecolor"
							}
,
							"selectioncolor" : 							{
								"expression" : "themecolor.theme_selectioncolor"
							}
,
							"stripecolor" : 							{
								"expression" : "themecolor.theme_stripecolor"
							}
,
							"textcolor" : 							{
								"expression" : "themecolor.live_control_fg"
							}

						}

					}
,
					"patching_rect" : [ 50.0, 67.0, 61.0, 21.0 ],
					"saved_attribute_attributes" : 					{
						"accentcolor" : 						{
							"expression" : "themecolor.theme_accentcolor"
						}
,
						"bubble_bgcolor" : 						{
							"expression" : "themecolor.theme_bubble_bgcolor"
						}
,
						"bubble_outlinecolor" : 						{
							"expression" : "themecolor.theme_bubble_outlinecolor"
						}
,
						"clearcolor" : 						{
							"expression" : "themecolor.theme_clearcolor"
						}
,
						"color" : 						{
							"expression" : "themecolor.theme_color"
						}
,
						"editing_bgcolor" : 						{
							"expression" : "themecolor.live_surface_bg"
						}
,
						"elementcolor" : 						{
							"expression" : "themecolor.theme_elementcolor"
						}
,
						"locked_bgcolor" : 						{
							"expression" : "themecolor.live_surface_bg"
						}
,
						"patchlinecolor" : 						{
							"expression" : "themecolor.theme_patchlinecolor"
						}
,
						"selectioncolor" : 						{
							"expression" : "themecolor.theme_selectioncolor"
						}
,
						"stripecolor" : 						{
							"expression" : "themecolor.theme_stripecolor"
						}
,
						"textcolor" : 						{
							"expression" : "themecolor.live_control_fg"
						}

					}
,
					"saved_object_attributes" : 					{
						"editing_bgcolor" : [ 0.279471418544607, 0.279471350143365, 0.279471368104493, 1.0 ],
						"fontsize" : 11.0,
						"globalpatchername" : "",
						"locked_bgcolor" : [ 0.279471418544607, 0.279471350143365, 0.279471368104493, 1.0 ]
					}
,
					"text" : "p example",
					"varname" : "basic_tab[1]"
				}

			}
, 			{
				"box" : 				{
					"id" : "obj-2",
					"maxclass" : "newobj",
					"numinlets" : 1,
					"numoutlets" : 1,
					"outlettype" : [ "" ],
					"patching_rect" : [ 142.0, 200.0, 85.0, 21.0 ],
					"saved_object_attributes" : 					{
						"filename" : "spat5.style.js",
						"parameter_enable" : 0
					}
,
					"text" : "js spat5.style.js"
				}

			}
, 			{
				"box" : 				{
					"fontname" : "Arial",
					"fontsize" : 11.0,
					"id" : "obj-38",
					"maxclass" : "newobj",
					"numinlets" : 0,
					"numoutlets" : 0,
					"patcher" : 					{
						"fileversion" : 1,
						"appversion" : 						{
							"major" : 9,
							"minor" : 0,
							"revision" : 0,
							"architecture" : "x64",
							"modernui" : 1
						}
,
						"classnamespace" : "box",
						"rect" : [ 0.0, 26.0, 705.0, 686.0 ],
						"gridonopen" : 2,
						"gridsize" : [ 10.0, 10.0 ],
						"gridsnaponopen" : 2,
						"toolbarvisible" : 0,
						"toolbars_unpinned_last_save" : 15,
						"showontab" : 1,
						"boxes" : [  ],
						"lines" : [  ],
						"originid" : "pat-27486",
						"bgcolor" : [ 0.279471418544607, 0.279471350143365, 0.279471368104493, 1.0 ],
						"editing_bgcolor" : [ 0.279471418544607, 0.279471350143365, 0.279471368104493, 1.0 ],
						"saved_attribute_attributes" : 						{
							"accentcolor" : 							{
								"expression" : "themecolor.theme_accentcolor"
							}
,
							"bubble_bgcolor" : 							{
								"expression" : "themecolor.theme_bubble_bgcolor"
							}
,
							"bubble_outlinecolor" : 							{
								"expression" : "themecolor.theme_bubble_outlinecolor"
							}
,
							"clearcolor" : 							{
								"expression" : "themecolor.theme_clearcolor"
							}
,
							"color" : 							{
								"expression" : "themecolor.theme_color"
							}
,
							"editing_bgcolor" : 							{
								"expression" : "themecolor.live_surface_bg"
							}
,
							"elementcolor" : 							{
								"expression" : "themecolor.theme_elementcolor"
							}
,
							"locked_bgcolor" : 							{
								"expression" : "themecolor.live_surface_bg"
							}
,
							"patchlinecolor" : 							{
								"expression" : "themecolor.theme_patchlinecolor"
							}
,
							"selectioncolor" : 							{
								"expression" : "themecolor.theme_selectioncolor"
							}
,
							"stripecolor" : 							{
								"expression" : "themecolor.theme_stripecolor"
							}
,
							"textcolor" : 							{
								"expression" : "themecolor.live_control_fg"
							}

						}

					}
,
					"patching_rect" : [ 112.0, 150.0, 26.0, 21.0 ],
					"saved_attribute_attributes" : 					{
						"accentcolor" : 						{
							"expression" : "themecolor.theme_accentcolor"
						}
,
						"bubble_bgcolor" : 						{
							"expression" : "themecolor.theme_bubble_bgcolor"
						}
,
						"bubble_outlinecolor" : 						{
							"expression" : "themecolor.theme_bubble_outlinecolor"
						}
,
						"clearcolor" : 						{
							"expression" : "themecolor.theme_clearcolor"
						}
,
						"color" : 						{
							"expression" : "themecolor.theme_color"
						}
,
						"editing_bgcolor" : 						{
							"expression" : "themecolor.live_surface_bg"
						}
,
						"elementcolor" : 						{
							"expression" : "themecolor.theme_elementcolor"
						}
,
						"locked_bgcolor" : 						{
							"expression" : "themecolor.live_surface_bg"
						}
,
						"patchlinecolor" : 						{
							"expression" : "themecolor.theme_patchlinecolor"
						}
,
						"selectioncolor" : 						{
							"expression" : "themecolor.theme_selectioncolor"
						}
,
						"stripecolor" : 						{
							"expression" : "themecolor.theme_stripecolor"
						}
,
						"textcolor" : 						{
							"expression" : "themecolor.live_control_fg"
						}

					}
,
					"saved_object_attributes" : 					{
						"editing_bgcolor" : [ 0.279471418544607, 0.279471350143365, 0.279471368104493, 1.0 ],
						"fontsize" : 11.0,
						"globalpatchername" : "",
						"locked_bgcolor" : [ 0.279471418544607, 0.279471350143365, 0.279471368104493, 1.0 ]
					}
,
					"text" : "p ?",
					"varname" : "q_tab"
				}

			}
, 			{
				"box" : 				{
					"id" : "obj-1",
					"maxclass" : "newobj",
					"numinlets" : 0,
					"numoutlets" : 0,
					"patcher" : 					{
						"fileversion" : 1,
						"appversion" : 						{
							"major" : 9,
							"minor" : 0,
							"revision" : 0,
							"architecture" : "x64",
							"modernui" : 1
						}
,
						"classnamespace" : "box",
						"rect" : [ 100.0, 126.0, 705.0, 686.0 ],
						"bglocked" : 1,
						"gridonopen" : 2,
						"gridsize" : [ 10.0, 10.0 ],
						"gridsnaponopen" : 2,
						"toolbarvisible" : 0,
						"showontab" : 1,
						"boxes" : [ 							{
								"box" : 								{
									"bubble" : 1,
									"bubbleside" : 2,
									"id" : "obj-17",
									"linecount" : 3,
									"maxclass" : "comment",
									"numinlets" : 1,
									"numoutlets" : 0,
									"patching_rect" : [ 412.0, 390.0, 134.0, 62.0 ],
									"presentation_linecount" : 3,
									"saved_attribute_attributes" : 									{
										"bubble_bgcolor" : 										{
											"expression" : "themecolor.theme_bubble_bgcolor"
										}
,
										"bubble_outlinecolor" : 										{
											"expression" : "themecolor.theme_bubble_outlinecolor"
										}
,
										"textcolor" : 										{
											"expression" : "themecolor.live_control_fg"
										}

									}
,
									"text" : "another way to initialize the object (rather than loadbang/loadmess)",
									"textjustification" : 1
								}

							}
, 							{
								"box" : 								{
									"id" : "obj-4",
									"maxclass" : "spat5.osc.view",
									"numinlets" : 1,
									"numoutlets" : 3,
									"outlettype" : [ "", "int", "" ],
									"parameter_enable" : 0,
									"patching_rect" : [ 370.0, 480.0, 320.0, 192.0 ]
								}

							}
, 							{
								"box" : 								{
									"fontname" : "Arial",
									"fontsize" : 11.0,
									"id" : "obj-9",
									"maxclass" : "newobj",
									"numinlets" : 1,
									"numoutlets" : 2,
									"outlettype" : [ "", "" ],
									"patching_rect" : [ 370.0, 450.0, 176.0, 21.0 ],
									"text" : "spat5.osc.split @initwith \"/stride 3\""
								}

							}
, 							{
								"box" : 								{
									"bubble" : 1,
									"id" : "obj-12",
									"maxclass" : "comment",
									"numinlets" : 1,
									"numoutlets" : 0,
									"patching_rect" : [ 239.0, 338.0, 237.0, 23.0 ],
									"saved_attribute_attributes" : 									{
										"bubble_bgcolor" : 										{
											"expression" : "themecolor.theme_bubble_bgcolor"
										}
,
										"bubble_outlinecolor" : 										{
											"expression" : "themecolor.theme_bubble_outlinecolor"
										}
,
										"textcolor" : 										{
											"expression" : "themecolor.live_control_fg"
										}

									}
,
									"text" : "split the list of arguments, every 3 elements"
								}

							}
, 							{
								"box" : 								{
									"bgcolor" : [ 1.0, 1.0, 1.0, 0.0 ],
									"bgmode" : 0,
									"border" : 0,
									"clickthrough" : 0,
									"enablehscroll" : 0,
									"enablevscroll" : 0,
									"id" : "obj-7",
									"lockeddragscroll" : 0,
									"lockedsize" : 0,
									"maxclass" : "bpatcher",
									"name" : "spat5.copyright.maxpat",
									"numinlets" : 0,
									"numoutlets" : 0,
									"offset" : [ 0.0, 0.0 ],
									"patching_rect" : [ 460.0, 10.0, 239.0, 70.0 ],
									"viewvisibility" : 1
								}

							}
, 							{
								"box" : 								{
									"id" : "obj-3",
									"maxclass" : "spat5.osc.view",
									"numinlets" : 1,
									"numoutlets" : 3,
									"outlettype" : [ "", "int", "" ],
									"parameter_enable" : 0,
									"patching_rect" : [ 20.0, 480.0, 320.0, 192.0 ]
								}

							}
, 							{
								"box" : 								{
									"id" : "obj-24",
									"maxclass" : "message",
									"numinlets" : 2,
									"numoutlets" : 1,
									"outlettype" : [ "" ],
									"patching_rect" : [ 150.0, 300.0, 176.0, 21.0 ],
									"text" : "/stride 3, /anything a b c d e f g h i"
								}

							}
, 							{
								"box" : 								{
									"id" : "obj-13",
									"maxclass" : "message",
									"numinlets" : 2,
									"numoutlets" : 1,
									"outlettype" : [ "" ],
									"patching_rect" : [ 104.0, 240.0, 176.0, 21.0 ],
									"text" : "/stride 1, /anything a b c d e f g h i"
								}

							}
, 							{
								"box" : 								{
									"id" : "obj-8",
									"maxclass" : "message",
									"numinlets" : 2,
									"numoutlets" : 1,
									"outlettype" : [ "" ],
									"patching_rect" : [ 130.0, 270.0, 176.0, 21.0 ],
									"text" : "/stride 2, /anything a b c d e f g h i"
								}

							}
, 							{
								"box" : 								{
									"id" : "obj-23",
									"maxclass" : "message",
									"numinlets" : 2,
									"numoutlets" : 1,
									"outlettype" : [ "" ],
									"patching_rect" : [ 80.0, 210.0, 38.0, 21.0 ],
									"text" : "/nada"
								}

							}
, 							{
								"box" : 								{
									"fontname" : "Arial",
									"fontsize" : 11.0,
									"id" : "obj-22",
									"maxclass" : "newobj",
									"numinlets" : 1,
									"numoutlets" : 2,
									"outlettype" : [ "", "" ],
									"patching_rect" : [ 20.0, 450.0, 80.0, 21.0 ],
									"text" : "spat5.osc.split"
								}

							}
, 							{
								"box" : 								{
									"id" : "obj-10",
									"maxclass" : "message",
									"numinlets" : 2,
									"numoutlets" : 1,
									"outlettype" : [ "" ],
									"patching_rect" : [ 70.0, 180.0, 130.0, 21.0 ],
									"text" : "/anything a b c d e f g h i"
								}

							}
, 							{
								"box" : 								{
									"id" : "obj-16",
									"maxclass" : "newobj",
									"numinlets" : 1,
									"numoutlets" : 1,
									"outlettype" : [ "bang" ],
									"patching_rect" : [ 20.0, 90.0, 56.0, 21.0 ],
									"text" : "loadbang"
								}

							}
, 							{
								"box" : 								{
									"id" : "obj-15",
									"maxclass" : "newobj",
									"numinlets" : 1,
									"numoutlets" : 1,
									"outlettype" : [ "" ],
									"patching_rect" : [ 170.0, 338.0, 67.0, 21.0 ],
									"text" : "loadmess 3"
								}

							}
, 							{
								"box" : 								{
									"id" : "obj-14",
									"maxclass" : "number",
									"numinlets" : 1,
									"numoutlets" : 2,
									"outlettype" : [ "", "bang" ],
									"parameter_enable" : 0,
									"patching_rect" : [ 170.0, 368.0, 50.0, 21.0 ]
								}

							}
, 							{
								"box" : 								{
									"id" : "obj-11",
									"maxclass" : "message",
									"numinlets" : 2,
									"numoutlets" : 1,
									"outlettype" : [ "" ],
									"patching_rect" : [ 40.0, 150.0, 429.0, 21.0 ],
									"text" : "/speakers/xy -0.5 0.866026 0. 1. 0.5 0.866025 -0.939693 -0.34202 0.939693 -0.34202"
								}

							}
, 							{
								"box" : 								{
									"id" : "obj-6",
									"maxclass" : "message",
									"numinlets" : 2,
									"numoutlets" : 1,
									"outlettype" : [ "" ],
									"patching_rect" : [ 170.0, 398.0, 58.0, 21.0 ],
									"text" : "/stride $1"
								}

							}
, 							{
								"box" : 								{
									"id" : "obj-5",
									"maxclass" : "message",
									"numinlets" : 2,
									"numoutlets" : 1,
									"outlettype" : [ "" ],
									"patching_rect" : [ 20.0, 120.0, 260.0, 21.0 ],
									"text" : "/speakers/aed -30 0 1 0 0 1 30 0 1 -110 0 1 110 0 1"
								}

							}
, 							{
								"box" : 								{
									"fontname" : "Arial",
									"fontsize" : 11.0,
									"id" : "obj-33",
									"maxclass" : "newobj",
									"numinlets" : 1,
									"numoutlets" : 1,
									"outlettype" : [ "" ],
									"patching_rect" : [ 20.0, 350.0, 29.0, 21.0 ],
									"text" : "thru"
								}

							}
, 							{
								"box" : 								{
									"background" : 1,
									"border" : 0,
									"filename" : "spat5.helpdetails.js",
									"id" : "obj-2",
									"ignoreclick" : 1,
									"jsarguments" : [ "spat5.osc.split" ],
									"maxclass" : "jsui",
									"numinlets" : 1,
									"numoutlets" : 1,
									"outlettype" : [ "" ],
									"parameter_enable" : 0,
									"patching_rect" : [ 10.0, 10.0, 600.0, 100.0 ],
									"varname" : "digest_jsui"
								}

							}
 ],
						"lines" : [ 							{
								"patchline" : 								{
									"destination" : [ "obj-33", 0 ],
									"source" : [ "obj-10", 0 ]
								}

							}
, 							{
								"patchline" : 								{
									"destination" : [ "obj-33", 0 ],
									"source" : [ "obj-11", 0 ]
								}

							}
, 							{
								"patchline" : 								{
									"destination" : [ "obj-33", 0 ],
									"source" : [ "obj-13", 0 ]
								}

							}
, 							{
								"patchline" : 								{
									"destination" : [ "obj-6", 0 ],
									"source" : [ "obj-14", 0 ]
								}

							}
, 							{
								"patchline" : 								{
									"destination" : [ "obj-14", 0 ],
									"source" : [ "obj-15", 0 ]
								}

							}
, 							{
								"patchline" : 								{
									"destination" : [ "obj-5", 0 ],
									"source" : [ "obj-16", 0 ]
								}

							}
, 							{
								"patchline" : 								{
									"destination" : [ "obj-3", 0 ],
									"source" : [ "obj-22", 0 ]
								}

							}
, 							{
								"patchline" : 								{
									"destination" : [ "obj-33", 0 ],
									"source" : [ "obj-23", 0 ]
								}

							}
, 							{
								"patchline" : 								{
									"destination" : [ "obj-33", 0 ],
									"source" : [ "obj-24", 0 ]
								}

							}
, 							{
								"patchline" : 								{
									"destination" : [ "obj-22", 0 ],
									"order" : 1,
									"source" : [ "obj-33", 0 ]
								}

							}
, 							{
								"patchline" : 								{
									"destination" : [ "obj-9", 0 ],
									"midpoints" : [ 29.5, 425.0, 379.5, 425.0 ],
									"order" : 0,
									"source" : [ "obj-33", 0 ]
								}

							}
, 							{
								"patchline" : 								{
									"destination" : [ "obj-33", 0 ],
									"source" : [ "obj-5", 0 ]
								}

							}
, 							{
								"patchline" : 								{
									"destination" : [ "obj-22", 0 ],
									"midpoints" : [ 179.5, 434.0, 29.5, 434.0 ],
									"source" : [ "obj-6", 0 ]
								}

							}
, 							{
								"patchline" : 								{
									"destination" : [ "obj-33", 0 ],
									"source" : [ "obj-8", 0 ]
								}

							}
, 							{
								"patchline" : 								{
									"destination" : [ "obj-4", 0 ],
									"source" : [ "obj-9", 0 ]
								}

							}
 ],
						"originid" : "pat-27488",
						"bgcolor" : [ 0.279471418544607, 0.279471350143365, 0.279471368104493, 1.0 ],
						"editing_bgcolor" : [ 0.279471418544607, 0.279471350143365, 0.279471368104493, 1.0 ],
						"saved_attribute_attributes" : 						{
							"accentcolor" : 							{
								"expression" : "themecolor.theme_accentcolor"
							}
,
							"bubble_bgcolor" : 							{
								"expression" : "themecolor.theme_bubble_bgcolor"
							}
,
							"bubble_outlinecolor" : 							{
								"expression" : "themecolor.theme_bubble_outlinecolor"
							}
,
							"clearcolor" : 							{
								"expression" : "themecolor.theme_clearcolor"
							}
,
							"color" : 							{
								"expression" : "themecolor.theme_color"
							}
,
							"editing_bgcolor" : 							{
								"expression" : "themecolor.live_surface_bg"
							}
,
							"elementcolor" : 							{
								"expression" : "themecolor.theme_elementcolor"
							}
,
							"locked_bgcolor" : 							{
								"expression" : "themecolor.live_surface_bg"
							}
,
							"patchlinecolor" : 							{
								"expression" : "themecolor.theme_patchlinecolor"
							}
,
							"selectioncolor" : 							{
								"expression" : "themecolor.theme_selectioncolor"
							}
,
							"stripecolor" : 							{
								"expression" : "themecolor.theme_stripecolor"
							}
,
							"textcolor" : 							{
								"expression" : "themecolor.live_control_fg"
							}

						}

					}
,
					"patching_rect" : [ 20.0, 20.0, 45.0, 21.0 ],
					"saved_attribute_attributes" : 					{
						"accentcolor" : 						{
							"expression" : "themecolor.theme_accentcolor"
						}
,
						"bubble_bgcolor" : 						{
							"expression" : "themecolor.theme_bubble_bgcolor"
						}
,
						"bubble_outlinecolor" : 						{
							"expression" : "themecolor.theme_bubble_outlinecolor"
						}
,
						"clearcolor" : 						{
							"expression" : "themecolor.theme_clearcolor"
						}
,
						"color" : 						{
							"expression" : "themecolor.theme_color"
						}
,
						"editing_bgcolor" : 						{
							"expression" : "themecolor.live_surface_bg"
						}
,
						"elementcolor" : 						{
							"expression" : "themecolor.theme_elementcolor"
						}
,
						"locked_bgcolor" : 						{
							"expression" : "themecolor.live_surface_bg"
						}
,
						"patchlinecolor" : 						{
							"expression" : "themecolor.theme_patchlinecolor"
						}
,
						"selectioncolor" : 						{
							"expression" : "themecolor.theme_selectioncolor"
						}
,
						"stripecolor" : 						{
							"expression" : "themecolor.theme_stripecolor"
						}
,
						"textcolor" : 						{
							"expression" : "themecolor.live_control_fg"
						}

					}
,
					"saved_object_attributes" : 					{
						"editing_bgcolor" : [ 0.279471418544607, 0.279471350143365, 0.279471368104493, 1.0 ],
						"fontsize" : 11.0,
						"globalpatchername" : "",
						"locked_bgcolor" : [ 0.279471418544607, 0.279471350143365, 0.279471368104493, 1.0 ]
					}
,
					"text" : "p basic",
					"varname" : "basic_tab"
				}

			}
 ],
		"lines" : [  ],
		"originid" : "pat-27466",
		"dependency_cache" : [ 			{
				"name" : "ircam-cnrs-spat-alpha.png",
				"bootpath" : "~/gitlab/spat/Spat5MaxMsp/media/images",
				"patcherrelativepath" : "../media/images",
				"type" : "PNG",
				"implicit" : 1
			}
, 			{
				"name" : "spat5.copyright.maxpat",
				"bootpath" : "~/gitlab/spat/Spat5MaxMsp/patchers",
				"patcherrelativepath" : "../patchers",
				"type" : "JSON",
				"implicit" : 1
			}
, 			{
				"name" : "spat5.frequencyresponse.embedded.mxo",
				"type" : "iLaX"
			}
, 			{
				"name" : "spat5.helpdetails.js",
				"bootpath" : "~/gitlab/spat/Spat5MaxMsp/javascript",
				"patcherrelativepath" : "../javascript",
				"type" : "TEXT",
				"implicit" : 1
			}
, 			{
				"name" : "spat5.osc.prepend.mxo",
				"type" : "iLaX"
			}
, 			{
				"name" : "spat5.osc.replace.mxo",
				"type" : "iLaX"
			}
, 			{
				"name" : "spat5.osc.route.mxo",
				"type" : "iLaX"
			}
, 			{
				"name" : "spat5.osc.split.mxo",
				"type" : "iLaX"
			}
, 			{
				"name" : "spat5.osc.view.mxo",
				"type" : "iLaX"
			}
, 			{
				"name" : "spat5.style.js",
				"bootpath" : "~/gitlab/spat/Spat5MaxMsp/javascript",
				"patcherrelativepath" : "../javascript",
				"type" : "TEXT",
				"implicit" : 1
			}
, 			{
				"name" : "thru.maxpat",
				"bootpath" : "C74:/patchers/m4l/Pluggo for Live resources/patches",
				"type" : "JSON",
				"implicit" : 1
			}
 ],
		"autosave" : 0,
		"styles" : [ 			{
				"name" : "AudioStatus_Menu",
				"default" : 				{
					"bgfillcolor" : 					{
						"angle" : 270.0,
						"autogradient" : 0,
						"color" : [ 0.294118, 0.313726, 0.337255, 1 ],
						"color1" : [ 0.454902, 0.462745, 0.482353, 0.0 ],
						"color2" : [ 0.290196, 0.309804, 0.301961, 1.0 ],
						"proportion" : 0.39,
						"type" : "color"
					}

				}
,
				"parentstyle" : "",
				"multi" : 0
			}
, 			{
				"name" : "Default 11Bold Poletti",
				"default" : 				{
					"fontsize" : [ 11.0 ]
				}
,
				"parentstyle" : "",
				"multi" : 0
			}
, 			{
				"name" : "Default M4L",
				"default" : 				{
					"fontname" : [ "Arial Bold" ],
					"fontsize" : [ 11.0 ],
					"patchlinecolor" : [ 0.290196, 0.309804, 0.301961, 0.85 ]
				}
,
				"parentstyle" : "",
				"multi" : 0
			}
, 			{
				"name" : "Default M4L Poletti",
				"default" : 				{
					"fontname" : [ "Arial Bold" ],
					"fontsize" : [ 10.0 ],
					"patchlinecolor" : [ 0.290196, 0.309804, 0.301961, 0.85 ]
				}
,
				"parentstyle" : "",
				"multi" : 0
			}
, 			{
				"name" : "Default M4L-1",
				"default" : 				{
					"bgfillcolor" : 					{
						"angle" : 270.0,
						"color" : [ 0.290196, 0.309804, 0.301961, 1.0 ],
						"color1" : [ 0.376471, 0.384314, 0.4, 1.0 ],
						"color2" : [ 0.290196, 0.309804, 0.301961, 1.0 ],
						"proportion" : 0.39,
						"type" : "gradient"
					}
,
					"fontface" : [ 1 ],
					"fontname" : [ "Arial" ],
					"fontsize" : [ 11.0 ]
				}
,
				"parentstyle" : "",
				"multi" : 0
			}
, 			{
				"name" : "Default Max7 Poletti",
				"default" : 				{
					"bgfillcolor" : 					{
						"angle" : 270.0,
						"color" : [ 0.290196, 0.309804, 0.301961, 1.0 ],
						"color1" : [ 0.376471, 0.384314, 0.4, 1.0 ],
						"color2" : [ 0.290196, 0.309804, 0.301961, 1.0 ],
						"proportion" : 0.39,
						"type" : "gradient"
					}

				}
,
				"parentstyle" : "",
				"multi" : 0
			}
, 			{
				"name" : "jbb",
				"default" : 				{
					"bgfillcolor" : 					{
						"angle" : 270.0,
						"color" : [ 0.290196, 0.309804, 0.301961, 1.0 ],
						"color1" : [ 0.376471, 0.384314, 0.4, 1.0 ],
						"color2" : [ 0.290196, 0.309804, 0.301961, 1.0 ],
						"proportion" : 0.39,
						"type" : "gradient"
					}
,
					"fontname" : [ "Arial" ],
					"fontsize" : [ 9.0 ]
				}
,
				"parentstyle" : "",
				"multi" : 0
			}
, 			{
				"name" : "ksliderWhite",
				"default" : 				{
					"color" : [ 1.0, 1.0, 1.0, 1.0 ]
				}
,
				"parentstyle" : "",
				"multi" : 0
			}
, 			{
				"name" : "newobjBlue-1",
				"default" : 				{
					"accentcolor" : [ 0.317647, 0.654902, 0.976471, 1.0 ]
				}
,
				"parentstyle" : "",
				"multi" : 0
			}
, 			{
				"name" : "newobjGreen-1",
				"default" : 				{
					"accentcolor" : [ 0.0, 0.533333, 0.168627, 1.0 ]
				}
,
				"parentstyle" : "",
				"multi" : 0
			}
, 			{
				"name" : "numberGold-1",
				"default" : 				{
					"accentcolor" : [ 0.764706, 0.592157, 0.101961, 1.0 ]
				}
,
				"parentstyle" : "",
				"multi" : 0
			}
 ],
		"bgcolor" : [ 0.279471418544607, 0.279471350143365, 0.279471368104493, 1.0 ],
		"editing_bgcolor" : [ 0.279471418544607, 0.279471350143365, 0.279471368104493, 1.0 ],
		"saved_attribute_attributes" : 		{
			"accentcolor" : 			{
				"expression" : "themecolor.theme_accentcolor"
			}
,
			"bubble_bgcolor" : 			{
				"expression" : "themecolor.theme_bubble_bgcolor"
			}
,
			"bubble_outlinecolor" : 			{
				"expression" : "themecolor.theme_bubble_outlinecolor"
			}
,
			"clearcolor" : 			{
				"expression" : "themecolor.theme_clearcolor"
			}
,
			"color" : 			{
				"expression" : "themecolor.theme_color"
			}
,
			"editing_bgcolor" : 			{
				"expression" : "themecolor.live_surface_bg"
			}
,
			"elementcolor" : 			{
				"expression" : "themecolor.theme_elementcolor"
			}
,
			"locked_bgcolor" : 			{
				"expression" : "themecolor.live_surface_bg"
			}
,
			"patchlinecolor" : 			{
				"expression" : "themecolor.theme_patchlinecolor"
			}
,
			"selectioncolor" : 			{
				"expression" : "themecolor.theme_selectioncolor"
			}
,
			"stripecolor" : 			{
				"expression" : "themecolor.theme_stripecolor"
			}
,
			"textcolor" : 			{
				"expression" : "themecolor.live_control_fg"
			}

		}

	}

}
